<?xml version="1.0" encoding="UTF-8"?>
<svg id="Layer_2" data-name="Layer 2" xmlns="http://www.w3.org/2000/svg" viewBox="0 0 403.86 518.95">
  <defs>
    <style>
      .cls-1 {
        fill: #6298c7;
      }

      .cls-1, .cls-2, .cls-3, .cls-4, .cls-5, .cls-6, .cls-7, .cls-8, .cls-9 {
        stroke-width: 0px;
      }

      .cls-2 {
        fill: #6bcaaa;
      }

      .cls-3 {
        fill: #1e4684;
      }

      .cls-4 {
        fill: #c6a2c8;
      }

      .cls-5 {
        fill: #69defc;
      }

      .cls-6 {
        fill: #fff;
      }

      .cls-7 {
        fill: #fbf92a;
      }

      .cls-8 {
        fill: #fe2631;
      }

      .cls-9 {
        fill: #010101;
      }
    </style>
  </defs>
  <g id="katman_1" data-name="katman 1">
    <g>
      <path class="cls-9" d="m235.85,10.04l3.76-.53c1.02-.15,1.97.56,2.11,1.59.02.16.02.31,0,.47-.89,7.67-4.99,15.49-9.17,21.76-.25.36-.25.83,0,1.2l11.96,18.36.11,4.06c0,.27-.15.51-.4.62-2.08.83-4.23,1.05-6.44.67-.39-.07-.51.08-.35.44,3.33,7.72,5.57,12.74,6.72,15.08s.73,4.06-1.25,5.17c-.24.13-.31.32-.21.58l7.16,18.29c.13.33.36.42.67.25l1.13-.58c.29-.15.59-.17.9-.06.8.28,1.33.85,1.59,1.71,1.34,4.52,3.43,8.51,6.3,11.96,1.41,1.71,2.31,3.12,2.68,4.24,1.73,5.11.87,12.71-4.11,16.01-.24.15-.32.37-.26.64.19.8.5,1.45.93,1.94l.77,1.82,3.87,8.59c.54,1.53.66,2.95.37,4.25-.07.29-.25.41-.54.34l-2.45-.54c-.16-.04-.32.06-.36.23-.02.07,0,.15.02.21l6.2,11.87c.15.29.04.64-.25.78-.05.02-.11.04-.17.06l-5.41.93c-.18.03-.31.21-.28.39,0,.04.02.09.05.12,5.58,9.41,10.79,19.02,15.63,28.83.15.32.31.31.45,0,5.82-12.96,9.13-26.43,9.92-40.44l-.21-2.01-.54-5.47-1.77-8.63-.8-3.16c-1.47-4.36-3.79-10.33-6.96-17.93-3.22-7.72-4.88-16.2-4.97-25.43-.03-3.06.37-5.64,1.2-7.75,3.6-9.19,18.66-3.51,24.94.12,20.76,11.96,36.15,34.85,35.57,59.38-.21,10.13-1.43,19.71-3.65,28.75-1.37,5.58-13.45,3.99-16.35,8.49-.15.24-.18.53-.09.79,2.08,5.54,10.04,7.42,3.14,14.94-9.59,10.46-20.16,18.45-31.73,23.97-1.36.65-1.99,2.24-2.15,3.83-1.7,17.58-11.31,28.18-24.28,39.02-.45.24-.79.55-1,.92-.1.17-.04.4.13.5.04.02.07.04.12.04,3.93.82,7.86,1.6,11.82,2.33,7.04,1.3,11.82.53,17.39-3.38,7.23-3.97,14.69-11.48,23.86-7.06.18.09.41.02.5-.17.02-.05.04-.1.04-.15.19-3.6-.74-6.12,3.44-7.77,2.28-.9,4.41-2.09,6.37-3.56,1.25-.94,2.51-1.55,3.89-.93.6.27.9.95.7,1.58l-1.48,4.6c-.07.19.04.4.23.47.13.04.26.01.36-.07,3.38-2.94,6.84-7.49,11.85-5.32.26.12.58.05.77-.17l1.18-1.27c.16-.18.44-.19.61-.03,0,0,.01.01.02.02.83.84,1.69,1.78,1.73,3.05.13,3.46-.07,6.91-.58,10.35-.03.24-.15.47-.34.63l-4.45,3.87c-.19.17-.21.45-.05.65.13.15.35.2.53.12,2.75-1.17,6.25-2.97,8.5.12.15.21.45.26.66.1.06-.04.1-.09.13-.15l2.34-4.14c.18-.32.58-.44.89-.26.04.02.07.04.1.07,1.89,1.6,2.14,3.74.75,6.44-1.5,4.57-1.22,10.91-7.4,11.55-.18.02-.32.18-.3.36,0,.05.02.1.05.14l2.11,3.28c.17.26.4.36.71.28,1.15-.27,2.13-.05,2.95.67.6.54.65,1.46.11,2.06-.12.13-.27.25-.44.33-1.42.7-2.84,1.41-4.28,2.12-3.46,1.71-5.33,4.44-10.13,3.41-2.1-.45-4.05-2.15-6.05-3.29-.25-.14-.54-.19-.82-.14-1.5.25-2.81.82-3.93,1.73-7.67,6.24-22.73,15.33-32.8,11.64-9.97-3.65-20.6-7.4-31.38-6.93-.31.02-.42.17-.33.46.97,3.31,1.8,6.2,5.2,7.16,3.76,1.05,11.15,3.31,22.19,6.77,2.67.83,6.16,1.6,8.01,3.47,1.53,1.55,4,5.2,7.39,10.93,1.48,2.51,2.1,4.41,1.61,7.15-.45,2.58-3.56,2.03-5.24,1.4-.15-.06-.32.01-.38.17-.03.07-.03.16,0,.23,5.05,11.15,11.64,20.95,17.95,31.31,2.07,3.39,4.81,7.28,3.42,10.96-.1.26-.29.39-.58.4-3.46.07-4.5-1.65-7.24-3.23-.13-.07-.3-.02-.37.11-.06.1-.04.22.04.31l2.8,2.95c.18.2.31.44.37.7l.36,1.62.49,2.06c1.73,4.03,4.46,7.85,6.24,11.42,1.3,2.62,2.68,5.2,4.14,7.76.91,1.6.51,2.87-1.2,3.82-.2.11-.31.34-.26.57.88,4.16,4.08,4.19,5.98,7.23,2.02,3.22,4.39,6.16,7.12,8.81,1.76,1.72,2.91,3.17,3.46,4.37,2.29,4.99,2.59,13.35-3.73,15.9-.31.12-.39.33-.23.63l9.68,17.91c.13.24.42.33.66.2.04-.02.07-.04.1-.07,17.76-16.16,45.54-11.19,55.18,11.36,5.27,12.34,2.76,26.61-6.32,36.47-7.01,7.6-19.78,13.15-30.71,10.12-4.83-1.34-10.4-.02-14.34-.37-5.24-.48-10.51-.86-15.81-1.13-.35-.02-.47.14-.37.48l.8,2.57c.07.23,0,.48-.18.63-1.32,1.12-2.67,1.69-4.05,1.69-10.95,0-21.9.01-32.86.05-2.77,0-5.17,3.48-7.61,3.4-12.42-.42-24.85-.79-37.28-1.11-3.02-.09-5.5.81-8.38,1.52-2.07.51-4.19.77-6.36.79-9.59.09-19.16.12-28.73.1-10.75.04-21.5.01-32.26-.1-3.98-.03-6.85-2.35-10.67-2.54-1.12-.06-2.24-.06-3.35,0-11.82.59-23.63,1.08-35.46,1.48-3.97.13-5.5-3.48-9.38-3.51-10.99-.07-21.98-.1-32.96-.09-1.18,0-2.43-.63-3.77-1.89-.21-.21-.26-.44-.12-.71l1.14-2.22c.18-.34.07-.51-.32-.49-10.15.36-16.77.8-19.88,1.34-2.19.37-5.68-.78-4.52-3.33,1.68-3.71,1.73-7.12.17-10.2l-.32-1.25-12.38-40.94-.62-2.03-2.18-7.18-.62-2.22-5.27-17.5c-.05-.18-.24-.28-.42-.23-.09.02-.16.09-.2.17-.53,1.07-.61,3.03-.86,3.79-3.1,9.17-13.77,11.32-21.67,6.89-7.91-4.45-12.21-11.26-12.88-20.45-1.08-14.66,2.96-26.14,18.36-30.06,8.52-2.35,18.83-2.03,26.05,3.23,7.07,5.15,9.76,12.94,12.68,21.45,3.87,11.28,7.71,22.5,11.52,33.68l.48,1.18,1.42,4.09c.15.43.32.44.53.04l2.08-4.06.81-1.39,6.58-12.21c.15-.28.07-.45-.23-.53-2.33-.61-4.46-1.62-3.05-4.5,4.77-9.63,9.59-19.24,14.48-28.86.13-.26.09-.48-.12-.67-1.93-1.8-2.32-3.87-1.17-6.19l1.04-2.28,3.92-6.29,4.5-8.78,1.11-2.18,1.27-2.22c.17-.31.06-.7-.25-.87-.13-.07-.28-.1-.42-.07l-4.65.89c-.23.04-.36-.05-.41-.28-.45-2.34-.31-4.11.41-5.3,9.48-15.63,15.19-24.64,21.01-37.32.15-.31.05-.45-.29-.4l-4.06.48c-.22.03-.35-.07-.39-.29-.36-2.29-.28-4.02.24-5.2,1.29-2.94,3.97-7.51,8.02-13.72,1.1-1.68,2.78-2.98,5.04-3.92,14.35-5.91,26.19-8.16,42.6-10.81,6.1-.99,11.99-9.19,12.14-15.14,0-.27-.12-.44-.39-.51-11.5-2.8-21.81-7.67-30.93-14.6l-1.85-1.77c-6.22-4.9-10.42-11.03-12.59-18.39-.2-.66-.78-1.05-1.75-1.2-6.82-1.04-14.15-2.43-20.44-4.67-18.07-6.45-32.1-18.05-42.09-34.81-2.22-3.73-4.92-9.77-8.08-18.14-3.19-8.42-4.06-17.1-2.59-26.03.09-.55.61-1,1.53-1.34,4.6-1.7,10.49-2.77,13.86-6.48.2-.21.17-.39-.1-.53-3.38-1.7-6.77-3.28-10.18-4.74-1.99-.85-2.68-1.9-1.89-3.95,2.71-7.02,5.17-13.25,9.35-19.02,5.56-7.69,13.21-14.97,22.36-17.48,5.47-1.5,8.15,2.28,10.05,7.01,5.04,12.56,4.18,24.46,3.03,37.74-.61,7-.83,11.91-.67,14.74,1.08,20.18,12.25,36.25,24.09,51.52.15.2.44.24.64.08.09-.07.16-.18.17-.3,1.15-8,2.4-15.82,3.74-23.46,1.61-9.2,5.18-17.83,13.02-23.33,4.72-3.31,9.43-6.55,14.13-9.74.31-.21.28-.36-.07-.46l-23.8-6.81-4.66-1.24,8.87-11.38c.28-.36.19-.56-.27-.58l-1.5-.11c-.29-.02-.49-.17-.59-.44-.43-1.17-.43-2.07,0-2.67,6.73-9.56,13.44-19.14,20.12-28.73.25-.35.15-.57-.27-.66-1.2-.26-2.19-.86-2.98-1.82-.18-.22-.23-.51-.15-.78.33-1.04.94-2.25,1.83-3.63,5.41-8.45,10.85-16.87,16.32-25.27.15-.25.13-.47-.07-.67-1.59-1.62-1.62-3.44-.1-5.48,1.79-2.41,5.67-7.94,11.63-16.61.18-.26.12-.43-.18-.51-6.97-1.96-13.08-3.69-17.87-7.42-.73-.57-.86-1.62-.29-2.35.08-.1.17-.18.26-.26l2.71-2.19,3.39-2.63c4.03-2.76,8.41-5.77,13.14-9.01,1.41-.97,1.94-2.98,1.94-4.82.02-3.49.2-8.78.53-15.87.09-1.88.53-3.44,1.32-4.71.15-.23.38-.39.65-.45,2.08-.44,3.68-.21,4.78.65,4.34,3.43,9.16,7.58,14.46,12.47.92.85,2.07,1.12,3.46.83,6.48-1.35,12.94-2.72,19.38-4.11h.04Zm-42.36,15.63c-.98,2.01-2,3.28-3.07,3.82-6.19,3.13-11.93,7.02-17.2,11.66-.24.21-.21.37.09.49,3.4,1.41,6.85,2.67,10.35,3.79,2.47.78,7.64,1.17,9.63,2.63,2.02,1.48,3.17,2.92,3.44,4.33,1.35,6.82,3.06,13.66,5.13,20.49.04.13.19.21.32.17.05-.02.09-.05.12-.09,4.06-5.6,8.33-11.06,12.82-16.38,1.13-1.34,3.19-3.06,4.71-2.97,7.39.47,14.71,1.12,21.97,1.96.22.02.42-.13.45-.35.01-.09,0-.17-.06-.25-3.32-5.77-6.9-11.39-10.74-16.88-1.73-2.49-2.62-4.41-1.11-7.07,3.03-5.35,7.43-12.58,8.15-18.1.04-.32-.19-.62-.51-.66-.07,0-.13,0-.2.01-7.2,1.67-14.25,3.4-21.16,5.17-1.73.44-3.25.23-4.5-.91-5.31-4.79-10.76-9.5-16.36-14.11-.21-.18-.53-.15-.7.07-.06.07-.1.17-.11.27-.35,3.51-.6,7.07-.74,10.68-.15,3.65,1.16,8.45-.69,12.25h0Zm-11.6,42.31c.71.51.9,1.49.42,2.22l-19.15,30.09c-.1.16-.05.37.12.47.07.04.14.06.22.05,2.22-.3,4.07,1.43,2.68,3.69-1.97,3.21-3.98,6.42-6.03,9.66-.17.26-.09.4.21.41,29.77.99,59.25-2.65,85.99-14.73.42-.19.54-.5.37-.92-2.82-7.28-5.62-14.64-8.4-22.09-.65-1.75-.39-2.96,1.25-3.82.31-.16.4-.4.27-.72l-5.69-13.29c-.48-1.13-1.57-1.88-2.79-1.94-2.87-.13-5.88-.39-9.03-.79-2.47-.31-4.38.51-5.74,2.48-2.4,3.44-10.87,16.43-14.67,16.83-.28.03-.53-.05-.74-.24-1.33-1.2-2.25-2.6-2.75-4.23-1.96-6.28-3.62-12.99-5.01-20.16-.07-.39-.29-.61-.66-.65-.19-.02-.37.06-.48.21l-11.42,16.12c-.19.27-.15.5.12.69l.93.67h0Zm134.85,118.38c-3.6-3.3-10.31-10.03-1.24-13.07,3.19-1.07,6.42-2.01,9.7-2.83,1.48-.37,2.38-1.07,2.68-2.52,1.86-8.59,3.03-17.28,3.51-26.05.21-3.87-.07-7.69-.86-11.46-4.65-22.49-17.14-38.91-37.48-49.26-4.17-2.12-18.08-6.68-17.77,3.02.18,5.52.09,11.66,1.09,16.73,1.82,9.21,6.35,18.69,10.53,27.06,3.02,6.06,5.59,12.3,7.73,18.71,1.07,3.22,1.89,7.88,2.47,13.97,1.24,13.32.21,26.53-3.11,39.63-.07.27.09.54.36.61.11.03.22.02.32-.02,8.05-3.5,15.4-8.11,22.06-13.83.19-.16.21-.45.04-.64-.01-.01-.02-.02-.03-.04h0Zm-162.74-58.14c.38-.08.75.17.83.55.04.2,0,.41-.13.57l-13.47,17.55c-.15.19-.12.46.07.61.04.03.09.06.14.07,39.26,12.8,79.93,17.85,120.93,11.45.23-.03.38-.24.35-.47,0-.04-.02-.09-.04-.12l-9.38-19.54c-.17-.36-.01-.8.35-.96.18-.09.38-.09.56-.02l4.04,1.59c.06.02.13-.01.15-.07,0-.02.01-.06,0-.09-2.1-5.41-4.57-10.22-8.62-14.49-3.82-4.03-3.65-7.57-3.25-12.77.18-2.38-.22-4.78-1.22-7.19-.15-.38-.58-.58-.97-.45l-25.54,8.38c-.3.09-.42.3-.34.61.67,2.93,1.73,5.68,3.17,8.26,1.65,2.95,2.6,4.84,2.86,5.69,1.59,5.38.48,10.37-3.36,14.96-.79.96-2.5,1-3.62.37-5.48-3.05-8.48-7.78-8.99-14.18-.21-2.76.63-5.61.56-8.13-.04-1.31-.15-2.59-.32-3.84-.15-1.03-1.08-1.76-2.11-1.65l-29.33,3.03c-.35.04-.59.22-.72.55-1.47,3.72-1.77,6.05-1.78,10.65,0,6.81-2.97,11.87-8.9,15.17-2.08,1.16-5.09,1.89-6.37-.53-2.86-5.42-2.9-10.85-.12-16.31,1.52-2.98,4.8-5.65,6.83-8.92.1-.16.05-.36-.11-.46-.06-.04-.12-.05-.18-.05-3.25.09-7.94-1.12-10.19,1.9-2.05,2.75-3.95,5.61-5.72,8.57-.08.13-.03.3.1.37.06.04.13.04.2.03l3.67-.71h0Zm-75.75,21.1c-.99,1.53-2.18,2.85-3.55,3.98-2.77,2.27-7.46,3.05-11.08,4.23-.27.09-.43.27-.48.55-2.71,14.46,3.28,24.97,9.82,39.75,8.67,19.56,24.8,27.71,45.29,29.33.2.02.37-.13.39-.32,0-.07,0-.14-.04-.2-8.84-16.96-16.65-31.52-16.19-51.38.25-10.76,1.73-20.92,3.31-31.99.89-6.25,1.24-11.09,1.05-14.51-.29-5.25-1.96-18.69-6.33-22.14-1.52-1.2-3.77-.99-5.71-1.44-.28-.07-.55-.04-.8.09-1.57.74-3.03,1.64-4.39,2.7-11,8.65-18.74,19.53-23.22,32.63-.17.48.09,1.01.58,1.18,4.24,1.42,7.99,3.65,11.24,6.68.24.23.29.59.11.88h0Zm180.14-21.36c5.31-5.87,2.92-14.27-2.83-18.45-.23-.17-.49-.21-.77-.12l-4.59,1.44c-.28.09-.5.25-.66.49-3.99,6.02,2.89,14.11,8.15,16.77.26.13.49.09.69-.13h0Zm-39.19,12.35c5.22-5.92,4.03-12.24-.51-18.29-.17-.23-.44-.36-.72-.37-3.21-.1-7.43.65-7.45,4.82-.03,6.16,2.67,10.81,8.08,13.94.23.13.43.1.61-.1h0Zm-58.09-11.23c-1.85,4.57-1.58,8.97.83,13.2.15.28.39.36.69.26,7.53-2.56,10.62-7.86,9.25-15.91-.05-.29-.23-.53-.49-.66-1.26-.61-2.52-1.21-3.78-1.78-2.98-1.37-5.59,2.65-6.51,4.9h0Zm128.21,75.43c7.67-19.1,7.7-41.71,1.24-60.53-.93-2.68-1.29-2.62-1.08.21.4,5.8.51,12.4-.4,18.31-1.74,11.24-5.01,22.05-9.79,32.41-.32.69-.19,1.32-.05,2,1.29,6.07,2.62,12.09,4,18.07.06.25.31.41.56.35.03,0,.06-.02.09-.03,11.15-5.22,20.88-12.37,29.17-21.45.09-.1.09-.26-.02-.36-.09-.08-.21-.09-.31-.02-7.12,4.92-14.79,8.73-23.03,11.45-.42.14-.54,0-.37-.41h0Zm-110.42-.37c-3.33-8.32-6.7-16.32-10.13-23.99-1.02-2.29-2.16-3.97-3.43-5.03-5.05-4.25-11.87-3.21-15.96,1.88-11.09,13.77-15.36,34.57-13.96,51.65.23,2.83.67,4.52,3.14,6.21,9.11,6.21,19.52,7.06,29.69,2.67,1.8-.78,3.6-1.5,5.4-2.16-5.53,5.13-12.28,7.4-20.25,6.81-5.4-.4-10.82-2.35-15.75-4.81-.15-.09-.34-.03-.43.13-.04.07-.05.15-.03.23,3.53,14.7,13.88,24.2,27.16,30.5,20.25,9.63,41.23,11.41,62.94,5.35,23.88-6.67,54.92-28.86,52.85-56.83-.02-.31-.29-.54-.59-.52-.14.01-.27.07-.36.17-8.95,9.29-19.99,12.99-33.1,11.11-1.41-.2-2.38-1.18-2.94-2.93,13.27,1.38,23.39,1.15,33.01-9.03,2.91-3.07,3.87-4.73,2.86-9.19-3.67-16.06-11.56-29.68-23.66-40.85-2.1-1.94-2.94-2.03-5.71-1.86-4.21.26-8.41.56-12.61.91-2.16.18-2.97.37-3.47,2.68-2.38,10.93-2.07,19.06-2.6,28.92-.7-.48-1.11-1.19-1.22-2.12-1.07-9.48-.52-18.96,1.64-28.43.07-.31-.06-.46-.37-.46-18.29-.18-36.41-1.98-54.35-5.38-7.1-1.35-11.34-1.46-16.15,3.65-.11.12-.1.31.02.42.05.04.11.07.17.07,2.4.2,9.84,2.57,9.63,5.86-.02.36-.18.44-.48.21-15.46-11.59-26.15,3.73-29.84,16.83-.48,1.7-.31,1.77.49.18,2.52-4.96,5.83-11.32,10-14.48,6.01-4.57,13.47-3.09,18.34,2.89,1.37,1.69,2.21,2.87,2.51,3.56,3.48,7.98,6,16.37,7.55,25.17h-.01Zm-55.13,25.53c-.34.44-.8.59-1.38.48-7.69-1.5-15.32-2.96-22.91-4.39-.17-.03-.32.07-.35.24-.02.13.04.26.15.32,10.65,5.84,21.98,9.7,33.99,11.59.29.05.58-.15.62-.45,0-.04,0-.08,0-.12-.34-5.72-.78-11.5-1.32-17.36-.09-.92-.97-2.54-1.58-3.26-11.79-14.07-22.58-29.79-25.15-49.5-.02-.19-.2-.32-.39-.29-.07.01-.13.04-.19.09-.08.07-.15.17-.23.3-.07.13-.11.28-.12.47-.8,22.64,5.49,43.05,18.86,61.23.15.2.14.47,0,.66h0Zm189.45,26.39c-2.79-.54-5.15-1.67-7.88-1.53-5.17.26-10.05,3.91-16.9,8.32-6.19,3.99-12.45,5.11-18.76,3.36-2.65-.74-4.48-1.14-5.5-1.21-3.84-.27-7.64-.02-11.39.75-5.26,1.08-10.18,4.21-14.76,7.16-.28.18-.4.55-.27.85,1.78,4.26,3.29,8.57,4.53,12.93,1.53,5.38,2.7,8.93,3.52,10.65,1.92,4.03,6.48,12.22,11.11,13.42,2.11.55,4.27.16,6.47-1.17.27-.16.31-.36.1-.61-4.48-5.37-6.94-12.17-9.29-18.66-.56-1.54-1.51-3.09-.63-4.71.13-.26.39-.42.67-.45,10.42-.97,19.66,1.08,29.65,4.43,7.5,2.52,12.17,3.67,19.05,1.69,2.15-.62,4.98-2.08,8.49-4.41,3.41-2.26,7.51-4.9,12.29-7.94,1.9-1.21,3.59-1.75,5.68-.39,3.44,2.26,6.61,6.52,9.98.8.91-1.55.88-2.08-.64-3.17-1.04-.75-1.95-1.64-2.73-2.68-.17-.23-.26-.49-.26-.78,0-2.32,1.02-3.68,3.07-4.06,1.29-.23,2.91.44,4.55-.24.26-.1.45-.28.57-.53,1.04-2.19,1.55-6.58-1.14-7.58-2.84-1.05-5.45,2.42-8.54.55-1.07-.65-1.42-1.42-1.05-2.31.15-.38.65-.89,1.48-1.53,2.26-1.74,3.11-4.08,2.57-7.02-.83-4.48-4.76-4.81-7.27-1.26-1.72,2.45-2.97,5.01-5.4,6.98-1.64,1.33-2.86,2.88-3.67,4.66-.29.64-1.05.93-1.69.63-.15-.07-.29-.17-.41-.3-3.88-4.27,10.32-6.21,2.86-12.83-1.89-1.68-3.73-1.93-5.48-.76-2.4,1.59-2.32,5.8-2.33,8.39,0,.29-.24.53-.54.53-.04,0-.07,0-.1-.01h0Zm-116.36,23.21l-12.1-1.78c-.39-.06-.76.2-.83.58-.79,4.09-2.11,7.4-5.09,10.58-4.54,4.84-9.43,9.24-14.67,13.19-.28.21-.33.61-.12.89.06.08.14.15.23.19,3.55,1.65,5.97,4.35,7.24,8.08.23.67.86,1.13,1.57,1.13l14.46.09c1,.01,1.83-.76,1.89-1.76.42-6.31,1.31-12.83,2.67-19.54.94,2.28,1.44,4.77,1.51,7.48.11,4.49.12,8.97.02,13.43,0,.19.14.34.32.36,18.97,1.23,37.99,2.45,56.88,0,.23-.03.4-.25.37-.48-.01-.09-.06-.18-.12-.25-6.28-6.07-10.98-13.49-12.8-22.17-1.07-5.08-2.57-10.05-4.51-14.92-.09-.22-.25-.29-.47-.21-11.72,4.37-23.87,6.08-36.45,5.12h-.02Zm-62.72,36.53c2.46.48,4.98-1.8,5.63-5.11.65-3.3-.82-6.37-3.28-6.85s-4.98,1.8-5.63,5.11c-.65,3.3.82,6.37,3.28,6.85Zm23.2.63c-1.01-3.6-1.99-6.89-2.95-9.89-.73-2.26-2.22-3.07-4.47-2.42-3.67,1.05-4.91,3.49-3.73,7.31,1.89,6.13,5.23,5.64,10.68,5.62.27,0,.49-.22.5-.49,0-.04,0-.09-.02-.13h0Zm2.7-10.67c-.86-.39-1.26-.11-1.2.83.28,3.89,1.43,7.6,5.06,9.67.86.5,1.62.28,2.29-.65,1.06-1.5,1.81-2.62.67-4.39-1.43-2.22-3.71-4.04-6.82-5.45h0Zm-37.48,14.41c.42,2,.23,3.9-.55,5.7-1.82,4.15-3.4,8.17-5.66,12.02-.17.29-.09.47.23.55,25.55,6.25,50.91,12.42,76.08,18.5,11.23,2.72,24.06,4.82,38.48,6.31,4.67.48,10.11,1.2,16.33,2.13,19.62,2.98,38.65,3.02,59.24,3.14.33,0,.45-.16.35-.48-.65-2.08-3.05-6.4-1.07-8.13.21-.18.44-.26.71-.23,1.98.16,4.45,2.36,5.95,3.55.1.07.23.04.3-.06.04-.07.05-.15.02-.22-3.29-5.71-5.89-9.93-10.46-16.28-4.9-6.82-8.37-14.46-10.41-22.95-.34-1.41-.21-2.79.37-4.12.12-.27.31-.36.59-.24l3.69,1.48c.14.06.3-.01.36-.15.03-.07.02-.15,0-.22-1.13-2.49-4.66-10.43-8.07-9.89-9.97,1.58-19.94,3.16-29.91,4.74-4.5.72-9.49,1.11-13.96,1.23-17.91.49-35.83.5-53.74.02-6.21-.17-12.75-.82-19.15-1.29-.29-.02-.5.09-.63.35-1.87,3.73-4.55,10.05-7.62,11.29-.26.1-.48.05-.66-.18-2.05-2.66-.04-5.54-3.05-8.05-.21-.17-.44-.22-.69-.17-3.3.77-4.74,2.76-4.33,5.95.18,1.43-.28,2.49-1.4,3.23-.31.2-.73.12-.94-.2-.02-.04-.04-.07-.06-.1l-2.45-5.77c-.1-.25-.31-.45-.56-.54-3.24-1.24-5.31-3.55-6.21-6.93-.06-.2-.27-.32-.47-.26-.06.02-.12.06-.17.1-3.53,3.55-6.26,5.06-6.06,10.74.01.33-.14.45-.46.37-1.51-.36-2.5-1.15-2.97-2.37-.75-1.94-1.69-3.41-2.82-4.42-3.55-3.17-2.49-4.75-3.81-8.49-.29-.84-1.21-1.28-2.05-.99-.16.06-.31.13-.44.24-.37.28-.69.65-.97,1.11-2.18,3.59-4.36,7.16-6.56,10.71-.11.17-.06.4.11.51.1.06.21.07.32.04l4.54-1.66c.37-.14.6-.01.69.39h0Zm-43.64,126.05c21.32-1.72,42.64-3.53,63.95-5.45,30.9-2.79,61.92-7.46,92.49-12.72,22.66-3.89,45.01-9.9,66.8-17.23,6.64-2.24,13.27-4.45,19.86-6.63.2-.07.31-.29.23-.48,0-.02-.02-.04-.02-.06-1.52-2.8-2.87-5.74-4.07-8.82-.61-1.55-.2-2.65,1.23-3.31.27-.12.33-.31.19-.57l-6.65-12.03c-.21-.37-.64-.56-1.02-.45-.11.03-.18.21-.23.55-.51,4.32-.09,9.5-1.48,13.15-1.7,4.47-4.93,7.56-9.67,9.27-1.43.51-3.55.61-4.19-.92-1.07-2.54-1.88-6.1-2.42-10.67-.48-4.02.46-7.25,2.82-9.68,2.72-2.82,5.5-2.84,6.51-7.73.07-.36-.07-.53-.44-.53h-38c-.25,0-.46.21-.46.47,0,.06.01.12.04.18.85,2.1,1.84,4.14,2.96,6.1,1.98,3.46,1.92,8.91,2.06,12.83.14,3.81-2.89,6.89-5.93,8.72-1.8,1.08-3.32.58-4.73-.75-6.74-6.38-8.38-13.77-4.94-22.17,1.39-3.38,1.04-6.94-3.14-7.48-9.06-1.16-18.13-2.47-27.19-3.92-.32-.06-.53.07-.63.39-1.1,3.35-1.75,7.61-1.96,12.77-.29,7.29-4.07,12.14-11.33,14.54-3.54,1.18-5.18-2.89-5.98-5.47-2.49-8.03-.28-14.26,6.63-18.7,1.39-.89,2.31-2.53,2.76-4.92.05-.27-.06-.43-.32-.48-11.06-2.42-22.11-4.82-33.17-7.21-1.37-.3-2.58-.28-3.62.07-.26.09-.48.29-.61.54-1.51,3.14.19,6.42,1.08,9.41,1.99,6.69.04,12.96-5.53,17.16-1.69,1.27-3.23,1.16-4.65-.32-3.9-4.09-5.62-8.77-5.15-14.05.09-1.05.79-3.65,2.08-7.8.79-2.54,1.42-5.16,1.89-7.87.05-.28-.13-.56-.42-.63l-29.28-7.16c-.28-.07-.56.06-.69.31-1.59,3.06-2.65,6.18-3.14,9.38-.61,3.89-.98,6.04-1.12,6.46-1.93,5.67-6.1,9.17-12.52,10.53-1.22.26-2.03-.07-2.45-.99-3.78-8.26-2.39-15.2,4.17-20.81,2.19-1.88,3.59-3.44,4.61-5.75.34-.78-.01-1.7-.79-2.05-.09-.04-.18-.07-.26-.09l-7.69-1.85c-.58-.14-1.18.11-1.48.62l-12.61,20.64c-.07.13-.04.29.09.37.09.06.2.05.28,0,1.6-1.05,5.15-4.46,7.12-3,1.29.95,1.59,2.14.88,3.57-4.57,9.32-9.31,18.56-14.21,27.72-.13.26-.07.45.19.57,1.33.59,1.73,1.47,1.22,2.65-2.73,6.26-7.93,16.8-15.59,31.62-.18.34-.07.52.31.55,2.26.16,4.47.51,3.07,3.53-2.37,5.12-4.88,10.2-7.53,15.24-.13.25-.04.56.21.69.02.01.05.02.08.03.42.15.91.19,1.5.14v.02Zm38.09-75.83c.09.45.33.55.72.29,2.91-1.99,7.25-3.81,9.11-6.63,1.35-2.04,2.07-4.35,2.17-6.91.07-1.97-.84-2.65-2.27-3.73-5.87-4.46-9.44,2.21-10.57,6.79-.8,3.26.18,6.74.84,10.18h0Zm56.65-4.99c-.94-2.6-5.04-2.38-7.67-2.18-.28.02-.51.13-.71.32-.93.94-1.53,2.1-1.81,3.47-1.2,5.8.31,10.76,4.55,14.86.17.16.42.18.61.05,5.84-4.11,7.51-9.62,5.03-16.53h0Zm38.64,7.13c-6.09,4.06-7.45,11.45-3.44,17.66.18.29.54.4.86.28,6.1-2.35,9.13-6.69,9.06-13.02-.03-3.26-2.88-4.83-5.71-5.11-.28-.03-.53.04-.77.19Zm43.65,10.41c-.48,5.22,1.34,9.63,5.47,13.23.23.21.46.2.69-.02,2.9-2.76,4-6.39,3.32-10.86-.45-2.96-.8-6.19-4.2-6.9-3.35-.69-4.99,1.4-5.28,4.55Zm44.04,15.63c6.21-2.86,9.79-7.21,8.83-14.24-.63-4.64-7.35-3.76-9.55-1.24-2.96,3.37-1.06,11.39.21,15.26.09.27.25.34.51.23h0Zm-277.33-9.63c-6.4.23-11.42,2.65-15.09,7.25-4.48,5.62-5.29,12.89-3.62,19.81,2.19,6.79,4.47,13.77,10.83,16.68,4.69,2.16,10.58,1.75,14.21-2.11,2.92-3.12,2.97-6.2.16-9.23-1.62-1.75-4.52-1.56-6.34-3-1.2-.95-2.03-2.18-2.5-3.69-.55-5.56,2.02-8.68,7.7-9.35l7.34,7.7,7.66,22.19,6.37,21.34,6.18,21.71,5.31,18.26c.07.28.36.44.64.36.15-.04.27-.14.33-.28l6.77-14.39c.07-.16,0-.35-.15-.42-.11-.05-.25-.04-.34.04l-3.7,3.1c-.36.29-.53.21-.51-.25l.16-4.3c2.44-4.84,4.81-9.74,7.11-14.69.61-1.31.63-2.68.05-4.11-.09-.21-.33-.31-.54-.23-.05.02-.1.06-.13.09-1.62,1.66-3.51,2.9-5.66,3.7-.33.12-.5,0-.53-.34-.13-2.15.31-4.14,1.32-5.99,2.73-2.77,2.95-5.27,1.65-9.07-.95-2.81-1.89-5.63-2.83-8.45-.09-.26-.24-.48-.46-.64l-2.21-1.64c.92-.85,1.12-2.02.59-3.52-2.39-6.89-4.74-13.6-7.06-20.11-3.81-15.91-13.49-31.35-32.68-26.42h-.02Zm298.59,117.18c1.07-.77,2.3-1.12,3.68-1.04,9.54.51,19.12,1,28.73,1.48.34.02.44-.13.29-.45-5.64-12.17-9.62-20.94-11.93-26.34-.9-2.11-.25-3.46,1.97-4.05.31-.08.39-.26.26-.55-3.28-7.12-7.18-13.49-5.53-19.07.09-.31.29-.45.62-.42l3.54.32c.21.02.4-.13.43-.35,0-.08,0-.15-.04-.22-3.89-7.22-7.78-14.47-11.69-21.75-3.19-5.95-8.62-7.39-9.05-15.27-.19-3.44-1.21-6.64-3.07-9.63-.17-.28-.42-.37-.74-.27l-26.15,8.84c-.29.1-.45.42-.34.72h0c.9,2.49,1.98,4.93,3.23,7.32,1.87,3.57,2.95,5.99,3.23,7.27,1.12,4.98-.1,9.6-3.67,13.86-.9,1.08-2.78,1.23-4.02.44-6.75-4.32-9.57-10.48-8.45-18.48.49-3.55.71-5.36.72-8.13,0-.28-.23-.5-.5-.5-.06,0-.11,0-.16.02-11.71,4.01-23.69,6.94-35.93,8.79-.32.05-.55.36-.5.68,0,.02,0,.03.01.05.67,2.84,1.49,5.63,2.45,8.35,1.53,4.36,2.35,7.14,2.48,8.34.54,5.1-1.2,9.59-5.23,13.45-.9.88-2.65.85-3.77.11-6.15-4.09-8.41-12.23-6.47-19.13,1.02-3.63,1.38-5.99,1.84-9.19.02-.17-.09-.32-.25-.34h-.1l-46.33,7.53c-.33.06-.43.24-.28.54,1.54,3.33,2.72,5.68,5.3,9.1,3.84,5.11,4.47,10.91,1.89,17.39-.69,1.73-1.81,2.87-3.35,3.44-.25.09-.53.09-.78,0-6.14-2.41-9.84-6.69-11.11-12.84-.21-.99-.23-2.73-.06-5.22.24-3.67-.41-7.23-1.96-10.7-.13-.28-.34-.41-.65-.37l-34.85,3.71c-.28.03-.42.19-.42.47-.09,3.25.17,6.45.74,9.61.77,4.16,1.13,6.74,1.08,7.74-.23,5.17-2.59,9.35-7.07,12.55-1.23.88-2.89.78-4.03-.36-4.85-4.87-6.28-10.58-4.3-17.15,1.12-3.69,4.18-5.85,3.49-11.52-.03-.21-.15-.32-.37-.3l-37.12,3.12c-.3.03-.48.19-.56.48-.92,3.75-1.2,7.52-.86,11.32.29,3.16.34,5.29.16,6.38-.86,5.15-3.7,8.98-8.53,11.49-1.27.67-3.1.76-3.98-.37-3.6-4.57-4.62-9.68-3.05-15.31,1.08-3.89,4.19-8.06,6.25-12.1.18-.34.04-.77-.31-.94-.12-.06-.25-.09-.37-.07l-9.92.65c-.59.04-1.12.37-1.39.89l-2.87,5.35c-.11.2-.04.45.16.56.09.05.18.06.28.04l3.16-.58c.36-.07.59.07.72.41.96,2.6,1.07,4.74.35,6.4-1.89,4.36-3.87,8.72-5.91,13.08-.14.29-.05.47.28.51,4.59.65,1.14,6.6.09,8.89-3.27,7.02-6.55,14.1-9.84,21.22-.12.26-.01.58.26.7.08.04.17.06.26.05,9.64-.7,19.36-1.22,29.17-1.55,1.55-.05,2.78.23,3.67.83.32.21.36.47.14.78-1.17,1.62-2.71,2.73-4.6,3.33-.12.04-.21.15-.24.28-.06.33.09.49.46.49,9.45-.09,19.01.44,28.44.07,2.72-.1,5.09.71,7.14,2.45.75.63,2.32.8,3.28.78,13.13-.45,26.27-.96,39.43-1.53.28-.01.54.07.77.24,2.14,1.61,4.97,2.43,8.49,2.47,20.59.23,41.2.19,61.8-.12,3.97-.06,7.88-2.57,10.98-2.45,12.37.5,24.75.85,37.13,1.05,3.59.06,5.61-2.58,8.54-2.65,9.85-.23,19.78-.34,29.77-.35.15,0,.27-.13.26-.29,0-.1-.07-.2-.16-.24-1.87-.74-3.42-1.89-4.65-3.47-.18-.23-.13-.56.09-.74h.02s-.03-.02-.03-.02Zm4.06-91.38c-1.82,1.47-.87,5.48.02,7.21,1.94,3.74,5.04,6.55,9.31,8.43.8.35,1.73,0,2.08-.8h0c2.3-5.37,1.61-10.19-2.09-14.49-2.7-3.14-6.36-2.75-9.33-.35h0Zm-31.97,30.07c3.74-6.63,5.2-12.43-.53-18.36-.18-.2-.4-.32-.67-.37-3.55-.76-7.2.42-7.66,4.49-.67,6.05,3.14,11.39,8.21,14.41.22.13.51.06.64-.17h.01Zm-50.28,12.56c.21.18.43.19.65.02,5.24-4.06,6.51-9.3,3.81-15.73-1.51-3.6-5.26-4.07-8.59-2.42-.65.32-1.07.85-1.27,1.6-1.63,6.42.17,11.93,5.41,16.53Zm108.34,7.27c-2.16,1.57-4.34.36-6.52-3.62-.12-.21-.38-.3-.61-.2-2.19.96-2.03,2.42-1.07,4.33,3.68,7.37,7.83,14.26,7.83,19.32,0,.39-.18.5-.53.32l-3.47-1.73c-.39-.2-.5-.09-.3.3l5.06,10.35c1.07,2.13,2.05,4.27,2.94,6.42,1.11,2.68,2.16,4.44,3.16,5.25,1.74,1.42,4,2.07,6.76,1.96,6.4,1.2,12.26.54,17.58-1.97,9.59-4.52,15.55-12.09,17.92-22.7,1.45-8.73-.23-16.46-5.03-23.17-6.15-8.67-14.67-13.12-25.57-13.35-.55-.01-1.21.21-1.99.66-.66-.34-1.02-.62-1.83-.5-3.71.55-20.41,5.68-17.44,11.75.99,2.04,2.03,4.23,3.11,6.58h-.01Zm-157,2.03c2.83-6.61,4.43-14.19-2.64-18.98-.25-.16-.51-.21-.8-.15l-5.22,1.11c-.29.07-.53.23-.7.48-.42.6-.66,1.29-.72,2.05-.58,7.37,3.81,11.97,9.49,15.67.27.17.46.12.58-.18h0Zm-61.04-10.68c-2.03,5.31-.59,11.16,3.17,15.61.19.23.52.28.77.12,6.65-4.28,8.38-10.18,5.2-17.69-.14-.32-.37-.56-.69-.71-3.23-1.47-7.05-1.02-8.46,2.68h0Zm-49.28,2.03c-3.73,4.9-2.68,12.17.72,16.81.19.26.42.32.71.18,7.03-3.39,9.44-8.99,7.21-16.81-.09-.3-.26-.53-.53-.7-2.38-1.48-6.17-2.05-8.11.51h0Z"/>
      <path class="cls-7" d="m193.48,25.67c1.85-3.79.54-8.59.69-12.25.15-3.61.39-7.17.74-10.68.03-.28.28-.47.55-.45.1.01.19.05.27.11,5.6,4.61,11.05,9.32,16.36,14.11,1.25,1.13,2.78,1.35,4.5.91,6.91-1.77,13.97-3.49,21.16-5.17.32-.07.64.13.7.45.01.07.02.13.01.2-.71,5.52-5.11,12.75-8.15,18.1-1.51,2.67-.63,4.59,1.11,7.07,3.84,5.49,7.42,11.11,10.74,16.88.11.18.05.43-.14.54-.07.04-.17.06-.25.06-7.26-.84-14.59-1.5-21.97-1.96-1.52-.09-3.58,1.62-4.71,2.97-4.48,5.32-8.75,10.79-12.82,16.38-.09.12-.25.13-.36.05-.04-.03-.07-.07-.09-.12-2.07-6.83-3.78-13.67-5.13-20.49-.28-1.41-1.43-2.85-3.44-4.33-1.99-1.46-7.16-1.84-9.63-2.63-3.5-1.12-6.94-2.38-10.35-3.79-.29-.12-.32-.28-.09-.49,5.28-4.65,11.01-8.53,17.2-11.66,1.07-.54,2.09-1.81,3.07-3.82h0Z"/>
      <path class="cls-2" d="m181.89,67.98l-.93-.67c-.27-.19-.31-.42-.12-.69l11.42-16.12c.11-.15.29-.24.48-.21.37.04.59.26.66.65,1.39,7.16,3.06,13.88,5.01,20.16.51,1.62,1.42,3.03,2.75,4.23.21.2.46.28.74.24,3.81-.4,12.28-13.39,14.67-16.83,1.35-1.96,3.27-2.79,5.74-2.48,3.15.4,6.16.66,9.03.79,1.23.06,2.31.81,2.79,1.94l5.69,13.29c.13.32.04.56-.27.72-1.64.86-1.9,2.07-1.25,3.82,2.78,7.45,5.58,14.81,8.4,22.09.17.42.04.73-.37.92-26.74,12.07-56.22,15.72-85.99,14.73-.31-.01-.39-.15-.21-.41,2.05-3.24,4.06-6.46,6.03-9.66,1.39-2.26-.45-3.99-2.68-3.69-.19.02-.36-.11-.38-.3-.01-.07,0-.15.05-.22l19.15-30.09c.47-.74.29-1.72-.42-2.22h-.01Zm30.58,5.54c-1.02,5.52-3.14,9.26-8.73,11.17-.47.15-.47.31,0,.47,4.9,1.59,7.77,4.95,8.64,10.07.04.23.26.37.49.32.17-.03.29-.16.32-.32.93-5.2,3.89-8.6,8.89-10.2.13-.05.21-.2.16-.33-.02-.08-.09-.14-.17-.17-5.92-1.59-7.46-5.52-9.14-11.04-.04-.13-.18-.2-.32-.16-.09.03-.15.1-.17.19h.01Zm16.32,25.29c.42.82.61,2.3,1.2,3.31.11.18.34.24.53.13.1-.06.17-.16.18-.28.51-3.78,2.58-6.2,6.2-7.27.21-.06.33-.28.27-.48-.04-.13-.15-.25-.29-.28-3.68-.92-5.74-3.3-6.19-7.14,0-.21-.17-.37-.37-.37s-.37.17-.37.37c-.44,3.72-2.42,6.15-5.96,7.27-.17.06-.27.24-.21.41.03.1.11.18.21.21,2.18.73,3.78,2.1,4.8,4.11h0Z"/>
      <path class="cls-6" d="m203.74,84.7c5.59-1.91,7.71-5.65,8.73-11.17.02-.13.15-.23.29-.2.09.02.17.08.19.17,1.67,5.52,3.21,9.46,9.14,11.04.13.04.21.18.17.32-.02.08-.09.14-.17.17-5,1.59-7.97,4.99-8.89,10.2-.04.23-.26.37-.49.32-.17-.03-.29-.16-.32-.32-.86-5.12-3.74-8.48-8.64-10.07-.47-.15-.48-.31,0-.47h0Z"/>
      <path class="cls-4" d="m315.5,173.29c-9.07,3.05-2.35,9.77,1.24,13.07.18.17.2.46.02.64-.01.01-.02.02-.04.03-6.66,5.72-14.01,10.33-22.06,13.83-.25.11-.55,0-.66-.26-.04-.1-.06-.21-.02-.32,3.32-13.1,4.36-26.31,3.11-39.63-.57-6.09-1.4-10.74-2.47-13.97-2.14-6.41-4.72-12.65-7.73-18.71-4.18-8.38-8.71-17.85-10.53-27.06-1-5.07-.92-11.2-1.09-16.73-.31-9.7,13.6-5.14,17.77-3.02,20.34,10.35,32.83,26.77,37.48,49.26.78,3.78,1.07,7.6.86,11.46-.48,8.78-1.65,17.46-3.51,26.05-.31,1.45-1.2,2.15-2.68,2.52-3.27.82-6.5,1.76-9.7,2.83h0Z"/>
      <path class="cls-6" d="m228.79,98.81c-1.02-2.01-2.62-3.38-4.8-4.11-.17-.06-.27-.25-.21-.42.03-.1.11-.17.21-.2,3.54-1.13,5.52-3.55,5.96-7.27,0-.21.17-.37.37-.37s.37.17.37.37c.45,3.84,2.51,6.22,6.19,7.14.21.05.34.26.29.47-.03.14-.14.25-.28.29-3.62,1.07-5.69,3.5-6.2,7.27-.03.21-.23.36-.44.32-.12-.02-.21-.09-.28-.18-.59-1.01-.78-2.49-1.2-3.31h0Z"/>
      <path class="cls-2" d="m154,128.23l-3.67.71c-.15.03-.29-.07-.32-.21-.01-.07,0-.13.03-.2,1.77-2.96,3.68-5.82,5.72-8.57,2.24-3.02,6.94-1.81,10.19-1.9.18,0,.34.14.34.32,0,.07-.02.13-.05.18-2.03,3.27-5.31,5.94-6.83,8.92-2.78,5.45-2.74,10.89.12,16.31,1.27,2.42,4.29,1.69,6.37.53,5.93-3.31,8.9-8.37,8.9-15.17,0-4.6.31-6.93,1.78-10.65.13-.33.37-.51.72-.55l29.33-3.03c1.03-.11,1.96.62,2.11,1.65.18,1.24.29,2.53.32,3.84.07,2.52-.78,5.36-.56,8.13.51,6.4,3.52,11.14,8.99,14.18,1.12.63,2.83.58,3.62-.37,3.84-4.59,4.96-9.57,3.36-14.96-.25-.85-1.2-2.74-2.86-5.69-1.44-2.57-2.49-5.33-3.17-8.26-.07-.31.04-.51.34-.61l25.54-8.38c.4-.13.82.07.97.45.99,2.41,1.4,4.8,1.22,7.19-.39,5.2-.57,8.73,3.25,12.77,4.05,4.27,6.51,9.08,8.62,14.49.02.07-.01.13-.07.16-.02.01-.06,0-.08,0l-4.04-1.59c-.37-.14-.8.04-.94.42-.07.18-.06.39.02.56l9.38,19.54c.1.21.02.45-.18.56-.04.02-.08.03-.12.04-41.01,6.39-81.68,1.35-120.93-11.45-.23-.07-.36-.32-.28-.55.02-.05.04-.1.07-.14l13.47-17.55c.24-.31.18-.75-.12-.98-.16-.13-.37-.18-.57-.13h0Z"/>
      <path class="cls-4" d="m78.14,148.45c-3.25-3.03-7-5.26-11.24-6.68-.48-.17-.74-.69-.58-1.18,4.48-13.1,12.21-23.98,23.22-32.63,1.35-1.07,2.82-1.97,4.39-2.7.26-.12.52-.15.8-.09,1.94.45,4.19.25,5.71,1.44,4.38,3.46,6.04,16.9,6.33,22.14.19,3.42-.16,8.26-1.05,14.51-1.58,11.06-3.06,21.23-3.31,31.99-.47,19.86,7.34,34.42,16.19,51.38.09.18.02.39-.15.48-.06.03-.13.05-.2.04-20.49-1.62-36.63-9.78-45.29-29.33-6.54-14.78-12.53-25.28-9.82-39.75.06-.28.21-.46.48-.55,3.62-1.18,8.31-1.96,11.08-4.23,1.37-1.13,2.56-2.46,3.55-3.98.18-.28.13-.65-.11-.88h0Z"/>
      <path class="cls-8" d="m255.56,109.52c5.75,4.18,8.13,12.58,2.83,18.45-.2.22-.43.27-.69.13-5.26-2.66-12.14-10.74-8.15-16.77.16-.24.38-.4.66-.49l4.59-1.44c.28-.09.53-.04.77.12h0Z"/>
      <path class="cls-7" d="m218.68,122.02c4.55,6.06,5.74,12.37.51,18.29-.18.2-.38.23-.61.1-5.41-3.13-8.1-7.78-8.08-13.94.02-4.17,4.25-4.92,7.45-4.82.28,0,.55.14.72.37h0Z"/>
      <path class="cls-8" d="m161.11,129.09c.92-2.26,3.53-6.26,6.51-4.9,1.26.58,2.53,1.17,3.78,1.78.26.12.45.37.49.66,1.36,8.05-1.72,13.35-9.25,15.91-.31.1-.54.02-.69-.26-2.41-4.24-2.68-8.63-.83-13.2h0Z"/>
      <path class="cls-1" d="m289.7,204.92c8.24-2.72,15.92-6.53,23.03-11.45.12-.08.27-.05.35.07.06.1.06.22-.02.31-8.29,9.08-18.01,16.23-29.17,21.45-.24.11-.52,0-.63-.23-.01-.03-.02-.06-.03-.09-1.38-5.98-2.71-12-4-18.07-.14-.69-.28-1.32.05-2,4.79-10.37,8.05-21.17,9.79-32.41.92-5.9.8-12.5.4-18.31-.2-2.83.16-2.91,1.08-.21,6.46,18.83,6.44,41.43-1.24,60.53-.17.41-.04.55.37.41h.01Z"/>
      <path class="cls-1" d="m230.96,196.16c-.45.37-.78,1.03-.97,1.99-6.77-8.21-15.75-11.79-26.42-10.27-11.38,1.62-19.31,8.25-23.82,19.9l-.85-3.63c-1.55-8.8-4.07-17.19-7.55-25.17-.3-.69-1.14-1.88-2.51-3.56-4.87-5.98-12.33-7.46-18.34-2.89-4.16,3.16-7.48,9.52-10,14.48-.81,1.58-.97,1.52-.49-.18,3.68-13.1,14.37-28.41,29.84-16.83.29.21.45.15.48-.21.21-3.29-7.23-5.66-9.63-5.86-.17-.02-.29-.17-.27-.33,0-.06.03-.12.07-.17,4.81-5.11,9.05-4.99,16.15-3.65,17.95,3.4,36.06,5.2,54.35,5.38.31,0,.44.15.37.46-2.16,9.47-2.7,18.95-1.64,28.43.1.93.51,1.64,1.22,2.12h0Zm-23.56-12.97c-7.67-.53-16.39,2.27-21.22,8.56-.09.12-.12.26-.11.41l.04.28c.02.21.21.35.42.32.07,0,.13-.04.19-.08,6.06-4.81,12.95-7.54,20.68-8.19.25-.02.41-.15.49-.39.04-.12.06-.25.04-.37-.03-.33-.21-.51-.54-.53h0Z"/>
      <path class="cls-5" d="m243.15,224.57c-2.12-.32-3.74-1.15-4.88-2.49-2.13-2.53-4.38-6.38-6.72-11.55l-1.56-12.38c.2-.96.53-1.62.97-1.99.53-9.86.23-17.99,2.6-28.92.5-2.32,1.31-2.51,3.47-2.68,4.2-.35,8.4-.66,12.61-.91,2.77-.17,3.61-.09,5.71,1.86,12.1,11.17,19.99,24.79,23.66,40.85,1.02,4.46.06,6.12-2.86,9.19-9.62,10.18-19.74,10.4-33.01,9.03h0Zm26.18-18.22c1.81-9.89-3.6-20.05-11.34-25.86-4.81-3.6-11.47-2.13-15.68,1.43-7.4,6.26-7.67,18.93-5.18,27.73,1.88,6.63,5.32,10.14,12.31,11.23,10.26,1.6,18.1-4.71,19.9-14.53h0Z"/>
      <path class="cls-1" d="m123.78,229.67c.15-.19.15-.46,0-.66-13.38-18.18-19.66-38.59-18.86-61.23,0-.18.04-.34.12-.47.08-.13.15-.23.23-.3.15-.13.37-.12.49.02.05.05.07.12.09.18,2.57,19.72,13.37,35.43,25.15,49.5.6.72,1.5,2.35,1.58,3.26.55,5.86.99,11.64,1.32,17.36.02.3-.21.56-.51.57h-.12c-12.01-1.89-23.34-5.75-33.99-11.59-.15-.08-.2-.26-.12-.4.06-.12.19-.18.32-.15,7.59,1.43,15.22,2.89,22.91,4.39.58.11,1.04-.05,1.38-.48h.01Z"/>
      <path class="cls-5" d="m178.9,204.15l.85,3.63,1.88,11.19c-.9,3.43-.96,7.07-2.54,9.95-1.26,2.28-3.06,4.44-5.42,6.47-1.8.66-3.6,1.39-5.4,2.16-10.17,4.39-20.58,3.54-29.69-2.67-2.48-1.69-2.91-3.39-3.14-6.21-1.4-17.07,2.87-37.88,13.96-51.65,4.09-5.08,10.91-6.13,15.96-1.88,1.27,1.06,2.41,2.74,3.43,5.03,3.42,7.67,6.8,15.67,10.13,23.99h0Zm-4.5,1.52c-2.56-5.86-6.91-10.99-13.2-12.75-7.37-2.07-12.75.86-16.12,8.82-3.24,7.61-3.62,18.07.61,25.11,4.76,7.92,14.96,9.86,22.95,6.21,10.12-4.61,9.66-18.48,5.77-27.39h0Z"/>
      <path class="cls-9" d="m269.33,206.35c-1.8,9.83-9.63,16.14-19.9,14.53-6.98-1.09-10.43-4.6-12.31-11.23-2.49-8.8-2.22-21.46,5.18-27.73,4.21-3.57,10.87-5.04,15.68-1.43,7.74,5.8,13.15,15.98,11.34,25.86h0Zm-24.94-6.85c2.97,1.77,6.89.67,8.76-2.46h0c1.86-3.13.97-7.1-2-8.87-2.97-1.77-6.89-.67-8.76,2.46h0c-1.86,3.13-.97,7.1,2,8.87Z"/>
      <path class="cls-9" d="m186.19,191.74c4.82-6.29,13.55-9.08,21.22-8.56.33.02.51.2.54.53.01.13,0,.25-.04.37-.09.23-.25.36-.49.39-7.73.65-14.62,3.38-20.68,8.19-.16.13-.4.1-.53-.06-.04-.06-.07-.12-.08-.19l-.04-.28c-.02-.15.02-.29.11-.41h0Z"/>
      <ellipse class="cls-6" cx="247.76" cy="193.83" rx="6.6" ry="6.26" transform="translate(-45.59 307.4) rotate(-59.2)"/>
      <path class="cls-9" d="m229.99,198.15l1.56,12.38c-2.67,4.66-5.11,10.72-8.68,14.06-9.2,8.59-27.95,10.22-36.56-.18-2.18-2.62-3.73-4.44-4.68-5.45l-1.88-11.19c4.5-11.64,12.45-18.28,23.82-19.9,10.66-1.52,19.65,2.06,26.42,10.27Zm-5.17,13.92l2.87.11c.39.02.6-.18.63-.58.5-8.49-2.65-14.81-9.46-18.96-5.78-3.52-12.29-1.57-20.07-.35-5.92.92-10.44,5.29-13.6,10.08-3.65,5.52-3.68,11.06-.1,16.5.34.51,1.04.66,1.56.32.02-.01.03-.02.05-.03,3.16-2.35,5.05,0,7.37,2.49,2.6,2.79,3.76,6,8.03,5.9,3.93-.09,15.93-1.12,16.81-5.89.66-3.58,2.23-6.61,4.71-9.11.32-.32.75-.49,1.2-.48h0Z"/>
      <path class="cls-3" d="m224.82,212.07c-.45-.02-.88.16-1.2.48-2.48,2.49-4.05,5.53-4.71,9.11-.88,4.77-12.88,5.8-16.81,5.89-4.27.1-5.43-3.11-8.03-5.9-2.32-2.48-4.21-4.84-7.37-2.49-.5.37-1.21.26-1.57-.24-.01-.01-.02-.03-.03-.05-3.58-5.44-3.55-10.98.1-16.5,3.16-4.79,7.67-9.16,13.6-10.08,7.78-1.22,14.28-3.17,20.07.35,6.81,4.14,9.96,10.46,9.46,18.96-.02.4-.23.59-.63.58l-2.87-.11h0Z"/>
      <path class="cls-9" d="m174.41,205.67c3.9,8.91,4.36,22.77-5.77,27.39-7.99,3.65-18.2,1.71-22.95-6.21-4.23-7.04-3.85-17.5-.61-25.11,3.38-7.96,8.75-10.89,16.12-8.82,6.29,1.76,10.65,6.89,13.2,12.75h0Zm-5.44.82c0-3.55-2.88-6.44-6.44-6.44h0c-3.55,0-6.44,2.88-6.44,6.44h0c0,3.55,2.88,6.44,6.44,6.44h0c3.55,0,6.44-2.88,6.44-6.44h0Z"/>
      <circle class="cls-6" cx="162.53" cy="206.48" r="6.44"/>
      <path class="cls-1" d="m231.54,210.53c2.35,5.17,4.59,9.02,6.72,11.55,1.13,1.34,2.76,2.17,4.88,2.49.55,1.75,1.53,2.73,2.94,2.93,13.12,1.88,24.15-1.82,33.1-11.11.21-.22.57-.23.79-.01.1.1.16.23.17.36,2.07,27.97-28.96,50.16-52.85,56.83-21.71,6.06-42.69,4.28-62.94-5.35-13.28-6.31-23.63-15.8-27.16-30.5-.04-.17.06-.34.23-.39.08-.02.16-.01.23.03,4.93,2.46,10.35,4.41,15.75,4.81,7.97.59,14.72-1.68,20.25-6.81,2.36-2.03,4.17-4.19,5.42-6.47,1.59-2.88,1.64-6.51,2.54-9.95.94,1.01,2.51,2.83,4.68,5.45,8.6,10.39,27.35,8.77,36.56.18,3.57-3.33,6.01-9.4,8.68-14.06h0Zm37.27,22.33c-1.88.64-3.82.91-5.82.8-11.45-.59-22.89-1.2-34.33-1.83-6.65-.37-11.77-.1-17.8,1.13-17.16,3.51-34.01,8.1-50.57,13.76-2.73.93-5.68,1.27-8.53,1.86-.26.05-.51-.12-.57-.38-.04-.18.04-.37.19-.48l2.15-1.54c.18-.13.21-.39.08-.57-.07-.09-.18-.15-.29-.16-3.25-.22-5.74,1.01-7.46,3.7-.2.32-.14.58.18.78,1.2.74,2.92,1.11,3.95,1.83,9.03,6.34,19.45,12.12,31.27,17.3,10.5,4.61,21,5.77,31.5,3.47,2.84-.63,5.49-1.12,7.95-1.5,20.21-3.09,36.31-20.07,49.99-34.66,1.14-1.21,2.22-2.15,3.25-2.82.88-.57.9-1.18.07-1.83-2.34-1.84-4.92-2.22-7.74-1.14-.18.06-.27.26-.2.44.04.1.11.17.21.21l2.54.88c.21.07.33.3.26.52-.04.12-.14.22-.26.26v-.02Z"/>
      <path class="cls-9" d="m268.82,232.08l-2.54-.88c-.18-.07-.28-.27-.21-.45.04-.1.11-.17.2-.2,2.82-1.08,5.4-.7,7.74,1.14.83.64.8,1.26-.07,1.83-1.02.67-2.1,1.61-3.25,2.82-13.68,14.6-29.79,31.58-49.99,34.66-2.46.38-5.11.88-7.95,1.5-10.5,2.3-21,1.14-31.5-3.47-11.82-5.19-22.24-10.96-31.27-17.3-1.02-.72-2.75-1.08-3.95-1.83-.32-.2-.37-.46-.18-.78,1.73-2.68,4.22-3.92,7.46-3.7.23.02.39.21.38.44,0,.12-.07.23-.16.29l-2.15,1.54c-.21.15-.26.46-.11.67.11.15.3.23.48.19,2.84-.58,5.79-.93,8.53-1.86,16.56-5.66,33.41-10.25,50.57-13.76,6.02-1.23,11.15-1.5,17.8-1.13,11.44.63,22.89,1.24,34.33,1.83,2,.1,3.93-.16,5.82-.8.21-.07.34-.31.27-.53-.04-.12-.13-.22-.26-.26v.02Zm-52.38,2.68l2.59,3.99c.54.83,1.65,1.05,2.47.51.04-.02.07-.05.1-.07,1.44-1.1,2.25-2.57,2.42-4.39.03-.32-.11-.48-.44-.48l-6.93.03c-.32,0-.39.13-.21.41h0Zm19.2-.02l2.79,7.65c.15.4.6.61,1.01.46.14-.05.26-.14.35-.26l5.31-6.99c.11-.15.08-.37-.07-.48-.06-.04-.12-.06-.18-.07l-9.12-.45s-.09.04-.1.09v.04h0Zm-32.8,7.43l1.54-5.42c.12-.42-.03-.57-.45-.47l-5.84,1.44c-.36.09-.58.46-.49.82.04.15.12.28.25.37l4.54,3.4c.22.17.37.12.45-.15h0Zm-18.64-.51l-8.27,2.51c-.4.12-.43.3-.09.53,1.88,1.29,3.88,2.43,5.7,3.81.72.55,1.57.67,2.54.39.29-.09.53-.29.64-.56.91-2.07.95-4.19.12-6.37-.12-.31-.33-.41-.65-.32Zm49.8,22.09c-.6-5.11-.21-9.3,3.35-12.5.2-.18.22-.48.04-.68-.04-.04-.09-.08-.14-.11-6.64-3.4-13.7-4.92-21.18-4.55-2.92.15-7.04,1.51-8.31,4.43-.04.1-.06.21-.05.32l.3,3.09c.03.32-.08.58-.32.78-1.24,1.02-2.17.39-3-.79-1.31-1.88-3.22-2.82-5.73-2.83-10.1-.06-17.81,4.11-23.12,12.5-.15.24-.08.56.17.71.01,0,.02.01.04.02l2.56,1.34c.27.13.6.04.75-.23,1.34-2.4,2.67-4.23,4-5.49,3.65-3.44,8.79-.85,10.33,3.21.85,2.27,1.66,4.55,2.43,6.86.28.86,1.21,1.33,2.08,1.04.23-.07.43-.2.61-.36,1.96-1.83,3.36-4.63,5.43-5.88,4.57-2.76,7.75,1.31,9.88,5.15.12.21.39.29.6.17.05-.02.09-.06.12-.1,2.07-2.48,2.68-6.07,4.46-7.89,3.6-3.67,8.17,1.09,10.93,3.65.21.2.45.24.72.11l2.68-1.29c.26-.12.41-.4.37-.69h0Zm2.1-7.67s-.06.1-.06.17l-.36,6.21c-.01.17.12.31.28.32.06,0,.13-.01.18-.04l9.45-5.92c.14-.09.18-.28.09-.42-.04-.06-.09-.1-.15-.12l-7.34-2.7c-.13-.05-.27,0-.35.11l-1.75,2.4h0Zm-42.4,14.04c-1.53-2.67-2.54-5.96-4.36-8.09-2.75-3.23-6.89,1.43-8.54,3.97-.14.21-.09.35.15.42l12.42,4.09c.45.15.55.01.32-.39Zm33.27-4.44c-2.72-2.22-4.78-2.46-6.2-.72-.83,1.03-1.43,2.22-1.8,3.58-.06.2.07.4.27.46.07.02.14.02.2,0l7.27-2.08c.87-.25.96-.66.26-1.23h0Zm-24.66,4.25c-.28.21-.34.62-.12.9.13.17.34.26.55.25l7.31-.5c.36-.02.63-.32.6-.68-.01-.15-.07-.29-.18-.4l-2.83-2.94c-.23-.24-.6-.27-.86-.07l-4.48,3.44h0Z"/>
      <path class="cls-6" d="m216.44,234.77c-.18-.27-.1-.41.21-.41l6.93-.03c.32,0,.47.16.44.48-.17,1.83-.98,3.3-2.42,4.39-.78.6-1.91.45-2.5-.34-.02-.04-.05-.07-.07-.1l-2.59-3.99Z"/>
      <path class="cls-6" d="m235.65,234.74s0-.11.06-.13c.01,0,.02,0,.04,0l9.12.45c.19.01.33.17.32.36,0,.07-.02.13-.07.18l-5.31,6.99c-.26.34-.75.41-1.1.15-.12-.09-.21-.21-.26-.35l-2.79-7.65v-.02Z"/>
      <path class="cls-6" d="m204.39,236.75l-1.54,5.42c-.08.27-.23.32-.45.15l-4.54-3.4c-.29-.23-.36-.65-.13-.94.09-.12.22-.21.37-.25l5.84-1.44c.42-.1.57.05.45.47h0Z"/>
      <path class="cls-6" d="m175.93,244.17l8.27-2.51c.32-.09.53.01.65.32.82,2.18.78,4.3-.12,6.37-.12.27-.35.47-.64.56-.97.28-1.81.15-2.54-.39-1.82-1.37-3.82-2.52-5.7-3.81-.34-.23-.32-.41.09-.53Z"/>
      <path class="cls-4" d="m237.36,251.25c-3.57,3.21-3.95,7.39-3.35,12.5.04.29-.12.56-.37.69l-2.68,1.29c-.26.13-.5.09-.72-.11-2.76-2.56-7.32-7.32-10.93-3.65-1.78,1.82-2.4,5.41-4.46,7.89-.15.19-.44.21-.63.06-.04-.04-.08-.08-.1-.12-2.13-3.84-5.31-7.91-9.88-5.15-2.07,1.25-3.47,4.05-5.43,5.88-.67.62-1.72.58-2.33-.08-.16-.17-.28-.38-.36-.6-.77-2.3-1.59-4.59-2.43-6.86-1.53-4.06-6.68-6.65-10.33-3.21-1.34,1.26-2.67,3.1-4,5.49-.15.26-.48.36-.75.23l-2.56-1.34c-.25-.13-.36-.44-.22-.7,0-.01.01-.02.02-.04,5.32-8.39,13.02-12.56,23.12-12.5,2.51.01,4.42.96,5.73,2.83.83,1.18,1.75,1.82,3,.79.25-.21.36-.47.32-.78l-.3-3.09c0-.11.01-.22.05-.32,1.27-2.92,5.39-4.28,8.31-4.43,7.48-.37,14.54,1.14,21.18,4.55.24.12.33.41.21.65-.02.06-.07.1-.11.14h0Z"/>
      <path class="cls-1" d="m313.87,255.54c0-2.59-.07-6.8,2.33-8.39,1.76-1.17,3.59-.92,5.48.76,7.46,6.61-6.74,8.57-2.86,12.83.48.52,1.28.55,1.8.08.13-.12.23-.26.3-.41.81-1.77,2.03-3.33,3.67-4.66,2.43-1.97,3.68-4.54,5.4-6.98,2.5-3.55,6.44-3.22,7.27,1.26.54,2.94-.32,5.28-2.57,7.02-.83.64-1.33,1.15-1.48,1.53-.37.89-.02,1.66,1.05,2.31,3.08,1.87,5.69-1.6,8.54-.55,2.7,1,2.19,5.39,1.14,7.58-.12.25-.31.43-.57.53-1.64.67-3.26,0-4.55.24-2.05.39-3.08,1.74-3.07,4.06,0,.28.09.54.26.78.78,1.04,1.69,1.93,2.73,2.68,1.53,1.09,1.55,1.62.64,3.17-3.36,5.72-6.53,1.45-9.98-.8-2.08-1.36-3.77-.82-5.68.39-4.78,3.03-8.88,5.68-12.29,7.94-3.52,2.32-6.34,3.79-8.49,4.41-6.88,1.98-11.55.83-19.05-1.69-9.98-3.35-19.23-5.41-29.65-4.43-.29.02-.54.2-.67.45-.88,1.62.07,3.16.63,4.71,2.35,6.49,4.81,13.28,9.29,18.66.21.25.17.45-.1.61-2.19,1.33-4.35,1.72-6.47,1.17-4.62-1.2-9.17-9.4-11.11-13.42-.82-1.72-1.99-5.26-3.52-10.65-1.24-4.36-2.75-8.66-4.53-12.93-.13-.31-.02-.67.27-.85,4.58-2.95,9.5-6.07,14.76-7.16,3.76-.77,7.55-1.02,11.39-.75,1.02.07,2.86.48,5.5,1.21,6.32,1.75,12.57.63,18.76-3.36,6.86-4.41,11.74-8.06,16.9-8.32,2.73-.14,5.1.99,7.88,1.53.29.06.58-.13.63-.42,0-.03.01-.07.01-.1h0Zm19.02,17c3.81-5.01-1.08-10.66-6.29-11.66-.8-.15-1.14.09-1.04.7.05.29.26.52.55.59,4.75,1.17,8.08,5.8,4.44,10.24-.17.21-.39.33-.65.39-4.67.88-6.6-3.74-7.07-7.62-.03-.27.02-.53.17-.76l1.36-2.2c.2-.33.1-.76-.23-.96-.17-.1-.37-.13-.56-.07-1.23.37-2.1,1.11-2.64,2.2-1.22,2.52,2.32,8.27,4.13,10.14,2.35,2.43,6.06,1.35,7.83-.99h0Z"/>
      <path class="cls-6" d="m236.1,256.09l1.75-2.4c.08-.11.22-.15.35-.11l7.34,2.7c.15.06.23.23.18.39-.02.06-.06.11-.12.15l-9.45,5.92c-.14.09-.32.04-.42-.1-.03-.06-.05-.12-.04-.18l.36-6.21c0-.06.02-.12.06-.17h-.01Z"/>
      <path class="cls-6" d="m189.34,262.03c1.83,2.13,2.84,5.42,4.36,8.09.23.4.12.54-.32.39l-12.42-4.09c-.24-.08-.29-.22-.15-.42,1.64-2.54,5.78-7.2,8.54-3.97Z"/>
      <path class="cls-9" d="m332.9,272.54c-1.78,2.34-5.49,3.41-7.83.99-1.81-1.87-5.35-7.62-4.13-10.14.53-1.1,1.42-1.83,2.64-2.2.37-.12.75.09.86.46.06.19.03.4-.07.57l-1.36,2.2c-.15.23-.2.48-.17.76.47,3.88,2.4,8.5,7.07,7.62.26-.05.48-.18.65-.39,3.64-4.43.31-9.07-4.44-10.24-.28-.07-.5-.31-.55-.59-.1-.62.25-.85,1.04-.7,5.22.99,10.1,6.65,6.29,11.66h0Z"/>
      <path class="cls-6" d="m226.97,265.69c.7.57.61.99-.26,1.23l-7.27,2.08c-.2.06-.42-.06-.47-.26-.02-.07-.02-.13,0-.2.37-1.35.97-2.55,1.8-3.58,1.42-1.73,3.49-1.5,6.2.72h0Z"/>
      <path class="cls-6" d="m202.31,269.94l4.48-3.44c.26-.2.63-.17.86.07l2.83,2.94c.25.26.23.66-.02.91-.11.1-.25.17-.4.18l-7.31.5c-.36.02-.66-.25-.69-.59-.01-.21.08-.42.25-.55h0Z"/>
      <path class="cls-5" d="m192.14,290.91c1.01-4.39,1.83-7.49,2.43-9.29.47-1.4,1.24-2.18,2.29-2.35,12.58.96,24.73-.75,36.45-5.12.22-.09.38-.01.47.21,1.94,4.87,3.44,9.84,4.51,14.92,1.83,8.68,6.52,16.09,12.8,22.17.17.17.17.44,0,.6-.07.07-.15.11-.25.12-18.89,2.46-37.9,1.23-56.88,0-.19-.01-.33-.17-.32-.36.1-4.46.09-8.94-.02-13.43-.07-2.7-.57-5.2-1.51-7.48h.02Z"/>
      <path class="cls-1" d="m196.87,279.27c-1.05.17-1.82.96-2.29,2.35-.61,1.8-1.42,4.89-2.43,9.29-1.36,6.72-2.26,13.23-2.67,19.54-.07,1-.89,1.77-1.89,1.76l-14.46-.09c-.71,0-1.34-.46-1.57-1.13-1.27-3.73-3.69-6.42-7.24-8.08-.32-.15-.45-.53-.31-.85.04-.09.1-.17.19-.23,5.24-3.95,10.13-8.35,14.67-13.19,2.98-3.18,4.3-6.48,5.09-10.58.07-.39.44-.64.83-.58l12.1,1.78h0Z"/>
      <ellipse class="cls-1" cx="135.33" cy="309.83" rx="6.09" ry="4.54" transform="translate(-194.76 382.98) rotate(-78.9)"/>
      <path class="cls-1" d="m157.36,316.43c.07.26-.08.53-.34.61-.04.01-.09.02-.13.02-5.45.02-8.78.51-10.68-5.62-1.18-3.82.06-6.25,3.73-7.31,2.26-.65,3.74.15,4.47,2.42.96,2.99,1.95,6.29,2.95,9.89h0Z"/>
      <path class="cls-1" d="m160.06,305.76c3.11,1.42,5.39,3.24,6.82,5.45,1.14,1.78.39,2.89-.67,4.39-.66.93-1.42,1.15-2.29.65-3.63-2.07-4.79-5.78-5.06-9.67-.07-.94.33-1.23,1.2-.83h0Z"/>
      <path class="cls-2" d="m121.91,319.79l-4.54,1.66c-.19.07-.4-.03-.47-.22-.04-.1-.02-.23.04-.32,2.19-3.55,4.38-7.12,6.56-10.71.28-.46.6-.83.97-1.11.71-.54,1.72-.4,2.26.31.1.13.18.28.24.44,1.31,3.74.26,5.32,3.81,8.49,1.13,1.01,2.07,2.48,2.82,4.42.47,1.22,1.46,2.01,2.97,2.37.32.08.47-.05.46-.37-.21-5.68,2.53-7.19,6.06-10.74.15-.15.39-.15.55,0,.05.05.08.1.1.17.91,3.38,2.98,5.68,6.21,6.93.25.1.45.29.56.54l2.45,5.77c.15.34.55.5.89.36.04-.02.07-.04.1-.06,1.13-.74,1.59-1.8,1.4-3.23-.41-3.19,1.03-5.17,4.33-5.95.26-.06.48,0,.69.17,3,2.51.99,5.39,3.05,8.05.18.22.4.28.66.18,3.07-1.24,5.75-7.56,7.62-11.29.13-.26.34-.37.63-.35,6.39.48,12.94,1.13,19.15,1.29,17.91.48,35.83.47,53.74-.02,4.47-.12,9.45-.51,13.96-1.23,9.97-1.59,19.94-3.16,29.91-4.74,3.41-.54,6.93,7.4,8.07,9.89.07.13,0,.3-.13.37-.07.04-.15.04-.22,0l-3.69-1.48c-.28-.11-.48-.03-.59.24-.59,1.34-.72,2.71-.37,4.12,2.04,8.49,5.51,16.14,10.41,22.95,4.57,6.35,7.18,10.57,10.46,16.28.06.11.01.24-.1.29-.07.04-.15.03-.22-.02-1.5-1.18-3.97-3.39-5.95-3.55-.27-.02-.5.06-.71.23-1.99,1.72.42,6.05,1.07,8.13.09.32-.02.48-.35.48-20.59-.12-39.62-.17-59.24-3.14-6.21-.94-11.66-1.65-16.33-2.13-14.41-1.49-27.24-3.59-38.48-6.31-25.16-6.08-50.53-12.25-76.08-18.5-.33-.08-.4-.26-.23-.55,2.26-3.86,3.84-7.88,5.66-12.02.78-1.8.97-3.7.55-5.7-.09-.39-.31-.52-.69-.39h.01Z"/>
      <path class="cls-2" d="m78.95,446.23c-.58.05-1.08,0-1.5-.14-.26-.09-.4-.37-.32-.64,0-.02.02-.06.03-.08,2.64-5.03,5.15-10.11,7.53-15.24,1.4-3.02-.81-3.37-3.07-3.53-.39-.03-.48-.21-.31-.55,7.65-14.83,12.85-25.37,15.59-31.62.51-1.18.11-2.07-1.22-2.65-.26-.12-.32-.31-.19-.57,4.9-9.17,9.63-18.4,14.21-27.72.7-1.43.4-2.62-.88-3.57-1.97-1.46-5.52,1.94-7.12,3-.12.09-.28.05-.36-.07-.06-.09-.06-.2,0-.29l12.61-20.64c.31-.51.91-.76,1.48-.62l7.69,1.85c.83.2,1.35,1.04,1.15,1.87-.02.09-.05.18-.09.26-1.02,2.31-2.42,3.87-4.61,5.75-6.56,5.62-7.96,12.56-4.17,20.81.42.92,1.23,1.25,2.45.99,6.41-1.35,10.58-4.86,12.52-10.53.14-.41.51-2.56,1.12-6.46.5-3.19,1.55-6.32,3.14-9.38.13-.25.41-.38.69-.31l29.28,7.16c.28.07.47.34.42.63-.47,2.71-1.1,5.33-1.89,7.87-1.29,4.15-1.99,6.75-2.08,7.8-.47,5.28,1.24,9.96,5.15,14.05,1.42,1.48,2.96,1.59,4.65.32,5.57-4.2,7.51-10.47,5.53-17.16-.88-3-2.59-6.26-1.08-9.41.12-.26.34-.45.61-.54,1.04-.34,2.25-.37,3.62-.07,11.06,2.38,22.11,4.79,33.17,7.21.27.06.37.21.32.48-.45,2.38-1.37,4.02-2.76,4.92-6.9,4.43-9.11,10.66-6.63,18.7.8,2.57,2.45,6.64,5.98,5.47,7.26-2.41,11.03-7.26,11.33-14.54.21-5.15.86-9.41,1.96-12.77.1-.31.31-.44.63-.39,9.06,1.45,18.12,2.76,27.19,3.92,4.18.54,4.53,4.11,3.14,7.48-3.44,8.4-1.8,15.79,4.94,22.17,1.41,1.34,2.93,1.83,4.73.75,3.03-1.83,6.07-4.9,5.93-8.72-.14-3.92-.09-9.37-2.06-12.83-1.12-1.97-2.11-4-2.96-6.1-.1-.23.01-.5.25-.6.06-.02.12-.04.18-.04h38c.36,0,.51.17.44.53-1,4.89-3.79,4.92-6.51,7.73-2.36,2.43-3.3,5.66-2.82,9.68.54,4.57,1.35,8.13,2.42,10.67.64,1.53,2.75,1.43,4.19.92,4.74-1.71,7.97-4.8,9.67-9.27,1.39-3.65.97-8.83,1.48-13.15.04-.33.12-.51.23-.55.39-.11.82.07,1.02.45l6.65,12.03c.14.26.07.45-.19.57-1.42.66-1.83,1.76-1.23,3.31,1.2,3.08,2.56,6.01,4.07,8.82.1.18.04.41-.15.51-.02.01-.04.02-.06.02-6.59,2.19-13.22,4.39-19.86,6.63-21.79,7.32-44.14,13.34-66.8,17.23-30.57,5.26-61.59,9.93-92.49,12.72-21.32,1.92-42.63,3.73-63.95,5.45h0Zm42.06-55.43c5.47,1.64,7.41,4.79,9.03,9.98.04.16.21.25.37.21.11-.03.19-.12.21-.23,1.12-5.11,4.17-8.45,9.14-10,.14-.04.22-.19.18-.33-.02-.09-.09-.15-.17-.18-5.27-1.75-8.29-5.41-9.03-10.99,0-.22-.18-.4-.4-.4s-.4.18-.4.4c-.71,5.56-3.69,9.25-8.93,11.06-.13.04-.2.18-.16.32.02.08.09.14.17.17h0Z"/>
      <path class="cls-8" d="m117.04,370.4c-.66-3.44-1.64-6.91-.84-10.18,1.13-4.58,4.69-11.25,10.57-6.79,1.43,1.08,2.35,1.76,2.27,3.73-.09,2.56-.82,4.87-2.17,6.91-1.86,2.81-6.21,4.64-9.11,6.63-.39.26-.63.17-.72-.29h0Z"/>
      <path class="cls-7" d="m173.7,365.4c2.49,6.91.81,12.42-5.03,16.53-.19.13-.44.11-.61-.05-4.24-4.1-5.75-9.05-4.55-14.86.28-1.37.89-2.53,1.81-3.47.2-.2.43-.3.71-.32,2.63-.21,6.72-.42,7.67,2.18h0Z"/>
      <path class="cls-8" d="m208.91,390.2c-4.01-6.21-2.65-13.6,3.44-17.66.23-.15.49-.22.77-.19,2.84.28,5.68,1.85,5.71,5.11.07,6.33-2.95,10.67-9.06,13.02-.32.12-.67,0-.86-.28Z"/>
      <path class="cls-7" d="m255.99,382.95c.29-3.14,1.92-5.24,5.28-4.55,3.4.71,3.74,3.93,4.2,6.9.69,4.48-.42,8.1-3.32,10.86-.22.21-.45.22-.69.02-4.13-3.6-5.96-8.02-5.47-13.23Z"/>
      <path class="cls-6" d="m130.03,400.78c-1.62-5.2-3.56-8.34-9.03-9.98-.13-.04-.21-.19-.17-.32.02-.08.09-.13.16-.16,5.24-1.8,8.21-5.49,8.93-11.06,0-.22.18-.4.4-.4s.4.18.4.4c.75,5.57,3.76,9.24,9.03,10.99.14.05.21.2.17.34-.03.08-.09.15-.18.17-4.96,1.56-8.01,4.89-9.14,10-.03.17-.19.27-.35.24-.11-.02-.2-.1-.23-.21h.01Z"/>
      <path class="cls-8" d="m308.85,384.34c.97,7.02-2.62,11.39-8.83,14.24-.26.12-.42.04-.51-.23-1.27-3.86-3.18-11.89-.21-15.26,2.2-2.51,8.92-3.4,9.55,1.24h0Z"/>
      <path class="cls-6" d="m55.38,415.37l-20.02-2.35-7.34-7.7-5.34-16.37c19.2-4.93,28.89,10.51,32.68,26.42h0Z"/>
      <path class="cls-8" d="m22.69,388.95l5.34,16.37c-5.68.67-8.25,3.79-7.7,9.35l-16.35,1.34c-1.67-6.91-.86-14.18,3.62-19.81,3.67-4.6,8.7-7.02,15.09-7.25h0Z"/>
      <path class="cls-2" d="m321.17,506.87c1.23,1.58,2.78,2.73,4.65,3.47.14.06.2.23.13.36-.04.09-.13.15-.24.16-10,0-19.92.12-29.77.35-2.93.07-4.96,2.7-8.54,2.65-12.38-.21-24.76-.56-37.13-1.05-3.1-.12-7.01,2.38-10.98,2.45-20.61.32-41.21.36-61.8.12-3.52-.04-6.35-.86-8.49-2.47-.23-.17-.48-.25-.77-.24-13.16.58-26.3,1.09-39.43,1.53-.96.02-2.53-.14-3.28-.78-2.05-1.73-4.43-2.55-7.14-2.45-9.43.37-18.99-.17-28.44-.07-.37,0-.52-.17-.46-.49.02-.13.12-.25.24-.28,1.89-.61,3.43-1.72,4.6-3.33.22-.31.18-.57-.14-.78-.89-.61-2.12-.88-3.67-.83-9.81.33-19.54.85-29.17,1.55-.29.02-.55-.2-.56-.5,0-.09.01-.18.05-.26,3.29-7.13,6.57-14.21,9.84-21.22,1.06-2.29,4.5-8.24-.09-8.89-.32-.04-.42-.21-.28-.51,2.04-4.36,4.01-8.73,5.91-13.08.72-1.67.61-3.81-.35-6.4-.12-.34-.36-.48-.72-.41l-3.16.58c-.22.04-.44-.1-.48-.32-.02-.09,0-.19.04-.28l2.87-5.35c.28-.52.81-.86,1.39-.89l9.92-.65c.39-.03.72.26.75.65.01.13-.02.26-.07.37-2.06,4.04-5.17,8.21-6.25,12.1-1.57,5.63-.55,10.74,3.05,15.31.88,1.13,2.7,1.04,3.98.37,4.82-2.5,7.67-6.33,8.53-11.49.18-1.1.13-3.22-.16-6.38-.34-3.8-.06-7.58.86-11.32.07-.29.26-.45.56-.48l37.12-3.12c.21-.02.34.09.37.3.69,5.68-2.38,7.83-3.49,11.52-1.99,6.57-.55,12.29,4.3,17.15,1.14,1.14,2.79,1.24,4.03.36,4.48-3.19,6.84-7.37,7.07-12.55.04-1.01-.32-3.59-1.08-7.74-.58-3.16-.83-6.36-.74-9.61,0-.28.15-.44.42-.47l34.85-3.71c.31-.03.52.09.65.37,1.54,3.47,2.19,7.04,1.96,10.7-.17,2.48-.15,4.22.06,5.22,1.27,6.15,4.97,10.43,11.11,12.84.25.1.53.1.78,0,1.54-.56,2.66-1.71,3.35-3.44,2.59-6.48,1.96-12.28-1.89-17.39-2.58-3.42-3.76-5.77-5.3-9.1-.15-.31-.05-.48.28-.54l46.33-7.53c.17-.03.32.08.35.24,0,.03,0,.07,0,.1-.47,3.19-.82,5.55-1.84,9.19-1.94,6.9.32,15.03,6.47,19.13,1.12.74,2.87.77,3.77-.11,4.03-3.87,5.77-8.35,5.23-13.45-.12-1.2-.95-3.97-2.48-8.34-.96-2.73-1.77-5.51-2.45-8.35-.08-.32.12-.64.45-.72.02,0,.03,0,.05-.01,12.24-1.84,24.22-4.78,35.93-8.79.27-.09.55.06.64.32.02.05.02.1.02.16,0,2.77-.23,4.58-.72,8.13-1.12,8,1.69,14.16,8.45,18.48,1.24.8,3.12.64,4.02-.44,3.56-4.26,4.78-8.88,3.67-13.86-.28-1.28-1.36-3.7-3.23-7.27-1.25-2.39-2.33-4.83-3.23-7.31-.1-.29.04-.62.34-.72h0l26.15-8.84c.32-.1.57-.02.74.27,1.86,2.98,2.88,6.19,3.07,9.63.42,7.89,5.85,9.33,9.05,15.27,3.91,7.28,7.81,14.53,11.69,21.75.1.19.03.43-.16.53-.07.04-.15.06-.22.04l-3.54-.32c-.32-.03-.53.11-.62.42-1.65,5.58,2.26,11.95,5.53,19.07.13.29.05.47-.26.55-2.21.58-2.87,1.93-1.97,4.05,2.31,5.39,6.28,14.18,11.93,26.34.15.32.06.47-.29.45-9.62-.48-19.2-.98-28.73-1.48-1.38-.08-2.6.27-3.68,1.04-.24.17-.29.5-.12.74v.02s.02,0,.02,0Zm-44.65-36.33c1.5-3.16,2.06-5.03,5.91-6.59.57-.23.56-.45,0-.66-3.15-1.15-5.04-3.39-5.68-6.7-.05-.21-.26-.34-.47-.29-.15.04-.27.16-.29.31-.43,3.54-2.34,5.82-5.71,6.84-.16.06-.25.22-.19.38.03.09.1.16.18.19,3.15,1.03,5.07,3.19,5.75,6.47.03.15.17.24.32.2.08-.02.15-.07.19-.15h0Zm31.88-8.13c-1.05,3.46-1.85,7.54-5.22,9.55-1.64.99-2.91,1.76-3.81,2.33-.39.25-.37.44.07.58,4.84,1.48,7.75,4.72,8.75,9.7.04.18.21.29.39.25.12-.02.22-.12.25-.24,1.11-4.92,3.99-8.27,8.64-10.08.42-.17.42-.33,0-.48-5.26-1.97-8.02-5.81-8.3-11.5-.01-.21-.19-.37-.4-.37-.16,0-.3.12-.35.28h0Z"/>
      <path class="cls-8" d="m325.37,421.95c-.89-1.73-1.84-5.74-.02-7.21,2.97-2.4,6.63-2.79,9.33.35,3.7,4.3,4.39,9.12,2.1,14.48-.34.8-1.27,1.17-2.07.82h-.01c-4.27-1.89-7.37-4.7-9.31-8.44h0Z"/>
      <path class="cls-8" d="m35.37,413.02l20.02,2.35c2.32,6.51,4.66,13.22,7.06,20.11.52,1.5.32,2.67-.59,3.52l-18.82-3.81-7.66-22.19h0Z"/>
      <path class="cls-6" d="m20.33,414.67c.47,1.51,1.3,2.73,2.5,3.69,1.82,1.43,4.72,1.24,6.34,3,2.81,3.03,2.76,6.1-.16,9.23-3.63,3.86-9.51,4.27-14.21,2.11-6.36-2.92-8.64-9.89-10.83-16.68l16.35-1.34h0Z"/>
      <path class="cls-7" d="m292.85,426.45c5.72,5.93,4.27,11.74.53,18.36-.13.22-.42.3-.64.17h0c-5.06-3.02-8.87-8.37-8.21-14.42.46-4.06,4.11-5.25,7.66-4.49.26.06.48.18.67.37h-.01Z"/>
      <path class="cls-6" d="m61.84,439l2.21,1.64c.22.17.37.38.46.64.93,2.82,1.88,5.64,2.83,8.45,1.29,3.79,1.08,6.3-1.65,9.07l-16.3-2.27-6.37-21.34,18.82,3.81h0Z"/>
      <path class="cls-8" d="m243.09,457.37c-5.23-4.6-7.04-10.1-5.41-16.53.2-.75.62-1.29,1.27-1.6,3.33-1.65,7.08-1.18,8.59,2.42,2.7,6.42,1.43,11.66-3.81,15.73-.22.17-.44.17-.65-.02Z"/>
      <path class="cls-8" d="m367.59,446.82c-5.23,8.51-3.07,20,2.29,27.84.11.17.34.21.51.1.04-.03.08-.07.11-.11,5.68-8.76,13.9-13.81,24.64-15.13,4.8,6.71,6.48,14.43,5.03,23.17-6.82-7.44-17.74-8.29-27.03-5.3-.74.24-1.21.96-1.13,1.73,1.17,10.83-.28,19.89-7.35,28.23-2.76.11-5.02-.54-6.76-1.96-.99-.81-2.05-2.56-3.16-5.25-.88-2.16-1.86-4.3-2.94-6.42,8.04-3.06,13.73-8.43,17.07-16.1.13-.29.04-.5-.26-.6-7.11-2.54-12.85-6.67-17.21-12.37-1.08-2.35-2.11-4.54-3.11-6.58-2.96-6.07,13.73-11.2,17.44-11.75.8-.12,1.17.16,1.83.5h0Z"/>
      <path class="cls-6" d="m395.15,459.52c-10.74,1.32-18.96,6.37-24.64,15.13-.11.17-.33.23-.51.12-.04-.03-.08-.07-.11-.11-5.36-7.84-7.53-19.33-2.29-27.84.78-.45,1.44-.67,1.99-.66,10.9.24,19.42,4.69,25.57,13.35h0Z"/>
      <path class="cls-7" d="m191.79,447.71c7.07,4.79,5.47,12.36,2.64,18.98-.12.29-.32.35-.58.18-5.68-3.7-10.07-8.29-9.49-15.67.06-.77.29-1.45.72-2.05.17-.25.4-.41.7-.48l5.22-1.11c.29-.06.56-.01.8.15h0Z"/>
      <path class="cls-8" d="m136.55,471.61c-3.76-4.45-5.2-10.3-3.17-15.61,1.41-3.7,5.23-4.15,8.46-2.68.32.15.55.39.69.71,3.18,7.51,1.45,13.41-5.2,17.69-.25.16-.58.11-.77-.12h0Z"/>
      <path class="cls-6" d="m282.43,463.95c-3.85,1.56-4.41,3.44-5.91,6.59-.07.13-.23.19-.37.13-.07-.04-.13-.1-.14-.18-.69-3.28-2.61-5.44-5.75-6.47-.15-.06-.24-.23-.18-.39.03-.09.1-.15.19-.18,3.38-1.02,5.29-3.3,5.71-6.84.04-.21.24-.36.45-.32.15.02.28.14.31.29.63,3.32,2.53,5.56,5.68,6.7.57.21.58.43,0,.66h0Z"/>
      <path class="cls-7" d="m84.82,474.84c-3.4-4.64-4.45-11.9-.72-16.81,1.96-2.56,5.73-1.99,8.11-.51.26.17.44.4.53.7,2.22,7.81-.18,13.42-7.21,16.81-.28.13-.52.07-.71-.18h0Z"/>
      <path class="cls-8" d="m49.39,456.54l16.3,2.27c-1.02,1.84-1.46,3.84-1.32,5.99.02.35.2.47.53.34,2.16-.81,4.05-2.04,5.66-3.7.16-.17.42-.17.58,0,.04.04.07.09.09.13.58,1.43.56,2.81-.05,4.11-2.3,4.95-4.66,9.85-7.11,14.69l-8.5-2.12-6.18-21.71Z"/>
      <path class="cls-6" d="m351.43,464.65c4.36,5.71,10.1,9.83,17.21,12.37.3.1.39.31.26.6-3.34,7.67-9.03,13.04-17.07,16.1l-5.06-10.35c-.2-.39-.09-.5.3-.3l3.47,1.73c.35.17.53.06.53-.32,0-5.06-4.16-11.96-7.83-19.32-.96-1.91-1.12-3.37,1.07-4.33.23-.1.49-.01.61.2,2.19,3.98,4.36,5.19,6.52,3.62h0Z"/>
      <path class="cls-6" d="m303.18,471.98c3.37-2.01,4.17-6.09,5.22-9.55.06-.2.28-.32.48-.26.15.05.26.18.28.35.28,5.69,3.05,9.53,8.3,11.5.42.15.42.32,0,.48-4.66,1.8-7.54,5.16-8.64,10.08-.04.17-.22.28-.39.24-.12-.03-.21-.12-.24-.25-.99-4.98-3.91-8.21-8.75-9.7-.45-.14-.47-.33-.07-.58.9-.57,2.17-1.34,3.81-2.33h0Z"/>
      <path class="cls-6" d="m400.18,482.68c-2.37,10.61-8.34,18.17-17.92,22.69-5.32,2.51-11.19,3.16-17.58,1.97,7.07-8.34,8.52-17.41,7.35-28.23-.09-.77.39-1.49,1.13-1.73,9.29-3,20.21-2.15,27.03,5.3Z"/>
      <path class="cls-6" d="m55.57,478.26l8.5,2.12-.16,4.3c-.02.46.15.55.51.25l3.7-3.1c.13-.11.33-.1.45.04.08.09.1.23.04.34l-6.77,14.39c-.12.26-.43.37-.69.25-.13-.07-.24-.18-.28-.33l-5.31-18.26h0Z"/>
    </g>
  </g>
</svg>