<?xml version="1.0" encoding="UTF-8"?>
<svg id="Layer_2" data-name="Layer 2" xmlns="http://www.w3.org/2000/svg" viewBox="0 0 579.47 569.53">
  <defs>
    <style>
      .cls-1, .cls-2, .cls-3, .cls-4, .cls-5, .cls-6, .cls-7, .cls-8, .cls-9 {
        stroke-width: 0px;
      }

      .cls-2 {
        fill: #fa95b3;
      }

      .cls-3 {
        fill: #537fb5;
      }

      .cls-4 {
        fill: #25519e;
      }

      .cls-5 {
        fill: #81ceeb;
      }

      .cls-6 {
        fill: #ce96d9;
      }

      .cls-7 {
        fill: #fbd1db;
      }

      .cls-8 {
        fill: #fff;
      }

      .cls-9 {
        fill: #675f92;
      }
    </style>
  </defs>
  <g id="katman_1" data-name="katman 1">
    <g>
      <path class="cls-1" d="m576.57,268.76c-.95-1.72-2.28-3.39-3.52-4.42-.57-.46-.99-1.07-1.21-1.8l-1.2-4.01c-.18-.55-.22-1.11-.12-1.67.56-3.6-.11-9.52-1.78-15.76-.13-.44-.17-.89-.13-1.33,1.5-18.84-4.86-34.23-14.83-51.48-.76-1.25-.7-2.83.16-4.04,7.7-10.62,12.81-24.19,14.78-39.24,1.94-14.67.96-30.04-2.81-44.46-3.45-13.15-8.39-23.44-14.66-30.58-5.7-6.49-12.59-10.07-19.4-10.07-.25,0-.49.01-.74.02-1.74.06-3.42.43-5,1.11-6.11,2.62-9.93,9.52-12.58,15.24-2.44,5.27-4.49,10.86-6.48,16.27-1.05,2.87-2.14,5.83-3.28,8.73-3.35,8.57-6.85,15.45-10.68,21.04-.57.84-1.34,1.94-2.17,2.99-.69.92-1.75,1.44-2.9,1.44-.53,0-1.07-.11-1.6-.36-.9-.44-1.88-.85-3.05-1.26-1.17-.45-2.02-1.44-2.28-2.63-.28-1.23.09-2.5.99-3.39,2.24-2.22,4.04-4.69,5.21-7.13.91-1.91,2.08-5.55-.33-8.44-1.74-2.09-4.19-2.53-5.95-2.53-2.36,0-4.9.78-6.97,2.14l-1.93,1.27c-.6.41-1.31.63-2.04.63-.54,0-1.09-.13-1.63-.39-1.21-.6-1.96-1.76-2.01-3-.11-1.44-.57-3.5-2.19-5.14-1.84-1.88-4.22-2.27-5.9-2.27-.31,0-.62.01-.94.04-2.94.25-6.21,1.65-9.45,4.06-3.57,2.65-7.4,5.08-11.36,7.22-.53.3-1.14.45-1.75.45-.66,0-1.31-.18-1.87-.52-1.1-.65-1.78-1.85-1.78-3.13,0-4.38-.84-7.85-2.35-9.77-1.4-1.76-3.33-2.88-5.43-3.14-.35-.05-.69-.07-1.03-.07-4.87,0-7.83,4.57-8.88,8.48-1.6,5.91-7.08,11.75-11.36,15.01-.55.41-1.18.64-1.83.69-2.72.23-5.7.68-9.39,1.42-8.12,1.62-15.18,4.04-21.01,7.2-3.16,1.71-5.94,3.65-8.26,5.78-.61.55-1.37.87-2.15.92-4.46.37-9.78,2.6-14.22,5.95-.65.49-1.41.75-2.21.75-.59,0-1.18-.15-1.72-.43-1.03-.55-2.06-1.12-3.08-1.68l-1.21-.67c-.98-.57-1.64-1.54-1.81-2.73-.63-5.2-1.62-10.43-2.57-15.49-1.97-10.51-4.14-20.03-6.62-29.11-2.34-8.55-6.21-21.63-13.73-34.74-1.4-2.43-19.43-32.86-54.83-46.34-8.09-3.08-18.81-7.01-24.88-1.96-5.5,4.58-4.63,14.4-3.94,22.22.99,11.13,5.38,19.4,7.61,23.51,2.61,4.81,5.35,8.47,7.36,10.91,3.17-.92,7.73-1.89,13.24-1.84,5.58.05,12.76.11,14.47,3.68,1.64,3.43-2,9.64-8.95,14.83-7.36-3.43-14.71-6.86-22.07-10.3,0,0-2.22-.98-5.37-2.29-16.2-6.74-32.22-8.8-39.99-9.67-7.78-.87-15.46-1.31-22.84-1.31-11.47,0-22,1.06-31.31,3.15-11.83,2.64-26.31,8.21-28.12,19.75-1.28,8.17,4.06,16.84,10.41,21.49,6.16,4.51,12.7,4.93,15.31,4.95-2.48,1.02-5.97,2.8-9.32,5.93-7.62,7.13-9.33,16.33-11.01,25.41-1.06,5.72-2.02,14.3-.85,24.85-4.43-1.05-11.5-2.05-19.48,0-17.55,4.5-26.32,20.31-29.93,26.82-10.14,18.29-9.52,37.6-8.99,54.51.16,4.89.52,8.96.82,11.79-1.68-.91-3.91-2.06-6.58-3.29-1.97-.91-6.07-2.75-13.57-5.32,0,0-14.68-5.26-23.07-5.26-1.49,0-2.83.11-3.98.35-6.31,1.29-10.83,6.19-12.09,13.13-1.75,9.65,2.45,22.76,12.48,38.97,9.9,16,22.39,30.71,37.11,43.73,9.63,8.53,19.01,15.42,27.9,20.5.63.36,1.12.88,1.42,1.5.3.6.35,1.14.37,1.29.24,2.51,1.15,5,1.64,7.47,1.07,5.33,1.53,10.69,1.72,16.12.46,13.54.55,28.85-3.49,41.91-2.35,7.59-5.61,14.89-7.42,22.64-1.42,6.07-3.46,16.82,2.4,21.28,4.69,3.57,11.91.78,12.22.66,2.74-1.1,4.53-2.83,5.47-3.86,10.36-11.27,10.07-36.72,11.97-47.74.09-.53.54-3.43,1.17-7.4.22-1.35.41-2.7.56-4.06,1.18-11.13.05-22.59-.29-33.75-.03-1.15-.04-2.4.67-3.3,1.16-1.5,3.46-1.21,5.31-.78,1.94.46,3.89.91,5.83,1.37.81.19,1.66.4,2.27.97,1.13,1.06.99,2.87.71,4.39-.79,4.21-2.05,8.35-2.52,12.61-.47,4.26-.09,8.79,2.17,12.44.83,1.34,1.94,2.7,1.78,4.27-.15,1.44-1.34,2.51-2.39,3.51-5.38,5.12-8.94,12.05-10.08,19.38-.93,5.98-1.94,12.59-.83,18.63.52,2.81,1.62,8.5,5.71,14.57,1.5,2.23,4.81,7.02,11.11,10.54,3.92,2.19,7.57,3.09,10.01,3.49h.1c1.06.17,1.96.76,2.54,1.66,2.3,3.56,5.22,7.26,8.69,11.01,8.39,9.08,17.49,15.19,27.05,18.19,7.46,2.34,16.39,3.47,27.28,3.47,1.57,0,3.22-.02,4.91-.07,13.17-.37,27.02-2.07,41.17-5.07.27-.06.54-.09.81-.09.57,0,1.11.13,1.66.4,3.66,1.9,8.28,3.3,11.86,4.3,1.03.27,1.86.94,2.38,1.99.52,1.11,1.16,2.28,2.03,3.68,2.88,4.64,6.84,9.32,12.13,14.33,5.24,4.97,12.02,9.06,20.16,12.17,3.46,1.34,6.55,2.3,9.42,2.95.74.16,1.41.55,1.91,1.11l16.13,17.63.33.36.1.18c1.37,1.85,3.92,4,6.58,5.53,4.62,2.67,10.09,4.02,16.28,4.02,1.97,0,4.01-.14,6.08-.42,17.81-2.42,29.32-11.76,41.15-25.06.7-.75,1.68-1.19,2.7-1.19.8,0,1.6.28,2.2.74,3.57,2.7,8.24,4.36,13.87,4.93,1.53.15,3.07.23,4.58.23,1.33,0,2.63-.06,3.81-.17l.25-.02h.17c.84,0,1.66.3,2.26.79,2.54,2.03,5.61,3.94,8.66,5.38,1.52.71,2.88,1.07,4.07,1.07.84,0,1.58-.18,2.27-.57,2.05-1.13,3.15-3.9,3.35-8.45.1-2.03-.28-4.34-1.05-6.59-.44-1.15-.27-2.43.52-3.51.7-.91,1.75-1.43,2.9-1.43h.19c1.42.08,2.9.12,4.5.12,1.92,0,3.96-.05,6.42-.17h.47l.88.12c4.34.62,8.84,1.26,13.24,1.74.29.03.57.05.86.05,1.39,0,2.46-.4,3.19-1.18,1.72-1.84.99-5.16.07-7.63-.48-1.27-.21-2.7.77-3.79.69-.73,1.66-1.15,2.65-1.15.35,0,.7.05,1.05.16.97.29,1.99.56,2.84.56.58,0,1.02-.12,1.43-.39.94-.61,1.72-2.6.11-8.6-.47-1.71-.97-3.17-1.54-4.46-.63-1.46-1.15-3.18-1.57-5.23-.21-.93-.04-1.91.48-2.74l.07-.11.07-.09c.57-.78,1.41-1.3,2.41-1.46,1.12-.16,2.25-.34,3.41-.54.19-.02.38-.04.56-.04.93,0,1.81.35,2.48.99.62.57,1.12,1.18,1.57,1.73.2.26.41.51.63.75,1.53,1.69,3.02,2.67,4.81,3.15.31.08.61.12.91.12.36,0,.71-.06,1.03-.17,1.85-.67,3.09-3.11,3.8-7.47.08-.52.16-1.03.23-1.61.15-1.03.7-1.92,1.55-2.51l.09-.06c.59-.37,1.27-.57,1.96-.57.38,0,.76.06,1.1.17,1.45.45,2.75.75,3.98.92.19.03.37.04.55.04.59,0,1.13-.14,1.62-.42,1.4-.8,2.28-2.74,2.6-5.74.06-.64.09-1.28.12-1.91.06-1.54,1.03-2.85,2.54-3.36,1.81-.57,3.78-1.81,5.88-3.67,3.07-2.72,3.44-9.3,2.05-13.97-2.29-7.73-9.02-10.41-7.83-13.22.79-1.86,3.71-.57,8.06-3.45.91-.61,5.45-3.62,5.94-8.62.21-2.12-.39-3.77-.72-4.66-2.12-5.64-7.95-8.07-9.3-8.59-4.85-1.86-7.93-.62-8.59-2.21-.8-1.95,3.86-3.77,5.22-8.85,1.46-5.47-1.99-10.62-2.48-11.33,0,0-3.72-5.39-11.51-7.38-.05-.01-.38-.13-.84-.26-.98-.27-1.79-.92-2.29-1.87-.44-.88-.51-1.88-.17-2.89.3-.84.59-1.7.85-2.54,1.85-6.09,2.34-12.18,1.42-17.62-.94-5.52-3.69-11.33-8.18-17.24-.4-.52-.8-1.04-1.17-1.5-.82-.99-1.06-2.3-.64-3.52.41-1.2,1.39-2.08,2.59-2.36,2.55-.61,4.92-1.32,7.03-2.1,4.93-1.79,8.39-3.98,10.28-6.45.6-.83,1.51-1.34,2.59-1.46,8.34-.78,15.26-3.6,18.51-7.55.5-.6,1.16-1.02,1.91-1.2,19.89-5.29,36.9-23.39,39.58-42.11,1.1-7.78.29-14.2-2.43-19.1Zm-487.84-6.91l-.39-2.84c-.22-1.13-5.36-27.8-1.29-49.17,1.48-11.5,4.76-23.22,17.74-23.22,3.4,0,7.52.78,12.94,2.45l1.41.44.44,1.41c3.88,12.74,6.91,86.15,7.04,89.26l.22,5.48-38.11-23.81Zm58.16-51.67s1.61,3.13,4.79,5.23c-2.64,1.18-4.35,13.94-4.35,13.94l-.44-19.17Zm4.41,91.33c-.62-12.9-1.24-25.81-1.86-38.72,1.71,6.83,4.63,15.48,9.75,24.71,3.26,5.86,6.74,10.76,9.97,14.74-5.95-.24-11.9-.48-17.86-.73Zm21.62-132.3c-5.01,6.54-9.24,12.86-12.8,18.71-5.86-5.35-11.73-10.69-17.59-16.04.09-10.51.19-21.01.28-31.52-.09-.7-.87-7.48,3.55-10.91,2.8-2.17,6.21-1.87,8.69-1.61,4.56.48,9.09,2.32,17.17,8.72,4.24,3.36,9.85,8.29,15.76,15.05-4.82,5.05-9.93,10.89-15.05,17.59Z"/>
      <path class="cls-6" d="m344.66,237.44s-12.32-11.27-23.35-9.86c-11.03,1.41-14.08,6.92-14.08,6.92-14.55-11.97-6.06-37.47,5.52-48.23,11.62-10.8,33.68-8.8,40.37,2.58,6.69,11.38,7.74,27.81,4.58,39.66-6.57,6.92-13.02,8.92-13.02,8.92Z"/>
      <path class="cls-8" d="m344.88,164.12c1.07,4.63-.43,8.38-3.34,8.38s-6.14-3.75-7.21-8.38c-1.07-4.63.43-8.38,3.34-8.38s6.14,3.75,7.21,8.38Zm-66.54,93.25c5.48,0,9.93-3.28,9.93-7.32s-4.45-7.32-9.93-7.32-9.93,3.28-9.93,7.32,4.45,7.32,9.93,7.32Zm165.86-35.41c-2.4,1.91-1.37,7.21,2.32,11.84,3.68,4.63,8.61,6.83,11.01,4.92,2.4-1.91,1.37-7.21-2.32-11.84-3.68-4.63-8.61-6.83-11.02-4.92Z"/>
      <path class="cls-3" d="m280.4,19.51c8.23,2.75,26.15,23.7,37.6,49.37s14.55,61.79,14.55,61.79l-1.64-.24s0-.08-2.29-5.07c-2.29-4.99-5.97-7.6-5.97-7.6l2.7,9.97-12.42-6.13s.98-15.61-2.12-38.82c-3.1-23.21-12.56-46.86-30.4-63.26Zm240.45,445.45c3.19-.98,4.17-.65,4.17-.65,0,0-3.76-8.42-10.22-11.77-6.46-3.35-10.55-12.18-10.63-17.33-.08-5.15-.24-5.48-.24-5.48,0,0-7.68,5.72-14.71,3.76,0,0,3.68,10.87,3.92,21l.24,10.14s11.11-6.54,17.24-1.14c6.13,5.39,5.56,12.01,5.56,12.01,0,0,1.47-9.56,4.66-10.54Zm-156.18-158.97c-2.86,9.48-9.89,7.11-15.12,15.53-5.23,8.42-18.14,20.1-18.14,20.1l1.31,1.15s5.48-3.43,16.67-8.33c11.2-4.9,25.17-5.97,25.17-5.97.12-12.08-15.74-6.5-18.63-5.6,0,0,14.1-6.74,19.04-.25,2.08,2.74,1.94,5.49,1.94,5.49,0,0,7.82.14,13.59.52-1.8-5.31,1.31-9.07,1.31-9.07,0,0-6.62-.98-13.73-4.25-7.11-3.27-13.41-9.32-13.41-9.32Zm148.49,171.33s1.06-9.48-6.38-12.42c-7.44-2.94-16.18,5.23-16.18,5.23,0,0-.82-12.59-2.45-24.85-1.64-12.26-4.58-13.48-4.82-18.31-.24-4.82-6.78-11.61-6.78-11.61,0,0-.08.08-1.55,3.19-1.47,3.11-1.47,10.87-12.83,10.79-11.36-.08-11.2-7.85-13.89-8.42-2.7-.57-12.42-4.99-12.42-4.99,1.22,21.42-4.99,29.42-4.99,29.42,0,0,6.21,13.89,4.74,23.21-1.47,9.32,3.92,18.31,3.92,18.31,0,0-1.47-6.05,7.85-7.68,9.32-1.63,9.4,9.15,9.4,9.15,0,0,.49-.82,5.39-.9,4.9-.08,8.99,9.32,9.81,8.58.82-.73,5.48-.98,5.48-.98,0,0,2.44-2.91.33-10.3-2.11-7.39-15.37-7.77-15.37-7.77,0,0,6.38-3.27,12.67.24,6.29,3.51,4.74,15.61,4.74,15.61,0,0,.49,4.66,3.92,5.07,3.43.41,9.32-1.39,9.32-1.39,0,0-.08-3.68,3.1-7.03,3.19-3.35,5.56-.33,5.56-.33,0,0,.49-1.96-1.96-9.56-2.45-7.6-12.67-5.07-12.67-5.07,0,0,6.62-2.29,10.87-.98,4.25,1.31,5.64,11.6,5.64,11.6l1.23,3.03s-.41-2.37,1.39-7.68c1.8-5.31,6.95-3.19,6.95-3.19Zm-51.85,42.78c1.26-7.36-4.28-18.15-15.46-15.29,7.87-2.18,12.39.5,14.88,4.09,2.62,3.76,2.45,6.95,2.45,6.95l3.1-.33s-.65-4.74,2.37-7.27c3.02-2.53,3.27-2.53,3.27-2.53-2.88-12.2-6.46-15.29-9.25-15.8-2.47-.45-5.76.85-10.17,2.6-3,1.19-5.47,2.54-8.97,2.17-1.06-.11-2.08-.22-3.18-.87-1.94-1.14-2.58-3.04-4.2-8.54-1.53-5.21-2.3-7.81-2.46-8.68-1.02-5.52-.76-9.78-.72-10.99.39-11.78-9.92-29.51-19.57-40.72,0,0-16.02-16.18-16.02-16.18h0l6.05,1.96s-2.29-1.14-2.62-12.59c-11.44,5.23-30.71,11.15-47.4,9.32-2.78,10.62-1.96,31.55,3.11,44.95,7.03,4.25,18.63,16.43,18.63,16.43h10.3s4.58-2.29,9.56.9c4.98,3.19,3.84,7.44,3.84,7.44,0,0,3.76,2.45,3.6,7.93-.16,5.48-.98,7.93-.98,7.93l1.34,2.37s10.95-4.25,14.06,5.89c3.11,10.13-3.52,22.31-7.44,24.11-3.92,1.8-5.31,1.8-5.31,1.8l-3.38,9.07s4.82,6.05,11.61,7.36c6.78,1.31,12.75-.24,12.75-.24,0,0-.74-6.21,3.43-8.91,4.17-2.7,5.72-1.88,5.72-1.88,0,0,2.37-8.26-6.54-9.81,5.07-1.55,10.13,8.01,10.13,8.01,0,0,13.48,2.29,18.14.49-4.17-7.03.98-12.01,5.31-11.11Zm-18.59-38.16c-3.76,2.13-2.82,7.64-2.82,7.64.33,5.84,7.89,2.49,7.89,2.49,0,0-2.21.16-1.88-3.15.33-3.31,1.31-5.31,6.46-7.89-2.74-1.27-5.88-1.23-9.64.9Zm90.69-150.45c.57-.08-7.11,3.92-13.9,4.74-6.78.81-27.31-2.41-43.15-10.06-15.84-7.65-44.95-18.71-56.15-22.8-11.19-4.09-33.77-17.05-41.76-25.09,4.25-3.35,10.38-5.89,10.38-5.89-2.87-.07-15.7,2.96-18.81,15.3,2.05-4.09,6.73-8.63,7.03-8.58.31.04.94,1.06,5.22,4.79-3.27,6.95-4.97,14.08-2.11,29.45-9.07-4.82-28.44-20.76-28.44-20.76h0s11.5-12.42,19.45-26.97c3.11-5.7,4.77-10.06,6.79-15.36,4.34-11.4,10.3-27.06,9.95-46.64-.09-4.8-.24-13.19-3.17-22.5-7.9-25.04-30.13-38.45-39.24-43.25,1.5-1.38,3.85-3.22,7.11-4.66,3.88-1.71,7.37-2.12,9.56-2.21,2.96-2.79,8.07-6.9,15.45-9.81,6.36-2.51,12.03-3.18,15.84-3.33,0,0,4.35-2.59,9.19-1.65,5.24,1.01,10.59,1.11,13.95.25-7.76,1.14-11.6-1.39-11.6-1.39,0,0,5.14-1.14,9.39-7.44,4.25-6.29,4.34-15.12,11.2-12.99,6.77,2.09,1.39,19.1,1.24,19.6.49-.17,16.12-5.81,22.96-12.08,6.94-6.38,17.57-2.95,12.75,5.06-4.83,8.01-14.55,10.38-14.55,10.38,2.54,7.62,20.86-5.83,24.76-8.25,9.73-6.05,12.18-5.81,12.92-.66.73,5.15-15.94,16.19-15.94,16.19,0,0,28.93,3.27,65.05,42.82,36.13,39.56,31.23,68.82,31.23,68.82,0,0-3.44-4.09-11.69-6.38-8.25-2.28-16.26-.41-16.26-.41,0,0,10.95-.4,22.39,6.05,11.44,6.46,6.7,18.15,6.7,18.15,0,0-10.13-14.31-25.17-15.45-14.21-1.08-18.63,3.38-19.08,3.89.5-.26,5.71-2.77,16.95-1.68,11.85,1.14,26.73,11.36,29.1,22.88-17.82-10.71-41.93-14.06-58.27-11.61-16.35,2.46-25.83,28.77-17.66,55.25,8.17,26.48,39.81,24.36,40.38,24.28Zm-115.06-173.54c.96-.6,24.13-14.88,49.18,6.33-7.68-13.64-34.78-19.37-49.18-6.33Zm53.14,142.37c-8.25,4.57-24.13.81-24.75.66,8.99,5.63,21.8,4.81,24.75-.66Zm4.54-101.45c-8.07-17.81-22.54-32.18-43.46-29.04-5.36.8-10.52,2.74-15.2,5.45-10.67,6.21-20.17,17.51-21.72,30.08-2.23,17.97-3.13,37.09,4.91,53.87,12.56,26.22,41.62,33.93,68.43,35.46l.86.04.49-.7c1.61-2.35,3.09-5.15,4.35-7.7,3.21-6.47,5.72-13.37,7.49-20.37,5.76-22.75,3.52-45.7-6.15-67.09Zm43.59,239.85c.41-8.26,4.74-8.42,4.74-8.42,0,0-4.33-2.45-7.36-1.55-3.02.9-4.09-2.45-4.09-2.45l-6.95,3.02s.98,16.02,6.05,18.63c5.07,2.62,9.97,5.07,14.96,1.64,4.98-3.43,5.31-4.9,5.31-4.9,0,0-13.08,2.29-12.67-5.97Zm12.39-279.7c8.07,7.97,14.67,15.86,20.02,23.1,2.47-3.88,5.33-8.99,7.87-15.25,3.32-8.16,4.88-15.25,5.66-19.9,1.94-11.5,1.21-20.39.6-27.37-.67-7.63-2.26-18.02-6.18-29.98-7.54-17.72-19.42-28.55-28.42-26.9-3.7.68-7.09,3.5-8.37,4.57-5.27,4.39-7.09,9.47-10.13,17.55-8.23,21.89-10.95,27.5-11.87,29.36-3.26,6.57-6.51,11.59-8.64,14.68,11.58,6.74,25.54,16.42,39.46,30.15Zm-20.72,254.44c-9.4-3.92-8.34-11.52-8.34-11.52l-1.47-1.06s-5.48,4.09-2.53,10.46c2.94,6.37,6.21,9.97,5.8,12.67-.41,2.7-.41,3.02-.41,3.02,0,0,4.91-.82,7.6-1.63,2.7-.82,8.26-6.29,8.26-10.3s-.33-4.33-.33-4.33c0,0,.82,6.62-8.58,2.7Zm-106.79,111.32c2.78-8.73.37-12.2.09-12.55.15.56,1.89,7.99-7.69,24.32-9.98,17-35.48,31.06-52.97,28.44-17.49-2.61-26.8-24.35-32.36-27.3-5.56-2.94-13.89-4.08-27.95-14.22-14.06-10.13-18.8-27.78-18.8-27.78,0,0-.39,3.07.22,5.24-15.52-.08-28.11-12.75-30.15-28.85-2.05-16.1,1.88-33.72,10.42-39.97s16.96,5.03,16.96,5.03c0,0-1.96,6.04-3.35,16.34-1.39,10.3-2.53,18.55,2.7,28.04-3.27-6.13-1.64-24.12-1.64-24.12h0s1.59-10.18,3.15-17.43c1.88-8.79,3.1-14.48,6.48-21.66,4.09-8.67,8.97-14.5,12.64-18.88.97-1.15,2.08-2.41,3.65-3.82,3.7-3.31,7.42-5.18,9.96-6.24,5.64,2.87,11.29,5.74,16.93,8.61,0,0,17.66,7.61,30.24,8.42-26.15,17.82-29.01,38.74-27.29,47.98-2.02.85-14.33,9.6-14.94,10.04.7-.35,19.37-9.8,32.92-14.29,13.81-4.58,33.59,11.28,39.23,19.78-3.88,1.47-4.13,5.11-4.13,5.11,0,0-1.35-2.5-6.54-1.6-5.19.9-6.33,3.84-6.33,3.84,0,0-8.09-4.94-13.9-1.47-5.31-1.8-14.79-.57-14.71,9.65-3.51,6.94.13,10.25.13,10.25,0,0-7.65.16-3.52,9.24-3.72-1.19-7.31,1.63-7.31,1.63,0,0-9.73,1.14-10.71,8.75-.98,7.6,5.31,10.62,5.31,10.62,0,0-.57,3.11,5.72,8.09,6.3,4.99,12.1-.16,12.1-.16,0,0-3.27,1.3-8.41-.17-5.15-1.47-6.3-7.68-6.3-7.68,0,0,8.75,1.96,9.65-6.78.89-8.75-6.05-12.14-6.05-12.14,0,0,2-1.47,5.64-.49,3.64.98,4.33,6.58,4.33,6.58,0,0-.37-3.76,2.82-4.9-1.39.16-3.64-.13-3.64-.13,0,0-4.94-6.78-2.04-9.76,1.8-1.85,4.95-.53,7.08.74,1.49,1.43,2.24,1.54,2.24,1.54,0,0-.93-.76-2.24-1.54-.77-.74-1.74-1.82-2.91-3.44-3.43-4.74-1.06-8.58-1.06-8.58,0,0-.49,3.43,2.04,5.96s6.95,2.13,14.39-3.35c7.43-5.47,0-13.4,0-13.4,0,0,7.92-.82,10.46,3.19,2.53,4,.57,11.44.57,11.44,0,0,.57-.08,1.63-2.13,1.07-2.04-.4-8.01-.4-8.01,0,0,1.63-6.29,8.01-5.15,6.37,1.15,8.17,11.04,8.17,11.04,0,0,.65-2.21-1.8-7.19-2.45-4.99.82-7.03.82-7.03,0,0,.98-1.39,8.83-1.8-2.7,1.39-4.91,9.4,3.92,12.58,8.83,3.19,11.93,1.23,13.73-4.49,5.15,4.9,1.39,14.3,1.39,14.3,0,0,3.02,6.95,4.74,11.61.16-5.89-1.72-7.77-1.72-7.77,0,0,8.75-2.21,11.53,3.52,2.78,5.72.82,20.84-9.97,24.35Zm-31.54-16.92c-17.82,5.72-27.79,27.62-27.79,27.62-2.7,6.38-5.15,18.07,1.88,20.44,7.03,2.37,14.87.9,22.88-11.94,7.79-12.49,5.14-23.65,5-24.25.16.14,3.45,3.48,1.54,12.81-1.93,9.41-9.38,21.32-9.63,21.73.57-.34,18.78-11.32,24.1-25.49,5.39-14.38-.17-26.64-17.98-20.92Z"/>
      <path class="cls-2" d="m360.41,230.49s-22.85,20.28-47.41,10.79c-28.84-11.15-15.97-59.73,14.29-65.07,0,0-28.52-18.55-42.91-37.59-14.38-19.05-3.39-21.54,2.58-22.19-3.52-4.99-21.79-6.09-23.99,11.64-.41-3.68,1.55-10.38,1.55-10.38,0,0-61.3,3.76-102.49,72.41,5.02,6.99,5.23,8.34,5.23,8.34,0,0-2.59-3.3-6.97-7.97-.44-.46-.88-.93-1.35-1.41-9.53-9.93-26.04-24.7-42.98-28.62-26.15-6.05-47.24,14.71-52.47,46.91-5.23,32.21.78,45.85.78,45.85l20.96,8.1s-4.74-41.36,0-58.52c4.74-17.17,12.42-24.85,32.85-16.84,20.44,8.01,38.25,30.73,38.25,30.73,0,0-2.86.98-3.18,1.96-.33.98-7.53,20.93-.25,46.75,7.27,25.83,19.12,36.47,19.12,36.47,0,0,33.35.96,45.93,10.28,12.59,9.32,22.56,9.81,22.56,9.81,0,0-4.41,3.92-18.47-4.09-14.06-8.01-24.76-13.4-70.61-14.06,17.16,13.25,46.42,29.75,70.61,30.65,24.19.9,33.35-6.45,33.35-6.45l-1.88,5.19c6.06-5.96,15.22-7.95,15.61-8.22,0,0,.4-4.98,2.61-8.17,2.14-3.09,6.73-5.87,7.02-6.04-.1.27-2.18,5.48-1.3,5.88.9.41,40.62-15.86,59.75-37.27,19.12-21.41,26.8-43.97,26.8-43.97l-3.59-4.9Zm-199.52-12.49c6.3-2.13,8.96-12.06,8.96-12.06.85,1.92.12,12.3-8.96,12.06Zm151.94-44.08c-23.7,10.46-22.39,32.86-22.39,32.86-2.78-19.94,8.33-31.06,22.39-32.86Zm-132.81,57.79s-8.83-27.47,19.61-33.19c-12.37,5.19-21.65,13.16-19.61,33.19Zm132.73,38.07c-3.67,7.35-8.79,14.34-14.55,20.19-14.41,14.63-33.21,22.54-53.79,17.83-19.08-4.37-34.84-15.16-44.88-32.05-6.93-11.65-11.35-27.28-9.66-40.89,3.84-30.92,24.91-37.45,52.85-30.02,8.24,2.19,16.24,5.68,23.75,9.68,12.44,6.62,24.28,15,35.18,23.91,5.08,4.16,10.3,8.63,14.98,13.24l.57.57.09.81c.54,5.18-2.27,12.18-4.54,16.73Zm-182.71,18.42s-3.72-79.03-6.58-97.26c0,0,13.98,8.34,19.86,15.45,1.42,17.64,4.46,77.32,5.6,95.62-14.88-10.3-18.88-13.81-18.88-13.81Zm15.03-188.92c-14.32-21.61,1.34-35.77,21.09-43.97,0,0,51.33.16,83.53,17,32.2,16.84,53.33,46.87,53.33,46.87l-12.63-2.33s-8.74-13.57-24.6-1.8c-12.02.41-28.69,5.97-55.99,20.19-22.72-21.25-38.41-38.33-64.73-35.96Zm-5.11,70.2c-9.91-6.28-16.89-9.21-20.18-10.4-1.03-11.22-.04-20.29,1.02-26.38,1.68-9.61,2.77-15.34,7.57-20.96,6.66-7.79,15.56-9.63,17.34-9.97,6.54-1.22,11.78-.18,15.86,1.26,20.92,7.36,46.59,33.84,46.59,33.84l-17.98,13.4s-20.72-24.07-35.64-25.34c-14.91-1.27-14.22,13.73-14.22,13.73l-.37,30.81Zm135.34,145.87s-.57,3.31,1.47,3.43c2.04.12,10.71-4.05,10.71-4.05,0,0,.16,3.27,2.74,5.15,2.57,1.88,12.83,1.8,16.31,1.55,3.47-.24,2.94,4.05,2.94,4.05,0,0-7.19,2.12-10.18,2.62-2.98.49-2.66-1.18-10.99-3.84-8.34-2.66-16.55.04-16.55.04-1.07-5.64,3.55-8.95,3.55-8.95Zm205.65,93.94s-4.74,1.1-7.28,5.92c-2.53,4.82-4.62,9.2-4.62,9.2,0,0-.94-2.53-5.48-5.8-4.54-3.27-8.91-2.82-8.91-2.82,0,0,4.58-7.07,4.25-12.95,3.88-1.35,4.58-7.85,4.58-7.85,0,0,7.03,2.12,10.05-1.39,3.03-3.52,4.09-9.48-.73-14.79,0-5.4-11.03-12.42-11.03-12.42,0,0,22.15,1.15,23.54-7.52,1.39-8.66-5.23-12.02-5.23-12.02,0,0,13.16,4.9,20.84,19.12,7.68,14.22-.41,28.77-4.82,36.29-4.41,7.52,4.9,16.18,4.9,16.18,0,0-.65.9-4.5,3.6-3.84,2.7-5.15,7.44-5.15,7.44,0,0-.82.41-3.76-1.31-2.94-1.72-4.58-9.89-9.81-14.14.37-3.6,3.15-4.74,3.15-4.74Zm-37.67-.98c-6.58-2.25-8.99-.86-8.99-.86,0,0-1.8-5.97-.24-9.11,0,0,4.99,5.76,10.67,6.33s10.83-1.39,10.83-1.39c0,0,.04,2.94-1.14,6.58-1.18,3.64-3.15,5.07-3.15,5.07,0,0-1.39-4.37-7.97-6.62Zm-92.36-112.76l10.32,8.36s0,.68-1.42,4.35c-1.42,3.67-8.7,6.4-8.7,6.4,0,0,.24-.54.83-5.72.59-5.18-2.69-10.81-2.69-10.81l1.66-2.59Zm-249.85,66.05c1.72,15.53,2.04,33.92,2.04,33.92,0,0-3.43,1.72-8.74,0-5.31-1.72-7.77-3.92-7.77-3.92,0,0-.9-27.38-2.53-36.62,0,0,11.36,5.64,17,6.62Zm-1.88,77.56s-3.43,23.13-15.2,24.77c-11.77,1.64-14.3-6.95-5.07-29.67,0,0,3.03,4.25,9.81,5.15,6.78.9,10.46-.25,10.46-.25Zm147.19,57.59c-17.49,5.23-52.8,7.52-66.53,3.76-13.73-3.76-34-14.88-43.97-42.34-.16,4.17,2.29,9.81,2.29,9.81,0,0-23.7,1.72-26.48-28.19-2.78-29.91,13.81-38.99,29.5-36.86-6.62,16.84-.08,34.65-.08,34.65,0,0-4.09-21.49,3.94-37.81h0c2.19-9.14,4.38-18.28,6.58-27.42,17.47-1.21,31.51-4.23,41.39-6.9,5.46-1.48,12.21-3.33,20.7-6.9,13.33-5.61,23.39-12.27,30.06-17.3-2.86,5.31-9.48,12.1-9.48,12.1,0,0,9.48-7.68,16.35-14.55,6.87-6.86,17.49-12.26,28.93-12.91,11.44-.65,27.71,11.61,37.68,15.2s12.67,2.53,12.67,2.53c0,0-5.15,4.09-10.87,5.23,9.89.33,17.9-2.37,30.48-9.89,12.59-7.52,37.43-9.48,50.26-6.13,12.83,3.35,27.79,12.26,27.79,12.26,0,0-4.82-5.47-8.09-6.38,0-2.78,6.13-2.78,6.13-2.78,0,0,2.86-2.04,1.06-7.93-1.8-5.88,6.37-5.97,10.46-4.49,4.09,1.47,11.69,2.94,10.22,7.93-1.47,4.98-3.56,6.95-2.86,8.87.7,1.92.7,2.09.7,2.09,0,0-2.98-.65-3.68-3.27-1.18,4.49,3.84,8.17,8.34,8.17s18.88-3.27,23.62,1.8c4.74,5.07,2.78,12.26,0,13.16-2.78.9-15.86-1.06-16.84,2.04-.98,3.11,12.91,11.93,13.89,13.4.98,1.47-.57,12.83-7.85,14.06-7.27,1.23-6.87-11.44-12.91-11.93-6.05-.49-6.78,3.35-3.84,3.92,2.94.57,8.17,5.31,9.15,8.09.98,2.78-.41,11.77-8.09,11.28-7.68-.49-9.81-6.95-13.16-7.93-3.35-.98-24.15-.12-24.32-.94-.16-.82,6.54-5.48,6.54-5.48,0,0-2.86-.41-14.8,6.13-11.93,6.54-41.44,13.98-65.47,8.58-24.03-5.4-41.93-20.51-59.34-21.99-17.41-1.47-22.89,2.04-22.89,2.04,0,0,15.77-1.72,24.68.73-2.78,9.65-23.13,26.07-34.25,32.45-11.12,6.38-19.53,18.39-19.13,25.34-10.62,1.06-16.1,8.34-16.1,8.34,0,0,9.15-7.85,27.13-7.03-5.07,12.83-5.56,41.11,10.46,53.37Zm-120.72-127.82s14.38,2.57,19.94,2.25c-2.86,8.66-5.89,26.85-12.26,27.99-6.38,1.14-18.47,1.88-7.68-30.24Z"/>
      <path class="cls-5" d="m431.84,397.64s-1.8,6.21-.57,11.44c1.23,5.23,4.58,10.13,1.8,19.94-2.78,9.81-4.17,13.16-4.17,13.16,0,0-9.24-14.96-14.88-21.74-5.64-6.78-12.02-10.62-10.71-25.01,0,0,12.26,2.7,20.43,2.53,8.17-.16,8.09-.33,8.09-.33Zm-38.31-68.11s1.92-.08,7.48,1.02c5.56,1.1,16.27,6.95,16.27,6.95,0,0,1.06-2.29,3.72-2.7,2.66-.41,2.78-3.35,2.78-3.35,0,0-3.03-.33-12.51-3.19-9.48-2.86-18.23-7.52-18.23-7.52-2.41,3.92.49,8.79.49,8.79Zm-9.59-44.67s-6.64,9.45-2.22,28.28c0,0,29.83,14.96,43.81,16.76-2.53-8.42,3.64-9.15,3.64-9.15,0,0,3.23-6.25,9.44-5.68,6.21.57,11.44,4.58,11.28,8.5-.16,3.92-.33,4.33-.33,4.33,0,0,1.31,2.45.16,5.31-1.14,2.86-1.72,4.41-1.72,4.41,0,0,20.03.82,31.63,5.4,11.61,4.58,20.92,7.19,34.16-4.74-23.21-.08-73.88-27.79-92.19-32.69-18.31-4.9-37.66-20.72-37.66-20.72Zm84.05,6.06c-76.64-4.34-72.74-56.36-69.27-84.38,3.46-28.03,52.11-55.58,74.63-5.83,22.51,49.75-5.36,90.21-5.36,90.21Zm-3.15-63.13c-14.79-24.09-39.52-21.26-50.86-.16-14.69,27.34,22.66,53.09,50.08,54.32,0,0,15.58-30.07.78-54.16Zm-118.45,178.98s-8.17,2.61-19.12,17.33c-10.95,14.71-9.48,29.42-9.48,29.42,0,0,8.91-4.82,18.31-7.11,9.4-2.29,18.39,5.48,18.39,5.48,0,0-3.43-7.6-4.41-22.15-.98-14.55.57-22.97.57-22.97h-4.25Z"/>
      <path class="cls-7" d="m373.1,183.32c-1.3,5.65-6.38,11.08-15.1,8.69-.62-1.38-1.32-2.83-2.1-4.27,0,.01.01.02.02.03,21.19,5.69,10.01-25.23-.64-34.56-14.55-12.75-24.52-14.14-24.52-14.14,0,0-.35-3.32-1.23-7.15,6.25,3.05,10.46,5.44,10.46,5.44,22.74,11.91,35.89,33.9,33.1,45.96Zm-99.23-121.88c.24,8.99-10.54,15.85-10.54,15.85,0,0,32.37,24.36,42.17,42.34,3.43.82,4.41,1.23,4.41,1.23,0,0-.98-14.3-1.14-29.5-.16-15.2-7.36-50.67-29.42-68.98-22.07-18.31-42.01-25.17-46.59-15.04-4.58,10.14,1.31,36.13,12.1,47.89,22.47-2.12,28.77-2.78,29.01,6.21Zm9.98,58.35c-16.67,4.82,20.59,38.83,44.54,54.19.9.57,1.77,1.13,2.62,1.68l4.33-.14c-2.71-2.2-5.25-4.53-7.43-6.86-10.26-10.94-8.66-30.16-1.88-29.75,1.08-2.2,1.18-5.28.91-8.24-13.03-6.16-32.58-13.92-43.09-10.89Zm81.36,36.32c10.11,11.55,18.09,39.68-6.15,37.51,1.05,2.03,2.65,6.32,3.68,14.82,1.63,13.57-1.55,19.86-1.55,19.86l3.68,5.07s6.62-8.17,12.34-17.49c5.72-9.32,7.93-14.3,7.93-14.3,0,0,.43-28.1-19.92-45.47Zm-56.6,178.33l1.14-6.42-8.66,1.59c-.45,2.25,7.52,4.83,7.52,4.83Zm57.25-97.84s-11.11,30.08-32.53,49.85c-21.41,19.78-43.24,26.81-43.24,26.81,0,0-.33,4.74,3.68,5.56,4,.82,15.28-.66,15.94,2.21.66,2.86,1.31,6.86,11.93-.9,0,0-3.19,3.43-10.62,7.77.16,5.31-.08,7.52-.08,7.52,0,0,7.03,4.82,17.16,5.72,10.71-6.54,13.08-18.31,10.62-23.54,3.27,3.68,3.92,8.5,3.92,8.5,0,0,3.35-3.19,4.17-11.12.82-7.93-.82-15.61-.82-15.61,0,0-7.68,10.13-16.02,15.45,13.65-15.36,51.41-52.39,53.7-107.31-6.7,13.4-17.82,29.1-17.82,29.1Zm-120.95,68.99c-42.82-9.81-55.41-49.37-52.79-70.45,2.61-21.09,14.38-37.6,50.02-28.12,35.63,9.48,72.9,46.26,72.9,46.26,1.47,14.06-27.3,62.12-70.13,52.31Zm61.47-52.15s-17.98-19.94-43.48-18.79c-25.5,1.14-37.43,17.98-36.94,28.93-7.44,4.41-19.46,3.27-19.46,3.27,0,0,8.18,5.47,19.78.41-.08,10.62,14.31,25.74,43.4,22.31,29.1-3.43,36.94-31.3,36.7-36.13Zm-58.19,81c-34.48,10.4-72.35-8.78-99.55-28.98-21.14-15.7-42.36-33.89-71.43-44.92-25.49-9.67-38.54-8.69-45.7-.56-12.28,13.97-1.99,42.11,5.81,55.16,4.45,7.44,30.24,38.25,77.64,48.55,47.4,10.3,94.48,2.45,133.22-29.24Zm-5.51,87.2c-12.01,7.44-15.45,19.12-15.45,19.12l10.38-.33s2.12-9.07,10.71-11.52c8.58-2.45,14.14,6.37,14.14,6.37,0,0,.57-9.48,6.7-20.59,6.13-11.12,16.84-23.87,24.36-25.58-6.54-2.94-12.67-4.82-12.67-4.82-9.56,15.86-26.15,29.91-38.17,37.35Z"/>
      <path class="cls-4" d="m516.76,413.03c-2.98.98-16.1-4.29-11.73-12.22,0,0,4.54-.82,9.15,2.94,4.62,3.76,5.56,8.3,2.57,9.28Zm-36.18,92.29c.28-1.84-.73-8.87-4.01-9.11-3.27-.25-4,3.6-4,3.6-.53,6.66,7.72,7.36,8.01,5.52Zm-1.01,3.35c-5.48-2.82-9.48-1.31-11.32,2.09-1.84,3.39,0,7.68,6.66,8.13,6.66.45,8.91,3.15,9.73,1.92,0,0,.41-9.32-5.07-12.14Zm17.71-18.59c-2.27,1.96-2.82,6.76-2.82,6.76-.45,5.17,4.62,7.66,6.19,7.68,1.57.02,3.35-5.41,3.07-9.62-.29-4.21-4.17-6.78-6.44-4.82Zm-69.94,48.67c-2.24,4.57.57,5.88,4.5,8.42,3.92,2.54,8.5,6.46,9.15,5.07,0,0,3.43-6.46-1.14-13.4-4.58-6.95-10.27-4.65-12.51-.08Zm20.32-51c-1.8,4.7,5.43,2.7,7.03,2.04,1.59-.65,1.22-7.44-2.45-6.87-3.68.57-4.58,4.82-4.58,4.82Zm-65.19-7.42c5.39,4.05,14.67,4.5,14.22-2.98-.45-7.48-7.23-7.23-7.23-7.23-8.54.33-12.38,6.17-6.99,10.22Zm122.44-196.03c-6.46-2.52-10.74,1.51-10.74,1.51-2.43,29.95,14.43,35.16,14.43,35.16,0,0-.92-3.19,2.77-12.67,3.69-9.48,0-21.48-6.46-24Zm24.44,148.1c-3.31-2.29-6.74.61-6.74.61-6.29,11.11,7.72,11.2,9.4,9.4,1.67-1.8.65-7.72-2.66-10.01Zm-7.85,33.76c-3.02,1.63-3.47,10.13-3.47,10.13.37,8.42,9.6,2.41,9.28-3.64-.33-6.05-2.78-8.13-5.8-6.5Zm-12.42,12.5c-2.56,1.7-2.74,8.95-2.74,8.95,0,2.21,1.45,4.31,5.56,5.31,4.11,1,5.43.04,5.11-7.19-.33-7.23-5.37-8.77-7.93-7.07Zm-42.7,42.56c-9.15-2.74-10.09,3.23-10.05,6.58.04,3.35,8.7,5.39,11.65,5.44,2.94.04,7.68.9,7.68-.12,0,0-.12-9.15-9.28-11.89Zm-133.79-42.52c-3.8,3.47-3.96,7.31-2.37,10.58,1.59,3.27,5.97,3.96,11.69-.2,5.72-4.17,3.27-8.91-.98-10.79-4.25-1.88-8.34.41-8.34.41Zm-24.44,37.1c-1.06,10.38,11.03,10.71,12.83,6.05,1.8-4.66-.16-13.73-5.64-13.08-5.48.65-7.19,7.03-7.19,7.03Zm60.09,27.13c7.11-11.4,5.01-21.6,4.75-22.74l-1.4-6.03,4.67,4.07c.18.16,4.39,3.97,2.18,14.72-1,4.86-3.38,10.31-5.58,14.67,5.68-4.46,13.22-11.52,16.22-19.53,2.45-6.53,2.45-12.54,0-16.06-1.65-2.38-4.34-3.59-8-3.59-2.21,0-4.73.45-7.5,1.34-16.75,5.38-26.49,26.33-26.56,26.5-2.05,4.84-3.49,11.73-1.83,15.43.53,1.18,1.35,1.94,2.5,2.33,1.67.56,3.22.83,4.74.83,5.63,0,10.8-3.91,15.81-11.94Zm134.82-262.31c2.92.47,4.92,2.18,6.78,3.77,1.3,1.11,4.44,3.86,6.03,8.54,1.69,4.97.71,9.37.25,11.3-1.1,4.66-2.9,5.59-4.02,11.3-.61,3.13-.92,4.69-.25,6.28,1.71,4.07,7.8,5.03,12.56,5.78,3.3.52,8.63,1.3,15.57-.25,12.65-2.83,20.47-11.12,23.86-14.82,4.47-4.87,12.13-13.21,12.81-25.87.19-3.57.63-11.57-4.27-18.34-3.74-5.17-14.85-7.45-36.93-11.81-11.54-2.28-17.96-3.17-24.87,0-4.47,2.05-7.3,4.97-8.79,6.53-7,7.33-10.27,17.63-8.04,19.34,1.51,1.16,4.24-2.57,9.29-1.76Z"/>
      <path class="cls-9" d="m341.96,239.17s-22.69,7.09-32.15-2.56c0,0,3.41-5.65,12.33-6.14,8.92-.49,19.82,8.7,19.82,8.7Zm141.89,116.2c.29-6.13-7.36-8.87-8.01-7.97,0,0,2.7,4.54,2.53,9.03-.16,4.5-1.43,6.46-1.43,6.46,0,0,6.62-1.39,6.91-7.52Zm-27.62,70.55c3.64,2.25,11.32.7,9.48-2.53-1.84-3.23-10.17-4.82-10.17-4.82-6.01-1.76-2.94,5.11.69,7.35Zm16.79-34.05c3.43-4.25-.24-10.21-.24-10.21,0,0-.04.36-.14.94-.09-.26-.19-.51-.3-.76,0,0-2.66,9.81-8.46,11.07h.16c-.11.01-.16,0-.16,0,0,0,5.72,3.21,9.15-1.04Zm-18.8,9.66c.18-.03.35-.07.51-.1-.14.21-.28.4-.43.58,0,0,4.66-.82,6.25-3.47,1.51-2.52.58-5.68-3.28-7.03l-.03-.02h0c-.2-.06-.41-.12-.63-.18.46,2.68.14,5.43-.65,7.65-.42,1-.99,1.91-1.74,2.59Zm-19.61,7.72c-1.06,2.45,1.39,3.47,5.6,6.09,4.21,2.61,7.93,2.37,8.42.61.49-1.76-.53-4.09-5.48-6.05-4.95-1.96-8.54-.65-8.54-.65Zm58.59,21.46c6.42-.29,9.73-4.25,8.83-9.4-5.44,2.37-8.83,9.4-8.83,9.4Zm-49.65-112.93c-6.13-2.29-9.52-.78-12.18,2.86,0,0,4.13-.69,9.24,1.35,5.11,2.04,7.76,4.54,7.76,4.54,0,0,1.31-6.46-4.82-8.75Zm-363.77,114.69c1.56,1.29,4.85,3.64,9.67,4.66,4.43.93,8.1.3,10.03-.18,1.37-12.84,2.75-25.68,4.12-38.52-2.22.23-5.67.32-9.67-.72-3.27-.85-5.8-2.16-7.52-3.22-.28,4.79-.79,9.95-1.61,15.41-1.27,8.41-3.07,15.97-5.02,22.57Zm-49.21-176.24c8.92-7.48,22.6-4.97,27.11-3.95-9.52-5.11-17.9-7.66-23.72-9.04-10.66-2.51-20.85-4.92-26.54.56-3.15,3.04-3.63,7.26-3.95,10.45-1.04,10.37,3.62,18.75,9.32,27.95,5.79,9.35,13.58,21.06,23.72,34.16-18.91-23.29-18.09-49.95-5.93-60.14ZM115.56,79.58c.31,8.64,8.35,13.89,10.73,15.44,6.19,4.04,12.53,4.39,15.62,4.33-1.17-1.55-8.61-11.76-5.27-22.96,1.99-6.67,6.9-10.71,10.35-13.55,5.95-4.89,12.01-6.97,15.62-7.91-10.8.78-19.49,2.76-25.6,4.52-11.72,3.37-15.48,6.35-17.88,9.6-1.02,1.37-3.77,5.29-3.58,10.54Z"/>
    </g>
  </g>
</svg>