<?xml version="1.0" encoding="UTF-8"?>
<svg id="Layer_2" data-name="Layer 2" xmlns="http://www.w3.org/2000/svg" viewBox="0 0 420.5964 526.1015">
  <defs>
    <style>
      .cls-1 {
        fill: #fff;
      }

      .cls-2 {
        fill: #ff669a;
      }

      .cls-3 {
        fill: #678b40;
      }

      .cls-4 {
        fill: #67bbe1;
      }

      .cls-5 {
        fill: #89b955;
      }

      .cls-6 {
        fill: #2f4260;
      }

      .cls-7 {
        fill: #587cac;
      }
    </style>
  </defs>
  <g id="katman_1" data-name="katman 1">
    <g>
      <path d="m221.8284,10.9738c3.517-.3362,6.6214-1.4632,9.9066-1.7385,1.4569-.1221,2.926-.4183,4.3686-.3217,2.6281.1759,5.5921.0909,6.9242,2.9816,1.3306,2.8874-2.1172,3.4533-3.4489,5.7658,2.7702,0,5.1096.024,7.4483-.0037,23.264-.2753,45.6007,3.7718,66.2311,14.9404,30.1559,16.3253,50.0781,40.9977,59.7326,73.9825,5.8385,19.9474,8.0451,40.1763,4.6936,60.7454-1.909,11.7163-8.0338,20.4801-20.0972,23.9044-13.0528,3.7051-26.1422,7.2819-39.1873,11.0134-5.0017,1.4307-5.2464,2.2115-3.6733,7.0982,1.2879,4.0008,2.9418,7.1034,7.9049,7.6858,4.8384.5678,8.3473,3.9478,11.2453,7.715,2.0413,2.6533,4.5042,3.9166,7.8938,3.6834,2.647-.1821,5.3833-.3535,7.968.1034,6.1172,1.0812,11.2079.4502,16.5263-3.792,5.9578-4.7522,13.2065-2.4075,17.448,4.2328,1.1277,1.7655,2.3186,3.8178,2.4746,5.8168.5212,6.6802,4.4751,11.1555,8.9183,15.4917,3.4356,3.3528,6.4702,7.0762,9.1089,11.0865,3.9004,5.928,3.1633,10.1643-2.443,14.2871-4.8167,3.5423-8.031,8.4487-11.4641,13.1793-1.3059,1.7994-.8857,3.4274.3057,5.1199,4.5179,6.4184,8.905,12.93,13.4834,19.3045,9.728,13.5442,12.0855,28.6706,9.8293,44.8158-.2822,2.0191-.1679,3.911.4754,5.8789,2.0237,6.1911,3.8847,12.4353,5.8379,18.6498.3328,1.0586.6847,2.7319-.2062,2.9053-3.1272.6085-4.2826,2.8095-5.7133,5.2255-.9052,1.5287-2.9505,1.0172-4.2818-.0892-1.6106-1.3385-3.0471-2.8864-4.74-4.5183-.951,2.3999-.9512,4.8764-1.1508,7.3289-.1413,1.7366-.344,3.7996-2.5433,3.9285-2.1782.1277-3.2761-1.756-3.7558-3.5657-.916-3.4552-1.4662-7.0057-2.29-10.4877-.3594-1.5193-.5129-3.1688-1.8957-4.626-3.1671,2.3934-4.4223,6.1893-6.7398,9.1495-1.3654,1.7443-2.5182,3.7653-5.056,2.8402-2.7878-1.0161-1.8261-3.3081-1.4347-5.4271,1.6985-9.1941,3.0976-18.3554-.4742-27.5257-1.0474-2.6891-2.0452-3.9634-5.1605-3.2101-3.7769.9133-7.4151.1749-10.5178-2.3856-1.3154-1.0855-2.7613-1.7418-4.3917-.864-1.5757.8483-1.2027,2.5064-1.3608,3.9255-.279,2.5056-.0745,5.2035-.9534,7.4808-4.4928,11.6405-3.005,23.8642-4.1265,35.8468-.8041,8.5912,1.2857,15.2388,7.0442,21.6181,5.6847,6.2975,8.6544,14.2471,10.1604,22.6752,1.1233,6.2859.2808,12.3016-2.8345,17.7539-2.6103,4.5686-2.3236,8.7145-.1686,13.2456,3.6954,7.7703.0592,15.609-8.1438,18.197-3.1911,1.0067-6.2737,2.2045-9.6295.5107-1.167-.5889-2.3285.2025-3.3672.8009-4.4749,2.5776-9.0732,4.8416-13.12,8.2404-6.5326,5.4866-16.4738,6.0439-23.5715,1.5665-4.3632-2.7524-8.9542-3.8519-13.9897-3.8848-4.514-.0295-9.0814.4395-13.5195-.6872-5.0977-1.2943-9.4075-3.6112-11.1156-9.1568-1.0245-3.326-4.3468-4.9712-6.1025-7.7706-4.1165-6.5638-9.161-8.6124-17.4571-7.5226-12.4471,1.6352-25.2467,1.1276-37.7581-1.2382-2.4063-.455-3.6082.2971-4.867,2.214-2.6216,3.9921-4.6072,7.6485-2.2874,12.8239,1.4554,3.247,1.2506,7.2856,1.5561,10.9883.3566,4.3216-2.291,7.1327-5.2679,9.7728-6.0501,5.3656-14.1685,5.7856-21.1664,8.8902-3.0456,1.351-6.1398,2.4543-8.7922,4.5409-5.6792,4.4678-12.1345,5.1691-18.4068,2.184-9.6072-4.5722-19.9908-5.296-30.141-7.2602-.1296-.0251-.2755-.056-.3966-.0222-9.1903,2.5619-14.9162-3.2855-21.0032-8.4928-3.4989-2.9932-4.6346-6.5805-4.1033-11.0053.6417-5.3445,3.0585-9.9045,6.1754-14.0964,4.0726-5.4774,4.778-10.9891,2.4302-17.5848-6.8631-19.2803-11.4046-39.0209-10.5495-59.7432.8175-19.811,6.1052-38.5433,12.9496-56.9445,6.8885-18.5198,16.5469-35.6976,25.7694-53.0914,7.8119-14.7333,13.8306-30.2212,18.953-46.0774,1.225-3.7921.6286-7.4655-.4356-10.9921-2.9806-9.8775-2.3645-18.8821,5.1606-26.6955,2.2796-2.3669-.0724-2.8414-1.7001-3.2635-5.9442-1.5417-11.753-3.4397-17.1856-6.3391-2.5125-1.3409-3.2023-.3702-3.4131,2.1359-.9141,10.8694-2.1292,21.7043-4.5193,32.3697-6.6807,29.8113-14.9699,59.0747-29.624,86.1389-3.4271,6.3294-7.2329,12.4368-12.2915,17.6286-5.8048,5.9578-8.4378,6.1388-15.1563,1.3429-4.331-3.0916-8.6533-6.1972-13.0438-9.2027-1.1597-.7939-2.5673-1.8609-4.0138-.7634-1.2732.966-.6119,2.4484-.3967,3.7337,1.0983,6.5611,4.0515,12.4374,7.5017,17.9351,3.5913,5.7227,3.4108,10.7056-.3763,16.1899-6.9705,10.0943-14.1095,20.0011-23.5921,27.9531-.8136.6822-1.6871,1.3007-2.574,1.8866-8.3666,5.5275-12.595,4.8696-18.2835-3.2599-9.7036-13.8677-14.6978-29.5454-16.1277-46.2115-3.6163-42.1502,7.7554-80.0448,33.6354-113.482,12.2203-15.7888,28.3662-27.1736,44.5215-38.475,10.5644-7.3904,21.6507-14.0644,31.1983-22.8428.4896-.4502.979-.903,1.4956-1.321,5.6789-4.5948,7.4029-9.8196,6.5236-17.6385-5.465-48.5922,10.0526-88.7186,49.9518-118.3437,3.9635-2.9429,8.3175-5.2641,12.7387-7.4404,4.2151-2.0748,7.3164-5.1211,9.294-9.4657,2.5895-5.689,5.4305-11.2649,8.2305-16.8558.6299-1.2577,1.1729-2.9609,3.0025-2.7633,1.7466.1887,2.2407,1.8038,2.49,3.2374.5642,3.244,1.4984,3.5181,4.2571,1.4536,4.4848-3.3562,9.55-5.86,15.2588-6.4806,2.0693-.225,4.6079-.5148,5.5861,1.9271.8398,2.0964-1.1856,3.3036-2.4653,4.5867-1.4748,1.4787-3.0268,2.8803-4.5453,4.3154Z"/>
      <g>
        <path class="cls-7" d="m346.2883,160.6251c-9.2864-.4385-18.0608-2.8983-26.4747-6.8784-6.2876-2.9744-11.042-7.2958-13.7633-13.7599-1.2284-2.9179-2.5258-5.8069-4.0363-9.2695-2.7584,3.8566-5.0368,7.2734-7.5491,10.5086-6.0215,7.7538-13.4852,13.9263-21.6052,19.3621-1.2079.8086-2.69,1.8962-2.3331,3.4427.4546,1.97,2.4415,1.1206,3.7472,1.1324,14.1.1269,28.1954.0167,42.2895.8957,15.1933.9476,30.0435,3.9538,44.9414,6.7374,1.9216.3591,3.7052,1.2205,3.3961,3.6489-.3243,2.5471-2.1948,3.0667-4.4123,2.9224-2.9518-.1921-5.7495-1.0787-8.5381-1.96-1.3924-.44-2.6896-.634-3.5014.8153-2.3871,4.2616-5.5456,7.9995-9.1728,12.8201,8.6211-2.0332,16.0517-3.9022,22.9511-7.373,2.5102-1.2628,4.4375-3.4151,5.8918-5.8467,5.5015-9.1986,5.8326-19.2431,5.0424-30.0326-7.4956,8.2623-15.9257,13.3513-26.8733,12.8342Zm-28.3248,1.3625c-3.167-1.7017-6.09-3.76-8.2662-6.6888-.5805-.7812-.7307-1.7374.0348-2.5526.626-.6666,1.4848-.6785,2.213-.3334,3.4304,1.626,6.228,3.9932,8.1417,7.3148.1877.3259.1876.76.2599,1.0788-.2949,1.5426-1.3159,1.7547-2.3832,1.1812Z"/>
        <path class="cls-3" d="m275.2382,374.4387c-.1352-3.5259-1.3162-4.8164-4.9295-3.6966-5.1252,1.5884-10.432,1.7203-15.7852,1.6325-6.5369-.1072-12.3348-2.9741-18.9703-4.2687,6.7177,12.8395,14.8677,24.9046,15.3076,40.1101.421,14.5515-1.8724,28.7696-4.041,43.165,1.6955-.7946,2.0343-2.4673,2.7204-3.8176,2.4087-4.7403,4.7774-9.4961,8.031-13.7409.6171-.8052.9215-2.232,2.2369-1.8599,1.1409.3228,1.2036,1.6345,1.3457,2.6868.231,1.7115.4563,3.4247.6317,5.1425.3362,3.293-.2153,6.7001,1.2443,10.8504,1.201-4.8094,2.1855-8.6567,3.1208-12.516q2.1728-8.9643,4.1939-10.3124c1.2462,9.6564,1.6366,10.7952,4.8186,13.596-1.4615-10.3547-1.8416-20.4904-.9416-30.7369,1.0572-12.0373,1.4811-24.1293,1.0168-36.2345Z"/>
        <path class="cls-5" d="m316.5259,387.971c-.1115-.3581-.4048-.6596-1.0793-1.7195-.9753,1.9019-1.6153,3.3251-2.4122,4.6542-.7914,1.32-1.4584,3.241-3.4753,2.5766-1.8626-.6137-1.825-2.5847-1.6098-4.1112.4632-3.2848,1.1842-6.5359,1.8689-9.7862.796-3.7787,1.7471-7.5414,1.1318-11.4474-.5989-3.8019-1.5924-4.3437-4.9347-2.3811-3.1296,1.8377-6.5087,2.5411-9.4522.539-4.9087-3.3389-9.5404-2.0425-14.4254-.3715-2.3389.8001-3.5443,2.0464-3.4272,4.6171.3146,6.9066.5467,13.8173.7594,20.7279.0567,1.8398.8017,3.0234,2.6149,3.4949,9.2856,2.4147,18.5708,4.8638,28.3132,3.2494,7.5379-1.2491,8.4132-2.703,6.128-10.0422Z"/>
        <path class="cls-7" d="m352.3825,328.1825c-3.1188-.3164-6.11.1238-8.9258,1.5823,3.0767.0053,6.2158.2945,8.9258-1.5823Z"/>
        <path class="cls-7" d="m268.6183,242.0046c-.0924.9347.355,1.845,1.4218,2.0734.9829.2105,1.7875-.1454,2.2627-1.1194-.0056-1.2385-1.0211-1.3679-1.8662-1.6262-.7491-.229-1.705-.4735-1.8182.6723Z"/>
        <path class="cls-7" d="m300.6791,211.7716c-.7438-.7938-1.5995-1.3715-2.737-1.3941-2.9987-.1167-4.5694,2.0791-3.4015,4.9064.703,1.7016,1.5783,3.3373,2.4496,4.9632,4.012,7.487,2.6835,6.4457,8.8222,1.0478,1.546-1.3595,1.3476-2.6615.0096-4.0437-1.742-1.7997-3.4301-3.6516-5.1429-5.4796Z"/>
        <path class="cls-4" d="m225.2443,254.7529c5.4017.708,11.6746-.104,16.0189,2.4161,7.6976,4.4655,11.855,1.3817,17.1414-3.6697,4.4244-4.2277,8.9961-7.5794,5.9289-14.5247-.0523-.1184-.0647-.2589-.0752-.3908-.1564-1.9583.3924-2.9016,2.4938-1.8175,2.2156,1.143,4.5167,1.9269,7.3311,1.5077-1.0958-3.8933-5.0968-6.0687-5.2161-10.3123.6549.0806,1.1285-.0035,1.3935.1933,3.1366,2.3287,5.403,5.4883,7.8354,8.4668,1.3553,1.6597,2.6765,2.3444,4.7982,1.531,3.6007-1.3806,7.2683-2.587,10.9123-3.8538,2.9055-1.0101,3.5984-2.8486,2.2256-5.5904-1.7869-3.5689-3.5572-7.148-5.2448-10.7646-3.1388-6.7264-2.8559-7.2268,3.5588-10.8234,8.7898-4.9282,18.6185-7.1084,27.863-10.8215,8.9706-3.603,15.4433-10.1366,20.8446-17.9214,1.8154-2.6165.7725-3.7101-1.928-4.3681-7.1234-1.7358-14.335-3.3828-21.6309-3.4576-28.5733-.2929-57.1483-1.658-85.6303,2.8487-23.317,3.6894-46.2875,8.5821-68.7983,15.629-5.1923,1.6254-5.7899,3.9308-2.1321,8.0046,5.0312,5.6035,11.2983,9.34,18.7681,10.5809,10.6213,1.7645,21.3938,2.6811,31.7751,5.7401,1.7562.5175,3.977.6058,4.6097,2.8598-1.2082,1.5964-3.0198-.3442-4.2047,1.2332,1.718,2.042,3.3473,4.1203,5.1235,6.0645,7.3509,8.0464,10.2047,16.7092,4.0237,26.8027-1.4962,2.4433-.6891,4.0567,2.2149,4.4373Zm62.6684-66.2884c-3.3192,4.8127-27.3872,8.0274-34.8885,4.6901,11.3564-2.2001,22.7371-4.2099,34.8885-4.6901Z"/>
        <path class="cls-7" d="m310.8926,213.5833c-.6901-2.285-1.1144-4.0485-1.7631-5.7253-.5201-1.344-1.6199-1.6614-2.8775-.883-1.4118.8739-.615,1.8408.0945,2.5757,1.2425,1.2871,2.0392,3.0608,4.5461,4.0326Z"/>
        <path class="cls-4" d="m224.8166,362.2441c-14.1833-8.6506-28.5558-17.0837-37.9384-31.3613-1.5507.5511-1.5783,1.7563-1.918,2.6956-2.3086,6.382-4.5221,12.809-5.7493,19.4969-4.3054,23.4628-4.5413,46.1529,7.4878,68.207,16.9592,31.0929,58.3813,51.9641,98.5063,28.1586,17.4653-10.3619,24.97-27.6623,31.1128-45.7915.7477-2.2069-.8568-2.5995-2.4684-2.3011-10.1493,1.8785-19.8284-.4217-29.4789-3.1417-5.4379-1.5327-5.8132-1.3791-6.3565,4.3759-1.2764,13.5212-2.0392,27.0498.5641,40.5315.3165,1.6389.8496,3.7027-1.3027,4.5098-2.0706.7764-3.0363-1.0368-4.1021-2.3939-1.4003-1.7831-1.643-4.381-3.7991-5.8448-1.2731,1.8452-1.3545,3.7431-1.8045,5.522-.5866,2.3194-1.0794,4.669-1.7995,6.9464-.5199,1.6442-1.2242,3.4612-3.3905,3.3775-2.3257-.0898-2.4989-2.1068-2.7431-3.787-.2667-1.8357-.2779-3.7079-.4127-5.5633-.1711-2.3547.1806-4.7921-1.2293-7.3501-1.9367,1.728-2.7072,3.7377-3.6836,5.6024-1.6031,3.0619-3.0652,6.201-4.7576,9.2115-.8527,1.5168-2.0896,3.031-4.1677,2.0215-1.7557-.8529-2.5638-2.6455-1.9839-4.379,2.7884-8.3347,2.5486-17.0662,3.4137-25.6251,1.2805-12.6686,1.1911-25.3512-4.8587-37.0616-3.4146-6.6095-7.458-12.8915-11.0258-19.426-1.5171-2.7786-3.4137-4.9829-6.1144-6.6301Z"/>
        <path class="cls-3" d="m365.9672,228.9635c-3.0116,4.2625-6.2544,3.4432-10.0385,3.0454-3.4365-.3612-6.8877-.6212-10.3391-.7936q-9.1922-.4594-16.6442-6.764c-6.3338-5.3837-15.0675-4.9431-20.8283,1.1298-3.4169,3.602-6.0915,7.7038-7.9917,12.319-.5626,1.3663-.6595,3.187-2.7641,3.7374-1.0007-1.4763-.0122-4.9419-3.9417-3.4916-13.8965,5.1285-26.6275,12.0391-37.2397,22.5803-2.2561,2.2409-2.1567,3.7211.0758,5.8555,7.5069,7.1768,14.5852,14.7518,20.9699,22.9761,2.0124,2.5923,4.2272,5.6739,7.5935,6.1563,3.0217.4331,4.4255,2.1211,5.7774,4.2282,5.5629,8.6701,9.9841,17.8905,12.8663,27.7944,3.5263,12.1176,5.2836,24.7095,9.9047,36.544,1.7632,4.5156,1.0064,9.1837-.0572,13.7671-.75,3.2321-1.544,6.454-2.4265,10.1306,3.7634-3.0349,4.6648-7.0316,6.1991-10.7817,2.4828,6.2375,1.4456,12.9257,4.0751,18.8944.6633-6.227.4536-12.508,2.1036-19.6355,3.6833,7.0635,5.3149,13.7076,7.2527,20.5126,1.4529-1.0174,1.377-1.9936,1.3781-2.8816.0051-4.4201.9257-8.7224,1.6602-13.0459.2439-1.4358.5445-3.0539,2.1457-3.5742,1.5845-.5149,2.3491.9606,3.2131,1.8942,1.8952,2.0477,3.7007,4.1784,6.346,7.1893-1.1402-6.8803-2.2612-12.4834-2.9675-18.1383-1.664-13.324-3.1655-26.6688-4.6474-40.0147-.2994-2.696-1.4184-4.7853-3.4769-6.4703-6.2784-5.1391-12.493-10.3578-18.8304-15.4229-4.8896-3.908-9.9678-7.6163-13.3552-13.0196-2.5261-4.0298-3.2838-9.0446-6.9057-12.4938-.4743-.4517-.6643-1.2074-.0952-1.7922.6895-.7085,1.5331-.4056,2.2122-.0313,3.1342,1.7275,4.6613,4.6558,5.5259,7.9402.4833,1.836,1.108,3.5187,2.316,5.0096,1.1848,1.4622,2.232,1.6752,3.5284.1277,4.3854-5.2342,7.3002-11.2677,10.0683-17.4721-1.4827-.6449-2.3891.1655-3.3857.3624-1.5485.306-3.4261,1.1282-4.147-.9025-.6872-1.9359,1.1363-2.9178,2.5681-3.4748,11.22-4.3642,22.5728-8.1828,34.9137-6.3341,13.8377,2.073,27.6813,3.6063,41.7172,2.202,4.5319-.4534,9.6526-1.5027,11.0772,5.8055,2.7299-3.8426,1.6688-6.5938.0809-9.2684-3.6318-6.1171-8.7376-11.0403-13.4094-16.3048-2.324-2.6188-4.4843-5.0915-4.6428-8.9325-.1152-2.7946-1.5419-5.3679-3.1703-7.6688-3.3231-4.6956-11.091-5.9842-14.2645-1.4928Zm-35.3027,21.3372c-3.9092,5.405-11.0572,7.6195-16.9751,5.2592-6.9493-2.7719-11.2487-9.6387-10.2041-16.2977.9131-5.8205,4.799-10.3152,9.9687-10.7826-4.2487,4.6725-9.0456,8.8176-6.7548,15.665,1.2068,3.6071,3.8185,6.0774,7.0919,7.7557,5.6489,2.8965,12.5108.4317,15.107-5.3938,1.9815-4.4464,1.7087-8.7237-1.1624-12.8424-2.8559-4.0969-7.3292-4.7232-11.771-5.7005,3.7445-2.3722,10.1549-.5186,13.5644,3.3412,4.2977,4.8654,4.8364,13.8788,1.1353,18.9959Zm-12.5383-19.6201c5.6706.039,10.0834,4.5474,9.9858,10.2025-.0958,5.5476-4.8133,10.1943-10.2337,10.0801-5.4649-.1151-9.7762-4.7486-9.7634-10.493.0119-5.2551,4.6863-9.8261,10.0113-9.7896Z"/>
        <path class="cls-7" d="m374.3153,308.9534c-.1568-.9943-.5957-1.9965-1.7989-1.3908-3.1843,1.603-6.4013,3.1887-9.3891,5.1164-1.7802,1.1486-.0457,3.2401-.5321,4.8405-.3064,1.0078-.4691,2.1123-1.0006,2.9889-1.9275,3.1788.0045,3.9894,2.5852,4.2818,5.2079.5902,10.9307-4.7137,10.9768-9.9593-.2774-1.9596-.533-3.9227-.8412-5.8774Z"/>
        <path class="cls-7" d="m374.4142,326.2038c-5.806,5.9013-11.6286,4.2085-17.589,1.0557,2.7366,4.3883,11.0441,4.9037,7.2567,12.6803,8.5724-.9125,11.7483-4.9395,10.3323-13.7359Z"/>
        <path class="cls-1" d="m314.6519,239.0526c.9986-.0599,1.7492-.6831,1.7536-1.773.0044-1.0736-.7362-1.6117-1.7007-1.8864-1.1324.1057-1.5936.8152-1.6247,1.8555-.0319,1.065.4172,1.8732,1.5718,1.804Z"/>
        <path class="cls-7" d="m325.224,393.6314c1.5524-1.9287,1.2514-3.4068-.1196-5.3053-.9988,1.9546-1.1632,3.4437.1196,5.3053Z"/>
        <path class="cls-7" d="m336.3626,387.3547c1.4937.0745,2.5724-1.3556,2.5444-2.9244-.0262-1.4649-.8312-3.1999-2.3141-3.1456-1.8008.0659-.8496,2.0711-1.2488,3.1645.2341,1.0654-.6362,2.823,1.0185,2.9056Z"/>
        <path class="cls-5" d="m394.5168,277.864c1.6652-2.1453,4.1727-4.5992,2.388-7.4343-1.557-2.4734-4.7859-1.3621-7.0475-.8532-11.7116,2.6353-23.2414,1.0511-34.8257-.7885-4.1836-.6644-8.4121-1.3088-12.7646-1.036-5.4901-.4888-10.7369.7669-15.8771,2.7854-2.9259,1.1489-4.7552,2.9669-5.6719,6.1115-1.6853,5.781-4.5561,11.046-8.241,15.8135-3.4498,4.4633-3.5183,5.0114.964,8.5839,7.2712,5.7955,14.7521,11.3338,21.9023,17.2721,2.8428,2.3609,5.3951,2.9475,8.0409.4536,5.826-5.4913,13.1014-8.3261,20.1985-11.5275.724-.3266,1.3951-.7704,2.091-1.1595,12.1619-6.801,20.5232-17.5023,28.8432-28.221Z"/>
        <path class="cls-3" d="m332.7133,449.6698c1.7107-4.6419,2.6632-9.4563,3.3436-14.3434.1345-.9658.224-2.3559,1.6258-2.3856,1.1373-.0242,1.3056,1.1961,1.6069,2.0224,1.1859,3.2526,2.0295,6.5896,2.6174,10.0138.4019,2.3407.3377,4.9064,2.4231,6.8479.4831-5.3103.4311-10.5695.5179-15.8264.0231-1.4001-.0966-3.4624,1.3947-3.8328,1.8094-.4494,2.0179,1.77,2.593,2.9627,1.7961,3.7249,3.4028,7.5412,5.083,11.3221-.9997-7.2471-2.7194-14.2314-3.2677-21.3485-.5607-7.277-.4062-14.6126-.4743-21.9233-.0651-6.9885-.014-13.978-.014-20.9672-.3705.0053-.7409.0105-1.1113.0157-.2076,2.3681.0531,4.8501-1.2693,6.9743-.8345,1.3403-2.0132,3.1763-3.7132,1.6462-2.6223-2.3602-4.2258-.6728-6.1725.7893-1.862,1.3984-2.3001,3.4491-3.0273,5.4481-1.3774,3.7866-2.9275,4.2479-6.1535,2.0386-.5405-.3701-1.004-.8891-2.475-.373,3.1726,17.2787,8.1492,34.5795,5.4008,52.6365.574-.5541.8534-1.1245,1.0718-1.7173Z"/>
        <path class="cls-7" d="m354.9754,353.3757c-.5841-1.6775-7.8988-3.7356-9.302-2.5602-.3528.2955-.5923.9095-.6141,1.3894-.3545,7.8135.407,15.5162,1.9621,23.4035,5.3155-3.8265,9.8048-16.9176,7.954-22.2327Z"/>
        <path class="cls-7" d="m151.353,495.5539c2.1962-.5234,4.4298-.8918,6.6512-1.3072,11.1335-2.0817,22.2665-4.2401,32.3533-9.7193,13.8897-7.5449,16.2229-23.1381,5.2274-34.3253-2.0503-2.086-4.0975-4.2114-6.3765-6.0299-7.5138-5.9953-13.2917-13.3787-17.7891-21.8015-.8917-1.6699-2.8907-4.069-1.0179-5.3201,2.1209-1.4167,3.1488,1.6118,4.2632,3.0527,4.9626,6.4163,9.9332,12.8052,17.0825,17.1449-.8595-1.1725-1.7757-2.3078-2.57-3.5229-10.0695-15.4067-16.8077-31.8544-17.1707-50.6515-.3359-17.3961,1.9836-34.2463,8.5391-50.3872,2.0006-4.9259,2.2914-9.6517.924-14.7588-4.3341-16.1874-8.0867-32.5378-13.9973-48.2693-.8875-2.3622-1.587-4.7983-2.2916-7.2239-.2158-.7427-.3-1.6947.585-2.0995.929-.425,1.5365.3448,1.9088,1.0132,1.3574,2.4365,2.7126,4.8815,3.9104,7.3986,6.9088,14.518,10.8747,29.9962,14.3993,45.5672,2.2863,10.1006,7.7299,18.0445,15.362,24.5783,10.5693,9.0483,22.3207,16.3196,34.9961,22.0849,12.605,5.7333,25.3882,7.6734,38.6578,2.209,2.9401-1.2108,6.0934-1.8964,9.1269-2.8898,4.2621-1.3957,8.38-1.1956,12.3735.9154,2.1683,1.1462,4.4425,1.8262,6.9161,1.2971,3.2882-.7033,4.2562-2.3729,2.8726-5.4294-2.0565-4.5429-3.0905-9.3407-3.8599-14.207-1.9743-12.4858-6.2768-24.1638-11.99-35.3821-1.2552-2.4648-2.9524-4.3074-5.4055-5.6381-5.0484-2.7385-9.4874-6.1186-13.2149-10.6894-7.7349-9.4849-15.8466-18.6682-26.1068-25.64-3.7279-2.5331-7.6255-4.1418-12.2278-4.2341-4.2796-.0859-8.4274-1.1546-12.3376-2.9769-3.6585-1.705-6.832-4.1125-9.6906-6.9265-.9273-.9128-2.0991-2.0949-1.0188-3.4485,1.0778-1.3505,2.427-.4861,3.5616.2407.781.5003,1.4691,1.1456,2.2496,1.647.951.6111,1.8784.4481,2.3245-.6032,1.6952-3.9956,4.4209-7.9314,2.5532-12.5066-3.2295-7.9115-8.6036-14.3191-15.0332-19.8381-.9494-.8149-2.3809-1.2903-3.6536-1.4721-12.5093-1.7854-25.0362-3.4219-37.7027-3.5868-2.1093-.0275-3.9382.4504-5.3285,2.1517-4.0872,5.0015-6.7702,10.3335-5.649,17.1776,1.4643,8.9388,1.7633,17.9822,1.1868,27.0334-.0892,1.4.0669,3.6268-1.6083,3.6401-2.4879.0197-2.7652,1.4911-3.2593,3.1289-3.9751,13.1767-9.748,25.5931-16.0024,37.8039-11.1018,21.675-22.3653,43.2752-29.0387,66.8771-5.475,19.3636-8.4716,38.9567-6.024,59.1335,1.4649,12.076,4.3013,23.8168,8.3795,35.2523,2.9608,8.302,2.1996,15.8231-3.4892,22.8523-2.3566,2.9119-4.3998,6.2323-4.8338,11.0345,2.1828-2.2688,3.6899-4.2342,6.0985-4.863,1.6127-.421,3.4335-1.507,4.8676.0476,1.6845,1.8262-.925,2.9055-1.2425,4.5103,5.3276,2.267,9.9776,5.1959,12.2334,10.8116,1.0248,2.5511,2.091.8978,3.2182.0311,2.1077-1.6205,3.9779-.3951,3.2395,1.5377-1.9559,5.1195,1.6122,4.3083,4.2742,4.6849,1.4485.2049,2.9217.2656,4.3547.5425,2.1397.4133,3.2102-.1607,3.3485-2.5514.1722-2.9757,2.2161-4.716,4.7515-5.9046,1.0069-.4721,2.1415-.6533,2.9406.3132.7494.9062.0402,1.7486-.4795,2.5155-1.1404,1.6834-2.5991,3.2459-2.2441,6.5203,8.4527-9.6799,17.4129-8.6126,26.9248-2.1587-.4378-2.8584-2.1388-3.5097-3.5619-4.4117-.9672-.613-1.7855-1.4062-1.3012-2.5929.5342-1.309,1.7921-1.5336,3.0439-1.2322,2.8328.6822,5.0324,2.27,6.6897,4.7006.7826,1.1477.9362,3.3763,3.3701,2.2811,1.8594-.8368,3.0247-1.9357,2.9745-4.1982-.0357-1.6092-.9245-3.9871,1.1346-4.6148,2.4939-.7603,2.4947,2.1593,3.5878,3.4733.1665.2002.3404.3944.6567.76.0089-5.1245,1.9619-9.0623,6.0037-11.9086.8849-.6232,4.6383-5.9307,4.9782-6.8631.3913-1.0734.6114-2.1279-.3849-2.9082-.9234-.7232-1.7442-.0298-2.5191.4906-11.6162,7.8007-24.8305,10.6088-38.41,12.2106-1.9608.2312-3.9848.104-5.9625-.0612-.9977-.0833-2.3164-.2917-2.4573-1.617-.1506-1.4171,1.1799-1.6619,2.1552-1.8942Z"/>
        <path class="cls-2" d="m112.392,218.7165c.0023-.6221.1291-1.3491-.6034-1.7903-1.2539.0895-1.6073,1.2386-2.2401,2.0154-11.9635,14.685-25.8728,27.1379-42.4435,36.4063-13.5815,7.5966-27.3159,14.8984-39.2461,25.0828-12.2639,10.4694-21.1517,22.7236-22.0348,39.5468-.4536,8.6424-.7004,17.2887-.2318,25.9186.9104,16.763,5.7806,32.3955,14.3689,46.8094,4.1026,6.8855,6.79,7.4214,12.9774,2.4421,10.4804-8.434,18.6137-18.8951,25.4184-30.4424,1.4272-2.422,1.3315-4.7361.21-7.2131-1.9734-4.3591-3.998-8.7056-5.7079-13.1698-1.1346-2.962-2.026-6.0743-2.554-9.1991-1.0019-5.9304,2.3675-8.5877,8.0287-6.4908,1.4814.5487,2.8894,1.3604,4.2304,2.2102,3.7061,2.3485,7.3146,4.8525,11.0435,7.163,5.1599,3.197,6.6128,3.0127,10.5043-1.5476,13.5676-15.8995,21.4593-34.4659,24.9179-54.8966,3.5197-20.7921,3.2846-41.8397,3.3619-62.8449Z"/>
        <path class="cls-7" d="m49.3381,257.878c8.8651-5.1195,18.067-9.658,26.4813-15.5445,20.5063-14.3457,36.2691-32.6809,46.7004-55.508.8281-1.8121,1.7473-3.5932,2.7678-5.3029.6445-1.0797,1.3192-2.8504,2.8501-2.21,1.8328.7667.8118,2.5536.4432,3.873-.4637,1.6598-1.051,3.3053-1.7772,4.8676-2.5228,5.4269-4.9998,10.8818-7.7474,16.1951-1.8946,3.6638-2.601,7.4028-2.5528,11.506.1749,14.8948.5999,29.797-.5847,44.6784-.1889,2.3728-.0265,4.7735-.0265,8.037,4.4039-11.3186,11.8546-44.6027,12.3661-55.2885.3134-6.5462,2.4066-13.2207-1.1325-19.5735-.4635-.8322-.4541-1.9523.5014-2.4977,1.235-.7049,1.9887.4119,2.6645,1.1447,6.0744,6.5853,14.0431,9.4274,22.4613,11.2526,3.4131.74,6.7893,2.1751,10.5093,1.5713-.196-1.7859-1.6251-2.3079-2.5462-3.1237-2.523-2.2344-2.9664-6.7349-5.7776-7.6522-2.925-.9543-6.0896,2.0928-9.3158,2.9025-1.2416.3116-2.4061.3101-3.1838-.908-.7735-1.2118-.2874-2.3127.4681-3.3082.9899-1.3043,2.3424-2.2186,3.8159-2.8208,3.5659-1.4573,7.1026-3.0908,10.8018-4.1015,34.2874-9.369,68.7603-17.8169,104.4275-20.0037,1.4585-.0894,3.1817-.046,3.2331-2.0985.0408-1.6247-1.2363-2.177-2.6687-2.4154-12.4058-2.0649-23.5155-7.4061-34.3451-13.5039-4.2119-2.3715-8.1807-5.0646-11.8505-9.2559-2.1369,10.4065-7.358,17.6572-14.1848,23.841-12.699,11.5028-28.2551,15.3713-44.7997,16.4121-8.1881.5152-14.427-2.8912-18.7889-9.7934-4.4169-6.9893-7.9441-14.351-10.8057-22.1614-3.3266-9.0796-3.914-18.3091-3.6523-27.7761-2.1641,12.7537-3.7585,25.5058-1.8692,38.4254.1151.7867.0075,1.8482.7972,2.1419,5.0598,1.8818,2.0835,4.5325.5249,6.6956-8.029,11.1435-18.1114,20.1368-29.504,27.7254-8.1837,5.4513-16.4763,10.7519-24.4851,16.4504-26.3393,18.7414-45.3966,42.9994-55.0888,74.2467,10.1212-11.0496,22.0468-19.7113,34.8733-27.1186Zm153.3005-92.0119c2.7641-3.1955,5.5678-6.3843,9.2586-8.5486,1.2757-.7481,2.6166-.707,2.7164,1.1183-.2074,2.5017-8.0193,10.1053-10.2979,10.155-.5969.013-1.3403-.2024-1.7723-.5871-.7087-.631-.4362-1.5233.0952-2.1377Z"/>
        <path class="cls-7" d="m185.8242,65.9437c3.5098,6.5723,7.4805,12.8728,10.9003,19.4859,4.0067,7.7479,8.0229,15.491,12.142,23.4431.3971-.5198.7196-.7769.8255-1.1042,4.9605-15.3249,16.1713-24.1964,30.6458-29.6873,9.5814-3.6347,19.6584-3.2883,29.5794-3.0121,10.7194.2984,20.0976,4.6154,27.7284,12.2702,1.7244,1.7298,2.9576,3.9494,4.7718,6.4283,1.124-5.2304,1.8022-9.9636,3.1783-14.4844,3.668-12.0505,4.8531-25.2427,15.5726-34.5895-2.8878-.9829-5.5304-.3637-8.1045-.4948-1.0862-.0552-2.1996-.1417-2.496-1.477-.2339-1.0538.3976-1.734,1.1628-2.3473.5923-.4747,1.5878-.4725,1.83-1.8753-8.4626-4.4806-17.2993-8.2841-26.6237-11.0606-19.9483-5.9397-40.3472-6.4303-60.8964-5.4137-1.6317.0808-4.0105.9975-4.303-1.3243-.2606-2.0681,2.2219-2.3771,3.8322-2.6807,3.959-.7467,7.3191-2.8046,10.8553-4.5808-6.2343.3943-12.3533,1.2058-18.1167,3.7206-1.0723.4678-2.1304,1.4864-3.2314.308-.9821-1.0512-.3818-2.2477.1198-3.3456,1.4327-3.1356,3.6556-5.7579,5.5852-8.7251-6.3606,1.7685-12.1275,4.3663-16.3567,9.6829-1.0527,1.3234-1.3145,4.227-3.6885,3.3394-1.9545-.7308-.4848-3.1158-.7848-4.7291-.0287-.1545-.3668-.2514-.7566-.4992-1.412,2.7131-2.8355,5.3984-4.208,8.1096-.5709,1.1277-1.0418,2.2219.856,2.712,3.3953.877,2.0367,2.379.3113,3.6742-.9419.7071-2.0705,1.2025-3.172,1.6546-9.4395,3.8738-17.8115,9.5027-25.8347,15.6981-.7605.5872-1.982.9915-1.6505,2.5768,1.0092.4373,2.1295.8428,3.1727,1.3945,1.3508.7144,3.4722,1.1657,2.8977,3.1932-.5925,2.0911-2.5526,1.3141-4.0922,1.0492-3.7934-.6528-7.319.1476-10.6485,1.9697.9084.0341,1.7528-.2209,2.609-.426,10.3653-2.4835,21.4508,1.9011,26.3883,11.1466Zm47.5841-5.2515c.8327-.8382,1.7376-1.6869,2.7695-2.2308,4.772-2.5153,9.9582-3.5864,14.9682-4.1815,1.8431.1809,3.9245-.3051,4.3241,1.7077.427,2.1506-1.7473,2.3673-3.1784,2.7977-5.5754,1.6766-11.5239,2.0847-16.7405,5.0027-.8646.4836-1.8772.3559-2.493-.5444-.6107-.8929-.338-1.8586.3501-2.5513Zm-2.5069,10.9857c4.4313-4.4479,9.9068-7.0887,15.9184-8.5355,3.4609-.833,7.0455-1.1522,9.6428-1.5573,4.548.3634,8.14.5812,11.3785,2.3495,1.4486.791,2.92,1.9995,2.3865,3.7167-.6896,2.2195-2.499.7287-3.6861.3916-11.5155-3.2702-21.6602.7381-31.624,5.8002-.5899.2997-1.1459.6657-1.7213.9946-1.0186.5822-2.132,1.561-3.1712.3006-1.1335-1.3748-.0293-2.5513.8764-3.4604Z"/>
        <path class="cls-1" d="m184.8686,112.6415c2.9407.0855,4.7798-2.0582,4.7924-5.5861.0182-5.0914-4.3389-10.8801-8.2931-10.7622-3.4043.1015-4.4598,2.6233-4.5526,5.4726-.1708,5.2428,4.0353,10.7588,8.0533,10.8756Z"/>
        <path class="cls-3" d="m416.3112,378.8975c-2.9144-9.9432-5.9992-19.823-5.2462-30.4272,1.5253-21.4836-12.0975-36.3845-23.0215-52.4374-.6346-.9326-1.334-1.4393-2.6398-.6556-5.0359,3.0226-7.3467,7.9053-6.4938,13.7617.3242,2.226.3024,4.5014.4596,6.7527.8221,11.772-.116,23.7032,2.4668,35.3047,2.5786,11.5827,3.3755,23.0974.8804,34.7576-.1401.6548-.0319,1.3375.8477,1.5971,1.6674-.5481,2.1878-2.1843,3.0536-3.4697,1.7066-2.5339,3.2316-5.1937,5.0018-7.6802,2.0896-2.935,3.5377-2.7698,5.0646.514,1.1869,2.5525,1.7071,5.2816,1.9108,8.0987.1957,2.7072.6852,5.3712,2.3654,8.4363,2.1466-5.9047.2714-11.6809,2.8442-17.4648,1.6819,5.1537,3.3229,9.4971,8.5272,12.2149-1.0256-5.7136-2.5316-10.547-1.9429-16.4804,3.8504,3.4034,1.8273,9.0607,6.2228,11.3279,1.0514-1.7836.051-2.95-.3009-4.1504Z"/>
        <path class="cls-7" d="m368.1446,345.316c-1.0228.4897-1.7656,1.2673-1.7434,2.4257.0251,1.3022,1.1381,1.6248,2.149,1.9737,2.4873.8587,5.2891,1.2533,7.0929-.6846,1.887-2.0274.1951-4.6305-.2171-7.1913-2.6038,1.2427-4.9438,2.357-7.2814,3.4764Z"/>
        <path class="cls-7" d="m357.6376,442.7105c.5154,1.808,1.0156,3.5903.824,5.482-.1786,1.7613-.467,3.5686-2.4913,4.1361-2.005.5622-3.3464-.6621-4.2565-2.2158-1.1194-1.9108-2.0229-3.9482-3.3525-6.5928,0,3.7049.0013,6.6948-.0004,9.6849-.0011,2.1442.2223,4.5874-2.3518,5.3724-2.749.8384-4.0488-1.3747-5.2446-3.3177-1.0614-1.7247-1.5428-3.6577-1.7428-5.6759-.1384-1.3974-.0817-2.875-1.2633-4.2727-1.1532,3.2763-2.1268,6.4186-3.3737,9.4486-.7969,1.9366-1.7839,4.2667-4.55,3.4434-2.5043-.7454-2.5834-3.1074-2.6091-5.2837-.0078-.6605.0547-1.339.2041-1.9816,2.093-9.0057,1.484-17.9635-.3829-26.9156-1.4248-6.8317-2.3089-13.7879-4.525-20.8552-2.1511,1.7914-2.3245,4.0083-3.0161,5.9238-4.5077,12.4841-9.8876,24.75-19.1898,34.2395-16.9842,17.3263-38.4329,23.146-62.1309,20.3358-14.5428-1.7245-26.6741-9.3739-38.318-17.7926,5.3742,5.3268,8.8426,11.3973,8.6716,19.1357-.0511,2.3097,1.2596,3.3656,3.4151,3.5925,13.131,1.3824,26.3322,2.0616,39.424.3697,17.2044-2.2234,33.0641-8.9105,48.6367-16.2561,2.164-1.0207,4.3689-1.9589,6.5834-2.8655.725-.2967,1.63-.5145,2.2173.225.7518.9467.0812,1.7601-.5294,2.464-1.3311,1.5345-3.068,2.5231-4.8227,3.4898-11.7951,6.4981-23.8847,12.3048-36.8962,16.0128-1.1484.3273-3.3314.4196-2.9691,1.9694.5833,2.4953,2.8734,4.0895,4.8202,5.6578,1.4664,1.1814,2.3193-.5369,3.3439-1.2355,3.6706-2.5028,7.6483-2.8234,11.8198-1.6179,1.1699.3382,2.5005.8214,2.4264,2.2529-.0934,1.8067-1.7488,1.7065-3.0316,1.8566-1.1869.1388-2.402.0666-3.5788.2516-1.0162.1597-1.9962.5501-2.9922.8386,8.2699.8912,14.3962,4.153,16.6533,12.7131q3.2678-3.165,4.6142-1.9344c3.7299,3.409,4.2963,3.2722,6.49-1.4073,2.6555-5.6643,7.5663-7.9414,13.3928-8.7456,1.1983-.1654,2.6455-.0913,3.092,1.2226.5585,1.6435-.9118,2.3208-2.0873,2.9145-1.5395.7776-3.2843,1.2237-4.6836,2.1863-2.2768,1.5662-5.0258,2.9837-4.3139,6.906,2.3877-5.2966,6.6043-6.5348,11.8361-6.5072,5.1633.0272,9.1362,2.0266,12.0497,6.201,2.007-2.1725,1.3977-4.3833,2.1165-6.2122.6317-1.6071,1.4522-2.1801,2.8862-.7029,3.0099,3.1002,5.5006,2.5661,7.1632-1.4854,1.5291-3.726,2.3323-3.8226,4.9301-.5758.4034.5041.6882,1.1396,1.9066,1.1326-.658-6.951,3.7881-11.3359,8.4785-15.657-8.7839,4.9376-18.0645,7.546-27.7875,8.73-1.3849.1687-3.4285.6544-3.8513-1.0707-.5183-2.1154,1.7575-2.2372,3.1557-2.8085.6097-.2491,1.2833-.3435,1.9298-.5004,7.029-1.7055,13.7537-4.1846,19.8699-8.0996,6.2353-3.9913,10.6069-9.4374,11.4262-16.9574,1.2888-11.8285-3.8719-21.5266-10.8079-30.5688-.4791,7.519.7364,14.7791,2.7725,21.9224Z"/>
        <path class="cls-4" d="m142.6643,166.996c3.0168,4.4428,7.38,6.9763,12.8179,6.9617,17.5181-.0472,33.3074-4.7267,46.1487-17.366,9.8109-9.6564,12.168-21.0419,7.4864-33.667-6.7239-18.1326-15.8856-35.0296-26.0143-51.5386-7.9384-12.939-25.7415-11.6504-34.088-3.0403-14.0918,14.5368-19.5285,32.1752-20.5705,51.2945.2732,3.9244.6137,7.3668.7353,10.8169.4816,13.67,5.9832,25.4917,13.4845,36.5388Zm11.9028-73.5897c9.8306-12.0611,23.2463-11.6455,33.3333.2897,6.7182,7.9491,10.675,17.4035,14.4045,26.9439,1.5936,4.0768,2.7839,8.3139,4.0944,12.498.7912,2.5257.8294,5.0777-.9924,7.1879-8.5719,9.9282-18.9118,16.5784-30.2232,17.199-15.0179-.0774-27.4575-9.5681-30.1136-22.0702-3.2605-15.3474-.4903-29.7949,9.497-42.0483Z"/>
        <path class="cls-4" d="m317.5895,58.8851c-2.4267,4.0067-3.9917,8.381-5.3136,12.8596-4.5534,15.4272-6.0386,31.2622-6.3521,47.2558,0,1.994-.2614,4.0291.0453,5.9747,1.3081,8.2979,3.6585,16.481,10.8815,21.4003,10.1855,6.937,21.5215,10.7524,34.2203,9.4813,10.8985-1.0909,19.5441-9.1175,20.4933-19.918.3354-3.8169.3108-7.7341-.1275-11.539-2.4012-20.8445-10.4057-39.4562-23.1089-56.0483-4.1083-5.3659-8.3218-10.767-14.5345-13.991-6.2528-3.2449-12.5653-1.483-16.2038,4.5244Zm21.5317,21.5603c5.25,3.6562,8.9609,8.6543,11.8081,14.296,4.2017,8.3258,6.331,17.1566,6.1013,26.5161-.0004,13.7206-5.1964,21.4846-16.377,24.4711-9.6123,2.5676-24.284-3.0287-29.3727-11.1762-.9102-1.4573-.8312-3.0532-.7984-4.6334.2484-11.981,1.4952-23.8386,4.5253-35.4648.8749-3.3571,2.1308-6.5731,3.8852-9.5701,4.789-8.1813,12.4195-9.8767,20.2283-4.4386Z"/>
        <path class="cls-1" d="m320.1846,102.3118c.8989,1.1281,2.2009,1.5605,3.581.8439,3.1827-1.6526,4.4876-4.3795,4.2707-8.8422-.1619-1.5025.3612-4.5989-2.9275-5.2389-3.2602-.6347-4.7057,2.0346-5.7009,4.5512-1.1658,2.948-1.3649,5.9987.7766,8.6861Z"/>
        <path class="cls-6" d="m284.2798,141.3697c3.469-6.8093,6.4126-14.2714,13.214-18.6475,3.6694-2.3609,5.7682-4.9726,4.9017-8.5101-.123-14.9466-6.5709-24.7954-19.1079-31.096-9.6556-4.8525-19.6758-3.7554-29.7098-2.6675-9.4079,1.02-18.0223,4.1818-25.5839,10.1861-12.4435,9.8807-17.085,23.9866-12.168,37.9007.7078,2.0027,1.2846,3.4922,3.8438,1.8632,4.7835-3.045,9.3279-2.1291,13.6657,1.1751,5.2895,4.0293,9.4665,9.1081,12.3246,14.9627,2.6494,5.427,6.5492,8.5022,12.2621,9.6453,2.3435.4689,4.7566.6938,7.0289,1.3873,2.5832.7884,4.5145-.1247,6.7234-1.3165,6.2053-3.3479,9.523-8.8323,12.6055-14.8831Z"/>
      </g>
    </g>
  </g>
</svg>