<svg xmlns="http://www.w3.org/2000/svg" width="256" height="407.5" viewBox="0 0 256 407.5">
  <g id="katman_2" data-name="katman 2">
    <g id="katman_1-2" data-name="katman 1">
      <g>
        <path d="M217.5,103.4c9.7-.8,4.9-11.6,14.2-17.1-5-7.4-9.8-14.3-20.9-10.5C214,71.5,223.1,58,223.1,58s-13.9,0-20.8,5.5c3.2-2.8,10.1-14.4,14.5-18.1,0,0-18.6-.2-25,2.9-8.1-14.4-6.6-16.8-7.5-35.3-6.9,4-14.4,12.4-9.6,28.6-6.3-4.5-2.5-27.9-14.1-41.6-.6,6.8-5.5,22.5-1.7,29.9C145.3,18,133.2,7.9,120,.5c2.4,10.6,4.2,26.6,16.9,38.1-7.7,3.5-23.5-.4-36.9-6.6.8,2.8,2.4,6.7,8.4,10.9C95.6,38,75.7,19.9,66.6,9.3c0,18.3,12.1,43.1,23.9,50.6-21.2-3.8-52.5,7-64.4,38.8,8-7.6,27.9-20.1,41.1-22.6C50.1,85,40.4,121.6,28.3,135.2c17.3-1.8,29-18.3,39.3-28.8-4.9,5.6-10.5,23.4-10.2,31.4a61.3,61.3,0,0,1,11-12.3c-1.1,6.5-1.8,10.8-4.1,15.8a50,50,0,0,0-6.6,9.7c-2.9,5.6-4.5,10.7-4.5,14.9-13.6,25.4-31.5,45.3-43.8,60.7-21.2,26.7-3.5,67.8,22.9,92.8,9.4,34.3,25.2,70.2,40.3,70.1s23.5-16.1,30.1-40.5a63.6,63.6,0,0,0,20.4-4c16.9,9.7,38,.2,48.7-15.6,1.9,54.5,14.6,78.8,28.3,78.1,16.3-.9,55.1-61.6,55.9-83.5.7-18.6-30-136.7-40.3-167.1C222.2,132.8,221.7,112.6,217.5,103.4Z"/>
        <path d="M90.5,141.7c-2.8-8.6-4.1-15.5-3.4-27.9a70.4,70.4,0,0,0-16.2,10.1c-1.4,6.6-1.2,9.3-3,14.1,3.5-2.7,6.3-3.7,7.9-6.6a9.4,9.4,0,0,1-1.8,5.1c2.2.9,3.7,3.1,4.2,6.5a5.6,5.6,0,0,1,3.9,6.8,6,6,0,0,0-3.8-2.5,35.4,35.4,0,0,1-3.9,14.4c-5.1,10.1-12.6,16.3-17.8,12.4-1.6-1.1-2.2-2.8-2.6-4.7l-6.3,10.8c6.7,1.9,12.9.4,18.6-5.3-3.9,9.3-14.8,10.8-20.1,7.7-3.2,5.1-7.4,11-11.2,16.3a83.4,83.4,0,0,1,30.7-3.7c4.9-4.9,9.7-12,13.4-18.8a32.7,32.7,0,0,0-6.5.2,11.7,11.7,0,0,1,7.4-1.8c1-2,2-3.9,2.9-5.9a38.8,38.8,0,0,0-7,.1c1.8-1.4,4.8-2,7.7-1.8C87.9,157.5,90.4,148,90.5,141.7Z" style="fill: #5475aa"/>
        <path d="M35.2,316.7C8.3,290.9-5.3,249.2,11.8,228.4c8-9.9,15.3-18.8,21.6-27.5a86.5,86.5,0,0,1,30.1-3.6A119.9,119.9,0,0,0,52,209.7c-3.5-.2-7,.4-8.7,1.6a45.6,45.6,0,0,1,7.5,0c-18.5,24.6-21.2,50.5-13.5,73.5a53.4,53.4,0,0,1-6.7.2c1.8,1.2,4.5,1.6,7.3,1.4.7,2,1.5,3.9,2.3,5.8a42.6,42.6,0,0,1-7.3.8c2,1.1,5,1.3,8,.8a105.7,105.7,0,0,0,37.9,42.8C63.8,337.4,50.8,331.7,35.2,316.7Z" style="fill: #fbd1bd"/>
        <path d="M52.8,334.5a82.3,82.3,0,0,1-14.5-9.8c6.3,21.2,17.4,48.9,27.5,58.4C59.5,374.5,54.4,353.6,52.8,334.5Z" style="fill: #5475aa"/>
        <path d="M76.5,340A49,49,0,0,1,56,336c2.1,23.9,9.2,49.9,16.6,50.6,10.1-.1,19-13.9,25.6-37.6C90,348.6,80.3,344.4,76.5,340Z" style="fill: #aa378f"/>
        <path d="M171.7,325.3c-11.6,17-33.2,22.1-44.4,18a77,77,0,0,0,25.5-18.7c-32,23.1-60.6,22.7-71.2,15.2,42.3-2.1,74.4-25.7,91-56.2C171.7,299.1,171.4,312.9,171.7,325.3Z" style="fill: #fbd1bd"/>
        <path d="M173,279.7c-5.9,0-8.6,4.5-18.2,2.4,5,4.2,10.8,2.8,14.8,1.2-15.9,29.1-45.6,50.6-86.8,53.1-17.6-10.7-31.5-26.2-39.5-43.1,3-.8,5.8-2.2,7-3.8a44.8,44.8,0,0,1-7.7,2.2c-.9-1.9-1.6-3.7-2.3-5.6,3.3-.6,6.4-1.8,7.9-3.5a43.4,43.4,0,0,1-8.5,1.8c-7.6-22.7-4.8-48.3,13.7-72.9a64.2,64.2,0,0,1,9,1.5c-1.5-1.6-4.5-2.6-7.7-3.1A128.1,128.1,0,0,1,66,197.5c33.5,3.2,61.3,28.2,83.8,66.2,10-1.7,16.3-2.3,24.6-2C173.8,267.5,173.4,274.2,173,279.7Z" style="fill: #fbd1bd"/>
        <path d="M194.7,75.8c-20-16.1-41.1-9.8-50.2-5.6-13.1,5.9-22.2,27.4-23.6,40.6-4.1-4.5-5.1-13.8-4.9-19.1-8.3,10.8-20.4,46.9-19.2,63.8a71.6,71.6,0,0,1-4.8-9.6c-.6,6-2.8,13.7-6.1,21.7a10.3,10.3,0,0,1,5.2,2.6,32.6,32.6,0,0,0-5.9-1.1c-.9,2-1.8,4-2.8,5.9a10.8,10.8,0,0,1,5.4,2.8,28.4,28.4,0,0,0-6.2-1.2,88.7,88.7,0,0,1-13.5,18.9c32.8,3.7,60.9,28.3,82.9,65.4a111.8,111.8,0,0,1,23.7-1.6c1.3-13,3-27.3,5.3-42.2,5.6-37.2,1.7-66.2-3.3-89.7-9.8-5.2-17.6-18-11.4-27.6-.6,10.3,3.7,18.3,10.6,23.4-2-9.1-4.5-18.4-6.1-25.9,11.4,24.3,22.2,70.6,14.8,120-20.3,133.5,1.6,187.3,15.5,186.6,12.1-.5,52-62.7,52.6-80,1-28-41.5-163.1-61.3-228.7,5.8,13.6,13.4,34.3,21.2,57.6C215.6,131.9,222.3,98.2,194.7,75.8Z" style="fill: #5475aa"/>
        <path d="M134.9,98.6c.1-1-1.8-3-3.1-3.9,2.8-1.6,6.5,2,7,1.6s-3-4.1-3.4-6.2c11.6,2.8,25.8,21.5,20.9,46.8-6.4-19.3-15.5-34.4-29.1-38C128.6,97.2,132.5,97.1,134.9,98.6Z"/>
        <path d="M111.2,177.8c4.7,11.6,18.6,24.1,28.1,18.8C133,205.4,114.2,196.1,111.2,177.8Z"/>
        <path d="M146.3,150.7c-4.8-25.5-25.3-25.4-30.3-34.8a8.3,8.3,0,0,0,3.7,7.3c-7,3.3-9.8,11.7-10.5,20.5-3.5.6-6.5,3.5-5,8.1a6.4,6.4,0,0,1,4.9-3.2c.4,13.8,8.8,39.2,24.8,35.9C145.1,182.2,149,164.6,146.3,150.7Z"/>
        <path d="M74.2,257.5c8.3.1,17.9-16.5,22.7-9S84.1,261,74.2,257.5Z"/>
        <path d="M77.2,257.4c5.3.1,15.1-11.1,17.7-7.4S81.9,258.8,77.2,257.4Z" style="fill: #fbd1bd"/>
        <path d="M25.7,254.3c-6.8-1.7-12-15-16.3-9.8S15.4,256.6,25.7,254.3Z"/>
        <path d="M23.2,253.9c-4.3-.5-9.6-10.4-12-7.6S19.3,254.6,23.2,253.9Z" style="fill: #fbd1bd"/>
        <path d="M121.7,124.6h0c-6.2,1.1-9.8,9-10.6,19,9.6.4,27.2,12.3,32.9,22.7C148,146,137.6,132.2,121.7,124.6Z" style="fill: #5475aa"/>
        <path d="M143.7,168.9c-1.6,6.8-5.2,11.7-10.6,12.8H133c2.5-2.7,2.4-8-.4-12.7-5.7-9.4-16.2-8.6-15.6,1.3a51.3,51.3,0,0,1-6-21.8C120.8,148.9,136.7,160.8,143.7,168.9Z" style="fill: #fff"/>
        <path d="M72.7,137.5c-2.9,2.1-7.5,3.6-13.3,14,5.5-4.3,11.3-8.4,16.7-8.8C75.8,140.4,74.7,138,72.7,137.5Z" style="fill: #5688bb"/>
        <path d="M76.2,147.1a39.1,39.1,0,0,1-5.1,16.1c-1.5-6.8-13.7-.6-14.4,7.4-2.4-2.9-1.9-7.9.5-14C63.7,151.3,71,147.2,76.2,147.1Z" style="fill: #fff"/>
      </g>
    </g>
  </g>
</svg>
