<?xml version="1.0" encoding="UTF-8"?>
<svg id="Layer_2" data-name="Layer 2" xmlns="http://www.w3.org/2000/svg" viewBox="0 0 300.98 433.3">
  <defs>
    <style>
      .cls-1 {
        fill: #ffc758;
      }

      .cls-2 {
        fill: #231f20;
      }

      .cls-3 {
        fill: #ffdc73;
      }

      .cls-4 {
        fill: #63924e;
      }

      .cls-5 {
        fill: #f58724;
      }

      .cls-6 {
        fill: #e8bd84;
      }

      .cls-7 {
        fill: #e12a2e;
      }
    </style>
  </defs>
  <g id="Layer_1-2" data-name="Layer 1">
    <g>
      <path class="cls-7" d="M261.28,209.26c-8.94-9.39-24.13-11.48-30.89-23.45-4.86-.22-11.58,4.07-17.31,4.64-14.19,2.94-8.28-6.42-22.65,3.27-12.72,5.57-21.41-2.09-32.13.47-4.28-.29-6.77-1.29-4.53,4.22-.4,2.25.69,4.1.25,6.24,2.44,10.63-3.46,22.89-6.1,31.03,28.07-7.71,85.49-42.5,110.84-25.55-.51,2.98-6.98-4.5-7.58-.4,3.11,9.58,8.71,9.14,10.1-.46M97.13,198.23c-10.99-3.88-10.33-17.83-15.32-16.92-13.09-2.11-25.61,9.78-37.39,6.93-.97-2.68,5.55-.02,7-2.3,2.5-.9-11.27-3.26-10.62-1-7.37,18.55,19.59,2.73,28.98,5.64,7.51,2.22-10.83,2.58-13.1,3.84-16.89.04,2.75,30.88,9.47,29.86,1.9,5.47-.35,14.88,7.01,16.77,1.31.42,6.68.15,4.76-1.92-2.58-2.03-2.52-1.36-4.52.18-5.16-6.23.4-15.24,1.03-21.72-.13-7.7,11.2-13.25,17.71-16.11,1.52-.82,8.73-.87,4.98-3.25ZM90.52,198.87c-6.74,1.19-12.56,5.84-18.37,7.96-2.11-4.34,21.66-12.24,18.37-7.96ZM94.6,248.32c-5.67-.74-10.38-7.77-15.97-5.76-3.15,3.2-8.81-1.92-10.56,2.29-3.26,5.39,28.78,6.94,26.53,3.47Z"/>
      <path class="cls-4" d="M184.25,10.22c-.39-10.23-7.21-.92-13.2-.95-4.5,1.15,1.89,4.53-.24,5.8-4.37-4.19-9.86-6.99-3.91,1.14,1.32,1.52,5.03,1.31,6.47,0,.66-.82-1.02-2.51.66-2.8.96-.35,2.67,7.8,4.16.95,2.58-2.85,2.13,3.75,2.12,5.25,3.37,1.74,4.37-6.77,3.94-9.38M181.67,24.17c-.3-3.58-5.71.45-7.98-.6-2.62-1.31,1.45-1.88,2.72-1.99,4.06-.83.24-5.38-1.48-1.85-1.95,1.06-8.03-2.34-9.09,1.35-3.54,7.9,2.35,4.63,7.14,5.23,5.43.47,11.81,7.71,8.69-2.14ZM165.16,8.6c2.78.91,19.14-4.97,11.24-6.25-3.16.04-13.96,2.1-11.24,6.25Z"/>
      <path class="cls-5" d="M160.58,188.89c-2.24-2.95-3.36-7.25-2.32-10.77.78-1.8-1.05-2.59-2.36-3.4-4.96-4.04-9.12-8.68-13.64-13.04-2.31-2.49.84-6.02-2.24-7.6-8.49-4.61-13.46-13.79-15.06-23.05-.11-.87-1.02-1.22-1.98-.81-11.97,4.5,1.42-3.6,4.09-6.09.5-.24,1.6-.1,1.13.65-3.51,7.04,3.82,15.55,7,22,5.89,2.11,15.09,14.17,20.51,10.1-2.15-7.74-1.47-15.57-.96-23.38-2.97-4.47-8.41-7.84-8.99-13.63-6.08-20.3,15.47-14.27,14.38-31.55,1.37-9.15,3.76-17.95,2.98-27.15,6.65-23.56-20.66-26.11-28.76-8.1,15.24-1.89,16.6-1.4,14.93,14.72-4.05,7.56-14.08,3.77-20.84,4.34-9.65-.05-17.99,39.05-24.25,48.47-10.66,39.33-.55,41.88,31.73,57.7,10.73,3.17,11.46,7.11,17.99,12.86,1.88-.16,9.12,1.14,6.63-2.27M116.92,98.85c2.53-4.01-.49-9.48,3.26-12.74,5.21-5.74,18.05-7.12,18.9,2.73,5.78,24.47-10.24,32.15-22.16,10.01ZM240.05,162.53c17.2-35.37.46-55.22-15.5-86-6.64-4.84-19.96,1.84-23.5-8.26,2.04-23.5,26.72,8.06,8.91-22.17-3.8-4.37-11.95-4.13-16.13-.44-3.4,5.19,2.97,12.33,3.56,17.99.91,17.57,5.09,35.65,6.92,52.28,4.57,9.92,3.98,20.79,2.84,31.29-.07,3.61,12.8-6.28,9.36-7.1-9.11-5.01,13.02-.25,9.9,1.33-6.99-.42-9.7,4.7-15.11,8.41-12.5,5.15-1.51,17.25-8.73,31.69-5.52,8.09,11.08,7.33,14.86,3.93,1.06-.57,3.64-3.88,4.06-1.17,8.87.18,15.91-13.49,18.57-21.8ZM228.39,91.23c-1.7,3.41-1.03,6.77-.19,10.35-.18,12.73-23.33,13.43-22.52-.08-5.44-18.52,22.94-30.24,22.71-10.27ZM164.32,80.04c.32,5.69-4.83,14.3-1.52,18.58,11.6,3.28,28.69,5.8,28.1,21.2-1.01,11.77-13.53,22.54-25.77,18.82-12.66-6.74-5.44,12.14-6.32,19.64,3.13,6.82,14.89,3.3,21.17,3.6,4.16-.14,5.99-3.77,10.25-4.28,11.42-3.66,15.06-6.19,14.36-18.56-.05-17.19-5.44-33.5-8.11-50.35-.98-13.24-2.9-25.98-6.36-38.8-4.11-6.04-16.74-6.51-22.32-1.79-3.78,9.2.58,21.97-3.49,31.94ZM282.69,124.6c-6.96-29.27-23.48-55.54-44.82-76.66-5.66-7.96-17.08-10.99-23.31-1.98-1.08,4.53,5.16,9.13,5.53,14.04,3.56,4.63,12.22,5.9,15.62,11.61,4.51,5.92,1.19,9.33-4.91,5.47-2.58-1.13-2.36.98-1.25,2.61,18.51,31.19,29.87,54.48,11.39,89.27-9.18,13.39,17.77,1.54,16.5-5.74-10.2-18.97.62-34.6,21.41-35.96,2.66.92,4.72.59,3.85-2.67ZM101.63,161.74c-15.58-28.81,10.14-58.86,17.05-85.99-2.16-.54-4.33,3.25-6.53,1.76,2.14-4.09,2.57-9.33,5.47-13.28,5.28-7.22,14.47-8.95,17.58-18.02-9.62-23.14-47.73,60.82-48.85,71.28-1.2,1.84.3,4.93-2.31,5.47-3.67,6.76-1.44,17.19,1.18,24.58,1.15,4.75,14.23,22.65,16.41,14.21ZM92.56,43.76c17.43,9.55,25.74,11.16,33.44-8.88-6.26-9.51-17.22-14.49-28.22-11.35-4.05,1.51-8.95,2.16-7.69,7.57-2.26,4.88,1.27,8.16,2.47,12.66ZM201.47,171.33c-.99-3.69,3.76-19.06-3.22-13.78-3.8,4.33-2.67,11.82-9.81,14.28-17.6,13.26-31.56-.88-26.41,12.58,1.74,8.27,9.49,8.59,16.22,8.7,13.12,1.43,23.31-9.13,23.22-21.79ZM223.82,33.95c5.94,2.57,14.42,14.7,20.61,7.52,1.33-2.9,6.66-3.46,5.93-7.33,4.03-2.82,2.5-7.65.05-11.83-4.79-5.14-14.52-1.54-20.62-1.92-4.69,1.58-10.59,9.61-5.98,13.56ZM254.74,36.17c-1.72,3.35-7.06,3.97-8.63,7.42-.88,1.39-2.31,2.48-4.22,2.06-3.91.55,3.44,5.09,4.33,6.73.43,1.27,3.94,2.14,2.18.15-10.22-13.38,7.69,9.15,11.14-3.99-.58-3.18-6.98-5.26-5.88-8.59,3.02.62,5.76,8.12,9.12,6.74,3.45-7.59.33-15.41-5.68-20.49-4.93-4.99.54,7.68-2.36,9.97ZM109.66,52.86c-7.18.86-13.71-9.17-20.34-5.02-11.44,8.4,7.23,10.86,13.41,15.19,4.28-.3,15.82-10.08,6.92-10.17ZM103.51,61.01c-3.35,3.34-1.86-8.64.55-5.88.44,2.02.35,3.99-.55,5.88ZM166.25,37.36c-2.28,16.6,7.34.53,15.02,5.21,1.83.57,6.82,3.53,7.7,1.57-2.57-9.35-23.8-25.35-22.71-6.78ZM141.05,41.24c4.59,1.65,13.09-7.62,21.9,1.74,1.8-3.45-1.16-8.88,1.52-12.83-4.92-12.08-18.53,6.14-23.43,11.1ZM201.1,32.31c15.42,13.3,3.98,16.81,21.29,3.96-2.71-2.31-28.71-12.07-21.29-3.96ZM187.09,35.85c7.69,14.84,3.64,2.59,18.6,4.78-2.59-5.89-28.41-17.06-18.6-4.78ZM128.36,40.27c15.7.93,5.69,1.26,19.22-9.49-1.99-3.19-24.4,8.57-19.22,9.49ZM83.07,49.52c.81,3.29,6.3-4.26,7.05-5.62-.58-2.28-2.15-8.9-5.43-6.79-8.03,4.33-1.72,4.43-1.61,12.4ZM83.51,35.73c2.67-.61,4.69-3.05,2.92-5.27-.9,1.35-4.07,3.84-2.92,5.27Z"/>
      <path class="cls-1" d="M257.26,241.24c2.6-2.12-2.07-6.65-2.51-9.44,2.6-7.14-5.49-14.98-7.5-22.49-15.29-4.25-34.77,4.87-49.38,11.12-21.19,7.86-44.74,12.41-62.78,26.35-10.84,9.05-24.83,3.49-37.15,5.15-12.42,3.94-26.9-6.71-27.02,11.35-1.3,15.97-3.46,39.24,12.22,52.36,4.22,6.45,7.07-27.51,36.26-18.36,18.7,5.15,27.5,24.62,31.88,40.65,54.7,2.87,116.25-36.15,105.98-96.69M6,111.58c.18-3.75,8.75-15.64,9.05-7.78-4.76,1.77-4.64,7.75-7.95,10.13-2.79,2.09,7.56,8.42,8.77,11.01.62-3.36,6.84-3.36,6.55-6-.14-9.52,13.43-1.38,14.24-6.77-1.14-3.97-4.47-6.89-7.47-9.62,3.99-1.44,9.59,5.34,10.58,9.19,2.58,2.92,9.1-1.69,12.33.37-4.43,3.88-14.28,1.21-18.96,5.63,10.35,2.83,1.3,19.2-7.55,15.84-5.08,9.75,20.2,22.18,29.86,23.51,9.04,2.18,26.65-5.34,24.32-15.42-3.05-11.15.89-22.27,5.44-32.5.56-1.22,1.48-2.97-.82-2.93-3.63-.62-11.44,6.32-5.8-1.11-3.57-2.56-5.5,4.46-8.56,3.76.11-5.56,8.47-8.49,12.91-4.71,6.56,3.05,15.58-28.73,22.06-35.1,2.61-4.87,2.46-4.36-2.66-3.96-9.82-2.44-17.94-8.99-24.46-14.43-23.28,1.59-43.78,15.73-55.13,36.56-5.24,6.62-10.57,13.14-17.31,18.35-1.48.94.41,2.3-.58,3.49-1.38,1.2-.57,4.47,1.13,2.48ZM84.42,102.4c-1.9-.74-6.04-1.59-6.99-3.25,1.66-1.5,8.14.82,6.99,3.25ZM68.91,83.14c7.9-3.38,24.69,16.37,8.97,5.56-2.84-2.3-9.92-.96-8.97-5.56ZM155.08,406.96c-.91-5.04-5.47-2.87-8.21-5.6-9.29-5.34-22.7,5.34-31.93,6.6,5.16-7.06,17.52-6.6,20.34-15.95,8.74-18.09,12.58-38.35,11.5-56.84-6.56-37.19-61.16-55.9-57.41-4.99.78,10.38,4.88,20.46,8.62,30.11,1.18.29,2.36-3.46,3.38-1.32-3.53,20.47,4.15,41.46,2.64,62.02,11.84,7.82,29.97,13.48,42.97,4.72,7.2-.32,14.6-12.78,8.11-18.75ZM104.71,166.49c-10.67-.71-12.13,4.27-18.6,8.67.47,5.92,3.91,12.48,7.92,16.73,2.93,7.22,33.92,11.6,25.73,12.58-5.96-1.59-11.56-.84-14.73,4.94-4.47,8.44-6.49,2.8-1.59-2.47,3.94-3.59,4.8-5.02-1.48-5.3-15.31,1.12-26.85,16-26.98,30.83,8.48,11.04,26.04,15.71,39.87,16.63,18.44,1.4,32.69-15.33,36.19-32.91-2.36-7.73.6-17.74-3.53-25.9-.62-1.15-.87-3.7-2.72-2.97-4.27-1.99-7.97-6.55-13.24-7.87-9.36-3.37-17.24-11.09-26.85-12.96ZM239.88,320.15c-.89-3.54.47-13.01-4.79-6.59-13.51,14.6-35.26,16.97-51.56,24.84,14.57,32.12-10.89,70.37,3.49,69.33,17.41,7.38,66.7-2.6,42.52-27.66-.59-4.69-7.65-2.66-11.5-2.09-7.09-5.99-17.29,8.28-23.67,12.99,2.12-9.53,14.13-18.53,24.52-17.86,5.42-1.55,6.46-10.61,9.73-15.07,3.62-9.28,8.97-18.49,9.1-28.22,0-1.01.26-1.23,1.43-1.54,2.17-1.51.85-5.67.73-8.12ZM296.93,154.98c1.47-13.28-11.69-28.39-24.59-22.89-6.28.71-14.79,6.3-14.59,12.82,1.73,1.31.51,3.35.47,5.08-.59,7.02,3.57,13.61,5.43,19.69-9.35-5.18-3.34,7.64-28.4,9.16-7.92,6.62,6.48,12.82,10.87,17.22,4.39,2.78,10.73.77,15.69.44,18.59-3.89,34.08-21.11,35.1-41.52ZM76.04,178.98c13.78,1.25-.61-5.31,17.63-13.57,2.06-1.79-3.88-3.81-4.43-5.8-3.27-2.62-4.13-9.57-7.71-10.52-21.6,24.51-38.16.13-47.81,5.52-1.55,1.49-2.37-1.28-1.4-2.33-1.28-5.95-12.1-9.86-11.37-18.03,0-1.78-4.42-7.29-5.73-6.33-1.35,4.91-5.91,8.16-8.35,12.57-2.06,2.7-4.08,9.92.83,9.39.81,1.59-1.27,5.88,1.81,6.06,11.57,22.84,42.52,30.94,66.52,23.04ZM66.32,167.18c-4.09,1.46-11.8-.32-12.97-4.38,3.15-.42,6.02,2.69,9.42,2.75.98.12,5.27-.06,3.55,1.63ZM13.11,65.64c2.83,6.29,13.67,11.64,18.4,4.09,2.16-5.15,12.73-8.5,12.9-12.38-8.65-4.49-17.08-4.56-25.91-.94-4.96,1.39-3.59,5.56-5.39,9.24ZM26.01,118.94c1.65-.41,5.17-3.31,1.77-3.17-1.69.18-4.93,3.68-1.77,3.17Z"/>
      <path class="cls-2" d="M300.76,149.32c.04-10.71-14.92-14.64-14.28-24.23-2.78-25.64-23.88-49.57-34.81-68.78,22.55-1.83,16.75-28.31,1.87-37.07-11.12-2.91-29.19-5.65-33.74,8.11.71,6.99-6.46.65-10.06.32-7.77-2.66-14.44,1.47-22.14.03-9.51-2.49,9.88-23.16-8.93-27.71-33.07,2.41-6.42,19.78-18.11,24.16-4.73-1.61-7.63,4.23-12.08,3.21-7.14-.25-15.05,7.16-20.89,5.82-10.54-23.67-55.85-12.58-48.2,13.69-.2,3.17-7.26,1.64-9.95,2.31-7.71.55-13.92,3.25-20.33,7.24-6.88-.82-13.11-6.14-20.51-5.52-10.67.44-24.93,9.72-15.15,20.6,3.21,3,7.65,3.39,11.73,4.32-2.02,7.22-10.01,16.37-15.99,22.5-20.49,14.62-.9,16.63,3.32,29.5-4.78,8.52-17.18,16.51-7.63,26.72,2.97,10.11,13.41,17.46,22.1,23.2,9.51,5.02,12.99,1.68,9.27,13.74.08,6.4,7.11,6.25,11.59,5.59-3.9,12.72,9.59,22.78,15.8,32.91,1.01,3.06.11,6.71,2.41,9.46,1.52,6.52-8.26,7.02,4,10.63,3.14,4.69-5.22,12.14-3.89,17.61-1.11,9.4.16,19.54,1.74,29.21,1.75,11.43,11.46,19.16,17.61,26.65-2.69,20.22,13.35,36.9,11.66,56.93,3.9,12.17-.96,35.61,6.23,43.84,15.44,12.7,53.77,14.21,56.79-10.66-1.29-9.44-2.4-12.65-11.81-16.07-2.96-2.14-10.59.95-11.42-1.85,23.86-41.08.1-59.81,27.7-54.5,4.71.37,12.24-4.72,15.66-1.36,5.33,13.33,4.73,27.6,2.86,41.59,2.23,9.47-9.22,18.75-2.06,26.73,20.86,13.41,80.41-1.01,50.53-31.95-1.63-1.57-8.39-.35-7.48-3.39,4.66-8.73,9.45-17.36,12.52-26.79,8.18-12.33,6.91-26.14,5.66-39.99,18.35-23.2,25.78-56.48,14.79-84.25,9.4-11.3,12.32-13.76-3.53-21.75,26.69.46,49.9-24.05,47.16-50.78M252.76,64.2c13.19,18.58,26.71,39.53,29.99,62.77-21.53.74-36.86,13.62-25.31,36.27-.82,7.34-10.94,11.02-17.61,11.94-2.21-.01-1.18-1.75-.5-2.83,5.6-12.66,12.55-27.21,10.86-41.26,2.69-19.3-17.85-37.74-20.72-54.31,6.23,3.15,11.44,2.41,6.24-5.17-3.39-5.71-12.06-6.98-15.62-11.61-1.98-7.4-10.62-14.04-.04-18.77,14.79-4.76,23.32,14.63,32.71,22.97ZM101.66,214.01c5.63-9.43,9.44-10.97,19.86-9.99-9.05-3.72-23.43-5.01-30.45-15.1-.94-4.62-5.46-8.74-4.96-13.76,4.15-1.58,6.28-7.79,12.45-8.43,14.34-1.52,25.26,10.96,38.55,15.29,12.83,6.11,13.56,15.47,12.92,29.08,2.77,13.46-8.74,29.82-21.48,35.53-11.77,7.12-61.46-2.71-52.13-22.8,2.36-11.59,20.3-28.04,30.25-20.08-2.31,1.66-9.03,9.25-5.01,10.26ZM82.42,128.51c4.18-12.28,8.08-26.74,14.82-39.4,9.71-13.15,17.88-43.84,34.13-46.78,13.63,3.33-11.1,17.24-13.74,21.9-1.92,3.96-9.94,18.73-.21,11.7,3.99-.5-2.83,7.94-2.93,10.55-7.02,24.5-27.67,50.47-12.51,75.83-11.11,6.47-21.84-24-19.55-33.79ZM104.42,62.45c-6.18.91-12.38-5.76-18.37-7.76-3.56-1.78,2.37-4.81,3.27-6.86,4-3.25,10.31,1.62,13.93,3.74,2.59,1.83,8.98.04,9.97,2.67-1.65,4.15-4.7,6.58-8.8,8.21ZM143.3,66.26c-1.5-2,1.99-9.6,3.56-6.22,1.5,3.6-2.87,15.19-3.56,6.22ZM145.63,55.61c-5.09,9.71-17.36,4.35-25.29,10.96-1.49-6.14,20.78-14.93,25.29-10.96ZM140.95,68.76c.33,2.12-2.86,1.57-4.06.79-6.27-2.52-12.87,1.52-18.6,2.76,3.61-5,21.85-14.06,22.66-3.55ZM148.66,185.21c-13.31-8.85-30.17-15.04-43.59-23.13-12.65-25.33,3.87-50.58,12.36-73.83,5.34-31.14,29.85-3.27,32.22-24.75,1.53-19.11-7.88-7.47-15.07-11.14,4.06-10.33,21.32-15.59,28.42-5.66,1.68,12.37-.22,24.77-1.92,37.07.34,23.07-16.06,13.09-16.06,31.02-.77,8.33,6.17,13.26,9.86,19.41-4.13,13.02,8.33,31.42-8.17,20.54-36.02-23.17-5.37-39.89-28.37-24.51-1.3,1.01.25,1.91,1.29,1.48,7.48-5.21,5.38,5.58,8.77,9.73,2.52,5.95,7.42,10.16,12.8,13.58-.09,4.19.75,8.24,5.17,10.58,3.93,3.15,6.23,7.63,10.96,9.99,2.38,2.17-.59,5.66,1.11,8.61-.7,2.37,4.94,5.9,1.55,6.88-6.04,1.14-8.61-.81-11.33-5.87ZM173.69,23.57c7.25-.12,8.39-3.61,8.65,5.83-12.91-6.33-19.98,1.11-16.8-7.32.45-5.01,7.05-1.35,9.4-2.35.5-1.47,3.3-1.98,3.26,0,.75,2.92-7.88,1.42-4.5,3.85ZM166.24,36.95c-.64-18.13,20.23-1.85,22.72,7.19-2.49,2.6-7.72-3.34-11.19-2.4-8.9,1.31-12.79,8.93-11.53-4.8ZM164.81,76.49c4.45-8.44-1.38-20.64,3-28.38,5.57-4.78,18.22-4.2,22.32,1.79,3.46,12.82,5.38,25.55,6.35,38.8,2.68,16.85,8.06,33.17,8.12,50.35.7,12.26-2.94,14.97-14.36,18.56-4.26.51-6.08,4.13-10.24,4.28-6.29-.24-18.04,3.18-21.17-3.6-5.62-43.41,10.61-.69,29.31-30.42,11.52-17-11.19-27.15-25.33-29.23-3.13-5.42,2.21-15.33,2.01-22.14ZM193.02,162.06c1.09,4.93-12.7,12.46-10.62,4.82,2.26-1.73,8.94-9,10.62-4.82ZM159.89,173.12c3.4-3.72,9.06-.82,13.49-1.97,5.82,2.92-1.51,6.38-4.93,5.15-1.49-1.73-9.33.3-8.56-3.18ZM159.16,170.85c-5.33,3.23-9.47-8.8-14.48-11.11-4.54-8.92,17.31,9.87,14.48,11.11ZM175.3,167.97c-6.81,2.37-16.02.76-19.18-5.41,7.38,3.94,35.23-.17,19.18,5.41ZM166.2,111.53c19.9-3.71,29.76,8.44,13,22.44-23.21,3.97-31.11-25.12-13-22.44ZM166.27,103.2c4.97,1.4,18.64,2.7,18.72,8.38-9.17-6.25-20.48,1.4-18.72-8.38ZM172.91,136.19c-2.93,1.16-13.26,1.24-12.74-3.31,3.95.34,8.43,2.8,12.74,3.31ZM164.25,108.7c-9.73.19-20.11-4.82-3.06-7.46,2.91-1.75,4.91,7.29,3.06,7.46ZM154.83,108.27c5.55,1.17-2.09,6.41-.54,10.23-4.85,13.83-12.87-17.68.54-10.23ZM153.55,123.59c1.72.2,5.6,7.12,4.8,8.23-1.79-.58-9.4-7.85-4.8-8.23ZM177.29,169.88c1.29-1.2,4.25.21,4.24,1.83-.89,2.37-6.26.66-4.24-1.83ZM161.22,181.02c-1.89-6.52,6.44-1.12,9.94-2.38,9.01-2.11,21.86-6.01,24.62-15.83.6-2.98,1.13-5.31,4.49-6.34,4.56.41.4,29.13-5.54,31.46-9.65,7.7-32.41,9.21-33.52-6.91ZM201.24,184.36c8.73-12.86-1.75-30.29,8.93-33.65,5.88-3.75,8.87-9.66,16.25-9.24,2.48-1.46-10.58-3.94-11.97-3.6-.97,1.79,4.7,2.23,2.41,4.1-2.61,1.23-7.55,8.28-9.69,5.26,3.52-26.79-9.61-51.39-8.89-78.62.44-8.68-13.09-23.67,1.64-25.64,9.46-2.17,16.28,11.24,16.46,17.53-3.78.23-9.28-3.68-12.24-.91-1.26,3-4.39,7.66-2.21,10.54,5.53,7.73,16.06,1.7,22.64,6.39,6.33,15.71,18.94,30.2,22.35,46.64,2.59,16-7.68,60.12-25.46,60.75-3-1.42-6.27,5-10.7,3.81-2.83,0-9.83.46-9.51-3.36ZM225.09,67.05c-4.77-2.13-11.4-.38-15.5-2.66-3.69-6.81,14.39-.35,16.25,2.67-.26,0-.52.04-.75,0ZM231.94,72.3c9.32,6.15-18.62-2.52-22.2-.13-4.58-9.64,17.69-3.12,22.2.13ZM207.19,66.16c-.08,1.33-.58,4.93-2.61,3.54-3.29-2.83,2.43-12.75,2.61-3.54ZM254.74,36.17c2.91-2.31-2.58-14.93,2.36-9.97,6,5.08,9.14,12.91,5.68,20.49-3.36,1.38-6.09-6.12-9.12-6.74-1.09,4.36,10.14,7.24,3.73,11.95-4.73,3.53-7.87-1.61-11.48-4.14-2.13,1.06,1.55,3.61,2.49,4.77,1.77,1.97-1.76,1.14-2.18-.15-.92-1.61-8.22-6.2-4.34-6.73,1.91.42,3.34-.67,4.22-2.06,1.57-3.44,6.92-4.07,8.63-7.42ZM223.06,27.31c1.79-6.3,7.74-7.29,13.27-7.38,8.55-1.65,17.54.96,16.56,11.13.37,2.16-3.42,1.54-2.53,4.22-1.65,2.7-7.61,9.41-11.17,8.37-5.52-3.26-20.04-8.52-16.13-16.34ZM199.46,29.71c8.1-1.48,17.58,3.33,23.99,7.73-3.06.61-6.14,1.32-8.05,3.66-3.66,6.19-5.64,1.28-8.36-2.74-1.24-3.31-8.25-5.87-7.58-8.65ZM184.9,31.08c6.26-2.88,20.47,5.99,19.64,10-17.27-2.41-7.14,10.65-20.14-8.36-.8-.6-.5-1.42.5-1.64ZM164.64,6.88c2.47-3.32,7.8-4.31,11.76-4.53,9.85.24-13.92,10.35-11.76,4.53ZM165.2,10.87c1.94-.43,5.72,6.68,6.09,3.05-6.28-6.23,6.97-4.7,9.29-8.57,5.38-1.74,4.63,12.35.85,14.64-2.76,1.26.58-9.2-3.25-5.65.45,1.55-1.48,3.64-2.66,1.93-.7-3.64-2.49-4.05-2.16-.08-3.13,4.22-12.06-4.12-8.17-5.32ZM148.28,33.4c3.58-3.86,14.36-12.38,16.2-3.26-1.42,3.32-1.67,7.27-.85,10.81,1.33,4.81-9.25-5.06-13.67-1.85-13.33,5.04-8.53,1.87-1.68-5.7ZM129.01,37.93c3.69-2.41,16.31-10.14,18.33-6.9-4.45,2.25-7.22,9.72-11.49,10.17-2.64-2.9-12.94,1.35-6.84-3.27ZM89.49,34.03c-1.05-10.27,10.66-12.83,19.03-10.56,7.57-.78,12.93,5.93,17.48,11.41.33,2.83-8.68,16.17-12.43,15.82-10.03-.73-24.65-4.68-24.08-16.67ZM83.17,34.8c1.09-1.45,3.99-6.89,3.76-2.26,1.01,1.65-4.18,4.3-3.76,2.26ZM82.1,38.9c5.11-4.71,6.83.05,8.01,5.01-1.36,2.44-4.07,5.24-6.51,6.79-.02-2.87-5.36-11.71-1.51-11.8ZM19.79,72.44c-2.64-1.72-5.38-4.21-6.68-6.8.27-1.58,1.84-3.22,1.35-4.78-.04-5.49,8.87-4.83,12.56-6.85,5.43-2.38,12.06,1.75,17.39,3.33,2.15,1.96-4.59,3.59-5.7,5.3-6.21,4.52-9.89,14.12-18.92,9.8ZM11.99,120.65c-2.73-2.74-8.27-5.14-3.31-8.05-.4-4.89,9.67-8.96,5.32-11.29-4.37-2.72-8.29,15.82-9.88,9.23,1.14-7.4,9.4-10.65,13.61-17.03,11.94-16.19,23.45-34.44,44.35-39.76,4.9-2.61,10.87-.68,15.81-3.03,3.72-.52,2.53,4.54,6.13,5.49,6.9,3.99,14.63,9.8,22.79,8.62-4,10.29-11.58,19.54-15.83,29.99-2.26,4.62-3.22,13.23-10.01,8.49-3.46-4.96-15.66,6.64-9.2,5.32,1.67-1.6,4.21-5.29,6.82-3.47,0,.95-1.42,1.63-1.93,2.38-.97,3.74,11.95-6.14,8.54,1.65-15.46,27.56,6.66,34.83-17.4,46.83-15.25,5.06-40.49-6.49-43.51-22.26,7.76,2.31,16.67-6.89,12.34-14.2-.74-.92-5.11-1.13-2.74-2.66,3.29-2.69,18.79-1.66,17.47-5.24-15.47,3.13-8.75-2.01-19.31-8.87-10.53-3.39,19.48,14.61-5.07,11.05-6.17,1.78-3.47,4.56-5.18,6.58-6.7,1.9-4.36,7.7-9.83.23ZM24.66,118.34c.62-1.5,3.16-3.59,4.8-2.01-.65,1.1-4.25,4.12-4.8,2.01ZM20.03,126.14c-.01.21-.02.42,0,.62,0-.21,0-.41,0-.62ZM34.26,177.39c-10.91-3.96-20.14-12.05-24.75-21.45-2.26.04-1.86-3.32-1.62-4.81.61-1.02-.69-1.89-1.59-1.3-3.22-.91-1.09-7.18.57-9.34,2.44-4.41,7-7.66,8.35-12.57,1.71-1.29,2.58,2.99,4.48,3.44,2.26,5.04,2.7,11.29,8.06,15.08,3.64,3.42,5.35,2.92,4.32,8.04,2.32,2.15,1.99-3.88,5.09-1.34,17.12,10.05,31.95,8.35,45.62-3.85,6.28,15.95,18.33,12.15,3.76,20.71-5.59,2.78-1.65,9.52-5.49,8.97-16.33,1.14-31.1,7-46.79-1.58ZM67.14,230.46c-.97-1.54.57-7.24-2.25-6.24-3.15,1.81-5.48-6.13-7.97-8-17.23-25.8-.46-19.14,14.69-25.24-10.28-2.13-21.38,3.47-31.03,3.07-2.54-4.99-.03-12.92,6.71-9.43.83.43,5.97-.11,4.15,1.31-1.48,2.26-7.93-.35-7.01,2.3,11.77,2.86,24.31-9.03,37.39-6.92,4.91-1.05,4.42,13.14,15.32,16.91,6.19,1.97-26.17,7.53-22.65,21.02-2.36,5.94-5.29,14.55-1.08,20.06,1.37-.24,1.31-2.65,3.12-1.07,6.44,4.42-10.45,5.6-9.37-7.78ZM69.77,247.54c-2.71-.62-2.43-2.02-1-3.79,2.27-2.04,7.07,1.66,9.86-1.18,5.59-2.01,10.31,5.01,15.97,5.76-.3,3.82-20.46,1.16-24.83-.78ZM146.64,343.44c.17,17.29-4.67,38.37-14.85,54.32-1.97,1.33-22.44,10.62-14.66,10.07,13.13-7.35,36.99-13.98,40.6,5.33-5.46,22.11-37.46,19.43-52.7,8.5-3.93-4.66.62-13.62-1.51-19.66-.47-14.4-5.74-28.72-2.17-43.01-1.04-2.14-2.17,1.63-3.38,1.32-3.74-9.65-7.84-19.73-8.62-30.12-4-56.6,61.73-26.1,57.29,13.26ZM240.21,326.84c.21,1.86-2.87,1.16-2.49,2.97-.72,12.68-7.86,24.97-13.35,36.75-2.24,8.39-8.15,5.46-14.39,8.12-6.72,2.92-14.49,9.26-15.6,16.28,6.37-4.7,16.6-19,23.67-12.99,9.86-2.37,10.19-.32,15.76,6.71,11.6,26.34-33.76,28.24-49.47,22.54-6.04-6.11,1.34-16.07,1.93-23.36,2.12-4.86-.72-11.76,2.27-15.63,3.15-9.7-6.78-23.21-3.54-31.34,51.45-9.65,55.16-43.6,55.21-10.05ZM257.3,237.54c10.22,63.18-46.74,102.32-106.02,100.38-4.06-13.45-10.06-30.17-24.55-37.49-36.42-18.69-38.58,23.8-44.37,14.39-12.86-10.56-12.17-28.7-12.16-42.7-3.31-1.8,2.99-6.51.72-8.86,1.29-13.13,4.26-11.05,15.65-10.25,13.4-3.21,26.99,1.52,39.97-2.23,22.19-13.34,46.08-23.01,71.32-30.37,14.66-7.27,31.11-12.32,47.53-12.48,4.89,4.58,6.81,13.54,10.15,19.79.59.97.62,1.79-.58,2.53-1.1,2.13,1.81,5,2.33,7.29ZM255.26,204.28c3.96,2.58,9.04,6.12,3.87,10.64-4.23,5.13-5.22-.69-7.4-4.05-3.18-6.54,9.73,3.56,6.35-1.73-29.56-13.5-77.42,16.64-107.45,25.64-8.96,5.1,7.58-13.62,3.39-30.14,1.27-2.2-3.09-11.11.29-10.88,3.04.94,6.21.19,9.12-.85,3.91.31,7.65,3.33,12.1,2.76,7.56.52,16.79-1.09,22.36-6.51.82-1.03,1.57-1.09,2.69-.28,8.18,5.08,19.73,0,27.8-3.39,7.65,6.25,16.33,14.27,26.88,18.79ZM296.34,159.46c-2.95,20.65-20.42,36.48-40.29,37.73-8.02,3.74-34.14-16.02-17.83-19.04,18.74.46,17.05-13.75,25.45-8.47-2.03-6.61-6.83-13.98-5.12-21.61-3-7.86,5.86-15.01,13.81-15.98,14.79-6.03,28.18,13.01,23.99,27.38ZM69.08,85.2c1.51,2.38,6.52,1.47,8.8,3.5,2.14.31,7.18,6.94,6.41,2.19-1.16-3.74-16.25-12.22-15.21-5.69ZM78.59,98.58c-4.17.83,4.8,3.57,5.83,3.82,1-2.6-3.75-3.4-5.83-3.82ZM119.65,102.64c3.14,10.66,21.97,13.14,20.11-.89-.15-6.41,1.72-16.56-5.62-19.49-9.84-3.7-17.36,5.62-16.54,14.81-1.75,2.64.24,3.83,2.04,5.56ZM128.77,106.26c-2.12,5.36-9.6-6.18-5.95-5.96,3.8-.85,4.98,3.27,5.95,5.96ZM136.78,106.83c-.34,2.82-10.77,3.2-6.03.32,1.83.91,5.88-2.39,6.03-.32ZM136.98,101.81c-7.18,11.99-14.39-13.85-2.14-10.48,2.91,2.54,1.77,6.99,2.14,10.48ZM122.26,87c2.85-1.03,5.35-2.86,8.18-3.9,2.4.53,7.54,3.08,6.08,5.78-3.29-.5-5.71.66-8.9,1.65-1.61.68-6.83-1.77-5.35-3.53ZM120.18,97.57c1.98-3.36-.72-10.16,4.98-5.22,1.46,1.34,1.24,6.96-1.57,6.53-1.06-.18-4.15.59-3.4-1.3ZM227.82,99.57c-1.81-4.3,1.35-8.03.65-12.34-3.39-10.78-18.63-5.8-22.09,2.46-8.44,25.34,22.04,29.06,21.44,9.88ZM209.39,89.28c4.79-7.2,15.59-7,4.57.52-1.6-.47-5.53,2.84-4.57-.52ZM210.81,106.82c-3.61-2.74-1.92-7.78-2.31-11.63,1.06-2.68,7.61-5.07,9.28-1.89,1.71,4.58-.52,14.97-6.96,13.52ZM223.09,106.86c-1.02,1.73-10.09,3.44-7.14.82,2.16-.5,2.7-3.73,5.13-2.6.88.29,3.62.47,2.02,1.78ZM224.72,103.48c-1.73,1.08-5.22-.75-4.18-2.96,1.07-2.56-1.3-7.2,2.72-7.58,1.94-.02,2.66,8.98,1.46,10.54ZM224.79,89.89c-10.11,6.97-5.19-8.32-1.33-5.21,1.19,1.26,3.95,4.23,1.33,5.21ZM54.23,164.6c3.32,2.02,9.29,5.16,12.56,1.84-1.61,0-17.58-6.34-12.56-1.84ZM73.57,206.8c5-4.63,12.33-5.78,17.95-8.66-2.34-3.02-24.95,7.19-17.95,8.66ZM104.17,55.94c-1.48-5.52-4.72,8.62-.66,5.07.75-1.69,1.02-3.23.66-5.07Z"/>
      <path class="cls-3" d="M185.49,114.23c-7.29-5.25-16.49-1.76-24.49-3.18-7.59,3.06-4.55,16.66,1.82,19.97,4.9,2.26,14.23,4.98,18.69,1.27,3.6-5.23,9.95-12.48,3.98-18.06M179.27,164.45c-7.74,1.83-15.89-.31-23.15-1.89,3.97,7.64,17.08,8.3,23.93,3.07.86-.73.18-1.35-.77-1.18ZM136.95,97.37c.49-8.7-8.23-8.06-8.89-.37-.44,9.6,10.89,10.73,8.89.37ZM217.77,93.3c-1.66-3.18-8.22-.78-9.27,1.89.06,2.92-.17,5.84.29,8.74,4.53,9.59,12.12-5.39,8.98-10.63Z"/>
      <path class="cls-6" d="M145.63,55.61c-4.51-3.97-26.78,4.82-25.29,10.96,7.94-6.61,20.2-1.24,25.29-10.96M233.93,74.03c-5.97-4.7-17.98-9.34-24.72-5.34-2.61,4.67,2.25,3.15,5.19,3.29,3.94-.94,19.74,4.5,19.53,2.04ZM147.73,112.75c.38,3.05-.04,11.12,5.06,8.83,2.74-2.81.75-7.16,3.62-10.3,2.91-3.16-3.85-3.28-5.88-3.92-2.57-.82-3.21,3.87-2.79,5.39ZM137.85,63.96c-5.64.39-18.82,3.56-18.8,8.51,6.21-3.17,13.45-4.83,20.06-2.31,3.48.72,1.48-7.1-1.26-6.2ZM152.53,106.12c3.6.26,10.76,5.94,12.55,1.25-1.39-2.26.22-6.89-3.89-6.12-2.15.54-12.05,2.13-8.66,4.87ZM173.38,171.15c-3.75,1.18-13.5-2.27-13.44,3.22,3.59,2.04,21.69,3.66,13.44-3.22ZM184.99,111.58c3.55-2.74-25.78-14.35-17.97-3.76.85,2.18,3.95.48,5.72.49,4.42-.59,8.3,1.95,12.25,3.27ZM159.19,169.16c-4.6-2.38-10.74-14.49-15.36-10.7,2.47,2.12,15.95,20,15.36,10.7ZM191.36,160.87c-3.05,1.1-11.46,5.27-8.67,8.65,3.35,3.84,14.68-7.89,8.67-8.65ZM209.59,64.39c4.38,2.12,11.19.91,16.25,2.67-1.82-3-19.96-9.49-16.25-2.67ZM144.79,69.39c2.97-1.99,2.73-7.75,1.37-10.49-3.38,1.17-4.66,10.19-1.37,10.49ZM161.79,132.94c-7.4,1.32,9.22,5.9,11.12,3.26-3.75-.96-7.67-1.55-11.12-3.26ZM157.19,128.62c-.24-2.4-5.35-8.12-5.02-3.27,1.03,2.7,9.69,10.66,5.02,3.27ZM205.7,62.08c-1.58,1.17-3.33,6.05-1.12,7.63,3.27,1.45,3.35-6.66,1.12-7.63ZM179.75,169.67c-1.3-.77-3.88.26-2.59,1.99,1.73,3.17,6.85-.34,2.59-1.99ZM134.62,84.95c-2.11-3.92-15.29,2.04-12.16,3.69,4.18,4.63,8.22-.89,12.77.4,3.26.52.9-3.19-.61-4.09ZM123.59,98.87c4.13-.21,2.58-7.67-1.3-8.41-2.62.2-.11,5.25-2.1,7.11-.74,1.9,2.34,1.12,3.4,1.3ZM126.67,101.82c-2.93-3.4-7.94-1.9-2.33,3.93,3.46,5.3,5.64-.57,2.33-3.93ZM135.95,106.08c-1.6.83-3.31,1.21-5.2,1.07-4.13,2.58,3.35,2.2,4.88,1.14.67-.54,2.21-2.56.33-2.21ZM224.56,93.7c-3.84-4.26-5.24,8.04-3.16,9.43,6.75,3.06,2.68-6.13,3.16-9.43ZM223.46,84.69c-2.59-2.65-3.4,2.69-4.72,4.18-1.29,5.92,12.09.92,4.72-4.18ZM216.06,88.82c11.16-13.06-12.91,2.03-5.22,1.77,1.45-1.19,4.14-.15,5.22-1.77ZM222.65,105.46c-3.21-1.7-4.17.88-6.71,2.22-3.89,3.16,10.93.07,6.71-2.22Z"/>
    </g>
  </g>
</svg>