<svg xmlns="http://www.w3.org/2000/svg" width="500.5" height="500.6" viewBox="0 0 500.5 500.6">
  <g id="katman_2" data-name="katman 2">
    <g id="katman_1-2" data-name="katman 1">
      <g>
        <path d="M67.6,309.8h-.4c0,.1-.1.1-.7.6-3.9,2.9-12,7.6-15.6,8.9l-2.4.9v-.2l-6.9,7.3a4.6,4.6,0,0,1-1,1,21,21,0,0,1-3.1,1.5c-1.3.2-4-1-5.1-1.7a5,5,0,0,1-2.3-3.8v-1l-5.9-.6a12.9,12.9,0,0,1-4.4-1.1c-3.3-1.3-10.7-4.9-10.7-4.9s3.2,11,5.9,18.9c8.5,25.3,27,56.5,44.8,77,4.2,4.8,9.1,9.9,13.7,14.9l.7.6h.3s22.7-17.6,26.5-19.7,7.5-3.9,7.5-3.9-4.5-8.8-6.6-13.5c-.4-1.1-.7-1.9-1-2.9s-.3-.9.2-1.5c2-3.3,3.6-5.9,6.3-9.6,5-7.1,13.8-18,13.8-18l-.6-2.7c-.8-3.4-20.9-53.5-20.9-53.5h-.5L97,300.3s3.1,7.6,4.5,12a22.5,22.5,0,0,1,.6,11.8c-.9,4.6-5.6,6.9-11.3,6.9-3.9,0-12-2-15.6-4.5s-5.7-6.5-6.6-10-1-6.7-1-6.7" style="fill: #b596ff;fill-rule: evenodd"/>
        <path d="M67.6,309.8h-.4l-.7.6c-3.9,2.9-12,7.6-15.6,8.9l-2.4.9v-.2l-6.9,7.3a4.6,4.6,0,0,1-1,1,21,21,0,0,1-3.1,1.5c-1.3.2-4-1-5.1-1.7a5,5,0,0,1-2.3-3.8v-1l-5.9-.6a12.9,12.9,0,0,1-4.4-1.1c-3.3-1.3-10.7-4.9-10.7-4.9s3.2,11,5.9,18.9c8.5,25.3,27,56.5,44.8,77,4.2,4.8,9.1,9.9,13.7,14.9l.7.6h.3s22.7-17.6,26.5-19.7,7.5-3.9,7.5-3.9-4.5-8.8-6.6-13.5c-.4-1.1-.7-1.9-1-2.9s-.3-.9.2-1.5c2-3.3,3.6-5.9,6.3-9.6,5-7.1,13.8-18,13.8-18l-.6-2.7c-.8-3.4-20.9-53.5-20.9-53.5h-.5L97,300.3s3.1,7.6,4.5,12a22.5,22.5,0,0,1,.6,11.8c-.9,4.6-5.6,6.9-11.3,6.9-3.9,0-12-2-15.6-4.5s-5.7-6.5-6.6-10S67.6,309.8,67.6,309.8Z" style="fill: none;stroke: #b596ff;stroke-miterlimit: 10.000000953674316;stroke-width: 0.20086599072713796px"/>
        <polygon points="57.6 302.7 58.4 302.7 58.4 302.5 59.4 302.3 66.8 298.1 66.8 288.9 57.6 302.7" style="fill: #b596ff;fill-rule: evenodd"/>
        <polygon points="57.6 302.7 58.4 302.7 58.4 302.5 59.4 302.3 66.8 298.1 66.8 288.9 57.6 302.7" style="fill: none;stroke: #b596ff;stroke-miterlimit: 10.000000953674316;stroke-width: 0.20086599072713796px"/>
        <path d="M13.5,169.7s-4,12.8-6.4,21.3C3.4,204.6,1.8,219.9.4,234.2c-.3,3.5-.4,25.1-.1,28.7.8,10.7,2.6,25.6,2.6,25.6a136.8,136.8,0,0,0,9.6,10.3c4.2,3.7,12.6,7.3,17.9,7.9l9.5.8s2.8-5.9,6.4-11.7,16.9-22.4,16.9-22.4-12.4.8-20.5.4c-4.1-.2-11.9-1.3-15.1-2.6-1.3-.5-9.9-6.5-11.9-8.2s-2.8-4.6-2.4-9.2,2.5-7.4,5.6-11,7.8-3.7,13.1-1.4,17.9,9.4,17.9,9.4-9.7-9.4-12.1-12.6-7.4-15.3-7.5-18.2a6.4,6.4,0,0,1,.7-3.2c1.8-4.8,3.5-5.8,9.6-8.1,4.3-1.7,8.7-3.3,12.1-2.3s10.8,7.4,13,10.5c.8,1.2,6.4,14.5,6.9,16.3,1.7,7.3,3.9,23.2,3.9,23.2a24,24,0,0,1,3-2.4,5.3,5.3,0,0,1,2.9-1,12.9,12.9,0,0,1,10.7,4.9,11.8,11.8,0,0,1,1.3,6.2,46.3,46.3,0,0,1-2.5,5.9l3,.9s-.2-5.6.1-6.6.1-.2.1-.5a25.5,25.5,0,0,0,.2-4.5h-.2l-.3-.2c-.8-1.2.2-2.8.3-3.9s.1-.6.3-.7h.5v-.2h.2l.2-2.5a13.3,13.3,0,0,1-2.1,1.2c-1,.3-4-.6-4.8-1a7.7,7.7,0,0,1-3.1-3.9,9,9,0,0,1,1.2-4.5,4.9,4.9,0,0,1,4.3-1.9,5.4,5.4,0,0,1,4.9,3.5c.2.6.2.7.3.7h.2l7.1-22.2a1.8,1.8,0,0,0-.1-1.6c-2-4.3-4.3-9-5.7-13-4.2-11.9-5-27.9,4-38.4,1.5-1.8,3.9-4.2,3.9-4.2h0c0-.1,0-.2-.7-.6-9.2-6.8-16.6-8.5-27.4-5.7-4.6,1.2-11.7,5.1-15.3,9.5-1.4,1.7-3.3,4.6-3.3,4.6l-2.8-2.8c-8.2-7.7-23.9-9.1-34.5-5.4-3.4,1.2-8.9,3.7-8.9,3.7" style="fill: #b596ff;fill-rule: evenodd"/>
        <path d="M13.5,169.7s-4,12.8-6.4,21.3C3.4,204.7,1.8,219.9.4,234.2c-.3,3.5-.4,25.1-.1,28.7.8,10.7,2.6,25.6,2.6,25.6a136.8,136.8,0,0,0,9.6,10.3c4.2,3.7,12.6,7.3,17.9,7.9l9.5.8s2.8-5.9,6.4-11.7,16.9-22.4,16.9-22.4-12.4.8-20.5.4c-4.1-.2-11.9-1.3-15.1-2.6-1.3-.5-9.9-6.5-11.9-8.2s-2.8-4.6-2.4-9.2,2.5-7.4,5.6-11,7.8-3.7,13.1-1.4,17.9,9.4,17.9,9.4-9.7-9.4-12.1-12.6-7.4-15.3-7.5-18.1a6.6,6.6,0,0,1,.7-3.3c1.8-4.8,3.5-5.8,9.6-8.1,4.3-1.7,8.7-3.3,12.1-2.3s10.8,7.4,13,10.5c.8,1.2,6.4,14.5,6.9,16.3,1.7,7.3,3.9,23.2,3.9,23.2a24,24,0,0,1,3-2.4,5.3,5.3,0,0,1,2.9-1,12.9,12.9,0,0,1,10.7,4.9,11.8,11.8,0,0,1,1.3,6.2,46.3,46.3,0,0,1-2.5,5.9l3,.9s-.2-5.6.1-6.6.1-.2.1-.5a25.5,25.5,0,0,0,.2-4.5h-.2l-.3-.2c-.8-1.2.2-2.8.3-3.9s.1-.6.3-.7h.5v-.2h.2l.2-2.5a13.3,13.3,0,0,1-2.1,1.2c-1,.3-4-.6-4.8-1a7.7,7.7,0,0,1-3.1-3.9,9,9,0,0,1,1.2-4.5,4.9,4.9,0,0,1,4.3-1.9,5.4,5.4,0,0,1,4.9,3.5c.2.6.2.7.3.7h.2l7.1-22.2a1.8,1.8,0,0,0-.1-1.6c-2-4.3-4.3-9-5.7-13-4.2-11.9-5-27.9,4-38.4,1.5-1.8,3.9-4.2,3.9-4.2h0s0-.2-.7-.6c-9.2-6.8-16.6-8.5-27.4-5.7-4.6,1.2-11.7,5.1-15.3,9.5-1.4,1.7-3.3,4.6-3.3,4.6l-2.8-2.8c-8.2-7.7-23.9-9.1-34.5-5.4C19,167.2,13.5,169.7,13.5,169.7Z" style="fill: none;stroke: #b596ff;stroke-miterlimit: 10.000000953674316;stroke-width: 0.20086599072713796px"/>
        <path d="M288,156.3s-5.1,5.9-10.4,11.3-9.3,9.2-9.3,9.2v.2l13.4,6.1s-.1-2.2-.2-3.7-.2-3.3.2-4.7c1-4.4,6.3-18.4,6.3-18.4h0Z" style="fill: #b596ff;fill-rule: evenodd"/>
        <path d="M288,156.3s-5.1,5.9-10.4,11.3-9.3,9.2-9.3,9.2v.2l13.4,6.1s-.1-2.2-.2-3.7-.2-3.3.2-4.7c1-4.4,6.3-18.4,6.3-18.4h0Z" style="fill: none;stroke: #b596ff;stroke-miterlimit: 10.000000953674316;stroke-width: 0.20086599072713796px"/>
        <path d="M387.3,111s-7,5.1-10.4,7-16.4,4.1-22.7,4.1c-7.9,0-23.4-.6-23.4-.6s18.7,24.1,21.3,28.5,3.4,6.4,5,9.6a67,67,0,0,0,5.4,8.8c2.1,2.8,4.4,5.1,6.1,7.7,3.2,4.5,5.4,10.7,1.1,14a22.9,22.9,0,0,1-6.1,2c-5.6.8-15.3-13.3-17.1-16.3-3.1-5.3-5.7-12.7-9.2-18.5s-10.9-15.9-10.9-15.9v10.5c-.1,3.6-1.9,22.5-2.4,23.8-1,3-5.5,10.9-8.7,12.7s-11.1,4.3-11.1,4.3v.2l7.1,2.3h.6a29.9,29.9,0,0,0,2.3-2.4,54,54,0,0,0,4-5.6s6.9,3.9,11.7,6.2c6.9,3.3,17.8,5.8,25.5,6.2,14.9.8,26.7-6,32.5-19.9,1.3-3,4.2-11.8,3.9-15.1s-5.3-9.1-10-11.7c-3-1.7-8.1-3.9-8.1-3.9s4.6-2,7.8-3.7c5.9-3.1,11.7-8.2,13.2-14a17.7,17.7,0,0,0-2.9-14.9,61.8,61.8,0,0,0-4.5-5.4" style="fill: #b596ff;fill-rule: evenodd"/>
        <path d="M387.3,111s-7,5.1-10.4,7-16.4,4.1-22.7,4.1c-7.9,0-23.4-.6-23.4-.6s18.7,24.1,21.4,28.5,3.3,6.4,4.9,9.6a67,67,0,0,0,5.4,8.8c2.1,2.8,4.4,5.1,6.1,7.7,3.2,4.5,5.4,10.7,1.1,14a22.9,22.9,0,0,1-6.1,2c-5.6.8-15.3-13.3-17.1-16.3-3.1-5.3-5.7-12.7-9.2-18.5s-10.9-15.9-10.9-15.9v10.5c-.1,3.6-1.9,22.5-2.4,23.8-1,3-5.5,10.9-8.7,12.7s-11.1,4.3-11.1,4.3v.2l7.1,2.3h.6a29.9,29.9,0,0,0,2.3-2.4,54,54,0,0,0,4-5.6s6.9,3.9,11.7,6.2c6.9,3.3,17.8,5.8,25.5,6.2,14.9.8,26.7-6,32.5-19.9,1.3-3,4.2-11.8,3.9-15.1s-5.3-9.1-10-11.7c-3-1.7-8.1-3.9-8.1-3.9s4.6-2,7.8-3.7c5.9-3.1,11.7-8.2,13.2-14a17.7,17.7,0,0,0-2.9-14.9A61.8,61.8,0,0,0,387.3,111Z" style="fill: none;stroke: #b596ff;stroke-miterlimit: 10.000000953674316;stroke-width: 0.20086599072713796px"/>
        <polygon points="352.4 88.1 352.1 88.1 346.8 93.6 352.6 90.5 352.6 90.3 352.4 90.3 352.6 88.2 352.4 88.2 352.4 88.1" style="fill: #b596ff;fill-rule: evenodd"/>
        <polygon points="352.4 88.1 352.1 88.1 346.8 93.6 352.6 90.5 352.6 90.3 352.4 90.3 352.6 88.2 352.4 88.2 352.4 88.1" style="fill: none;stroke: #b596ff;stroke-miterlimit: 10.000000953674316;stroke-width: 0.20086599072713796px"/>
        <path d="M168.4,163.6s6.4-1.9,10.7-2.9a129.8,129.8,0,0,1,22.9-3c5.3,0,12.1.6,12.1.6s4.8-7,7.8-10.9a26.5,26.5,0,0,1,4.7-5.1c9.9-8.8,22.3-15.2,35-12.9l7,1.5s4.7-2.3,9.8-4.2c6.6-2.5,19.1-5.7,19.1-5.7s-4.4-6.8-5.4-9.4.5-9,2.3-10.7c4.3-4.2,11.9-6.8,16.7-3,1.3,1,3.2,2.8,3.2,2.8s2.5-19.2,4.4-27.6a45.6,45.6,0,0,1,2.3-7.6c3.3-8.9,6.5-16,13-21.3l5.4-4s-1.4-1.6-2.6-2.7c-3.1-3-7.7-5.5-11.1-7.1-10.3-4.8-29-6.2-40.9-5.3a180.3,180.3,0,0,0-18.1,3.3c-16.4,4.7-28.2,14-36.3,28.4-5,8.8-8.8,23.2-8,33.9.3,4.2,1.1,10,1.1,10s-7.5-3.6-12.8-5.5a79.4,79.4,0,0,0-11.2-2.4c-18.3-1.6-29.7,8.3-35.4,26.4-2.1,6.8-4.4,18.8-4.1,25.6a17.3,17.3,0,0,0,1.4,5.4c2.1,4.6,7,13.4,7,13.4" style="fill: #b596ff;fill-rule: evenodd"/>
        <path d="M168.4,163.6s6.4-1.9,10.7-2.9a129.8,129.8,0,0,1,22.9-3c5.3,0,12.1.6,12.1.6s4.8-7,7.8-10.9a26.5,26.5,0,0,1,4.7-5.1c9.9-8.8,22.3-15.2,35-12.9l7,1.5s4.7-2.3,9.8-4.2c6.6-2.5,19.1-5.7,19.1-5.7s-4.4-6.8-5.4-9.4.5-9,2.3-10.7c4.3-4.2,11.9-6.8,16.7-3,1.3,1,3.2,2.8,3.2,2.8s2.5-19.2,4.4-27.6a45.6,45.6,0,0,1,2.3-7.6c3.3-8.8,6.5-16,13-21.3l5.4-4s-1.4-1.6-2.6-2.7c-3.1-3-7.7-5.5-11.1-7.1-10.3-4.8-29-6.2-40.9-5.3a180.3,180.3,0,0,0-18.1,3.3c-16.4,4.7-28.2,14-36.3,28.4-5,8.8-8.8,23.2-8,33.9.3,4.2,1.1,10,1.1,10s-7.5-3.6-12.8-5.5a79.4,79.4,0,0,0-11.2-2.4c-18.3-1.6-29.7,8.3-35.4,26.4-2.1,6.8-4.4,18.8-4.1,25.6a17.3,17.3,0,0,0,1.4,5.4C163.5,154.8,168.4,163.6,168.4,163.6Z" style="fill: none;stroke: #b596ff;stroke-miterlimit: 10.000000953674316;stroke-width: 0.20086599072713796px"/>
        <path d="M20.7,151l4.4-.2c4.2,0,14.1,2.5,16.9,3.5,6.1,2.3,15,7,15,7s4.2-2.9,7.1-4.7a54.6,54.6,0,0,1,16.7-6.3c7.9-1.7,24.2-1.3,30.8,3a71.9,71.9,0,0,1,6.5,5.2,53.4,53.4,0,0,1,8.2-2.5,30.5,30.5,0,0,1,7.9.3c7.2,1.4,12.7,7.1,17.6,12.8l.6.6h.1s-2.9-5.4-4.9-9.7c-3-6.7-6.2-20.8-6-27.4.4-11.3,7.5-28,14.5-35,9-9,19.3-11.8,32.1-12a135.1,135.1,0,0,1,16.2,2c4.6,1.1,10.5,2.9,10.5,2.9s-.5-6-.6-10.2a107.3,107.3,0,0,1,3.3-26.4c5.9-23.9,22.7-37.7,47.8-42.8,13.4-2.8,33.4-3.1,46-.3,16,3.5,26.9,12.5,37.4,25.8.5.6.6.7.6.8v.3l2.9.6a106.7,106.7,0,0,1,12.8,5.1,14.8,14.8,0,0,1,3.3,2.8c2.3,2.5,3.8,7,3.4,9.7s-7,18.6-9.4,21.7l-3.1,3.6v.2h.2l.4,5.3s9-4.9,13-6.2a17,17,0,0,1,5.1-.7c3.8.2,5.8,1,8.4,4,4,4.8,7,10.5,6.8,15.2-.2,2.6-.8,6.7-.8,6.7a44.5,44.5,0,0,1,3.7,4.2c1.9,2.4,3,6,3.7,9a30.7,30.7,0,0,1-1.4,17.4,17,17,0,0,1-5.8,7.5c-2.1,1.7-5.3,3.9-5.3,3.9l3.2,2.1a22.8,22.8,0,0,1,4.7,5.2c5.8,8.5,6.2,23.2,1,32.5-8.2,15-24.3,22.1-40.5,21.8-4.9,0-11.9-.5-11.9-.5s1,2.1,1.6,3.6a9.7,9.7,0,0,1,.7,4.2c-.2,5.8-2.1,18.6-2.7,27a22.7,22.7,0,0,0,.9,9c2.7,8.3,11.7,10.5,21.5,16.6,6.2,3.8,10.7,9,12.9,15.1,7.1,19.4.3,48.7-8.6,68.7-4.8,10.9-14,28.3-14,28.3s8.7,4.7,12.8,7.6,5.1,5.1,3.1,7.7c-3.4,4.7-7.7,8.2-13.8,11.6s-16.9,8.7-16.9,8.7l5.2,1.8a13.9,13.9,0,0,1,7.4,5.5l.3.6a2.3,2.3,0,0,1,0,1.2c-3.2,17.4-6.1,30-3.2,46.4.5,2.9,1.2,6.3,1.2,6.3s12.2-5.8,21-10.5c3.5-1.9,20.1-12.5,23.2-14.9,24.2-18.2,43.8-37.1,61.3-63a253.3,253.3,0,0,0,41.5-165.4A249.5,249.5,0,0,0,424.7,71c-3.4-3.3-22.7-19.6-26.4-22.4A251.2,251.2,0,0,0,291.8,3.5,256.6,256.6,0,0,0,211.6,3c-4.5.7-8.9,1.5-13.4,2.5s-26.1,6.9-30.7,8.5A253,253,0,0,0,77.9,68.8C65.1,80.9,55.8,92.6,44.4,107.9c-2.1,2.9-14,22.3-15.5,25.3-3.7,7.7-8.2,17.8-8.2,17.8" style="fill: #b596ff;fill-rule: evenodd"/>
        <path d="M20.7,151l4.4-.2c4.2,0,14.1,2.5,16.9,3.5,6.1,2.3,15,7,15,7s4.2-2.9,7.1-4.7a54.6,54.6,0,0,1,16.7-6.3c7.9-1.7,24.2-1.3,30.8,3a71.9,71.9,0,0,1,6.5,5.2,53.4,53.4,0,0,1,8.2-2.5,30.5,30.5,0,0,1,7.9.3c7.2,1.4,12.7,7.1,17.6,12.8l.6.6h.1s-2.9-5.4-4.9-9.7c-3-6.7-6.2-20.8-6-27.4.4-11.3,7.5-28,14.5-35,9-9,19.3-11.8,32.1-12a135.1,135.1,0,0,1,16.2,2c4.6,1.1,10.5,2.9,10.5,2.9s-.5-6-.6-10.2a107.3,107.3,0,0,1,3.3-26.4c5.9-23.9,22.7-37.7,47.8-42.8,13.4-2.8,33.4-3.1,46-.3,16,3.5,26.9,12.5,37.4,25.8.5.6.6.7.6.8v.3l2.9.6a106.7,106.7,0,0,1,12.8,5.1,14.8,14.8,0,0,1,3.3,2.8c2.3,2.5,3.8,7,3.4,9.7s-7,18.6-9.4,21.7l-3.1,3.6v.2h.2l.4,5.3s9-4.9,13-6.2a17,17,0,0,1,5.1-.7c3.8.2,5.8,1,8.4,4,4,4.8,7,10.5,6.8,15.2-.2,2.6-.8,6.7-.8,6.7a44.5,44.5,0,0,1,3.7,4.2c1.9,2.4,3,6,3.7,9a30.7,30.7,0,0,1-1.4,17.4,17,17,0,0,1-5.8,7.5c-2.1,1.7-5.3,3.9-5.3,3.9l3.2,2.1a22.8,22.8,0,0,1,4.7,5.2c5.8,8.5,6.2,23.2,1,32.5-8.2,15-24.3,22.1-40.5,21.8-4.9,0-11.9-.5-11.9-.5s1,2.1,1.6,3.6a9.7,9.7,0,0,1,.7,4.2c-.2,5.8-2.1,18.6-2.7,27a22.7,22.7,0,0,0,.9,9c2.7,8.3,11.7,10.5,21.5,16.6,6.2,3.8,10.7,9,12.9,15.1,7.1,19.4.3,48.7-8.6,68.7-4.8,10.9-14,28.3-14,28.3s8.7,4.7,12.8,7.6,5.1,5.1,3.1,7.7c-3.4,4.7-7.7,8.2-13.8,11.6s-16.9,8.7-16.9,8.7l5.2,1.8a13.9,13.9,0,0,1,7.4,5.5l.3.6a2.3,2.3,0,0,1,0,1.2c-3.2,17.4-6.1,30-3.2,46.4.5,2.9,1.2,6.3,1.2,6.3s12.2-5.8,21-10.5c3.5-1.9,20.1-12.5,23.2-14.9,24.2-18.2,43.8-37.1,61.3-63a253.3,253.3,0,0,0,41.5-165.4A249.5,249.5,0,0,0,424.7,71c-3.4-3.3-22.7-19.6-26.4-22.4A251.2,251.2,0,0,0,291.8,3.5,256.6,256.6,0,0,0,211.6,3c-4.5.7-8.9,1.5-13.4,2.5s-26.1,6.9-30.7,8.5A253,253,0,0,0,77.9,68.8C65.1,80.9,55.8,92.6,44.4,107.9c-2.1,2.9-14,22.3-15.5,25.3C25.2,140.9,20.7,151,20.7,151Z" style="fill: none;stroke: #b596ff;stroke-miterlimit: 10.000000953674316;stroke-width: 0.20086599072713796px"/>
        <path d="M447.4,235.2c-.9,3-.8,3.5.9,5.5s1.7,1.8,4.3,2.1,2.3,0,3.1-1.3,1.2-5.2.1-6.8a9,9,0,0,0-4.4-2C450.4,232.7,447.8,233.7,447.4,235.2Z" style="fill: #8cdf52;fill-rule: evenodd"/>
        <path d="M447.4,235.2c-.9,3-.8,3.5.9,5.5s1.7,1.8,4.3,2.1,2.3,0,3.1-1.3,1.2-5.2.1-6.8a9,9,0,0,0-4.4-2C450.4,232.7,447.8,233.7,447.4,235.2Z" style="fill: none;stroke: #8cdf52;stroke-miterlimit: 10.000000953674316;stroke-width: 0.20086599072713796px"/>
        <path d="M439.8,230c2.1,3,2.1,3.3,5.3,3.6,1.7.2,2.3,0,3.1-1.3s1.1-3.8.4-6.1a5.4,5.4,0,0,0-5.1-2.7,5.2,5.2,0,0,0-3.2,1.7,19.1,19.1,0,0,0-.7,3c-.1.8-.1.8-.2.8h-.1v.2c0,.1,0,.2.5.8" style="fill: #8cdf52;fill-rule: evenodd"/>
        <path d="M439.8,230c2.1,3,2.1,3.3,5.3,3.6,1.7.2,2.3,0,3.1-1.3s1.1-3.8.4-6.1a5.4,5.4,0,0,0-5.1-2.7,5.2,5.2,0,0,0-3.2,1.7,19.1,19.1,0,0,0-.7,3c-.1.8-.2.8-.2.8h-.1v.2C439.3,229.3,439.3,229.4,439.8,230Z" style="fill: none;stroke: #8cdf52;stroke-miterlimit: 10.000000953674316;stroke-width: 0.20086599072713796px"/>
        <path d="M396.2,221.4l11.5,11.2s-15.7-8.3-18.9-9.4-6.5-1.2-8.8.6-6.1,8.2-6.3,11,0,5.9,1,7.2c2.5,3.4,10.7,8.1,13.1,8.9a70.5,70.5,0,0,0,11.2,1.9c7.5.3,19.9-.4,19.9-.4s-13.4,17-15.7,20.8-4.9,9.9-6.9,12.5-2.6,3-3.8,4.7-3.7,6.7-2.9,9.2,2.8,3.3,5.8,3.7,6.3-3.8,8.2-6.2a38.7,38.7,0,0,0,4.6-6.5c2-3.7,3.3-8.1,5.9-12.6s7.8-11.3,7.8-11.3,1.2,21.6,1.8,23.7,3.7,7.5,5.8,9.3,9.3,3.9,12.7,4.1,9.8-.8,11.5-4.7,1-8.7.4-10.8a109.3,109.3,0,0,0-4.5-11.4s8.3,8.9,13.6,13.8,5.4,5.2,10,5.5,8.3-1.2,10.6-3.3,7.5-9.5,6.9-13.8-3.9-8.4-6.1-10.2-22-11.2-27-12.9-14.7-4.3-14.7-4.3a67.7,67.7,0,0,0,3.4-6.2,8.3,8.3,0,0,0-2-8.9c-2.3-1.8-6.7-3.3-8.7-3.2a7.2,7.2,0,0,0-3,1.7l-1.9,1.6s-3.5-19.5-4.9-24.3a81.4,81.4,0,0,0-5.4-11.1,24.7,24.7,0,0,0-8.1-7.5c-4.5-2.8-5.5-2.6-10.7-.9s-10.2,3.2-12.1,8.2c-1.3,3.3-.8,4.7.9,8.6s3.2,6.9,4.8,10.4a3.1,3.1,0,0,0,1,1.3" style="fill: #8cdf52;fill-rule: evenodd"/>
        <path d="M396.2,221.4l11.5,11.2s-15.7-8.3-18.9-9.4-6.5-1.2-8.8.6-6.1,8.2-6.3,11,0,5.9,1,7.2c2.5,3.4,10.7,8.1,13.1,8.9a70.5,70.5,0,0,0,11.2,1.9c7.5.3,19.9-.4,19.9-.4s-13.4,17-15.7,20.8-4.9,9.9-6.9,12.5-2.6,3-3.8,4.7-3.7,6.7-2.9,9.2,2.8,3.3,5.8,3.7,6.3-3.8,8.2-6.2a38.7,38.7,0,0,0,4.6-6.5c2-3.7,3.3-8.1,5.9-12.6s7.8-11.3,7.8-11.3,1.2,21.6,1.8,23.7,3.7,7.5,5.8,9.3,9.3,3.9,12.7,4.1,9.8-.8,11.5-4.7,1-8.7.4-10.8a109.3,109.3,0,0,0-4.5-11.4s8.3,8.9,13.6,13.8,5.4,5.2,10,5.5,8.3-1.2,10.6-3.3,7.5-9.5,6.9-13.8-3.9-8.4-6.1-10.2-22-11.2-27-12.9-14.7-4.3-14.7-4.3a67.7,67.7,0,0,0,3.4-6.2,8.3,8.3,0,0,0-2-8.9c-2.3-1.8-6.7-3.3-8.7-3.2a7.2,7.2,0,0,0-3,1.7l-1.9,1.6s-3.5-19.5-4.9-24.3a81.4,81.4,0,0,0-5.4-11.1,24.7,24.7,0,0,0-8.1-7.5c-4.5-2.8-5.5-2.6-10.7-.9s-10.2,3.2-12.1,8.2c-1.3,3.3-.8,4.7.9,8.6s3.2,6.9,4.8,10.4A3.1,3.1,0,0,0,396.2,221.4Z" style="fill: none;stroke: #8cdf52;stroke-miterlimit: 10.000000953674316;stroke-width: 0.20086599072713796px"/>
        <path d="M278.7,98.8c-.7,4.5-.9,5.3.7,8.2s1.6,2.1,4.4,1.9a9.7,9.7,0,0,0,3.8-.9,26,26,0,0,0,4-4.9c.2-1.3-.5-5.6-2.5-6.8s-5.1-1.7-8.6.3A3.5,3.5,0,0,0,278.7,98.8Z" style="fill: #8cdf52;fill-rule: evenodd"/>
        <path d="M278.7,98.8c-.7,4.5-.9,5.3.7,8.2s1.6,2.1,4.4,1.9a9.7,9.7,0,0,0,3.8-.9,26,26,0,0,0,4-4.9c.2-1.3-.5-5.6-2.5-6.8s-5.1-1.7-8.6.3A3.5,3.5,0,0,0,278.7,98.8Z" style="fill: none;stroke: #8cdf52;stroke-miterlimit: 10.000000953674316;stroke-width: 0.20086599072713796px"/>
        <path d="M288.8,86.7c-.6,2.8-.6,3.8,0,5.6s1.4,3.5,3.1,3.8a18.6,18.6,0,0,0,5.4-.7c1.3-.6,4.4-4.3,4.6-5.4a11.8,11.8,0,0,0-1.4-5.6,7.9,7.9,0,0,0-5-2.5,24.6,24.6,0,0,0-5.7,2.5A7.3,7.3,0,0,0,288.8,86.7Z" style="fill: #8cdf52;fill-rule: evenodd"/>
        <path d="M288.8,86.7c-.6,2.8-.6,3.8,0,5.6s1.4,3.5,3.1,3.8a18.6,18.6,0,0,0,5.4-.7c1.3-.6,4.4-4.3,4.6-5.4a11.8,11.8,0,0,0-1.4-5.6,7.9,7.9,0,0,0-5-2.5,24.6,24.6,0,0,0-5.7,2.5A7.3,7.3,0,0,0,288.8,86.7Z" style="fill: none;stroke: #8cdf52;stroke-miterlimit: 10.000000953674316;stroke-width: 0.20086599072713796px"/>
        <path d="M95.9,254.5h-.5c-.2.1-.2.4-.3.7s-1.1,2.7-.3,3.9l.3.2h.2Z" style="fill: #8cdf52;fill-rule: evenodd"/>
        <path d="M95.9,254.5h-.5c-.2.1-.2.4-.3.7s-1.1,2.7-.3,3.9l.3.2h.2Z" style="fill: none;stroke: #8cdf52;stroke-miterlimit: 10.000000953674316;stroke-width: 0.20086599072713796px"/>
        <path d="M96.3,251.8v-1.1h.1c.1,0,.1-.1.3-.9a14.3,14.3,0,0,0,.5-3.2,1.5,1.5,0,0,0,0-.7H97c-.1,0-.1-.1-.3-.7a5.4,5.4,0,0,0-4.9-3.5,4.9,4.9,0,0,0-4.3,1.9,9,9,0,0,0-1.2,4.5,7.7,7.7,0,0,0,3.1,3.9c.8.4,3.8,1.3,4.8,1a13.3,13.3,0,0,0,2.1-1.2" style="fill: #8cdf52;fill-rule: evenodd"/>
        <path d="M96.3,251.8v-1.1h.1a2.8,2.8,0,0,0,.3-.9,14.3,14.3,0,0,0,.5-3.2v-.7H97c-.1,0-.1-.1-.3-.7a5.4,5.4,0,0,0-4.9-3.5,4.9,4.9,0,0,0-4.3,1.9,9,9,0,0,0-1.2,4.5,7.7,7.7,0,0,0,3.1,3.9c.8.4,3.8,1.3,4.8,1A13.3,13.3,0,0,0,96.3,251.8Z" style="fill: none;stroke: #8cdf52;stroke-miterlimit: 10.000000953674316;stroke-width: 0.20086599072713796px"/>
        <path d="M39.9,307.5s-5.1,6.8-7,9.5a13,13,0,0,0-1.6,2.9c-.5,1.3-1.2,3.5-1.2,3.5v1a5,5,0,0,0,2.3,3.8c1.1.7,3.8,1.9,5.1,1.7a21,21,0,0,0,3.1-1.5,4.6,4.6,0,0,0,1-1l6.9-7.3.2-.7a1.9,1.9,0,0,1,.9-.9c1-.8,8-15.8,8-15.8l9.2-13.8v9.2s-.1,2.8,0,3.6.2.3.2.5.6,7.6.6,7.6.4,4,1,6.7,3.9,8.1,6.6,10S86.9,331,90.8,331c5.7,0,10.4-2.3,11.3-6.9a22.5,22.5,0,0,0-.6-11.8c-1.4-4.4-4.5-12-4.5-12l2.2,2.6h.5a10.1,10.1,0,0,0-.4-1.9,25.9,25.9,0,0,0-.9-3.3h-.5l-19-23.4-2.1.9s5.1,6.3,7.8,10.1c4.3,6,10.4,19.1,12.2,23.9A94.7,94.7,0,0,1,99,320.4a7.3,7.3,0,0,1-4.1,4c-5.4,2.2-13,.3-18.5-3.1-3.4-2.1-4-3.4-4.7-7.3s-2.4-22.8-2.2-24.2a127.6,127.6,0,0,1,2.6-12.5S62,290.2,56.9,298.2c-6.6,10.2-12.1,20.9-14.4,23.6s-6.5,5.9-7.9,2.5a3.4,3.4,0,0,1-.3-1.8c0-.4.1-.5.5-1.2l34.1-51.5-29.6.9H37.6a36.3,36.3,0,0,1-5.6-.9,56.2,56.2,0,0,1-9-4.8c-4.7-3.7-5.2-7.4-2.8-13.7s2.8-5.9,7.8-6.3a16.4,16.4,0,0,1,4.6.3c1.2.3,13.7,6.5,16.2,8.1,9,5.7,21.4,14.2,21.4,14.2l1-1.5s-26.1-23.8-28.4-26.6a144.6,144.6,0,0,1-6.9-13c-1.6-4.7-1.3-8.6,2.4-11.3a53.9,53.9,0,0,1,9.1-3.5c3-.5,7.4.2,9.7,1.8a106.3,106.3,0,0,1,7.5,10.9c.7,1.4,6.1,20.3,6.4,22.6,1.1,7.1,2.2,16.6,2.2,16.6l1.1-1.7c2-2.6,5.3-4.6,7.6-4.8s5.2.3,6.6,2.5c3,4.4,1.6,10.9-3.5,13a31.3,31.3,0,0,1-3.6,1.1l13.7,3.6v-2.8l-2.2-.5-2.1-.6c-.7-.3-.8-.3-.8-.4v-.2l1.9-2.7a46.3,46.3,0,0,0,2.5-5.9,11.8,11.8,0,0,0-1.3-6.2A12.9,12.9,0,0,0,82.4,253a5.3,5.3,0,0,0-2.9,1,24,24,0,0,0-3,2.4s-2.2-15.9-3.9-23.2c-.5-1.8-6.1-15.1-6.9-16.3-2.2-3.1-8.4-9.2-13-10.5s-7.8.6-12.1,2.3c-6.1,2.3-7.8,3.3-9.6,8.1a6.4,6.4,0,0,0-.7,3.2c.1,2.9,5.5,15.4,7.5,18.2s12.1,12.6,12.1,12.6-12.6-7.2-17.9-9.4-10-2.1-13.1,1.4-5.4,7.6-5.6,11,.1,7.1,2.4,9.2,10.6,7.7,11.9,8.2c3.2,1.3,11,2.4,15.1,2.6,8.1.4,20.5-.4,20.5-.4s-14.1,17.8-16.9,22.4-6.4,11.7-6.4,11.7" style="fill: #8cdf52;fill-rule: evenodd"/>
        <path d="M39.9,307.5s-5.1,6.8-7,9.5a13,13,0,0,0-1.6,2.9c-.5,1.3-1.2,3.5-1.2,3.5v1a5,5,0,0,0,2.3,3.8c1.1.7,3.8,1.9,5.1,1.7a21,21,0,0,0,3.1-1.5,4.6,4.6,0,0,0,1-1l6.9-7.3.2-.7a1.9,1.9,0,0,1,.9-.9c1-.8,8-15.8,8-15.8l9.2-13.8v9.2s-.1,2.8,0,3.6.2.3.2.5.6,7.6.6,7.6.4,4,1,6.7,3.9,8.1,6.6,10S86.9,331,90.8,331c5.7,0,10.4-2.3,11.3-6.9a22.5,22.5,0,0,0-.6-11.8c-1.4-4.4-4.5-12-4.5-12l2.2,2.6h.5a10.1,10.1,0,0,0-.4-1.9,25.9,25.9,0,0,0-.9-3.3h-.5l-19-23.4-2.1.9s5.1,6.3,7.8,10.1c4.3,6,10.4,19.1,12.2,23.9A94.7,94.7,0,0,1,99,320.4a7.3,7.3,0,0,1-4.1,4c-5.4,2.2-13,.3-18.5-3.1-3.4-2.1-4-3.4-4.7-7.3s-2.4-22.8-2.2-24.2a127.6,127.6,0,0,1,2.6-12.5S62,290.2,56.9,298.2c-6.6,10.2-12.1,20.9-14.4,23.6s-6.5,5.9-7.9,2.5a3.4,3.4,0,0,1-.3-1.8c0-.4.1-.5.5-1.2l34.1-51.5-29.6.9H37.6a36.3,36.3,0,0,1-5.6-.9,56.2,56.2,0,0,1-9-4.8c-4.7-3.7-5.2-7.4-2.8-13.7s2.8-5.9,7.8-6.3a16.4,16.4,0,0,1,4.6.3c1.2.3,13.7,6.5,16.2,8.1,9,5.7,21.4,14.2,21.4,14.2l1-1.5s-26.1-23.8-28.4-26.6a144.6,144.6,0,0,1-6.9-13c-1.6-4.7-1.3-8.6,2.4-11.3a53.9,53.9,0,0,1,9.1-3.5c3-.5,7.4.2,9.7,1.8a106.3,106.3,0,0,1,7.5,10.9c.7,1.4,6.1,20.3,6.4,22.6,1.1,7.1,2.2,16.6,2.2,16.6l1.1-1.7c2-2.6,5.3-4.6,7.6-4.8s5.2.3,6.6,2.5c3,4.4,1.6,10.9-3.5,13a31.3,31.3,0,0,1-3.6,1.1l13.7,3.6v-2.8l-2.2-.5-2.1-.6c-.7-.3-.8-.3-.8-.4v-.2l1.9-2.7a46.3,46.3,0,0,0,2.5-5.9,11.8,11.8,0,0,0-1.3-6.2A12.9,12.9,0,0,0,82.4,253a5.3,5.3,0,0,0-2.9,1,24,24,0,0,0-3,2.4s-2.2-15.9-3.9-23.2c-.5-1.8-6.1-15.1-6.9-16.3-2.2-3.1-8.4-9.2-13-10.5s-7.8.6-12.1,2.3c-6.1,2.3-7.8,3.3-9.6,8.1a6.6,6.6,0,0,0-.7,3.3c.1,2.8,5.5,15.3,7.5,18.1s12.1,12.6,12.1,12.6-12.6-7.2-17.9-9.4-10-2.1-13.1,1.4-5.4,7.6-5.6,11,.1,7.1,2.4,9.2,10.6,7.7,11.9,8.2c3.2,1.3,11,2.4,15.1,2.6,8.1.4,20.5-.4,20.5-.4s-14.1,17.8-16.9,22.4S39.9,307.5,39.9,307.5Z" style="fill: none;stroke: #8cdf52;stroke-miterlimit: 10.000000953674316;stroke-width: 0.20086599072713796px"/>
        <path d="M339.4,40.2l-5.4,4c-6.5,5.3-9.7,12.4-13,21.3a45.6,45.6,0,0,0-2.3,7.6c-1.9,8.4-4.4,27.6-4.4,27.6s-1.9-1.8-3.2-2.8c-4.8-3.8-12.4-1.2-16.7,3-1.8,1.7-3.6,7.3-2.3,10.7s5.4,9.4,5.4,9.4-12.5,3.2-19.1,5.7c-5.1,1.9-9.8,4.2-9.8,4.2v.2l1.8.6L273,133s4.9-2.1,10-3.9c7.3-2.6,25-7.2,25-7.2a45.9,45.9,0,0,1-6.1-2.4,10.9,10.9,0,0,1-4.7-7.6c-.5-5.3,2.4-10.6,7.1-10.8,2.9-.2,6.2.6,7.8,1.8a69.5,69.5,0,0,1,6.1,6s1.1-10,2.2-18c.3-2.2,8.1-29.8,8.8-31.2s7.5-11.4,8.5-12.3c2.9-2.6,7.9-3.7,12.5-3a82.9,82.9,0,0,1,11.2,4.1c4,2.4,5.7,7.2,3.8,12.9a10.4,10.4,0,0,1-.6,1.6c-3.2,5.9-8.1,15.6-9.6,17.6s-13.9,13.9-18.8,18.2-9.8,8.9-14.7,13.3c-.6.5-.6.6-.5.9l.9,1.1c.3.2.4.2,1-.2l26.8-17.8c2-1.4,18.8-9.8,19.8-10s9-.5,11.1,1.3,4,6.6,4.5,8.1c2.2,6.7,1.1,11.3-3.8,15.1a71.6,71.6,0,0,1-10.3,5.9,31.1,31.1,0,0,1-4.1,1.1,5.2,5.2,0,0,1-1.7.2l-41.3-.3s33.4,51.9,35.8,54.6c4.1,4.6,8.6,8.5,6.8,13.3-.7,1.9-2.5,2.3-4.5,1.3-4.8-2.5-7.7-7.4-10.7-12.4-6.7-11.2-18.8-32.7-27.8-42.8l-3.6-3.9a123,123,0,0,1,2.9,13c.2,1.2-3.2,34.8-3.6,35.6-2.4,5.2-8.9,8.7-17.2,10-6.3,1-11.2.4-14.7-3.8a6,6,0,0,1-1.2-2.2c-.2-.6,2.2-12.5,2.9-14.7s12.6-25.7,13.8-27.3c4.6-6.5,11.1-14.7,11.1-14.7l-2.5-.6s-16.5,21.1-20.9,25.8c-6,6.3-16.3,15.1-16.3,15.1v-.2H274l-.4.2a40.9,40.9,0,0,0-4.2,4.5,61.8,61.8,0,0,1-7.1,5.8l6,2.7s4.8-4.4,9.3-9.2S288,156.3,288,156.3s-5.3,14-6.3,18.4c-.4,1.4-.3,1.9-.2,4.7s.2,3.7.2,3.7v.2h.5l.8.5c3.2,1.5,5.6,2.7,9.6,4.3l11.6,4.5s8.1-2.6,11.1-4.3,7.7-9.7,8.7-12.7c.5-1.3,2.3-20.2,2.4-23.8V141.4s6.8,8.9,10.9,15.9,6.1,13.2,9.2,18.5c1.8,3,11.5,17.1,17.1,16.3a22.9,22.9,0,0,0,6.1-2c4.3-3.3,2.1-9.5-1.1-14-1.7-2.6-4-4.9-6.1-7.7a67,67,0,0,1-5.4-8.8c-1.6-3.2-2.8-5.9-5-9.6s-21.3-28.5-21.3-28.5,15.5.6,23.4.6c6.3,0,17.9-1.4,22.7-4.1s10.4-7,10.4-7h0c0-.1,0-.1.6-.7a27.7,27.7,0,0,0,3.6-3.4l.9-1.1s.6-4.1.8-6.7c.2-4.7-2.8-10.4-6.8-15.2-2.6-3-4.6-3.8-8.4-4a17,17,0,0,0-5.1.7c-4,1.3-13,6.2-13,6.2l-7.3,3.8-5.8,3.1,5.3-5.5h.3v-.4h.2l6.7-6.5,3.1-3.6c2.4-3.1,9-19.6,9.4-21.7s-1.1-7.2-3.4-9.7a14.8,14.8,0,0,0-3.3-2.8,106.7,106.7,0,0,0-12.8-5.1l-2.9-.6h-.6v-.2l-4.6.2a3.2,3.2,0,0,0-1.5.6l-3.3,1.9" style="fill: #8cdf52;fill-rule: evenodd"/>
        <path d="M339.4,40.2l-5.4,4c-6.5,5.3-9.7,12.5-13,21.3a45.6,45.6,0,0,0-2.3,7.6c-1.9,8.4-4.4,27.6-4.4,27.6s-1.9-1.8-3.2-2.8c-4.8-3.8-12.4-1.2-16.7,3-1.8,1.7-3.6,7.3-2.3,10.7s5.4,9.4,5.4,9.4-12.5,3.2-19.1,5.7c-5.1,1.9-9.8,4.2-9.8,4.2v.2l1.8.6L273,133s4.9-2.1,10-3.9c7.3-2.6,25-7.2,25-7.2a45.9,45.9,0,0,1-6.1-2.4,10.9,10.9,0,0,1-4.7-7.6c-.5-5.3,2.4-10.6,7.1-10.8,2.9-.2,6.2.6,7.8,1.8a69.5,69.5,0,0,1,6.1,6s1.1-10,2.2-18c.3-2.2,8.1-29.8,8.8-31.2s7.5-11.4,8.5-12.3c2.9-2.6,7.9-3.7,12.5-3a82.9,82.9,0,0,1,11.2,4.1c4,2.4,5.7,7.2,3.8,12.9a10.4,10.4,0,0,1-.6,1.6c-3.2,5.9-8.1,15.6-9.6,17.6s-13.9,13.9-18.8,18.2-9.8,8.9-14.7,13.3c-.6.5-.6.6-.5.9l.9,1.1c.3.2.4.2,1-.2l26.8-17.8c2-1.4,18.8-9.8,19.8-10s9-.5,11.1,1.3,4,6.6,4.5,8.1c2.2,6.7,1.1,11.3-3.8,15.1a71.6,71.6,0,0,1-10.3,5.9,31.1,31.1,0,0,1-4.1,1.1,5.2,5.2,0,0,1-1.7.2l-41.3-.3s33.4,51.9,35.8,54.6c4.1,4.6,8.6,8.5,6.8,13.3-.7,1.9-2.5,2.3-4.5,1.3-4.8-2.5-7.7-7.4-10.7-12.4-6.7-11.2-18.8-32.7-27.8-42.8l-3.6-3.9a123,123,0,0,1,2.9,13c.2,1.2-3.2,34.8-3.6,35.6-2.4,5.2-8.9,8.7-17.2,10-6.3,1-11.2.4-14.7-3.8a6,6,0,0,1-1.2-2.2c-.2-.6,2.2-12.5,2.9-14.7s12.6-25.7,13.8-27.3c4.6-6.5,11.1-14.7,11.1-14.7l-2.5-.6s-16.5,21.1-20.9,25.8c-6,6.3-16.3,15.1-16.3,15.1v-.2H274l-.4.2a40.9,40.9,0,0,0-4.2,4.5,61.8,61.8,0,0,1-7.1,5.8l6,2.7s4.8-4.4,9.3-9.2S288,156.3,288,156.3s-5.3,14-6.3,18.4c-.4,1.4-.3,1.9-.2,4.7s.2,3.7.2,3.7v.2h.5l.8.5c3.2,1.5,5.6,2.7,9.6,4.3l11.6,4.5s8.1-2.6,11.1-4.3,7.7-9.7,8.7-12.7c.5-1.3,2.3-20.2,2.4-23.8V141.4s6.8,8.9,10.9,15.9,6.1,13.2,9.2,18.5c1.8,3,11.5,17.1,17.1,16.3a22.9,22.9,0,0,0,6.1-2c4.3-3.3,2.1-9.5-1.1-14-1.7-2.6-4-4.9-6.1-7.7a67,67,0,0,1-5.4-8.8c-1.6-3.2-2.8-5.9-4.9-9.6s-21.4-28.5-21.4-28.5,15.5.6,23.4.6c6.3,0,17.9-1.4,22.7-4.1s10.4-7,10.4-7h0s0-.1.6-.7a27.7,27.7,0,0,0,3.6-3.4l.9-1.1s.6-4.1.8-6.7c.2-4.7-2.8-10.4-6.8-15.2-2.6-3-4.6-3.8-8.4-4a17,17,0,0,0-5.1.7c-4,1.3-13,6.2-13,6.2l-7.3,3.8-5.8,3.1,5.3-5.5h.3v-.4h.2l6.7-6.5,3.1-3.6c2.4-3.1,9-19.6,9.4-21.7s-1.1-7.2-3.4-9.7a14.8,14.8,0,0,0-3.3-2.8,106.7,106.7,0,0,0-12.8-5.1l-2.9-.6h-.6v-.2l-4.6.2a3.2,3.2,0,0,0-1.5.6Z" style="fill: none;stroke: #8cdf52;stroke-miterlimit: 10.000000953674316;stroke-width: 0.20086599072713796px"/>
        <polygon points="108.7 456.5 109.1 456.7 109.1 456.5 109.3 456.5 109.3 455.4 108.9 455.4 108.7 456.5" style="fill: #f71439;fill-rule: evenodd"/>
        <polygon points="108.7 456.5 109.1 456.7 109.1 456.5 109.3 456.5 109.3 455.4 108.9 455.4 108.7 456.5" style="fill: none;stroke: #f71439;stroke-miterlimit: 10.000000953674316;stroke-width: 0.20086599072713796px"/>
        <path d="M76.4,430.1,106,454.6a75.3,75.3,0,0,0,1.8-8.5c.3-2.9-.8-11.9-1-17.5a35,35,0,0,1,.2-5.6c.4-4,1-7,4.4-8.1l3.5-.9-4.4-5.9-5.3,1.9a50.9,50.9,0,0,0-8.2,4.5Z" style="fill: #f71439;fill-rule: evenodd"/>
        <path d="M76.4,430.1,106,454.6a75.3,75.3,0,0,0,1.8-8.5c.3-2.9-.8-11.9-1-17.5a35,35,0,0,1,.2-5.6c.4-4,1-7,4.4-8.1l3.5-.9-4.4-5.9-5.3,1.9a50.9,50.9,0,0,0-8.2,4.5Z" style="fill: none;stroke: #f71439;stroke-miterlimit: 10.000000953674316;stroke-width: 0.20086599072713796px"/>
        <path d="M122.9,363.5s-5.3,5.7-8.5,9.8-9.4,13.6-9.6,15,2,5.1,4.1,9.4c1.4,2.7,8.9,14.5,10.9,17.2,5.3,6.8,13.2,16.2,13.2,16.2l-2.3-1.1a49.8,49.8,0,0,1-7.6-6.3,37.8,37.8,0,0,0-4.8-5.2c-.9-.5-4.4-.9-5.9-.1s-2.3,6.1-2.3,8.7c-.2,7.6,1.5,31.5,1.5,31.5s9.2,6.2,18.6,11.3c7.7,4.2,15.6,7.6,15.6,7.6v-.2h.2l-.2-.5c-.2-.8-3.4-3.9-5.2-5.6s-9.8-14.3-11.7-17.3c-.4-.7-.5-.8-.5-.9v-.3l24.3,28.1s9.2,3.8,15.6,6.1c13.7,5.1,39.3,10.7,53.3,12.1l16.6,1.3s.3-1.3.6-2.2a24,24,0,0,1,2.4-4.2l.7-.7h.2l-2,6.6v.5h3.5v.2h15.3l21.8-1.9a145.8,145.8,0,0,0,15.9-2.4c9.5-2.2,26.8-6.8,26.8-6.8s-5.4-10.7-9-16.3c-6.3-9.4-17.9-16.7-28.3-16.2-12.5.6-25.3,11.3-33.5,20.4s-18.8,22.3-18.8,22.3l1.9-4.5c.7-1.4,13.5-18.7,15.3-20.6,4-4.3,11-11.3,12.9-12.7,6.6-5.1,14.5-8,22.4-7.6,14.4.8,25.8,9.3,32.8,22,2.6,4.9,6.2,12.6,6.2,12.6L349,480s-.8-4-1.3-7.1a182.6,182.6,0,0,1-1-19.1c1.2-9.8,4.3-28.4,4.3-28.4a23.3,23.3,0,0,0-2.2-1.9,26.8,26.8,0,0,0-6.1-3s.2,2.3.2,3.3-.1.8.3.9a24.4,24.4,0,0,0,3.1,1.1s-2.5,1.1-4.8,1.9c-5.1,1.8-23,3.3-28.2,3.4h-6.8l33.8-5.8-2.6-7.3-23.1,8.4c-9.3,3.3-30.1,10-35.9,11.5-10,2.7-29.5,7.9-40.9,8.7l-8.9.5v-.2c0-.1,0-.2.8-.4,14.5-3.3,32.5-7.3,43.5-10.2,24.9-6.5,62.3-19.1,85.7-32.4,3.4-1.9,10.8-7.1,10.7-9.4s-4.4-4.4-7.6-6.2-7.8-4.1-7.8-4.1H354v.4l-.3.2a.3.3,0,0,0-.1.2c0,.1-.1.2-.5.9l-8.7,13.4v.2h.8c2.4-.2,9.8-7.2,11.3-8.2s.5-.4.3-.9a11.7,11.7,0,0,0-1-2l2.4.9c.7.3,1.1.7,1,1-.7,2.5-3.4,5.6-6.4,7.9-6.3,4.9-16.1,9-24.3,11.8-24.7,8.4-56.4,12.9-83,14-4.9.2-21.4-.2-25-.6s-9.8-1.4-14.7-2.2a2,2,0,0,0-1.7.3c-11.3,6.1-31.4,17-34,18.1-6.8,2.7-15,5.3-15,5.3s-18.8-28.1-23-35.7c-3.1-5.5-7.2-14.7-8.4-22a41.4,41.4,0,0,1-.4-9.5c.1-1.2.4-2.7.4-2.7s1.7,7.1,2.5,7.8l.5.4v-.4h.2s-.1-3.3-.4-5.7-1.7-9.8-2.9-12.1l-.7-1.5" style="fill: #f71439;fill-rule: evenodd"/>
        <path d="M122.9,363.5s-5.3,5.7-8.5,9.8-9.4,13.6-9.6,15,2,5.1,4.1,9.4c1.4,2.7,8.9,14.5,10.9,17.2,5.3,6.8,13.2,16.2,13.2,16.2l-2.3-1.1a49.8,49.8,0,0,1-7.6-6.3,37.8,37.8,0,0,0-4.8-5.2c-.9-.5-4.4-.9-5.9-.1s-2.3,6.1-2.3,8.7c-.2,7.6,1.5,31.5,1.5,31.5s9.2,6.2,18.6,11.3c7.7,4.2,15.6,7.6,15.6,7.6v-.2h.2l-.2-.5c-.2-.8-3.4-3.9-5.2-5.6s-9.8-14.3-11.7-17.3c-.4-.7-.5-.8-.5-.9v-.3l24.3,28.1s9.2,3.8,15.6,6.1c13.7,5.1,39.3,10.7,53.3,12.1l16.6,1.3s.3-1.3.6-2.2a24,24,0,0,1,2.4-4.2l.7-.7h.2l-2,6.6v.5h3.5v.2h15.3l21.8-1.9a145.8,145.8,0,0,0,15.9-2.4c9.5-2.2,26.8-6.8,26.8-6.8s-5.4-10.7-9-16.3c-6.3-9.4-17.9-16.7-28.3-16.2-12.5.6-25.3,11.3-33.5,20.4s-18.8,22.3-18.8,22.3l1.9-4.5c.7-1.4,13.5-18.7,15.3-20.6,4-4.3,11-11.3,12.9-12.7,6.6-5.1,14.5-8,22.4-7.6,14.4.8,25.8,9.3,32.8,22,2.6,4.9,6.2,12.6,6.2,12.6L349,480s-.8-4-1.3-7.1a182.6,182.6,0,0,1-1-19.1c1.2-9.8,4.3-28.4,4.3-28.4a23.3,23.3,0,0,0-2.2-1.9,26.8,26.8,0,0,0-6.1-3s.2,2.3.2,3.3-.1.8.3.9a24.4,24.4,0,0,0,3.1,1.1s-2.5,1.1-4.8,1.9c-5.1,1.8-23,3.3-28.2,3.4h-6.8l33.8-5.8-2.6-7.3-23.1,8.4c-9.3,3.3-30.1,10-35.9,11.5-10,2.7-29.5,7.9-40.9,8.7l-8.9.5v-.2c0-.1,0-.2.8-.4,14.5-3.3,32.5-7.3,43.5-10.2,24.9-6.5,62.3-19.1,85.7-32.4,3.4-1.9,10.8-7.1,10.7-9.4s-4.4-4.4-7.6-6.2-7.8-4.1-7.8-4.1H354v.4l-.3.2a.3.3,0,0,0-.1.2c0,.1-.1.2-.5.9l-8.7,13.4v.2h.8c2.4-.2,9.8-7.2,11.4-8.2s.4-.4.2-.9a11.7,11.7,0,0,0-1-2l2.4.9c.7.3,1.1.7,1,1-.7,2.5-3.4,5.6-6.4,7.9-6.3,4.9-16.1,9-24.3,11.8-24.7,8.4-56.4,12.9-83,14-4.9.2-21.4-.2-25-.6s-9.8-1.4-14.7-2.2a2,2,0,0,0-1.7.3c-11.3,6.1-31.4,17-34,18.1-6.8,2.7-15,5.3-15,5.3s-18.8-28.1-23-35.7c-3.1-5.5-7.2-14.7-8.4-22a41.4,41.4,0,0,1-.4-9.5c.1-1.2.4-2.7.4-2.7s1.7,7.1,2.5,7.8l.5.4v-.4h.2s-.1-3.3-.4-5.7-1.7-9.8-2.9-12.1Z" style="fill: none;stroke: #f71439;stroke-miterlimit: 10.000000953674316;stroke-width: 0.20086599072713796px"/>
        <path d="M168.4,163.6s-5.1,1.6-8.4,2.9a60.9,60.9,0,0,0-6.1,2.7l-.8.4h-.7l-.6-.6c-4.9-5.7-10.4-11.4-17.6-12.8a30.5,30.5,0,0,0-7.9-.3,53.4,53.4,0,0,0-8.2,2.5l-3.6,1.9a30.7,30.7,0,0,0-6.2,4.3c-.5.8-1.2,1.7-1.7,1.8h-.2s-2.4,2.4-3.9,4.2c-9,10.5-8.2,26.5-4,38.4,1.4,4,3.7,8.7,5.7,13a1.8,1.8,0,0,1,.1,1.6l-7.1,22.2a1.5,1.5,0,0,1,0,.7,14.3,14.3,0,0,1-.5,3.2c-.2.8-.2.9-.3.9h-.1v1.1l-.2,2.5h-.2v.2l-.6,4.8a25.5,25.5,0,0,1-.2,4.5c0,.3-.1.3-.1.5s-.1,6.6-.1,6.6l.2,3.5v2.8l3.3,20.5a25.9,25.9,0,0,1,.9,3.3,10.1,10.1,0,0,1,.4,1.9s20.1,50.1,20.9,53.5l.6,2.7a25.4,25.4,0,0,1,1.3,2.9,8,8,0,0,1,.4,1.5l.7,1.5c1.2,2.3,2.7,9.7,2.9,12.1s.4,5.7.4,5.7h-.2v.4s.1,1,.2,1.8a55.6,55.6,0,0,0,3.4,10l.4.5s.4-2.4.6-4.3c1.1-10-1.2-22.5-3.9-30.7s-12-29.5-17.5-43.4C103.1,300,98.3,282.3,99,265.2a105.1,105.1,0,0,1,3.1-22.8c1.7-6.2,5-15.9,5-15.9a50.8,50.8,0,0,0,6.2,6.8,30.8,30.8,0,0,0,5.2,3.4s-4.9-7.1-8.3-12.5c-1.2-2.2-7-14.9-7.7-17.2-4.8-15.8-4.7-30.7,8.7-41s32-9.1,38.6,8.7c2.7,7.6,3.2,17,2.1,24.7s-3.6,17-3.6,17l2.4-3.2c4.9-7.3,5.4-20.8,5.3-28.5a31.6,31.6,0,0,0-.9-6.5c-.5-2.1-1.4-4.8-1.4-4.8s10.7-4.7,17.6-7.1c21.5-7.4,47.5-5.5,66.9,1.3,7,2.4,54.3,24,61,26.2,10.9,3.8,25.8,7.9,31.4,10.3,8.8,3.7,13,7.9,12.3,17.1-1.1,13.8-7.2,24.8-1.3,35.8a17.5,17.5,0,0,0,3.8,4.8c1.7,1.6,13,7,19.1,10.4,12,6.6,14,16.8,13.2,31.7-1.1,19.8-9,40.7-17.3,58.5-1.7,3.6-11.9,21.6-14.1,24.8-4.8,7.1-11.5,16.1-11.5,16.1v.2c.1.1.3,0,.4,0l1-.3,6.8-2.9.9-.4v-.2l.5-.4,8.7-13.4c.4-.7.5-.8.5-.9a.3.3,0,0,1,.1-.2l.3-.2v-.4h.2l1.3-2.5h.2v-.4h.4s9.2-17.4,14-28.3c8.9-20,15.7-49.3,8.6-68.7-2.2-6.1-6.7-11.3-12.9-15.1-9.8-6.1-18.8-8.3-21.5-16.6a22.7,22.7,0,0,1-.9-9c.6-8.4,2.5-21.2,2.7-27a9.7,9.7,0,0,0-.7-4.2c-.6-1.5-1.6-3.6-1.6-3.6l-1.2-1.6c-2.3-2.6-6.3-4.6-8.9-5.6-5.2-2.1-21.8-6.4-21.8-6.4h-.6l-7.1-2.3v-.2l-11.6-4.5c-4-1.6-6.4-2.8-9.6-4.3l-.8-.5h-.5v-.2L268.3,177v-.2l-6-2.7a61.8,61.8,0,0,0,7.1-5.8,40.9,40.9,0,0,1,4.2-4.5l.4-.2,2-2.7c3.6-5,6.1-13.6,3.5-20.2-.6-1.4-2.7-4.9-4-5.7s-2.4-1.4-2.5-1.8V133l-2.6-1.3-1.8-.6v-.2l-7-1.5c-12.7-2.3-25.1,4.1-35,12.9a26.5,26.5,0,0,0-4.7,5.1c-3,3.9-7.8,10.9-7.8,10.9s-6.8-.6-12.1-.6a129.8,129.8,0,0,0-22.9,3c-4.3,1-10.7,2.9-10.7,2.9" style="fill: #7b3000;fill-rule: evenodd"/>
        <path d="M395.2,379.6v.8a2.4,2.4,0,0,1,0,1.2,3.6,3.6,0,0,1-2.9,2.6c-2.4.3-5.5-2.5-4.5-4.7s2.5-2.6,2.5-3.4a1.6,1.6,0,0,0-1.2-1.3,6,6,0,0,0-2.3,1.9c-3,4-1.6,7.4,3.2,9.4,3.1,1.2,5.9-.2,7.1-3.3s1.1-4.3-.5-4.7a1,1,0,0,0-1.3.4c-.2.2-.2.3-.1,1.1" style="fill: #fff;fill-rule: evenodd"/>
        <path d="M395.2,379.6v.8a2.4,2.4,0,0,1,0,1.2,3.6,3.6,0,0,1-2.9,2.6c-2.4.3-5.5-2.5-4.5-4.7s2.5-2.6,2.5-3.4a1.6,1.6,0,0,0-1.2-1.3,6,6,0,0,0-2.3,1.9c-3,4-1.6,7.4,3.2,9.4,3.1,1.2,5.9-.2,7.1-3.3s1.1-4.3-.5-4.7a1,1,0,0,0-1.3.4C395.1,378.7,395.1,378.8,395.2,379.6Z" style="fill: none;stroke: #fff;stroke-miterlimit: 10.000000953674316;stroke-width: 0.20086599072713796px"/>
        <path d="M385.2,376.5c2.5-3,3.7-4.1,7-3.8a8.3,8.3,0,0,1,7,5.4,10.1,10.1,0,0,1-.6,6.7,9,9,0,0,1-6.9,4.2c-3-.1-6.2-1.9-7.4-4.4a5.9,5.9,0,0,1-.7-3c.2-1.4,1-3.3.6-3.8a6.9,6.9,0,0,0-1.6-1l-.8,1.8c-2.2,5.9,3,12.6,8.4,12.9,6.9.3,11-4.3,11.8-10.2s-4.3-11.1-10.7-11.1c-3,0-5.3,1.2-7.5,4.2-.6.9-1.4,2.3-.1,2.7h.6C384.6,377.1,384.7,377,385.2,376.5Z" style="fill: #fff;fill-rule: evenodd"/>
        <path d="M385.2,376.5c2.5-3,3.7-4.1,7-3.8a8.3,8.3,0,0,1,7,5.4,10.1,10.1,0,0,1-.6,6.7,9,9,0,0,1-6.9,4.2c-3-.1-6.2-1.9-7.4-4.4a5.9,5.9,0,0,1-.7-3c.2-1.4,1-3.3.6-3.8a6.9,6.9,0,0,0-1.6-1l-.8,1.8c-2.2,5.9,3,12.6,8.4,12.9,6.9.3,11-4.3,11.8-10.2s-4.3-11.1-10.7-11.1c-3,0-5.3,1.2-7.5,4.2-.6.9-1.4,2.3-.1,2.7h.6C384.6,377.1,384.7,377,385.2,376.5Z" style="fill: none;stroke: #fff;stroke-miterlimit: 10.000000953674316;stroke-width: 0.20086599072713796px"/>
        <path d="M388.3,365.2c-.6,1.6-.9,3,.4,3.3a1.3,1.3,0,0,0,1.2-.3c.9-.7,1.6-3.1,1.8-3.3s.1.5.4,1,13.9,5.1,14.7,6,1.3,2.1,2.1,1.6,2.7-6.9,2.8-7.9c.7-5.1-1.5-8.1-6.8-10.1C397.7,352.7,391.2,357,388.3,365.2Z" style="fill: #fff;fill-rule: evenodd"/>
        <path d="M388.3,365.2c-.6,1.6-.9,3,.4,3.3a1.3,1.3,0,0,0,1.2-.3c.9-.7,1.6-3.1,1.8-3.3s.1.5.4,1,13.9,5.1,14.7,6,1.3,2.1,2.1,1.6,2.7-6.9,2.8-7.9c.7-5.1-1.5-8.1-6.8-10.1C397.7,352.7,391.2,357,388.3,365.2Z" style="fill: none;stroke: #fff;stroke-miterlimit: 10.000000953674316;stroke-width: 0.20086599072713796px"/>
        <path d="M403,353.3l6.6,2c.7.2.8.2,1.1.1a1.5,1.5,0,0,0,1.2-1.9c-.2-.5-1.1-.8-2.1-1.2s-6.1-1.9-6.8-1.8-2,.8-1.4,2a.8.8,0,0,0,.4.4C402.2,353.1,402.3,353.1,403,353.3Z" style="fill: #fff;fill-rule: evenodd"/>
        <path d="M403,353.3l6.6,2c.7.2.8.2,1.1.1a1.5,1.5,0,0,0,1.2-1.9c-.2-.5-1.1-.8-2.1-1.2s-6.1-1.9-6.8-1.8-2,.8-1.4,2a.8.8,0,0,0,.4.4C402.2,353.1,402.3,353.1,403,353.3Z" style="fill: none;stroke: #fff;stroke-miterlimit: 10.000000953674316;stroke-width: 0.20086599072713796px"/>
        <path d="M396.6,349.7c-.4,1,1,2,1.6,2.2a1.8,1.8,0,0,0,1.7-.9,3,3,0,0,0-.5-1.6,1.6,1.6,0,0,0-2.4-.1C396.8,349.4,396.7,349.6,396.6,349.7Z" style="fill: #fff;fill-rule: evenodd"/>
        <path d="M396.6,349.7c-.4,1,1,2,1.6,2.2a1.8,1.8,0,0,0,1.7-.9,3,3,0,0,0-.5-1.6,1.6,1.6,0,0,0-2.4-.1C396.8,349.4,396.7,349.6,396.6,349.7Z" style="fill: none;stroke: #fff;stroke-miterlimit: 10.000000953674316;stroke-width: 0.20086599072713796px"/>
        <path d="M406.5,344.8c-.4-.2.9-2.5.8-3.3s-1.5-.7-2.1-.3-1.9,4.3-1,5.5,4.2,0,6.9-.8h.6c.8.7-.8,2.5-1.1,3.3s-.3,1.3.5,1.5,2.9-2.5,3.1-3.9a3.1,3.1,0,0,0-1.5-3.5,2,2,0,0,0-1.7-.2C409.6,343.4,407.1,345.1,406.5,344.8Z" style="fill: #fff;fill-rule: evenodd"/>
        <path d="M406.5,344.8c-.4-.2.9-2.5.8-3.3s-1.5-.7-2.1-.3-1.9,4.3-1,5.5,4.2,0,6.9-.8h.6c.8.7-.8,2.5-1.1,3.3s-.3,1.3.5,1.5,2.9-2.5,3.1-3.9a3.1,3.1,0,0,0-1.5-3.5,2,2,0,0,0-1.7-.2C409.6,343.4,407.1,345.1,406.5,344.8Z" style="fill: none;stroke: #fff;stroke-miterlimit: 10.000000953674316;stroke-width: 0.20086599072713796px"/>
        <path d="M409.3,338.8l5.7,2.9c.6.4.7.4.9.4a1.7,1.7,0,0,0,1.6-2.2l-.4-.4-.9-.6-3.8-2.3,1.8-4.8,5.2,1.5c.7.2.8.2,1,.1a1.4,1.4,0,0,0,.4-2.4c-.9-1-4.7-2.3-6.2-2.1a5.1,5.1,0,0,0-2.8,1.7,8.3,8.3,0,0,0-1.6,3.3c0,.8.5,1.6.1,2.1s-2.2.5-1.8,2.1.2.4.8.7" style="fill: #fff;fill-rule: evenodd"/>
        <path d="M409.3,338.8l5.7,2.9c.6.4.7.4.9.4a1.7,1.7,0,0,0,1.6-2.2l-.4-.4-.9-.6-3.8-2.3,1.8-4.8,5.2,1.5c.7.2.8.2,1,.1a1.4,1.4,0,0,0,.4-2.4c-.9-1-4.7-2.3-6.2-2.1a5.1,5.1,0,0,0-2.8,1.7,8.3,8.3,0,0,0-1.6,3.3c0,.8.5,1.6.1,2.1s-2.2.5-1.8,2.1S408.7,338.5,409.3,338.8Z" style="fill: none;stroke: #fff;stroke-miterlimit: 10.000000953674316;stroke-width: 0.20086599072713796px"/>
        <path d="M415.1,321.2a5.9,5.9,0,0,0,2.6,6.9,6.3,6.3,0,0,0,9.3-4.4c.2-.9.3-4.3-1.2-4.2s-1.2,2.4-1.5,3.9a5.4,5.4,0,0,1-2,2.8c-.5.3-1.3.3-1.4,0s.7-1.6,1.5-2.8,1.6-3.8,1.2-4.7-3.6-1.9-4.8-1.7S415.9,318.7,415.1,321.2Z" style="fill: #fff;fill-rule: evenodd"/>
        <path d="M415.1,321.2a5.9,5.9,0,0,0,2.6,6.9,6.3,6.3,0,0,0,9.3-4.4c.2-.9.3-4.3-1.2-4.2s-1.2,2.4-1.5,3.9a5.4,5.4,0,0,1-2,2.8c-.5.3-1.3.3-1.4,0s.7-1.6,1.5-2.8,1.6-3.8,1.2-4.7-3.6-1.9-4.8-1.7S415.9,318.7,415.1,321.2Z" style="fill: none;stroke: #fff;stroke-miterlimit: 10.000000953674316;stroke-width: 0.20086599072713796px"/>
        <path d="M427.2,311.6c0,.3-2.8.9-4.6,1.1s-3.3,1.2-2.8,2.5,4.3.7,5.9.2,2.6-1.3,3.6-1.2,5.1,4.5,6.3,7.8.8,3.5,2.4,3.5,1.7-1.4,1.2-3.1c-1.1-3.6-2.4-5.1-5.5-8.4a102.4,102.4,0,0,0-10.1-9.4c-.4-.2-1.2,0-1.5,1.3s.2,1.2,1,2S427.2,311.3,427.2,311.6Z" style="fill: #fff;fill-rule: evenodd"/>
        <path d="M427.2,311.6c0,.3-2.8.9-4.6,1.1s-3.3,1.2-2.8,2.5,4.3.7,5.9.2,2.6-1.3,3.6-1.2,5.1,4.5,6.3,7.8.8,3.5,2.4,3.5,1.7-1.4,1.2-3.1c-1.1-3.6-2.4-5.1-5.5-8.4a102.4,102.4,0,0,0-10.1-9.4c-.4-.2-1.2,0-1.5,1.3s.2,1.2,1,2S427.2,311.3,427.2,311.6Z" style="fill: none;stroke: #fff;stroke-miterlimit: 10.000000953674316;stroke-width: 0.20086599072713796px"/>
        <path d="M219.6,158.8l8.7,1.9c9.9,2.2,17.1,5.6,27.3,10a1.4,1.4,0,0,0,1.5,0c7.5-3.5,13.6-7.6,18.2-14.7,6.1-9.4,3.7-17.1-5.7-22.1s-22.3-2.7-32.1,3.6c-4.6,2.9-9.7,7-12.4,11.2s-5.5,10.1-5.5,10.1" style="fill: #ffc739;fill-rule: evenodd"/>
        <path d="M219.6,158.8l8.7,1.9c9.9,2.2,17.1,5.6,27.3,10a1.4,1.4,0,0,0,1.5,0c7.5-3.5,13.6-7.6,18.2-14.7,6.1-9.4,3.7-17.1-5.7-22.1s-22.3-2.7-32.1,3.6c-4.6,2.9-9.7,7-12.4,11.2S219.6,158.8,219.6,158.8Z" style="fill: none;stroke: #ffc739;stroke-miterlimit: 10.000000953674316;stroke-width: 0.20086599072713796px"/>
        <path d="M130.7,395.5v.7h.1c.1,0,.1.1.5.8,3.1,6.9,7.5,16.9,9.6,20.7.1.3,12.4,20,15.8,21.2a6.4,6.4,0,0,0,2.4,0c15.2-2.1,24.6-8.9,42.2-20.4a1.8,1.8,0,0,1,1.6-.3,223.2,223.2,0,0,0,34.2,2.9c22.5.4,60.9-3.8,85.9-13.1,4.9-1.8,11.8-4.7,11.8-4.7s6.7-9,11.5-16.1c2.2-3.2,12.4-21.2,14.1-24.8,8.3-17.8,16.2-38.7,17.3-58.5.8-14.9-1.2-25.1-13.2-31.7-6.1-3.4-17.4-8.8-19.1-10.4a17.5,17.5,0,0,1-3.8-4.8c-5.9-11,.2-22,1.3-35.8.7-9.2-3.5-13.4-12.3-17.1-5.6-2.4-20.5-6.5-31.4-10.3-6.7-2.2-54-23.8-61-26.2-19.4-6.8-45.4-8.7-66.9-1.3-6.9,2.4-17.6,7.1-17.6,7.1s.9,2.7,1.4,4.8a31.6,31.6,0,0,1,.9,6.5c.1,7.7-.4,21.2-5.3,28.5l-2.4,3.2s2.5-10.3,3.6-17,.6-17.1-2.1-24.7c-6.6-17.8-23.9-19.9-38.6-8.7s-13.5,25.2-8.7,41c.7,2.3,6.5,15,7.7,17.2,3.4,5.4,8.3,12.5,8.3,12.5a30.8,30.8,0,0,1-5.2-3.4,50.8,50.8,0,0,1-6.2-6.8s-3.3,9.7-5,15.9A105.1,105.1,0,0,0,99,265.2c-.7,17.1,4.1,34.8,10.9,51.9,5.5,13.9,14.7,35.2,17.5,43.4s5,20.7,3.9,30.7c-.2,1.9-.6,4.3-.6,4.3" style="fill: #ffc739;fill-rule: evenodd"/>
        <path d="M299.3,408.1v.2l3.9-1c2.6-.8,10.4-5.7,12.1-9.1a4.2,4.2,0,0,0,.6-2.5,3.8,3.8,0,0,0-.5-.8s-4.9,4.9-8.3,7.8a35.9,35.9,0,0,1-6,4.4l-1.2.7c-.6.2-.6.2-.6.3" style="fill: #7b3000;fill-rule: evenodd"/>
        <path d="M310,389.9h-.2v-.2l-2.1.2s1.8-7.6,3-11.7a16.5,16.5,0,0,1,2.3-4.8c1.3-1.4,3.6-2.7,5.5-4.3,4-3.5,10.8-13.5,13-17.2s5.8-11.9,6.7-14.6c1.7-5.1,3.2-10.8,4.8-16.2.2-.7.2-.8.6-.9h.8a39.6,39.6,0,0,1,9,2.9,22.4,22.4,0,0,1,2.4,1.6l-4.7-4.9a16,16,0,0,0-4.4-2.6l-3.3-.9s.5-6.3.4-10.3c-.1-8.6-2.7-16-9-21.2s-14.6-7-22.4-6.3c-3.3.3-8.2,1-9,.8-2.7-.7-4.2-8-4.6-10.4a46.3,46.3,0,0,1-1-7.2c-.4-6.6-.5-17.8-.5-17.8l-.8,2.1a56,56,0,0,0-1.5,9.8c.1,2.8.1,5.8,0,8.7s1.6,11.5,2.1,12.3a30.1,30.1,0,0,0,2,3.3s-9.9,3.1-14.2,4.6a22.9,22.9,0,0,0-4.3,2l-4.1,2.5s13.9-4.1,22.9-6.1c19.5-4.4,37.8-1.5,40.9,19.3s-9.6,50.7-23.4,64.4c-10.9,10.7-22.5,11.9-36.8,8.2-11.4-3-18.4-7.4-27.9-14.7a28.5,28.5,0,0,1-4.8-5.7c-.9-1.8-1.8-4.2-1.8-4.2l1.5-1.1c1.8-1.5,4.8-6.6,4.9-8.9a17.7,17.7,0,0,0,0-2.4,42.9,42.9,0,0,1-3.1,5.3c-.6,1-11.8,10.9-15.3,13.6a5.7,5.7,0,0,0-1.5,2.1,36.4,36.4,0,0,0-1.1,4.7s.9-2.2,1.6-3.5a17.3,17.3,0,0,1,3.9-3.6l6.7-4s2.1,3.8,4.4,7.1c.5.8,31.2,24.9,32.9,25.9,10.8,6.3,16.1,9.3,26,6.6a8.7,8.7,0,0,0,3.5-2.1v-.3" style="fill: #7b3000;fill-rule: evenodd"/>
        <path d="M276.3,379.4l.7.8a22.9,22.9,0,0,0,5,3.4c3.8,1.9,11.2,6.1,16.3,6.3a6.6,6.6,0,0,0,1.5,0,.8.8,0,0,0,0-.5c-.1-1.5-5.9-5.6-6.1-5.7a19.6,19.6,0,0,0-3.9-1.8c-1.9-.7-10.7-2.8-11.7-2.7l-1.8.2" style="fill: #b596ff;fill-rule: evenodd"/>
        <path d="M276.3,379.4l.7.8a22.9,22.9,0,0,0,5,3.4c3.8,1.9,11.2,6.1,16.3,6.3a6.6,6.6,0,0,0,1.5,0,.8.8,0,0,0,0-.5c-.1-1.5-5.9-5.6-6.1-5.7a19.6,19.6,0,0,0-3.9-1.8c-1.9-.7-10.7-2.8-11.7-2.7Z" style="fill: none;stroke: #b596ff;stroke-miterlimit: 10.000000953674316;stroke-width: 0.20086599072713796px"/>
        <path d="M420.7,319.5h-1.9c-1.3.4-1.5,3.2-1.3,3.9a18.2,18.2,0,0,0,.7,2l.8-1.3a9.7,9.7,0,0,0,1.7-3.6A3.6,3.6,0,0,0,420.7,319.5Z" style="fill: #b596ff;fill-rule: evenodd"/>
        <path d="M420.7,319.5h-1.9c-1.3.4-1.5,3.2-1.3,3.9a18.2,18.2,0,0,0,.7,2l.8-1.3a9.7,9.7,0,0,0,1.7-3.6A3.6,3.6,0,0,0,420.7,319.5Z" style="fill: none;stroke: #b596ff;stroke-miterlimit: 10.000000953674316;stroke-width: 0.20086599072713796px"/>
        <path d="M392.4,363.3l15.5,5.6a32.6,32.6,0,0,0,1-4.2c.3-3.3-2.9-6.3-6.5-6.9a6.7,6.7,0,0,0-4.2.7,16.7,16.7,0,0,0-4.7,3.1,9.8,9.8,0,0,0-1.1,1.7" style="fill: #b596ff;fill-rule: evenodd"/>
        <path d="M392.4,363.3l15.5,5.6a34.2,34.2,0,0,0,1-4.1c.3-3.4-2.9-6.4-6.5-7a6.7,6.7,0,0,0-4.2.7,16.7,16.7,0,0,0-4.7,3.1A9.8,9.8,0,0,0,392.4,363.3Z" style="fill: none;stroke: #b596ff;stroke-miterlimit: 10.000000953674316;stroke-width: 0.20086599072713796px"/>
        <path d="M88.3,247.3a3.2,3.2,0,0,0,1.1,2.9c1.6,1.3,5.3.8,5.7-.9s-.7-3.4-1.9-4.3-3.8.3-4.5,1.3A2.1,2.1,0,0,0,88.3,247.3Z" style="fill: #5ad318;fill-rule: evenodd"/>
        <path d="M88.3,247.3a3.2,3.2,0,0,0,1.1,2.9c1.6,1.3,5.3.8,5.7-.9s-.7-3.4-1.9-4.3-3.8.3-4.5,1.3A2.1,2.1,0,0,0,88.3,247.3Z" style="fill: none;stroke: #5ad318;stroke-miterlimit: 10.000000953674316;stroke-width: 0.20086599072713796px"/>
        <path d="M290.8,90.5a3.5,3.5,0,0,0,.5,1.8,6.5,6.5,0,0,0,4.1,1.1c1.9-.3,3.6-1.3,4-3.1s-1.4-3.7-3.2-4.3-3.1-.4-4.1,1.5A22.7,22.7,0,0,0,290.8,90.5Z" style="fill: #5ad318;fill-rule: evenodd"/>
        <path d="M290.8,90.5a3.5,3.5,0,0,0,.5,1.8,6.5,6.5,0,0,0,4.1,1.1c1.9-.3,3.6-1.3,4-3.1s-1.4-3.7-3.2-4.3-3.1-.4-4.1,1.5A22.7,22.7,0,0,0,290.8,90.5Z" style="fill: none;stroke: #5ad318;stroke-miterlimit: 10.000000953674316;stroke-width: 0.20086599072713796px"/>
        <path d="M281.2,100.9c-1,3.4.4,5.7,4.3,4.8s5-3.8,2.9-6.2-4.5-2-5.8-1A4.6,4.6,0,0,0,281.2,100.9Z" style="fill: #5ad318;fill-rule: evenodd"/>
        <path d="M281.2,100.9c-1,3.4.4,5.7,4.3,4.8s5-3.8,2.9-6.2-4.5-2-5.8-1A4.6,4.6,0,0,0,281.2,100.9Z" style="fill: none;stroke: #5ad318;stroke-miterlimit: 10.000000953674316;stroke-width: 0.20086599072713796px"/>
        <path d="M425.7,245.9l-.9,1s-11.7-7.9-19.9-13.2c-2-1.2-13.4-6.7-14.3-6.8H387c-3.7.3-4.4.4-5.4,2.3-2.2,4.5-3.8,7.2-2.3,11.7a7.7,7.7,0,0,0,2.2,3.2,67.9,67.9,0,0,0,9.2,5.1l2.4.6h1.6l29.1-.7s-23,36.5-25.4,39.3-5.8,5.6-5.2,9.3a2.1,2.1,0,0,0,2.3,1.8,7.7,7.7,0,0,0,2.7-1.2,17.8,17.8,0,0,0,3.4-3.7c2-2.9,8.8-14.5,12.4-21.2,1.2-2.1,8.7-12.8,10.1-14.2s2.4-2.6,2.4-2.6-1,4.3-1.6,7.2a24.3,24.3,0,0,0-.3,5.9c0,1.2,1.1,18.9,3.3,22.8s12,6.4,16.2,6.3,6.8-2.5,7.2-4.7c.2-.7-1.6-8.7-2.4-11s-8.9-18-9.9-19.3c-3.4-4.6-8.1-10.2-8.1-10.2l1.9-.8s11.5,14.7,16.8,20.4c3.4,3.7,15.8,14.7,21.8,17.4s9-1.6,12.1-6.6,3.7-9.2-.4-13.1a28.1,28.1,0,0,0-3.6-2.7c-1.4-.9-22-9.6-24.4-10.4-8.7-2.6-20-5.5-20-5.5a25.4,25.4,0,0,0,3.2-1.2,7.7,7.7,0,0,0,4.1-9.7c-1.3-4.2-4.4-5-8.7-3.8a5.9,5.9,0,0,0-2.3,1.4c-1.4,1.3-3.7,3.9-3.7,3.9s-.7-6-1.4-11.2c-.3-2.1-6.2-23.1-6.8-24.2-1.6-2.9-5-8.7-8-10-5.2-2.4-15,.3-17.6,4.5-1.3,2.2-1.1,4.4-.4,6.9s6.8,13.1,7.6,14.1c2.5,2.9,24.6,22.8,24.6,22.8" style="fill: #5ad318;fill-rule: evenodd"/>
        <path d="M425.7,245.9l-.9,1s-11.7-7.9-19.9-13.2c-2-1.2-13.4-6.7-14.3-6.8H387c-3.7.3-4.4.4-5.4,2.3-2.2,4.5-3.8,7.2-2.3,11.7a7.7,7.7,0,0,0,2.2,3.2,67.9,67.9,0,0,0,9.2,5.1l2.4.6h1.6l29.1-.7s-23,36.5-25.4,39.3-5.8,5.6-5.2,9.3a2.1,2.1,0,0,0,2.3,1.8,7.7,7.7,0,0,0,2.7-1.2,17.8,17.8,0,0,0,3.4-3.7c2-2.9,8.8-14.5,12.4-21.2,1.2-2.1,8.7-12.8,10.1-14.2s2.4-2.6,2.4-2.6-1,4.3-1.6,7.2a24.3,24.3,0,0,0-.3,5.9c0,1.2,1.1,18.9,3.3,22.8s12,6.4,16.2,6.3,6.8-2.5,7.2-4.7c.2-.7-1.6-8.7-2.4-11s-8.9-18-9.9-19.3c-3.4-4.6-8.1-10.2-8.1-10.2l1.9-.8s11.5,14.7,16.8,20.4c3.4,3.7,15.8,14.7,21.8,17.4s9-1.6,12.1-6.6,3.7-9.2-.4-13.1a28.1,28.1,0,0,0-3.6-2.7c-1.4-.9-22-9.6-24.4-10.4-8.7-2.6-20-5.5-20-5.5a25.4,25.4,0,0,0,3.2-1.2,7.7,7.7,0,0,0,4.1-9.7c-1.3-4.2-4.4-5-8.7-3.8a5.9,5.9,0,0,0-2.3,1.4c-1.4,1.3-3.7,3.9-3.7,3.9s-.7-6-1.4-11.2c-.3-2.1-6.2-23.1-6.8-24.2-1.6-2.9-5-8.7-8-10-5.2-2.4-15,.3-17.6,4.5-1.3,2.2-1.1,4.4-.4,6.9s6.8,13.1,7.6,14.1C403.6,226,425.7,245.9,425.7,245.9Z" style="fill: none;stroke: #5ad318;stroke-miterlimit: 10.000000953674316;stroke-width: 0.20086599072713796px"/>
        <path d="M441.2,228.8c-.3,1.3.9,2.6,2.2,2.9s3.6-.4,3.9-1.6-.8-2.9-1.7-3.6-3.3.1-3.9,1A3.5,3.5,0,0,0,441.2,228.8Z" style="fill: #5ad318;fill-rule: evenodd"/>
        <path d="M441.2,228.8c-.3,1.3.9,2.6,2.2,2.9s3.6-.4,3.9-1.6-.8-2.9-1.7-3.6-3.3.1-3.9,1A3.5,3.5,0,0,0,441.2,228.8Z" style="fill: none;stroke: #5ad318;stroke-miterlimit: 10.000000953674316;stroke-width: 0.20086599072713796px"/>
        <path d="M448.5,237.2c-.2.5.4,1.8.4,1.8s3.6,2.2,4.9,1.2.8-2.2.3-3.5-2-2.2-4.1-1.3A3.4,3.4,0,0,0,448.5,237.2Z" style="fill: #5ad318;fill-rule: evenodd"/>
        <path d="M448.5,237.2c-.2.5.4,1.8.4,1.8s3.6,2.2,4.9,1.2.8-2.2.3-3.5-2-2.2-4.1-1.3A3.4,3.4,0,0,0,448.5,237.2Z" style="fill: none;stroke: #5ad318;stroke-miterlimit: 10.000000953674316;stroke-width: 0.20086599072713796px"/>
        <path d="M98.4,297.7l-3.3-20.5-13.7-3.6a31.3,31.3,0,0,0,3.6-1.1c5.1-2.1,6.5-8.6,3.5-13-1.4-2.2-3.2-2.9-6.6-2.5s-5.6,2.2-7.6,4.8l-1.1,1.7S72.1,254,71,246.9c-.3-2.3-5.7-21.2-6.4-22.6a106.3,106.3,0,0,0-7.5-10.9c-2.3-1.6-6.7-2.3-9.7-1.8a53.9,53.9,0,0,0-9.1,3.5c-3.7,2.7-4,6.6-2.4,11.3a144.6,144.6,0,0,0,6.9,13c2.3,2.8,28.4,26.6,28.4,26.6l-1,1.5S57.8,259,48.8,253.3c-2.5-1.6-15-7.8-16.2-8.1a16.4,16.4,0,0,0-4.6-.3c-5,.4-5.6.8-7.8,6.3s-1.9,10,2.8,13.7a56.2,56.2,0,0,0,9,4.8,36.3,36.3,0,0,0,5.6.9h1.7l29.6-.9L34.8,321.3c-.4.7-.5.8-.5,1.2a3.4,3.4,0,0,0,.3,1.8c1.4,3.4,5.4.6,7.9-2.5s7.8-13.4,14.4-23.6c5.1-8,15.2-20.9,15.2-20.9a127.6,127.6,0,0,0-2.6,12.5c-.2,1.4,1.6,20.9,2.2,24.2s1.3,5.2,4.7,7.3c5.5,3.4,13.1,5.3,18.5,3.1a7.3,7.3,0,0,0,4.1-4,94.7,94.7,0,0,0-2.2-11.2c-1.8-4.8-7.9-17.9-12.2-23.9-2.7-3.8-7.8-10.1-7.8-10.1l2.1-.9,19,23.4Z" style="fill: #5ad318;fill-rule: evenodd"/>
        <path d="M98.4,297.7l-3.3-20.5-13.7-3.6a31.3,31.3,0,0,0,3.6-1.1c5.1-2.1,6.5-8.6,3.5-13-1.4-2.2-3.2-2.9-6.6-2.5s-5.6,2.2-7.6,4.8l-1.1,1.7S72.1,254,71,246.9c-.3-2.3-5.7-21.2-6.4-22.6a106.3,106.3,0,0,0-7.5-10.9c-2.3-1.6-6.7-2.3-9.7-1.8a53.9,53.9,0,0,0-9.1,3.5c-3.7,2.7-4,6.6-2.4,11.3a144.6,144.6,0,0,0,6.9,13c2.3,2.8,28.4,26.6,28.4,26.6l-1,1.5S57.8,259,48.8,253.3c-2.5-1.6-15-7.8-16.2-8.1a16.4,16.4,0,0,0-4.6-.3c-5,.4-5.6.8-7.8,6.3s-1.9,10,2.8,13.7a56.2,56.2,0,0,0,9,4.8,36.3,36.3,0,0,0,5.6.9h1.7l29.6-.9L34.8,321.3c-.4.7-.5.8-.5,1.2a3.4,3.4,0,0,0,.3,1.8c1.4,3.4,5.4.6,7.9-2.5s7.8-13.4,14.4-23.6c5.1-8,15.2-20.9,15.2-20.9a127.6,127.6,0,0,0-2.6,12.5c-.2,1.4,1.6,20.9,2.2,24.2s1.3,5.2,4.7,7.3c5.5,3.4,13.1,5.3,18.5,3.1a7.3,7.3,0,0,0,4.1-4,94.7,94.7,0,0,0-2.2-11.2c-1.8-4.8-7.9-17.9-12.2-23.9-2.7-3.8-7.8-10.1-7.8-10.1l2.1-.9,19,23.4Z" style="fill: none;stroke: #5ad318;stroke-miterlimit: 10.000000953674316;stroke-width: 0.20086599072713796px"/>
        <path d="M273,133v.2c.1.4,1.5,1.2,2.5,1.8s3.4,4.3,4,5.7c2.6,6.6.1,15.2-3.5,20.2l-2,2.7h.2v.2s10.3-8.8,16.3-15.1c4.4-4.7,20.9-25.8,20.9-25.8l2.5.6s-6.5,8.2-11.1,14.7c-1.2,1.6-13,25.2-13.8,27.3s-3.1,14.1-2.9,14.7a6,6,0,0,0,1.2,2.2c3.5,4.2,8.4,4.8,14.7,3.8,8.3-1.3,14.8-4.8,17.2-10,.4-.8,3.8-34.4,3.6-35.6a123,123,0,0,0-2.9-13l3.6,3.9c9,10.1,21.1,31.6,27.8,42.8,3,5,5.9,9.9,10.7,12.4,2,1,3.8.6,4.5-1.3,1.8-4.8-2.7-8.7-6.8-13.3-2.4-2.7-35.8-54.6-35.8-54.6l41.3.3a5.2,5.2,0,0,0,1.7-.2,31.1,31.1,0,0,0,4.1-1.1,71.6,71.6,0,0,0,10.3-5.9c4.9-3.8,6-8.4,3.8-15.1-.5-1.5-3.1-6.9-4.5-8.1s-9.6-1.5-11.1-1.3-17.8,8.6-19.8,10l-26.8,17.8c-.6.4-.7.4-1,.2L321,113c-.1-.3-.1-.4.5-.9,4.9-4.4,9.9-9.2,14.7-13.3S354,82,355,80.6s6.4-11.7,9.6-17.6a10.4,10.4,0,0,0,.6-1.6c1.9-5.7.2-10.5-3.8-12.9a82.9,82.9,0,0,0-11.2-4.1c-4.6-.7-9.6.4-12.5,3-1,.9-7.4,10.2-8.5,12.3s-8.5,29-8.8,31.2c-1.1,8-2.2,18-2.2,18a69.5,69.5,0,0,0-6.1-6c-1.6-1.2-4.9-2-7.8-1.8-4.7.2-7.6,5.5-7.1,10.8a10.9,10.9,0,0,0,4.7,7.6,45.9,45.9,0,0,0,6.1,2.4s-17.7,4.6-25,7.2c-5.1,1.8-10,3.9-10,3.9" style="fill: #5ad318;fill-rule: evenodd"/>
        <path d="M273,133v.2c.1.4,1.5,1.2,2.5,1.8s3.4,4.3,4,5.7c2.6,6.6.1,15.2-3.5,20.2l-2,2.7h.2v.2s10.3-8.8,16.3-15.1c4.4-4.7,20.9-25.8,20.9-25.8l2.5.6s-6.5,8.2-11.1,14.7c-1.2,1.6-13,25.2-13.8,27.3s-3.1,14.1-2.9,14.7a6,6,0,0,0,1.2,2.2c3.5,4.2,8.4,4.8,14.7,3.8,8.3-1.3,14.8-4.8,17.2-10,.4-.8,3.8-34.4,3.6-35.6a123,123,0,0,0-2.9-13l3.6,3.9c9,10.1,21.1,31.6,27.8,42.8,3,5,5.9,9.9,10.7,12.4,2,1,3.8.6,4.5-1.3,1.8-4.8-2.7-8.7-6.8-13.3-2.4-2.7-35.8-54.6-35.8-54.6l41.3.3a5.2,5.2,0,0,0,1.7-.2,31.1,31.1,0,0,0,4.1-1.1,71.6,71.6,0,0,0,10.3-5.9c4.9-3.8,6-8.4,3.8-15.1-.5-1.5-3.1-6.9-4.5-8.1s-9.6-1.5-11.1-1.3-17.8,8.6-19.8,10l-26.8,17.8c-.6.4-.7.4-1,.2L321,113c-.1-.3-.1-.4.5-.9,4.9-4.4,9.9-9.2,14.7-13.3S354,82,355,80.6s6.4-11.7,9.6-17.6a10.4,10.4,0,0,0,.6-1.6c1.9-5.7.2-10.5-3.8-12.9a82.9,82.9,0,0,0-11.2-4.1c-4.6-.7-9.6.4-12.5,3-1,.9-7.4,10.2-8.5,12.3s-8.5,29-8.8,31.2c-1.1,8-2.2,18-2.2,18a69.5,69.5,0,0,0-6.1-6c-1.6-1.2-4.9-2-7.8-1.8-4.7.2-7.6,5.5-7.1,10.8a10.9,10.9,0,0,0,4.7,7.6,45.9,45.9,0,0,0,6.1,2.4s-17.7,4.6-25,7.2C277.9,130.9,273,133,273,133Z" style="fill: none;stroke: #5ad318;stroke-miterlimit: 10.000000953674316;stroke-width: 0.20086599072713796px"/>
        <path d="M276.3,379.4l1.8-.2c1-.1,9.8,2,11.7,2.7a19.6,19.6,0,0,1,3.9,1.8c.2.1,6,4.2,6.1,5.7a.8.8,0,0,1,0,.5l4.6.4s1.5-8.1,2.7-11l1-2.1-3.5,1.3c-5.5,1.9-14.6,1.6-20.1.4s-13.7-3.6-13.7-3.6l5.2,4.1Z" style="fill: #f71439;fill-rule: evenodd"/>
        <path d="M276.3,379.4l1.8-.2c1-.1,9.8,2,11.7,2.7a19.6,19.6,0,0,1,3.9,1.8c.2.1,6,4.2,6.1,5.7a.8.8,0,0,1,0,.5l4.6.4s1.5-8.1,2.7-11l1-2.1-3.5,1.3c-5.5,1.9-14.6,1.6-20.1.4s-13.7-3.6-13.7-3.6l5.2,4.1Z" style="fill: none;stroke: #f71439;stroke-miterlimit: 10.000000953674316;stroke-width: 0.20086599072713796px"/>
        <path d="M222.1,479.5S240.5,465,247,460.6c1.9-1.3,13.6-7.1,15.5-7.8,10.4-3.7,17.1-4.4,29.3-3.1a40.5,40.5,0,0,1,7.6,2c2.7,1.1,6.3,3,6.3,3s-1.9-2-3.4-3.3c-5.4-4.7-18.4-5.4-24.9-4.7-13.9,1.7-25.3,7.8-38,16.5a120.9,120.9,0,0,0-10.2,8.5c-3.1,3.2-7.1,7.8-7.1,7.8" style="fill: #a50c00;fill-rule: evenodd"/>
        <path d="M222.1,479.5S240.5,465,247,460.6c1.9-1.3,13.6-7.1,15.5-7.8,10.4-3.7,17.1-4.4,29.3-3.1a40.5,40.5,0,0,1,7.6,2c2.7,1.1,6.3,3,6.3,3s-1.9-2-3.4-3.3c-5.4-4.7-18.4-5.4-24.9-4.7-13.9,1.7-25.3,7.8-38,16.5a120.9,120.9,0,0,0-10.2,8.5C226.1,474.9,222.1,479.5,222.1,479.5Z" style="fill: none;stroke: #a50c00;stroke-miterlimit: 10.000000953674316;stroke-width: 0.20086599072713796px"/>
        <path d="M238.2,500.3h1.9v-.5l2-6.6h-.2l-.7.7a24,24,0,0,0-2.4,4.2C238.5,499,238.2,500.3,238.2,500.3Z" style="fill: #a50c00;fill-rule: evenodd"/>
        <path d="M238.2,500.3h1.9v-.5l2-6.6h-.2l-.7.7a24,24,0,0,0-2.4,4.2C238.5,499,238.2,500.3,238.2,500.3Z" style="fill: none;stroke: #a50c00;stroke-miterlimit: 10.000000953674316;stroke-width: 0.20086599072713796px"/>
        <path d="M323.4,489.4l1.5-.2V489h.4v-.2s-3.6-7.7-6.2-12.6c-7-12.7-18.4-21.2-32.8-22-7.9-.4-15.8,2.5-22.4,7.6-1.9,1.4-8.9,8.4-12.9,12.7-1.8,1.9-14.6,19.2-15.3,20.6l-1.9,4.5s11.2-14,18.8-22.3,21-19.8,33.5-20.4c10.4-.5,22,6.8,28.3,16.2C318,478.7,323.4,489.4,323.4,489.4Z" style="fill: #a50c00;fill-rule: evenodd"/>
        <path d="M323.4,489.4l1.5-.2V489h.4v-.2s-3.6-7.7-6.2-12.6c-7-12.7-18.4-21.2-32.8-22-7.9-.4-15.8,2.5-22.4,7.6-1.9,1.4-8.9,8.4-12.9,12.7-1.8,1.9-14.6,19.2-15.3,20.6l-1.9,4.5s11.2-14,18.8-22.3,21-19.8,33.5-20.4c10.4-.5,22,6.8,28.3,16.2C318,478.7,323.4,489.4,323.4,489.4Z" style="fill: none;stroke: #a50c00;stroke-miterlimit: 10.000000953674316;stroke-width: 0.20086599072713796px"/>
        <path d="M128.4,452.7v.3c0,.1.1.2.5.9,1.9,3,9,14.9,11.7,17.3s5,4.8,5.2,5.6l.2.5h-.2v.2l6.5,3.3h.4l-24.3-28.1v-.2h-.2v.2Z" style="fill: #a50c00;fill-rule: evenodd"/>
        <path d="M128.4,452.7v.3c0,.1.1.2.5.9,1.9,3,9,14.9,11.7,17.3s5,4.8,5.2,5.6l.2.5h-.2v.2l6.5,3.3h.4l-24.3-28.1v-.2h-.2v.2Z" style="fill: none;stroke: #a50c00;stroke-miterlimit: 10.000000953674316;stroke-width: 0.20086599072713796px"/>
        <path d="M356.1,381.3h-.4v.4h-.2l-1.3,2.5s4.6,2.3,7.8,4.1,7.6,4.7,7.6,6.2-7.3,7.5-10.7,9.4c-23.4,13.3-60.8,25.9-85.7,32.4-11,2.9-29,6.9-43.5,10.2-.8.2-.8.3-.8.4v.2l8.9-.5c11.4-.8,30.9-6,40.9-8.7,5.8-1.5,26.6-8.2,35.9-11.5l23.1-8.4,2.6,7.3-33.8,5.8h6.8c5.2-.1,23.1-1.6,28.2-3.4,2.3-.8,4.8-1.9,4.8-1.9a24.4,24.4,0,0,1-3.1-1.1c-.4-.1-.3-.2-.3-.9s-.2-3.3-.2-3.3a26.8,26.8,0,0,1,6.1,3,23.3,23.3,0,0,1,2.2,1.9s-3.1,18.6-4.3,28.4a182.6,182.6,0,0,0,1,19.1c.5,3.1,1.3,7.1,1.3,7.1l3.2-1.1v-.2s-.7-3.4-1.2-6.3c-2.9-16.4,0-29,3.2-46.4a2.3,2.3,0,0,0,0-1.2l-.3-.6a13.9,13.9,0,0,0-7.4-5.5l-5.2-1.8s10.4-5.1,16.9-8.7,10.4-6.9,13.8-11.6c2-2.6.3-5.3-3.1-7.7s-12.8-7.6-12.8-7.6" style="fill: #a50c00;fill-rule: evenodd"/>
        <path d="M356.1,381.3h-.4v.4h-.2l-1.3,2.5s4.6,2.3,7.8,4.1,7.6,4.7,7.6,6.2-7.3,7.5-10.7,9.4c-23.4,13.3-60.8,25.9-85.7,32.4-11,2.9-29,6.9-43.5,10.2-.8.2-.8.3-.8.4v.2l8.9-.5c11.4-.8,30.9-6,40.9-8.7,5.8-1.5,26.6-8.2,35.9-11.5l23.1-8.4,2.6,7.3-33.8,5.8h6.8c5.2-.1,23.1-1.6,28.2-3.4,2.3-.8,4.8-1.9,4.8-1.9a24.4,24.4,0,0,1-3.1-1.1c-.4-.1-.3-.2-.3-.9s-.2-3.3-.2-3.3a26.8,26.8,0,0,1,6.1,3,23.3,23.3,0,0,1,2.2,1.9s-3.1,18.6-4.3,28.4a182.6,182.6,0,0,0,1,19.1c.5,3.1,1.3,7.1,1.3,7.1l3.2-1.1v-.2s-.7-3.4-1.2-6.3c-2.9-16.4,0-29,3.2-46.4a2.3,2.3,0,0,0,0-1.2l-.3-.6a13.9,13.9,0,0,0-7.4-5.5l-5.2-1.8s10.4-5.1,16.9-8.7,10.4-6.9,13.8-11.6c2-2.6.3-5.3-3.1-7.7S356.1,381.3,356.1,381.3Z" style="fill: none;stroke: #a50c00;stroke-miterlimit: 10.000000953674316;stroke-width: 0.20086599072713796px"/>
        <path d="M344.4,399.3l-.5.4v.2l-.9.4-6.8,2.9-1,.3c-.1,0-.3.1-.4,0v-.2s-6.9,2.9-11.8,4.7c-25,9.3-63.4,13.5-85.9,13.1a223.2,223.2,0,0,1-34.2-2.9,1.8,1.8,0,0,0-1.6.3c-17.6,11.5-27,18.3-42.2,20.4a6.4,6.4,0,0,1-2.4,0c-3.4-1.2-15.7-20.9-15.8-21.2-2.1-3.8-6.5-13.8-9.6-20.7-.4-.7-.4-.8-.5-.8h-.1v-.7l-.4-.5a55.6,55.6,0,0,1-3.4-10c-.1-.8-.2-1.8-.2-1.8l-.5-.4c-.8-.7-2.5-7.8-2.5-7.8s-.3,1.5-.4,2.7a41.4,41.4,0,0,0,.4,9.5c1.2,7.3,5.3,16.5,8.4,22,4.2,7.6,23,35.7,23,35.7s8.2-2.6,15-5.3c2.6-1.1,22.7-12,34-18.1a2,2,0,0,1,1.7-.3c4.9.8,9.8,1.7,14.7,2.2s20.1.8,25,.6c26.6-1.1,58.3-5.6,83-14,8.2-2.8,18-6.9,24.3-11.8,3-2.3,5.7-5.4,6.4-7.9.1-.3-.3-.7-1-1l-2.4-.9a11.7,11.7,0,0,1,1,2c.2.5.1.7-.3.9s-8.9,8-11.3,8.2h-.8Z" style="fill: #a50c00;fill-rule: evenodd"/>
        <path d="M344.4,399.3l-.5.4v.2l-.9.4-6.8,2.9-1,.3c-.1,0-.3.1-.4,0v-.2s-6.9,2.9-11.8,4.7c-25,9.3-63.4,13.5-85.9,13.1a223.2,223.2,0,0,1-34.2-2.9,1.8,1.8,0,0,0-1.6.3c-17.6,11.5-27,18.3-42.2,20.4a6.4,6.4,0,0,1-2.4,0c-3.4-1.2-15.7-20.9-15.8-21.2-2.1-3.8-6.5-13.8-9.6-20.7l-.5-.8h-.1v-.7l-.4-.5a55.6,55.6,0,0,1-3.4-10c-.1-.8-.2-1.8-.2-1.8l-.5-.4c-.8-.7-2.5-7.8-2.5-7.8s-.3,1.5-.4,2.7a41.4,41.4,0,0,0,.4,9.5c1.2,7.3,5.3,16.5,8.4,22,4.2,7.6,23,35.7,23,35.7s8.2-2.6,15-5.3c2.6-1.1,22.7-12,34-18.1a2,2,0,0,1,1.7-.3c4.9.8,9.8,1.7,14.7,2.2s20.1.8,25,.6c26.6-1.1,58.3-5.6,83-14,8.2-2.8,18-6.9,24.3-11.8,3-2.3,5.7-5.4,6.4-7.9.1-.3-.3-.7-1-1l-2.4-.9a11.7,11.7,0,0,1,1,2c.2.5.1.7-.2.9s-9,8-11.4,8.2h-.8Z" style="fill: none;stroke: #a50c00;stroke-miterlimit: 10.000000953674316;stroke-width: 0.20086599072713796px"/>
        <path d="M121.2,359.1s-8.8,10.9-13.8,18c-2.7,3.7-4.3,6.3-6.3,9.6-.5.6-.5.8-.2,1.5s.6,1.8,1,2.9c2.1,4.7,6.6,13.5,6.6,13.5s-3.7,1.7-7.5,3.9-26.5,19.7-26.5,19.7l1.3,1.7h.4v.2h.2l20.7-15.6a46.2,46.2,0,0,1,8.1-4.5l5.3-1.9,4.4,5.9-3.5.9c-3.4,1.1-4,4.1-4.4,8.1a35,35,0,0,0-.2,5.6c.2,5.6,1.3,14.6,1,17.5a75.3,75.3,0,0,1-1.8,8.5,8.9,8.9,0,0,0,2.1,1.7l.6.2.2-1.2h.4v1.2h-.2v.2l1.2,1,.6.5h.2c.1.1.1.3.3.3h.2s-1.7-23.9-1.5-31.5c0-2.6.4-7.6,2.3-8.7s5-.4,5.9.1a37.8,37.8,0,0,1,4.8,5.2,49.8,49.8,0,0,0,7.6,6.3l2.3,1.1s-7.9-9.4-13.2-16.2c-2-2.7-9.5-14.5-10.9-17.2-2.1-4.3-4.3-8.2-4.1-9.4s6.5-11.2,9.6-15,8.5-9.8,8.5-9.8a8,8,0,0,0-.4-1.5,25.4,25.4,0,0,0-1.3-2.9" style="fill: #a50c00;fill-rule: evenodd"/>
        <path d="M121.2,359.1s-8.8,10.9-13.8,18c-2.7,3.7-4.3,6.3-6.3,9.6-.5.6-.5.8-.2,1.5s.6,1.8,1,2.9c2.1,4.7,6.6,13.5,6.6,13.5s-3.7,1.7-7.5,3.9-26.5,19.7-26.5,19.7l1.3,1.7h.4v.2h.2L97,414.5a50.9,50.9,0,0,1,8.2-4.5l5.3-1.9,4.4,5.9-3.5.9c-3.4,1.1-4,4.1-4.4,8.1a35,35,0,0,0-.2,5.6c.2,5.6,1.3,14.6,1,17.5a75.3,75.3,0,0,1-1.8,8.5,8.9,8.9,0,0,0,2.1,1.7l.6.2.2-1.2h.4v1.2h-.2v.2l1.2,1,.6.5h.2c.1.1.1.3.3.3h.2s-1.7-23.9-1.5-31.5c0-2.6.4-7.6,2.3-8.7s5-.4,5.9.1a37.8,37.8,0,0,1,4.8,5.2,49.8,49.8,0,0,0,7.6,6.3l2.3,1.1s-7.9-9.4-13.2-16.2c-2-2.7-9.5-14.5-10.9-17.2-2.1-4.3-4.3-8.2-4.1-9.4s6.5-11.2,9.6-15,8.5-9.8,8.5-9.8a8,8,0,0,0-.4-1.5A25.4,25.4,0,0,0,121.2,359.1Z" style="fill: none;stroke: #a50c00;stroke-miterlimit: 10.000000953674316;stroke-width: 0.20086599072713796px"/>
        <path d="M66.8,298.1l-7.4,4.2-1,.2v.2h-.8s-7,15-8,15.8a1.9,1.9,0,0,0-.9.9l-.2.7v.2l2.4-.9c3.6-1.3,11.7-6,15.6-8.9.6-.5.7-.5.7-.6h.4s-.2-6.6-.6-7.6-.1-.3-.2-.5,0-3.6,0-3.6" style="fill: #cebaff;fill-rule: evenodd"/>
        <path d="M66.8,298.1l-7.4,4.2-1,.2v.2h-.8s-7,15-8,15.8a1.9,1.9,0,0,0-.9.9l-.2.7v.2l2.4-.9c3.6-1.3,11.7-6,15.6-8.9l.7-.6h.4s-.2-6.6-.6-7.6-.1-.3-.2-.5S66.8,298.1,66.8,298.1Z" style="fill: none;stroke: #cebaff;stroke-miterlimit: 10.000000953674316;stroke-width: 0.20086599072713796px"/>
        <path d="M2.9,288.5s2.1,12,3.7,19.1c.7,3.2,1.3,5.5,2,8.2a2.8,2.8,0,0,0,.3.9h.2s7.4,3.6,10.7,4.9a12.9,12.9,0,0,0,4.4,1.1l5.9.6s.7-2.2,1.2-3.5a13,13,0,0,1,1.6-2.9c1.9-2.7,7-9.5,7-9.5l-9.5-.8c-5.3-.6-13.7-4.2-17.9-7.9a136.8,136.8,0,0,1-9.6-10.3" style="fill: #cebaff;fill-rule: evenodd"/>
        <path d="M2.9,288.5s2.1,12,3.7,19.1c.7,3.2,1.3,5.5,2,8.2a2.8,2.8,0,0,0,.3.9h.2s7.4,3.6,10.7,4.9a12.9,12.9,0,0,0,4.4,1.1l5.9.6s.7-2.2,1.2-3.5a13,13,0,0,1,1.6-2.9c1.9-2.7,7-9.5,7-9.5l-9.5-.8c-5.3-.6-13.7-4.2-17.9-7.9A136.8,136.8,0,0,1,2.9,288.5Z" style="fill: none;stroke: #cebaff;stroke-miterlimit: 10.000000953674316;stroke-width: 0.20086599072713796px"/>
        <path d="M91.9,270,90,272.7v.2c0,.1.1.1.8.4l2.1.6,2.2.5-.2-3.5Z" style="fill: #cebaff;fill-rule: evenodd"/>
        <path d="M91.9,270,90,272.7v.2c0,.1.1.1.8.4l2.1.6,2.2.5-.2-3.5Z" style="fill: none;stroke: #cebaff;stroke-miterlimit: 10.000000953674316;stroke-width: 0.20086599072713796px"/>
        <path d="M20.7,151s-6.5,14.9-7.1,17.6a7.5,7.5,0,0,0-.1,1.1s5.5-2.5,8.9-3.7c10.6-3.7,26.3-2.3,34.5,5.4l2.8,2.8s1.9-2.9,3.3-4.6c3.6-4.4,10.7-8.3,15.3-9.5,10.8-2.8,18.2-1.1,27.4,5.7.7.4.7.5.7.6h.2c.5-.1,1.2-1,1.7-1.8a30.7,30.7,0,0,1,6.2-4.3l3.6-1.9a71.9,71.9,0,0,0-6.5-5.2c-6.6-4.3-22.9-4.7-30.8-3a54.6,54.6,0,0,0-16.7,6.3c-2.9,1.8-7.1,4.7-7.1,4.7s-8.9-4.7-15-7c-2.8-1-12.7-3.5-16.9-3.5l-4.4.2" style="fill: #cebaff;fill-rule: evenodd"/>
        <path d="M20.7,151s-6.5,14.9-7.1,17.6a7.5,7.5,0,0,0-.1,1.1s5.5-2.5,8.9-3.7c10.6-3.7,26.3-2.3,34.5,5.4l2.8,2.8s1.9-2.9,3.3-4.6c3.6-4.4,10.7-8.3,15.3-9.5,10.8-2.8,18.2-1.1,27.4,5.7.7.4.7.6.7.6h.2c.5-.1,1.2-1,1.7-1.8a30.7,30.7,0,0,1,6.2-4.3l3.6-1.9a71.9,71.9,0,0,0-6.5-5.2c-6.6-4.3-22.9-4.7-30.8-3a54.6,54.6,0,0,0-16.7,6.3c-2.9,1.8-7.1,4.7-7.1,4.7s-8.9-4.7-15-7c-2.8-1-12.7-3.5-16.9-3.5Z" style="fill: none;stroke: #cebaff;stroke-miterlimit: 10.000000953674316;stroke-width: 0.20086599072713796px"/>
        <path d="M392.4,105.7l-.9,1.1a27.7,27.7,0,0,1-3.6,3.4c-.6.6-.6.6-.6.7h0a61.8,61.8,0,0,1,4.5,5.4,17.7,17.7,0,0,1,2.9,14.9c-1.5,5.8-7.3,10.9-13.2,14-3.2,1.7-7.8,3.7-7.8,3.7s5.1,2.2,8.1,3.9c4.7,2.6,9.6,7.4,10,11.7s-2.6,12.1-3.9,15.1c-5.8,13.9-17.6,20.7-32.5,19.9-7.7-.4-18.6-2.9-25.5-6.2-4.8-2.3-11.7-6.2-11.7-6.2a54,54,0,0,1-4,5.6,29.9,29.9,0,0,1-2.3,2.4s16.6,4.3,21.8,6.4c2.6,1,6.6,3,8.9,5.6l1.2,1.6s7,.5,11.9.5c16.2.3,32.3-6.8,40.5-21.8,5.2-9.3,4.8-24-1-32.5a22.8,22.8,0,0,0-4.7-5.2l-3.2-2.1s3.2-2.2,5.3-3.9a17,17,0,0,0,5.8-7.5,30.7,30.7,0,0,0,1.4-17.4c-.7-3-1.8-6.6-3.7-9a44.5,44.5,0,0,0-3.7-4.2" style="fill: #cebaff;fill-rule: evenodd"/>
        <path d="M392.4,105.7l-.9,1.1a27.7,27.7,0,0,1-3.6,3.4c-.6.6-.6.7-.6.7h0a61.8,61.8,0,0,1,4.5,5.4,17.7,17.7,0,0,1,2.9,14.9c-1.5,5.8-7.3,10.9-13.2,14-3.2,1.7-7.8,3.7-7.8,3.7s5.1,2.2,8.1,3.9c4.7,2.6,9.6,7.4,10,11.7s-2.6,12.1-3.9,15.1c-5.8,13.9-17.6,20.7-32.5,19.9-7.7-.4-18.6-2.9-25.5-6.2-4.8-2.3-11.7-6.2-11.7-6.2a54,54,0,0,1-4,5.6,29.9,29.9,0,0,1-2.3,2.4s16.6,4.3,21.8,6.4c2.6,1,6.6,3,8.9,5.6l1.2,1.6s7,.5,11.9.5c16.2.3,32.3-6.8,40.5-21.8,5.2-9.3,4.8-24-1-32.5a22.8,22.8,0,0,0-4.7-5.2l-3.2-2.1s3.2-2.2,5.3-3.9a17,17,0,0,0,5.8-7.5,30.7,30.7,0,0,0,1.4-17.4c-.7-3-1.8-6.6-3.7-9A44.5,44.5,0,0,0,392.4,105.7Z" style="fill: none;stroke: #cebaff;stroke-miterlimit: 10.000000953674316;stroke-width: 0.20086599072713796px"/>
        <polygon points="359.3 81.2 352.6 87.7 352.4 87.7 352.4 88.1 352.4 88.2 352.6 88.2 352.4 90.3 352.6 90.3 352.6 90.5 359.9 86.7 359.5 81.4 359.3 81.4 359.3 81.2" style="fill: #cebaff;fill-rule: evenodd"/>
        <polygon points="359.3 81.2 352.6 87.7 352.4 87.7 352.4 88.1 352.4 88.2 352.6 88.2 352.4 90.3 352.6 90.3 352.6 90.5 359.9 86.7 359.5 81.4 359.3 81.4 359.3 81.2" style="fill: none;stroke: #cebaff;stroke-miterlimit: 10.000000953674316;stroke-width: 0.20086599072713796px"/>
        <path d="M152.5,169.7h.6l.8-.4a60.9,60.9,0,0,1,6.1-2.7c3.3-1.3,8.4-2.9,8.4-2.9s-4.9-8.8-7-13.4a17.3,17.3,0,0,1-1.4-5.4c-.3-6.8,2-18.8,4.1-25.6,5.7-18.1,17.1-28,35.4-26.4a79.4,79.4,0,0,1,11.2,2.4c5.3,1.9,12.8,5.5,12.8,5.5s-.8-5.8-1.1-10c-.8-10.7,3-25.1,8-33.9,8.1-14.4,19.9-23.7,36.3-28.4a180.3,180.3,0,0,1,18.1-3.3c11.9-.9,30.6.5,40.9,5.3,3.4,1.6,8,4.1,11.1,7.1,1.2,1.1,2.6,2.7,2.6,2.7l3.3-1.9a3.2,3.2,0,0,1,1.5-.6l4.6-.2v.2h.6v-.3c0-.1-.1-.2-.6-.8-10.5-13.3-21.4-22.3-37.4-25.8-12.6-2.8-32.6-2.5-46,.3-25.1,5.1-41.9,18.9-47.8,42.8a107.3,107.3,0,0,0-3.3,26.4c.1,4.2.6,10.2.6,10.2s-5.9-1.8-10.5-2.9a135.1,135.1,0,0,0-16.2-2c-12.8.2-23.1,3-32.1,12-7,7-14.1,23.7-14.5,35-.2,6.6,3,20.7,6,27.4,2,4.3,4.9,9.7,4.9,9.7" style="fill: #cebaff;fill-rule: evenodd"/>
        <path d="M152.5,169.7h.6l.8-.4a60.9,60.9,0,0,1,6.1-2.7c3.3-1.3,8.4-2.9,8.4-2.9s-4.9-8.8-7-13.4a17.3,17.3,0,0,1-1.4-5.4c-.3-6.8,2-18.8,4.1-25.6,5.7-18.1,17.1-28,35.4-26.4a79.4,79.4,0,0,1,11.2,2.4c5.3,1.9,12.8,5.5,12.8,5.5s-.8-5.8-1.1-10c-.8-10.7,3-25.1,8-33.9,8.1-14.4,19.9-23.7,36.3-28.4a180.3,180.3,0,0,1,18.1-3.3c11.9-.9,30.6.5,40.9,5.3,3.4,1.6,8,4.1,11.1,7.1,1.2,1.1,2.6,2.7,2.6,2.7l3.3-1.9a3.2,3.2,0,0,1,1.5-.6l4.6-.2v.2h.6v-.3c0-.1-.1-.2-.6-.8-10.5-13.3-21.4-22.3-37.4-25.8-12.6-2.8-32.6-2.5-46,.3-25.1,5.1-41.9,18.9-47.8,42.8a107.3,107.3,0,0,0-3.3,26.4c.1,4.2.6,10.2.6,10.2s-5.9-1.8-10.5-2.9a135.1,135.1,0,0,0-16.2-2c-12.8.2-23.1,3-32.1,12-7,7-14.1,23.7-14.5,35-.2,6.6,3,20.7,6,27.4C149.6,164.3,152.5,169.7,152.5,169.7Z" style="fill: none;stroke: #cebaff;stroke-miterlimit: 10.000000953674316;stroke-width: 0.20086599072713796px"/>
        <path d="M229.5,293.6l6.3-3.1,1-.5a2.7,2.7,0,0,1,1.5-.1l1.5.5-1.7,1.2c-3,2.4-6.1,10.2-4.3,13.2s5.2,2.5,7.1.7,5.2-10,3.9-13.7-6.5-5.8-10.4-2.8a66.7,66.7,0,0,0-4.9,4.6" style="fill: #5a3400;fill-rule: evenodd"/>
        <path d="M295.5,296.8c-2,5.3-.3,8.2,3.9,11.3s14.3,7,19.8,4.4,10.6-10.6,12.1-15.5c1.9-6.6-1.7-11.7-8.3-12.5s-20.2,2.6-25.7,9.4A13.5,13.5,0,0,0,295.5,296.8Z" style="fill: #5a3400;fill-rule: evenodd"/>
        <path d="M313.4,266l6.8-2.4s-1.6,1.7-2.7,3.1-3.4,7.4-2.1,9.4,4.8,1.4,6.2.3,4-6.1,4.4-8c.9-3.6-1.2-7.6-5.2-7.2a9.3,9.3,0,0,0-3.4,1.2A36.1,36.1,0,0,0,313.4,266Z" style="fill: #5a3400;fill-rule: evenodd"/>
        <path d="M203.9,266.5c.2.1,1.5-3.7,2-6.1s4.6-7.9,5.9-9.6c2.7-3.4,9.6-9.8,14-11.1,2.9-.9,3.8-.5,3.2-2.3s-1.7-4.6-2.8-4.9-3.9.6-5.2,1.2c-7.8,3.5-16.3,12.7-17.6,23.7-.1.6-.1,1.2-.2,2.1S203.6,266.4,203.9,266.5Z" style="fill: #5a3400;fill-rule: evenodd"/>
        <path d="M323.6,209.9l-2.6-.2a2.3,2.3,0,0,0-1.5.5l-2.3,1.4a48.5,48.5,0,0,1,4.8,1.3c6.4,2,11.3,8.1,13.7,14.8,1,2.8,2.2,7.2,2.2,7.2s.6-2.9.8-4.8c.6-6.2-2-12.6-5.3-16.7a30.7,30.7,0,0,0-5.7-4.8l-4.8-2.6Z" style="fill: #5a3400;fill-rule: evenodd"/>
      </g>
    </g>
  </g>
</svg>
