<?xml version="1.0" encoding="UTF-8"?>
<svg id="Layer_2" data-name="Layer 2" xmlns="http://www.w3.org/2000/svg" viewBox="0 0 392.34 557.07">
  <defs>
    <style>
      .cls-1 {
        fill: #063763;
      }

      .cls-1, .cls-2, .cls-3, .cls-4, .cls-5 {
        fill-rule: evenodd;
      }

      .cls-1, .cls-2, .cls-3, .cls-4, .cls-5, .cls-6, .cls-7, .cls-8, .cls-9, .cls-10, .cls-11 {
        stroke-width: 0px;
      }

      .cls-2 {
        fill: #3e1609;
      }

      .cls-3 {
        fill: #ec8076;
      }

      .cls-4 {
        fill: #67bae1;
      }

      .cls-5 {
        fill: #9f412f;
      }

      .cls-6 {
        fill: #4676aa;
      }

      .cls-7 {
        fill: #1f63a0;
      }

      .cls-8 {
        fill: #231f20;
      }

      .cls-9 {
        fill: #e2a3c9;
      }

      .cls-10 {
        fill: #fff;
      }

      .cls-11 {
        fill: #f17fb1;
      }
    </style>
  </defs>
  <g id="katman_1" data-name="katman 1">
    <g>
      <g>
        <path class="cls-11" d="m325.9,287.51c10.61-9.34,25.09-.51,31.13,9.81,11.22-3.37,27.73-1.82,30.2,12.18.94,23.16-20.88,41.05-42.44,43.79-9.84,1.65-14.39-9.36-18.36-16.36-7.26-14.95-12.9-35.57-.54-49.43m-252.26,113.81c-12.36,13.85-6.72,34.47.54,49.43,3.97,7.01,8.52,18.01,18.36,16.36,21.56-2.74,43.37-20.63,42.44-43.79-2.47-14.01-18.99-15.55-30.2-12.18-6.05-10.32-20.53-19.15-31.13-9.81m-1.23-84.5c-5.3-4.67-12.54-.25-15.57,4.91-5.61-1.69-13.87-.91-15.1,6.09-.47,11.58,10.44,20.52,21.22,21.9,4.92.83,7.19-4.68,9.18-8.18,3.63-7.48,6.45-17.79.27-24.71m287.82,101.46c-5.3-4.67-12.54-.25-15.57,4.91-5.61-1.69-13.87-.91-15.1,6.09-.47,11.58,10.44,20.52,21.22,21.9,4.92.83,7.19-4.68,9.18-8.18,3.63-7.48,6.45-17.79.27-24.71m-231-70.58c-3.15-2.77-7.44-.15-9.24,2.91-3.33-1-8.23-.54-8.96,3.62-.28,6.87,6.2,12.18,12.59,13,2.92.49,4.27-2.78,5.45-4.86,2.16-4.44,3.83-10.56.16-14.67"/>
        <path class="cls-9" d="m301.65,12.03c.42-4.03,2.28-8.74,6.66-9.73,6.08-.93,11.89,1.82,17.36,4.11,11.42,6.01,21.31,14.76,29.36,24.81,9.39,10.95,16.98,23.42,22.72,36.65,8,18.95,11.14,39.54,12.2,59.96-.07,8.06,1.6,16.18.03,24.2-.67,4.76-2.89,9.74-7.36,12.03-5.47,2.42-11.9,1.77-17.18,4.7-2.42,1.2-2.36,4.34-1.28,6.46,3.29,6.88,9.77,11.81,12.02,19.26-10.16,11.76-24.07,20.9-39.5,23.69,2.18-4.92,3.95-10.02,4.98-15.32,4.61-26.28-1.79-52.96-11.35-77.4-10.46-29.04-22.04-57.97-27.33-88.51-1.08-8.24-2.19-16.6-1.32-24.91M50.43,63.87c-6.55,4.69-11.07,11.58-15.51,18.18-13.57,21.59-22.25,45.9-28.2,70.6-4.12,16.97-6.05,34.63-3.99,52.04,1.68,11.33,6.16,22.95,15.2,30.41,6.85,5.65,16.02,6.44,24.51,7.15,3.21.28,7.79,1.49,7.68,5.54-.61,7.59-7.85,13.6-6.44,21.56,1.41,4.39,5.91,6.76,9.9,8.43,9.83,3.75,20.45,5.21,30.94,5.03-1.38-4.84-.51-10.42-3.81-14.58-12.94-21.25-14.06-47.13-12.57-71.31,1.35-17.44,1.85-34.94,3.15-52.38.78-19.81,2.28-40.06-2.92-59.44-2.34-7.41-5-15.25-10.81-20.71-1.87-1.99-4.99-2.26-7.12-.53"/>
        <path class="cls-5" d="m304.38,258.41c-5.2,9.55-13.49,16.85-20.85,24.68-1.72,2.34-4.15.04-5.91-.93-3.85-2.76-10.01-3.95-12.41,1.26-5.94-2.96-13.49.84-18.39-4.14-5.18-3.35-11.71-3.22-17.63-2.71-11.36,1.01-22.89,5.97-29.65,15.47-2.74,3.4-4.2,7.55-6.24,11.34-3.11,2.7-6.63,4.96-9.5,7.97-1.93-.58-4.09-1.94-6.07-.79-4.52,2.68-6.14,8.04-9.35,11.91-10.82-.43-21.72-2.09-32.34-4.32,6.71-4.21,13.76-7.89,20.39-12.24,2.14-1.13,4.25-3.31,6.87-2.53,5.29,1.11,10.48,2.73,15.83,3.62,3.49-5.88,6.74-11.91,10.23-17.78,1.08-1.95,3.18-2.91,5.15-3.75,14.62-6.23,29.4-12.49,44.99-15.85,7.18,1.1,13.36,5.8,20.44,7.39,6.38-4.25,9.14-14.33,17.82-14.38,8.93-1.04,17.75-2.74,26.61-4.23Z"/>
        <path class="cls-3" d="m260.17,302.13c-18.16,14.06-41.05,21.39-63.98,21.37-3.99-3.16-7.01-7.44-10.96-10.68,9.83-11.19,25.99-15.03,40.3-12.56-2.36,2-4.99,3.63-7.79,4.93.02.47.07,1.4.08,1.87,10.62-3.49,15.73-14.62,25.28-19.8,6.27-4.21,14.32-4.03,21.39-2.31-1.74,5.65-2.84,11.48-4.33,17.18Z"/>
        <path class="cls-2" d="m247.86,282.8c-6,2.46-11.47,6.16-15.77,11.05-1.87,1.88-3.62,4.95-6.74,4.25-9.79-1.1-19.66,0-28.85,3.56,5.95-17.97,27.24-26.05,44.79-22.78,2.55.58,4.71,2.15,6.57,3.92Z"/>
        <path class="cls-10" d="m260.94,182.17c6.14-2.72,13.52,3.4,11.82,9.99-.85,7.28-11.63,9.73-15.65,3.64-3.7-4.39-1.43-11.67,3.83-13.63m-142.03,53.46c-3.79.89-6.96,4.49-6.71,8.49-.48,5.31,5,9.94,10.16,8.93,4.98-.73,8.61-6.17,7.16-11.05-1.08-4.53-6.11-7.5-10.61-6.37m124.64,32.77c5.03,2.87,10.71,4.33,15.92,6.83,3.36-3.77,6.88-7.39,10.06-11.32-8.73,1.03-17.42,2.47-25.98,4.49m25.47,13.33c-4.36,5.15-4.89,12.37-6.45,18.71,6.52-4.12,12.24-9.36,17.89-14.58-3.54-1.89-7.2-4.85-11.44-4.13m-105.22,19.8c4.82,1.19,9.61,2.65,14.55,3.32,2.98-5.3,6.09-10.52,8.9-15.91-7.91,4-15.88,7.96-23.44,12.59m14.25,10.7c-3.21,2.95-5.35,6.85-7.48,10.6,7.56.8,15.16.94,22.75.7-3.46-3.97-7.12-7.82-11.39-10.92-1.06-.83-2.78-1.46-3.89-.38m88.89,55.92c1.41,1.95,2.67,3.99,3.84,6.09.18-.12.56-.38.75-.51-1.69-3.18-3.16-6.49-4.32-9.91-.12,1.44-.2,2.88-.27,4.33m2.08-86.42c-4.36,5.15-4.89,12.37-6.45,18.71,6.52-4.12,12.24-9.36,17.89-14.58-3.54-1.89-7.2-4.85-11.44-4.13m-75.7,41.81c-3.46-3.97-7.12-7.82-11.39-10.92-1.06-.83-2.78-1.46-3.89-.38-3.21,2.95-5.35,6.85-7.48,10.6,7.56.8,15.16.94,22.75.7m-14.97-18.69c2.98-5.3,6.09-10.52,8.9-15.91-7.91,4-15.88,7.96-23.44,12.59,4.82,1.19,9.61,2.65,14.55,3.32m65.2-36.45c5.03,2.87,10.71,4.33,15.92,6.83,3.36-3.77,6.88-7.39,10.06-11.32-8.73,1.03-17.42,2.47-25.98,4.49"/>
        <path class="cls-6" d="m164.66,190.13c7.45-9.99,21.69-14.31,33.29-9.44-11.9-.86-23.34,3.2-33.29,9.44Zm101.92,63.01c1.9.33,1.67.55-.13,1.01-4.45,1.12-9.86-.45-13.15-3.75-1.67-1.67-2.06-2.6.54-1.28,6.36,3.22,6.7,2.99,12.74,4.02Zm-105.64,30.04c.91-2.76,1.29-1.83,1.29.53,0,4.66-2.73,9.59-6.67,11.94-1.6.95-1.92.95-.8-.62,3.55-5,3.96-5.07,6.19-11.85Zm-.69-80.77c9.79-14.22,29.8-20.49,45.78-13.51-19.03-1.01-25.75-1.41-45.78,13.51Zm78.35-74.09c-17.24-4.22-35.4-3.13-52.68.31-.71-.6-.72-1.16-.04-1.69,2.75-.84,5.65-1.12,8.41-1.94-5.15-4.22-10.35-8.65-16.16-11.96-2.23-1.27-3.93-2.82-2.68.81,1.36,3.96,5.4,5.95,9.34,7.35.61.22.69,2.21-.35,1.71-6.08-2.93-12.77-5.27-19.61-4.22-3.99.72-8.48,4.45-1.9,4.24,5.15-.16,11.12-.4,14.47,3.37.99,1.02-.44,1.81-.88,1.23-2.8-2.42-7.1-3.81-12.86-2.81-4.23.73-8.22,2.82-11.67,5.35,3.13,1.52,6.68.44,9.96,1.27,4.18,1.41,8.13-.98,12.18-1.82,1.17-.24,1.94,1.41.72,1.72-28.64,7.23-53.14,26.1-71.68,48.62,2.42.35,5.47-.47,7.2,1.73-4.47.78-9.34-.34-13.49,1.88-5.63,2.58-7.4,9.39-6.91,15.09,4.02-4.99,8.46-10.84,15.53-11.03,3.88.3,8.68,2.42,10.79,5.87.74,1.21.69,1.77.3,1.8.54.57,1.03,1.16,1.45,1.78,9.02,13.05,18.23,25.97,26.78,39.34,8.08,12.07,13.08,26.73,11.65,41.37-.96,8.18-4.6,16.44-11.36,21.44-10.95,8.17-26.13,11.05-38.97,5.86-6.25-2.2-11.41-6.52-16.08-11.1,3.84,14.7,12.78,29.32,26.72,36.33,5.59,2.88,11.96,2.92,18.09,2.97-.48-.04-1.44-.12-1.92-.16-.04-4.42.51-8.82,1.33-13.15-4.3.1-8.16,2.33-12.31,3.24-.53,1.64-.25,3.56-.29,5.4-4.2-5.18-1.29-13.2,4.52-15.75-1.62,2.22-3.13,3.99-4.27,8.14,17.48-3.84,30.85-16.21,46.54-24.1,13.89-8.01,28.53-14.56,43.37-20.61-.61-1.93-1.22-3.84-1.85-5.75-11.74,2.23-24.13,5.46-35.82,1.05-14.25-4.92-22.67-20.83-22.15-35.38.94-13.63,10.64-25,21.86-31.94,11.44-7.41,25.82-10.84,39.24-7.62,8.38,1.93,16.38,6.75,20.89,14.23,5.14,7.95,5.47,18.05,3.6,27.08-3.29,13.59-11.96,27.24-26.01,31.43.65,2.06,1.34,4.12,2.06,6.17,13.31-4.63,26.87-8.69,40.77-11.14,13.29-2.21,26.67-3.84,39.96-6.02,7.47-1.42,17.32-1.66,21.73-8.75-3.05-1.47-5.04-1.74-7.39-2.11,5.65-2.19,13.03,1.28,13.67,7.62-.74-.72-2.66-2.64-4.25-4.02-.12.18-.24.32-.33.42-3.42,3.92-9.23,4.64-12.26,8.9,4.93,2.25,8.71,6.41,11.32,11.08,4.42-5.76,8.45-12.2,9.59-19.5,1.22-7.23,0-14.54-.46-21.78-2.09-14.03-4.83-28.24-10.96-41.13-.51,11.99-.28,24.24-4.05,35.78-3.79,10.8-12.39,20.32-23.79,23.05-10.95,2.61-24.08,3.22-33.32-4.3-8-6.98-11.31-17.54-14.39-27.35-5.52-18.85-9.12-39-6.25-58.58.42-2.85,1.11-5.84,2.18-8.65-.06-.21-.07-.47,0-.77,1.44-6.06,5.46-11.72,11.62-13.6,8.68-3.11,17.56.63,25.85,3.14-4.54-7.52-13.64-12.66-22.47-11.81-6.1.55-10.69,4.68-15.81,7.48-1.11.95-2.15-.25-1.22-1.16,1.58-1.47,3.5-2.61,5.16-3.98Zm-152.38,64.12c-4.5-9.55-8.62-19.31-13.82-28.5-1.73,13.71-1.99,27.6-2.89,41.38-.83,18.77,1.33,38.03,9.17,55.26.78,1.67,1.82,3.2,2.92,4.67-1.24-20.65-.89-42.11,6.65-61.67.59-3.8-.16-7.78-2.02-11.14m-1.13,92.37c-12.27,0-24.47-1.94-35.9-6.46,9.5,13.01,25.55,19.34,40.8,22.68-1.56-5.43-3.75-10.67-4.91-16.22m186.33,44.3c-5.69,13.81-5.81,30.02,1.66,43.21,12.6-7.43,29.48-2.87,38.64,7.83.94,1.34-.49,1.48-1.08.92-2.45-1.71-4.48-4.1-7.19-5.45-9.36-6.73-23.41-7.39-32.14.75,1.69,3.92-.11,7.76-1.62,11.37,1.24,2.59,4.06,4.25,4.96,7.12,2.91,6.71-.08,14.12-3.8,19.85-3.43-3.5-5.11-10.08-9.38-13.97-2,.99-3.67,2.47-4.96,4.28-2.84-3.92-5.24-9.32-10.4-10.46-7.18-.08-16.49,3.97-17.1,12.07,3.32,3.15,2.49,7.6,3.09,11.67,5.66,4.89,13.41,1.96,19.63-.33,1.31-.05,1.09,1.55.14,1.85-2.44.95-5.03,1.57-7.31,2.86-1.83,2.36-3.18,5.05-4.94,7.47,12.22,8.84,27.13,14.45,42.34,14.18,18.69.89,37.71-11.21,43.78-29.1,3.32-11.71-1.9-23.5-7.99-33.3-7.32-11.46-13.14-23.82-17.32-36.76-4.43-14.15-6.87-30.9-19.85-40.05-4.93,3.05-9.77,6.32-14.55,9.6-.72,6.77.79,13.44,1.42,20.15.68-1.97,1.4-3.92,2.17-5.86.35-.91,2.05-.87,1.77.08m81.86,166.62c4.6-.47,10.67-.42,13.34,4.06,3.25,7.23-1.16,14.97-5.12,20.96-7.06,9.32-14.71,19.26-26.01,23.56-8.93,3.66-20.95-.89-23.96-10.35-2.45-10.86,5.13-21.04,13.4-27.2,8.61-5.44,18.25-9.5,28.35-11.03Zm-151.51-161.18c-14.29-.2-28.61.4-42.91.76-2.55,16.53-11.26,31.31-20.35,45.07-12.15,20.52-23.4,42.57-25.6,66.67,11.01-1.27,21.52,5.44,26.63,14.96.84,1.57-1.59,1.34-1.85.21-3.33-5.34-8.2-9.84-14.13-12.09-9.03-3.19-19.13.31-26.31,6.08,2.12,1.41,4.33,2.72,6.12,4.55,2.51,3.36,7.37,2.24,10.32,5.11,5.15-3.08,9.43,1.77,14.45,2.46,8.75,3.64,9.39,16.88,3.24,23.24,1.8,9.93,2.36,20.55-1.74,30.02-1.77,4.32-4.91,7.82-7.67,11.51,10.48-2.32,20.58-6.14,31.09-8.3,1.96-.23,4.47-.73,6.49-.17,1.57.22,1.36,1.95.16,1.69-3.58-.05-7.17.06-10.57,1.33,3.62,1.87,7.65,2.74,11.52,3.95,11.41,3.05,22.89,7.19,34.89,6.47,9.38-.73,18.42-3.67,27.78-4.54,17.79-1.35,35.89-.81,53.37,3.02,10.54,3.01,19.16,10.65,29.82,13.37-2-3.56-5.61-7.23-6.92-10.27-.41-.79.57-2,1.5-.71,3.9,4.98,5.09,8.43,10.8,12.33,5.22,3.56,11.71,5.22,17.83,2.89,12.56-4.69,22.38-14.17,32.13-23.01,1.46-.94.44-2.38-.16-3.35-.66-1.08-.06-1.85.96-.67,1.8,2.07,6.98,2.42,9.61,1.83-5.51-3.1-7.97-10.4-4.2-15.77,2.36-3.86,7.32-3,11-2.03-.69-1.7-1.79-3.15-3.42-3.82-.45-.19-1.39-.48-1.92-.53-.52,0-.71-.66,0-.81,1.57-.32,2.83-.55,3.24-2.6-5.05-5.87-1.65-15.16,5.37-17.59-2.01-2.79-5.01-4.53-8.4-5.03-.62,2.11-1.18,4.26-2,6.3-.55,1.33-1.8.56-1.61-.48.28-1.28.93-3.63.98-5.4-4.75,7.37-16.14,5.4-20.2-1.58-1.89-2.66-1.49-6.03-1.71-9.09-1.65,1.41-1.89,4.72-1.98,6.81-.09,2.04-1.54,1.15-1.68-.17-.23-1.09-.44-2.18-.64-3.28-2.58,1.35-5.13,3.04-6.3,5.84,3.15,2.53,5.69,5.74,7.08,9.53.21.93-1.45,1.17-1.77.48-1.72-3.4-3.59-7.37-7.71-8.28,2.95,2.76,5.68,6.64,4.09,10.87-2.86,9.85-18.76,11.88-22.78,1.73-2.48,3.53-1.92,7.88-1.68,11.95.08,1.27-1.77,1.25-1.91.04-.28-2.37-.36-4.76-.42-7.13-7.22,2.45-11.59,9.61-13,16.8-.03.72-1.82,1.31-1.61-.3.94-7.44,5.65-14.37,12.45-17.61,6.44-2.9,6.59-11.89,12.95-14.9,3.72-1.73,7.67-3.05,11.76-3.61,1.06-1.22,2.1-2.47,3.13-3.72-5.29-8.03-14.72-13.43-24.45-12.86-7.88-.12-15.05,3.28-22.04,6.48-1.25.56-1.47-1.26-.36-1.73,5.8-3.08,12.01-5.31,18.48-6.44-.23-7.06-1.63-14.04-3.46-20.83-8,3.52-16.46,6.08-25.27,6.25,5.15,11.63,5.48,24.98,2.8,37.27-3.19,13.63-15.09,23.31-27.76,27.94-19.13,7.25-39.96,9.18-60.28,8.48-13.51-.62-27.74-4.56-37.27-14.67-7.88-8.08-12.12-18.83-15.13-29.51-5.49-19.64,1.3-41.95,15.99-55.87-7.51-8.01-15.27-17.85-14.46-29.49.68-12.96,10.03-23.03,13.06-35.29.18-.73,1.77-.44,1.64.36-1.52,9.26-7.92,16.71-10.73,25.54-2.69,6.89-3.06,14.88.13,21.66,6.32,11.99,16.44,22.67,29.64,26.84,9.66,2.87,19.73,3.93,29.66,5.45,11.56,1.74,26.88-.11,32.39-12-4.41.03-8.53-1.34-12.13-3.82-4.79,2.16-7.9,6.16-8.78,11.21-8.3-9.96-2.16-21.47,5.95-22.94.93-9.85,11.92-16.19,21.02-14.38,3.81,1.4,6.05,5.04,8.4,8.13,3.72-1.78,7.47-4.1,9.57-7.76,3.27-6.35-2.58-14.94-9.61-14.6-3.49-.23-7.7.45-8.91,4.28-2.41,5.81-8.75,8.43-14.72,6.94-4.71,3.6-7.23,9.23-11.05,13.46-3.11-5.4-2.65-11.78-1.6-17.66-2.12-4.75-3.52-10.42-.45-15.14-6.38-7.42-16.79-10.84-26.38-9.24-9.13,1.02-17.23,5.48-25,10.07-.88.4-.98-1.2-.34-1.64,10.33-7.05,22.88-11.81,35.54-10.43,6.38-7.01,7.18-19.81-1.66-25.07Zm-85.17,161.26c3.01,6.3,5.1,13.74,2.63,20.57-5.96,18.7-41.85,23.07-52.28,5.71-6.79-11.92-6.64-29.05,3.74-38.93,4.62-4.64,11.21-6.55,17.55-7.27,5.47-.53,11.39-.19,16.08,2.97,6.06,3.91,9.33,10.63,12.28,16.95Zm16.84-12.11c-5.48,5.24-15.87,5.59-19.48-1.95-3.15-5.91,1.33-11.82,6.55-14.45-4.73-2.54-8.15,2.93-10.48,6.24-.36.86-1.89.73-1.39-.47.89-2.13,2.8-3.79,3.23-6.03-1.46-1.48-3.6-1.75-5.52-2.2.19,2.43.33,4.87.4,7.31-.08,1.2-1.82.62-1.61-.27-.08-3.55-.8-7.09-2.86-10.04.12,4.79-1.79,9.87-6.38,11.99-6.32,3.58-15.58-1.16-15.87-8.53-.53-3.51,1.85-6.33,3.36-9.23-2.18.4-5.3.34-6.22,2.85-.76,2.43-.73,3.62-.75,6-.02,2.27-1.29,1.84-1.65-.56-.26-1.14-.43-2.3-.55-3.46-1.88.4-3.56,1.33-4.85,2.77,1.57,1.73,3.2,3.47,4.29,5.55.38,1.08-1.25,1.35-1.61.55-1.81-2.61-4.07-5-7.25-5.85,1.89,2.64,4.8,5.09,4.66,8.65.75,6.16-4.03,12.13-10.08,13.11-4.58,1.27-8.8-1.54-11.94-4.56.1,2.48,2.69,7.23,4.98,7.72,1.12.24.81,1.08-.81.99l-2.16-.13c-.41,1.04-.81,2.08-1.21,3.13,1.06.27,2.21.63,3.27.91,1.52.4.7,1.35-.32,1.23-1.91-.22-4.87.33-6.25,1.76,3.44.29,7.59-.07,9.94,3.04,7.01,7.19,3.57,21.15-6.72,23.08,3.23,2.47,6.88,1.09,9.73-.99,1.08-.79,2.37-.26.9,1.02-1.05.92-2.14,1.79-3.29,2.58,4.18,7.2,12.47,10.76,20.12,13.05,14.42,4.5,31.07,2.6,43.56-6.08,11.4-8.82,13.5-25.04,10.59-38.34l-1.76-.02c-2.56,1.2-4.38-.15-.4-1.64,2.62-2.44,5.13-5.06,5.82-8.71Zm180.5-310.6c.05,3.55-.48,7.32,1.17,10.62,4.8,10.4,8.16,21.43,10.5,32.63.74,3.39.59,7,2.14,10.19,7.56-7.58,11.9-18.12,12.7-28.73,2.07-19.7-.51-39.7-7.11-58.35-4.47-12.16-8.52-24.49-13.46-36.46-5.32,12.29-5.32,26.15-5.54,39.35-.64,10.24-.27,20.5-.39,30.75m60.82,26.58c-11.31,9.94-24.43,18.46-39.61,20.76-2.12,4.42-8.51,7.19-7.08,12.72.41,3.45.47,6.94,1.13,10.37,13.47-6.9,26.24-15.8,36.01-27.49,3.58-5.18,8.08-10.07,9.55-16.36m-143.92,176.3c.61,4.42-.76,10.31,4,12.65,6.78,1.64,12.08-4.92,12.74-10.91.11-.96,1-1.29,1.06-.33.05.87.45,1.01.8.9,3.24-.94,5.26-1.37,9.68-.94-.38-5.13-2.03-11.88-7.53-13.67-5.63-1.58-11.81-.33-17,2.14-3.52,1.86-6.74,5.71-7.12,9.77-.13,1.37.29,4.19.7,4.1.76.07,1.08-.96,1.59-3.52-.06-.54.91-1.08,1.09-.19m-2.46-7.48c3.46-3.73,8.17-5.81,13.05-6.92.63-1.77,1.22-3.56,1.77-5.35-4.34-2.64-10.19-2.88-14.31.31-3.1,2.91-4.19,7.27-4.85,11.33,1.44.2,2.89.4,4.33.62m15.39-7.57c4.28.06,9.12.24,12.34,3.49,2.84,2.34,3.45,6.13,4.54,9.44,5.83-3.91,5.87-13.76-.37-17.27-5.32-3.75-15.45-3.63-16.51,4.35"/>
        <path class="cls-1" d="m208.69,197.69c12.16.94,23.95,9.42,26.78,21.58.61,2.06-1.5,3.06-2.76,4.19-3.18,2.35-5.04,5.97-6.41,9.59-3.42,8.9-4.27,18.5-4.91,27.94-.07,1.78-1.88,2.69-3.21,3.51-9.13,4.22-19,7.31-29.14,7.27-1.98-.02-2.55-2.39-3.63-3.67-6.48-10.62-17.73-17.7-29.86-19.94-4.15-12.4.62-26.82,10.35-35.3,11.3-10.5,27.18-17.57,42.81-15.18Zm-107.64,329.12c-2.11-2.36-16.61-16.22-16.63-36.19-5.75,13.77,2.73,33.52,16.63,36.19Zm-27.54-.22c-7.31-5.24-9.36-14.8-9.38-23.28.07-9.88,5.89-20.43,15.68-23.55,6.85-1.99,14.56-3.71,21.36-.68,10.14,5.84,14.81,17.74,17.08,28.66,3.78,22.02-32.15,28.51-44.74,18.84Zm279.3-15.39c-4.14,6.17-15.04,17.5-22,22.05,11.22-1.26,20.52-10.96,22-22.05Zm-.37-13.65c4.53-.84,11.41-.98,13.14,4.36,1.31,8.27-4,15.76-8.84,21.94-5.65,7.81-12.82,14.83-21.72,18.79-8.01,3.41-18.09-.82-21.7-8.6-2.35-8.41,3.24-16.27,8.45-22.31,8.69-7.34,19.71-11.62,30.67-14.18Zm21.23,14.53c-6.83,1.16-7.31,11.16-1.65,14.11,8.65,2.58,10.5-14.56,1.65-14.11Zm7.33-23.24c-4.93,1.98-6.79,11.55-.97,13.36,5.09-1.3,8.07-8.65,4.42-12.74-.85-1.04-2.3-1.34-3.45-.62Zm-25.17-6.6c3.95,2.24,11.49,3.8,12.81-2.25.7-6.08-5.75-11.73-11.77-10.91-7.82-.15-6.09,10.46-1.04,13.16Zm-34.85,13.39c5.22,7.62,20.38,1.24,17.66-7.83-1.03-5-7.12-5.26-11.1-4.17-4.63,1.46-9.62,7.15-6.56,12.01Zm-188.54-16.26c2.15-6.59-6.15-12.42-12.04-9.45-5.43,1.78-6.71,8.87-3.49,13.15,4.36,5.15,14.29,3.21,15.53-3.7Zm-33.11-11.58c3.27-6.31-4.2-13.33-10.48-11.29-5.16.76-9,6.79-6.08,11.55,2.88,6.86,13.7,6.4,16.56-.26Zm-33.1,10.76c4.07-5.46-1.1-14.94-8.13-13.19-6.44.7-11.44,7.97-8.66,14.13,3.03,6.75,14.21,5.7,16.8-.94Zm-10.37,26.26c-1.33-4.48-6.33-7.91-10.89-5.67-9.2,3.94-7.3,19.98,2.68,21.36,7.32-.42,11.09-9.42,8.21-15.68Zm173.77-88.32c.02-2.34-.06-4.69-.23-7.03-7.63-.39-14.23,10.43-9.02,16.34,2.61-3.54,5.48-6.95,9.25-9.31Zm33.64-16.51c3.35,3.31,4.93,7.75,7.53,11.55,2.74-7.69,5.71-13.99-1.21-21.02-1.38,3.6-3.57,6.77-6.32,9.47Zm-41.33-1.01c3.39-2.97,5.84-6.84,9.23-9.83-.84-2.69-1.67-5.38-2.51-8.06-7.62,1.95-8.34,11.54-6.71,17.89Zm-.67-15.59c5.45-2.17,4.35-8.38,5.56-13.03-6.76-1.22-9.34,8.37-5.56,13.03Zm45.41-11.99c-2.06,1.71-4.89,3.21-5.62,5.95,2.59,1.91,4.51,4.62,6.93,6.63,4.09-3.22.82-9.09-1.31-12.58Z"/>
        <path class="cls-4" d="m237.94,431.22c12.65,9.7,28.44,14.75,44.31,15.21,5.15,11.63,5.48,24.98,2.8,37.27-3.19,13.63-15.09,23.31-27.76,27.94-19.13,7.25-39.96,9.18-60.28,8.48-13.51-.62-27.74-4.56-37.27-14.67-7.88-8.08-12.12-18.83-15.13-29.51-5.49-19.64,1.3-41.95,15.99-55.87,11.58,12.37,29.36,14.1,45.17,16.38,10.85,1.9,23.05,1.82,32.16-5.23m29-63.06c.07-1.45.15-2.89.27-4.33,1.16,3.42,2.63,6.72,4.32,9.91l-.75.51c-1.17-2.1-2.44-4.14-3.84-6.09m.53-33.28c-2.31,8.19-2.69,16.88-1.11,25.25-4.42-6.95-14.91-10.75-21.83-5.21-1.49-.81-2.98-1.63-4.45-2.47,1.03-1.79,3-.64,4.57-.61,2.86.13,5.53-1.41,7.19-3.68-2.65-4.91-8.11-7.43-10.87-12.37l-1.1,1.2c2.1,4.73,6.85,7.25,10.02,11.11-2.39,1.72-5.82,3.04-8.44.97-2.19-1.11-2.77-4.59-5.47-4.53.02,2.39,2.22,3.91,3.51,5.7-.34.64-.67,1.28-1,1.94-3.8-.12-7.98.3-10.89,3.02-4.14,3.65-5.15,9.42-5.73,14.64-4.91-4.14-10.05-8.21-16.47-9.79,6.22-7.43,6.86-19.2-.75-25.93,22.05.64,42.94-8.02,61.39-19.39-.72,6.77.79,13.44,1.42,20.15Zm38.12-74.49c-11.84,17.16-27.54,31.4-44.43,43.49-15.22,10.83-32.85,18.93-51.65,20.5-25.13,1.98-50.5.3-75.23-4.5-.82,4.33-1.37,8.73-1.33,13.15.48.04,1.44.12,1.92.16,21.94.42,43.9-.02,65.84-.7,8.82-.45,17.74-.41,26.34-2.59,17.65-4.09,33.43-13.46,48.25-23.56,14.69-10.55,29.6-21.21,41.61-34.87-2.61-4.67-6.38-8.83-11.32-11.08m-197.3-26.64c-8.74,5.17-12.49,15.98-11.19,25.74,1.72,13.27,9.33,27.12,22.24,32.3,14.97,5.61,33.23-6.71,32.67-22.98,1.18-.29,2.34-.6,3.52-.89-4.66-9.2-10.05-18.04-15.65-26.69-6.4-10.17-21.33-13.6-31.59-7.48m48.19,43.94c-.96,8.18-4.6,16.44-11.36,21.44-10.95,8.17-26.13,11.05-38.97,5.86-6.25-2.2-11.41-6.52-16.08-11.1-5.79-14.2-7.01-30.08-7.04-45.36-.19-16.12,1.6-32.73,8.66-47.41,2.53-5.37,6.63-11.06,13.08-11.54,2.39-.31,4.63.26,6.51,1.42,2.46,1.51,5.13,3.6,6.77,5.98,9.02,13.05,18.23,25.97,26.78,39.34,8.08,12.07,13.08,26.73,11.65,41.37Zm88.8-83.34c-2.1,13.27.5,26.79,4.45,39.48.64-.4,1.29-.78,1.93-1.17,8.86,7.72,22.65,10.56,33.27,4.93,9.67-5.76,13.38-17.89,12.56-28.59-.91-10.59-4.79-21.77-13.6-28.32-8.15-5.88-19.38-5.7-28.28-1.65-5.7,2.99-9.31,9.09-10.33,15.32m69.8-5.29c-.51,11.99-.28,24.24-4.05,35.78-3.79,10.8-12.39,20.32-23.79,23.05-10.95,2.61-24.08,3.22-33.32-4.3-8-6.98-11.31-17.54-14.39-27.35-5.52-18.85-9.12-39-6.25-58.58.42-2.85,1.11-5.84,2.18-8.65.24.83,1.3.95,1.72.09,1.32-5.31,4.33-10.73,9.83-12.51,8.45-2.98,17.64-.05,25.49,3.4,20.13,9.68,34.89,28.38,42.57,49.05Z"/>
        <path class="cls-8" d="m260.94,182.17h0c-5.26,1.95-7.53,9.23-3.83,13.63,4.02,6.09,14.8,3.64,15.65-3.64,1.7-6.59-5.68-12.7-11.82-9.99m-5.32-3.16c8.9-4.04,20.13-4.22,28.28,1.65,8.81,6.55,12.69,17.73,13.6,28.32.83,10.7-2.88,22.83-12.56,28.59-10.62,5.62-24.41,2.79-33.27-4.93-.64.39-1.3.77-1.93,1.17-3.95-12.69-6.55-26.21-4.45-39.48,1.03-6.24,4.63-12.34,10.33-15.32Zm-90.95,11.11c7.45-9.99,21.69-14.31,33.29-9.44-11.9-.86-23.34,3.2-33.29,9.44m-4.41,12.28c9.79-14.22,29.8-20.49,45.78-13.51-19.03-1.01-25.75-1.41-45.78,13.51m17.8,109.84h0c-3.21,2.95-5.35,6.85-7.48,10.6,7.56.8,15.16.94,22.75.7-3.46-3.97-7.12-7.82-11.39-10.92-1.06-.83-2.78-1.46-3.89-.38m-14.25-10.7h0c4.82,1.19,9.61,2.65,14.55,3.32,2.98-5.3,6.09-10.52,8.9-15.91-7.91,4-15.88,7.96-23.44,12.59Zm79.3-14.28h0c-9.55,5.18-14.66,16.31-25.28,19.8-.01-.47-.06-1.4-.08-1.87,2.8-1.3,5.43-2.94,7.79-4.93-14.31-2.47-30.47,1.38-40.3,12.56,3.95,3.24,6.97,7.53,10.96,10.68,22.92.02,45.82-7.31,63.98-21.37,1.49-5.7,2.58-11.53,4.33-17.18-7.07-1.71-15.13-1.9-21.39,2.31Zm25.92-5.53h0c-4.36,5.15-4.89,12.37-6.45,18.71,6.52-4.12,12.24-9.36,17.89-14.58-3.54-1.89-7.2-4.85-11.44-4.13Zm-72.52,19.93h0c9.2-3.56,19.07-4.66,28.85-3.56,3.12.7,4.86-2.37,6.74-4.25,4.3-4.88,9.77-8.59,15.77-11.05-1.86-1.78-4.02-3.35-6.57-3.92-17.55-3.27-38.84,4.81-44.79,22.78Zm47.05-33.25h0c5.03,2.87,10.71,4.33,15.92,6.83,3.36-3.77,6.88-7.39,10.06-11.32-8.73,1.03-17.42,2.47-25.98,4.49Zm34.22-5.77h0c-8.68.05-11.44,10.13-17.82,14.38-7.08-1.59-13.27-6.29-20.44-7.39-15.59,3.36-30.37,9.62-44.99,15.85-1.97.83-4.06,1.79-5.15,3.75-3.49,5.88-6.74,11.9-10.23,17.78-5.35-.89-10.54-2.52-15.83-3.62-2.62-.78-4.74,1.4-6.87,2.53-6.63,4.36-13.68,8.03-20.39,12.24,10.62,2.23,21.52,3.89,32.34,4.32,3.21-3.87,4.83-9.23,9.35-11.91,1.98-1.15,4.14.21,6.07.79,2.88-3.01,6.39-5.27,9.5-7.97,2.04-3.79,3.5-7.94,6.24-11.34,6.76-9.5,18.29-14.46,29.65-15.47,5.92-.51,12.45-.64,17.63,2.71,4.91,4.98,12.45,1.18,18.39,4.14,2.4-5.21,8.56-4.02,12.41-1.26,1.76.97,4.19,3.27,5.91.93,7.36-7.83,15.65-15.13,20.85-24.68-8.86,1.49-17.69,3.19-26.61,4.23Zm-111.89-49.76h0c-9.73,8.48-14.5,22.89-10.35,35.3,12.14,2.23,23.39,9.32,29.86,19.94,1.08,1.28,1.65,3.65,3.63,3.67,10.14.04,20.01-3.05,29.14-7.27,1.33-.83,3.15-1.74,3.21-3.51.64-9.44,1.49-19.04,4.91-27.94,1.38-3.62,3.24-7.24,6.41-9.59,1.26-1.13,3.37-2.13,2.76-4.19-2.83-12.17-14.61-20.65-26.78-21.58-15.63-2.39-31.51,4.69-42.81,15.18Zm8-8.69c11.44-7.41,25.82-10.84,39.24-7.62,8.38,1.93,16.38,6.75,20.89,14.23,5.14,7.95,5.47,18.05,3.6,27.08-3.29,13.59-11.96,27.24-26.01,31.43.65,2.06,1.34,4.12,2.06,6.17,13.31-4.63,26.87-8.69,40.77-11.14,13.29-2.21,26.67-3.84,39.96-6.02,7.47-1.42,17.32-1.66,21.73-8.75-3.05-1.47-5.04-1.74-7.39-2.11,5.65-2.19,13.03,1.28,13.67,7.62-.74-.72-2.66-2.64-4.25-4.02-.12.18-.24.32-.33.42-3.42,3.92-9.23,4.64-12.26,8.9-11.84,17.16-27.54,31.4-44.43,43.49-15.22,10.83-32.85,18.93-51.65,20.5-25.13,1.98-50.5.3-75.23-4.5-4.3.1-8.16,2.33-12.31,3.24-.53,1.64-.25,3.56-.29,5.4-4.2-5.18-1.29-13.2,4.52-15.75-1.62,2.22-3.13,3.99-4.27,8.14,17.48-3.84,30.85-16.21,46.54-24.1,13.89-8.01,28.53-14.56,43.37-20.61-.61-1.93-1.22-3.84-1.85-5.75-11.74,2.23-24.13,5.46-35.82,1.05-14.25-4.92-22.67-20.83-22.15-35.38.94-13.63,10.64-25,21.86-31.94Zm-54.98,31.45h0c-3.79.89-6.96,4.49-6.71,8.49-.48,5.31,5,9.94,10.16,8.93,4.98-.73,8.61-6.17,7.16-11.05-1.08-4.53-6.11-7.5-10.61-6.37m-10.62-1.89c10.26-6.13,25.19-2.69,31.59,7.48,5.6,8.65,11,17.49,15.65,26.69-1.18.29-2.34.59-3.52.89.56,16.26-17.7,28.58-32.67,22.98-12.91-5.18-20.52-19.02-22.24-32.3-1.3-9.75,2.45-20.57,11.19-25.74Zm145.55,15.37c6.36,3.22,6.7,2.99,12.74,4.02,1.9.33,1.67.55-.13,1.01-4.45,1.12-9.86-.45-13.15-3.75-1.67-1.67-2.06-2.6.54-1.28m-92.9,34.06c.91-2.76,1.29-1.83,1.29.53,0,4.66-2.73,9.59-6.67,11.94-1.6.95-1.92.95-.8-.62,3.55-5,3.96-5.07,6.19-11.85m-76.52,207.44c.02,19.97,14.52,33.84,16.63,36.19-13.9-2.68-22.39-22.42-16.63-36.19m-4.61-10.84h0c-9.79,3.11-15.61,13.66-15.68,23.55.02,8.48,2.07,18.03,9.38,23.28,12.59,9.67,48.53,3.18,44.74-18.84-2.27-10.92-6.94-22.82-17.08-28.66-6.8-3.03-14.51-1.31-21.36.68Zm8.44-3.87c5.47-.53,11.39-.19,16.08,2.97,6.06,3.91,9.33,10.63,12.28,16.95,3.01,6.3,5.1,13.74,2.63,20.57-5.96,18.7-41.85,23.07-52.28,5.71-6.79-11.92-6.64-29.05,3.74-38.93,4.62-4.64,11.21-6.55,17.55-7.27Zm264.19,21.65h0c-10.96,2.56-21.98,6.84-30.67,14.18-5.21,6.04-10.8,13.9-8.45,22.31,3.61,7.78,13.69,12.01,21.7,8.6,8.9-3.96,16.07-10.98,21.72-18.79,4.85-6.18,10.15-13.68,8.84-21.94-1.73-5.34-8.61-5.2-13.14-4.36m.83-1.82c4.6-.47,10.67-.42,13.34,4.06,3.25,7.23-1.16,14.97-5.12,20.96-7.06,9.32-14.71,19.26-26.01,23.56-8.93,3.66-20.95-.89-23.96-10.35-2.45-10.86,5.13-21.04,13.4-27.2,8.61-5.44,18.25-9.5,28.35-11.03Zm-.47,15.47c-1.49,11.09-10.78,20.79-22,22.05,6.96-4.55,17.86-15.89,22-22.05m20.87.87h0c-6.83,1.16-7.31,11.16-1.65,14.11,8.65,2.58,10.5-14.56,1.65-14.11m-328.7-12.94h0c-9.2,3.94-7.3,19.98,2.68,21.36,7.32-.42,11.09-9.42,8.21-15.68-1.33-4.48-6.33-7.91-10.89-5.67Zm336.03-10.29h0c-4.93,1.98-6.79,11.55-.97,13.36,5.09-1.3,8.07-8.65,4.42-12.74-.85-1.04-2.3-1.34-3.45-.62Zm-53.46-5.21h0c-4.63,1.46-9.62,7.15-6.56,12.01,5.22,7.62,20.38,1.24,17.66-7.83-1.03-5-7.12-5.26-11.1-4.17Zm-207.14-13.71h0c-5.43,1.78-6.71,8.87-3.49,13.15,4.36,5.15,14.29,3.21,15.53-3.7,2.15-6.59-6.15-12.42-12.04-9.45Zm236.47-.83h0c-7.82-.15-6.09,10.46-1.04,13.16,3.95,2.24,11.49,3.8,12.81-2.25.7-6.08-5.75-11.73-11.77-10.91Zm-298.77-3.72h0c-6.44.7-11.44,7.97-8.66,14.13,3.03,6.75,14.21,5.7,16.8-.94,4.07-5.46-1.1-14.94-8.13-13.19Zm30.76-8.87h0c-5.16.76-9,6.79-6.08,11.55,2.88,6.86,13.7,6.4,16.56-.26,3.27-6.31-4.2-13.33-10.48-11.29Zm-11.68,2.4h0c-.76,2.43-.73,3.62-.75,6-.02,2.27-1.29,1.84-1.65-.56-.26-1.14-.43-2.3-.55-3.46-1.88.4-3.56,1.33-4.85,2.77,1.57,1.73,3.2,3.47,4.29,5.55.38,1.08-1.25,1.35-1.61.55-1.81-2.61-4.07-5-7.25-5.85,1.89,2.64,4.8,5.09,4.66,8.65.75,6.16-4.03,12.13-10.08,13.11-4.58,1.27-8.8-1.54-11.94-4.56.1,2.48,2.69,7.23,4.98,7.72,1.12.24.81,1.08-.81.99-.72-.04-1.44-.08-2.16-.13-.41,1.04-.81,2.08-1.21,3.13,1.06.27,2.21.63,3.27.91,1.52.4.7,1.35-.32,1.23-1.91-.22-4.87.33-6.25,1.76,3.44.29,7.59-.07,9.94,3.04,7.01,7.19,3.57,21.15-6.72,23.08,3.23,2.47,6.88,1.09,9.73-.99,1.08-.79,2.37-.26.9,1.02-1.05.92-2.14,1.79-3.29,2.58,4.18,7.2,12.47,10.76,20.12,13.05,14.42,4.5,31.07,2.6,43.56-6.08,11.4-8.82,13.5-25.04,10.59-38.34-.59,0-1.18-.01-1.76-.02-2.56,1.2-4.38-.15-.4-1.64,2.62-2.44,5.13-5.06,5.82-8.71-5.48,5.24-15.87,5.59-19.48-1.95-3.15-5.91,1.33-11.82,6.55-14.45-4.73-2.54-8.15,2.93-10.48,6.24-.36.86-1.89.73-1.39-.47.89-2.13,2.8-3.79,3.23-6.03-1.46-1.48-3.6-1.75-5.52-2.2.19,2.43.33,4.87.4,7.31-.08,1.2-1.82.62-1.61-.27-.08-3.55-.8-7.09-2.86-10.04.12,4.79-1.79,9.87-6.38,11.99-6.32,3.58-15.58-1.16-15.87-8.53-.53-3.51,1.85-6.33,3.36-9.23-2.18.4-5.3.34-6.22,2.85Zm143.21-33.1h0c2.61-3.54,5.48-6.95,9.25-9.31.02-2.34-.06-4.69-.23-7.03-7.63-.39-14.23,10.43-9.02,16.34Zm42.88-25.82h0c3.35,3.31,4.93,7.75,7.53,11.55,2.74-7.69,5.71-13.99-1.21-21.02-1.38,3.6-3.57,6.77-6.32,9.47Zm-41.33-1.01h0c3.39-2.97,5.84-6.84,9.23-9.83-.84-2.69-1.67-5.38-2.51-8.06-7.62,1.95-8.34,11.54-6.71,17.89Zm39.12-21.64h0c2.59,1.91,4.51,4.62,6.93,6.63,4.09-3.22.82-9.09-1.31-12.58-2.06,1.71-4.89,3.21-5.62,5.95Zm-39.79,6.05h0c5.45-2.17,4.35-8.38,5.56-13.03-6.76-1.22-9.34,8.37-5.56,13.03Zm45.67-15.21h0c1.41,1.95,2.67,3.99,3.84,6.09.18-.12.56-.38.75-.51-1.69-3.18-3.16-6.49-4.32-9.91-.12,1.44-.2,2.88-.27,4.33Zm-32.35-2.34h0c-3.52,1.86-6.74,5.71-7.12,9.77-.13,1.37.29,4.19.7,4.1.76.07,1.08-.96,1.59-3.52-.06-.54.91-1.08,1.09-.19.61,4.42-.76,10.31,4,12.65,6.78,1.64,12.08-4.92,12.74-10.91.11-.96,1-1.29,1.06-.33.05.87.45,1.01.8.9,3.24-.94,5.26-1.37,9.68-.94-.38-5.13-2.03-11.88-7.53-13.67-5.63-1.58-11.81-.33-17,2.14Zm9.18-4.89h0c4.28.06,9.12.24,12.34,3.49,2.84,2.34,3.45,6.13,4.54,9.44,5.83-3.91,5.87-13.76-.37-17.27-5.32-3.75-15.45-3.63-16.51,4.35Zm-14.88-4.39h0c-3.1,2.91-4.19,7.27-4.85,11.33,1.44.2,2.89.4,4.33.62,3.46-3.73,8.17-5.81,13.05-6.92.63-1.77,1.22-3.56,1.77-5.35-4.34-2.64-10.19-2.88-14.31.31Zm-70.04-21.23h0c-2.55,16.53-11.26,31.31-20.35,45.07-12.15,20.52-23.4,42.57-25.6,66.67,11.01-1.27,21.52,5.44,26.63,14.96.84,1.57-1.59,1.34-1.85.21-3.33-5.34-8.2-9.84-14.13-12.09-9.03-3.19-19.13.31-26.31,6.08,2.12,1.41,4.33,2.72,6.12,4.55,2.51,3.36,7.37,2.24,10.32,5.11,5.15-3.08,9.43,1.77,14.45,2.46,8.75,3.64,9.39,16.88,3.24,23.24,1.8,9.93,2.36,20.55-1.74,30.02-1.77,4.32-4.91,7.82-7.67,11.51,10.48-2.32,20.58-6.14,31.09-8.3,1.96-.23,4.47-.73,6.49-.17,1.57.22,1.36,1.95.16,1.69-3.58-.05-7.17.06-10.57,1.33,3.62,1.87,7.65,2.74,11.52,3.95,11.41,3.05,22.89,7.19,34.89,6.47,9.38-.73,18.42-3.67,27.78-4.54,17.79-1.35,35.89-.81,53.37,3.02,10.54,3.01,19.16,10.65,29.82,13.37-2-3.56-5.61-7.23-6.92-10.27-.41-.79.57-2,1.5-.71,3.9,4.98,5.09,8.43,10.8,12.33,5.22,3.56,11.71,5.22,17.83,2.89,12.56-4.69,22.38-14.17,32.13-23.01,1.46-.94.44-2.38-.16-3.35-.66-1.08-.06-1.85.96-.67,1.8,2.07,6.98,2.42,9.61,1.83-5.51-3.1-7.97-10.4-4.2-15.77,2.36-3.86,7.32-3,11-2.03-.69-1.7-1.79-3.15-3.42-3.82-.45-.19-1.39-.48-1.92-.53-.52,0-.71-.66,0-.81,1.57-.32,2.83-.55,3.24-2.6-5.05-5.87-1.65-15.16,5.37-17.59-2.01-2.79-5.01-4.53-8.4-5.03-.62,2.11-1.18,4.26-2,6.3-.55,1.33-1.8.56-1.61-.48.28-1.28.93-3.63.98-5.4-4.75,7.37-16.14,5.4-20.2-1.58-1.89-2.66-1.49-6.03-1.71-9.09-1.65,1.41-1.89,4.72-1.98,6.81-.09,2.04-1.54,1.15-1.68-.17-.23-1.09-.44-2.18-.64-3.28-2.58,1.35-5.13,3.04-6.3,5.84,3.15,2.53,5.69,5.74,7.08,9.53.21.93-1.45,1.17-1.77.48-1.72-3.4-3.59-7.37-7.71-8.28,2.95,2.76,5.68,6.64,4.09,10.87-2.86,9.85-18.76,11.88-22.78,1.73-2.48,3.53-1.92,7.88-1.68,11.95.08,1.27-1.77,1.25-1.91.04-.28-2.37-.36-4.76-.42-7.13-7.22,2.45-11.59,9.61-13,16.8-.03.72-1.82,1.31-1.61-.3.94-7.44,5.65-14.37,12.45-17.61,6.44-2.9,6.59-11.89,12.95-14.9,3.72-1.73,7.67-3.05,11.76-3.61,1.06-1.22,2.1-2.47,3.13-3.72-5.29-8.03-14.72-13.43-24.45-12.86-7.88-.12-15.05,3.28-22.04,6.48-1.25.56-1.47-1.26-.36-1.73,5.8-3.08,12.01-5.31,18.48-6.44-.23-7.06-1.63-14.04-3.46-20.83-8,3.52-16.46,6.08-25.27,6.25-15.87-.47-31.66-5.51-44.31-15.21-9.12,7.05-21.31,7.12-32.16,5.23-15.81-2.28-33.6-4.01-45.17-16.38-7.51-8.01-15.27-17.85-14.46-29.49.68-12.96,10.03-23.03,13.06-35.29.18-.73,1.77-.44,1.64.36-1.52,9.26-7.92,16.71-10.73,25.54-2.69,6.89-3.06,14.88.13,21.66,6.32,11.99,16.44,22.67,29.64,26.84,9.66,2.87,19.73,3.93,29.66,5.45,11.56,1.74,26.88-.11,32.39-12-4.41.03-8.53-1.34-12.13-3.82-4.79,2.16-7.9,6.16-8.78,11.21-8.3-9.96-2.16-21.47,5.95-22.94.93-9.85,11.92-16.19,21.02-14.38,3.81,1.4,6.05,5.04,8.4,8.13,3.72-1.78,7.47-4.1,9.57-7.76,3.27-6.35-2.58-14.94-9.61-14.6-3.49-.23-7.7.45-8.91,4.28-2.41,5.81-8.75,8.43-14.72,6.94-4.71,3.6-7.23,9.23-11.05,13.46-3.11-5.4-2.65-11.78-1.6-17.66-2.12-4.75-3.52-10.42-.45-15.14-6.38-7.42-16.79-10.84-26.38-9.24-9.13,1.02-17.23,5.48-25,10.07-.88.4-.98-1.2-.34-1.64,10.33-7.05,22.88-11.81,35.54-10.43,6.38-7.01,7.18-19.81-1.66-25.07-14.29-.2-28.61.4-42.91.76Zm121.74-30.18h0c-4.93,3.05-9.77,6.32-14.55,9.6-18.45,11.36-39.35,20.02-61.39,19.39,7.61,6.74,6.96,18.5.75,25.93,6.41,1.57,11.55,5.64,16.47,9.79.58-5.21,1.58-10.98,5.73-14.64,2.91-2.72,7.09-3.13,10.89-3.02.33-.66.66-1.3,1-1.94-1.29-1.79-3.49-3.32-3.51-5.7,2.69-.06,3.28,3.43,5.47,4.53,2.62,2.06,6.05.75,8.44-.97-3.16-3.87-7.91-6.38-10.02-11.11.28-.3.83-.9,1.1-1.2,2.75,4.94,8.21,7.46,10.87,12.37-1.66,2.28-4.33,3.81-7.19,3.68-1.57-.03-3.54-1.18-4.57.61,1.47.83,2.97,1.65,4.45,2.47,6.93-5.54,17.41-1.74,21.83,5.21-1.58-8.37-1.2-17.06,1.11-25.25.68-1.97,1.4-3.92,2.17-5.86.35-.91,2.05-.87,1.77.08-5.69,13.81-5.81,30.02,1.66,43.21,12.6-7.43,29.48-2.87,38.64,7.83.94,1.34-.49,1.48-1.08.92-2.45-1.71-4.48-4.1-7.19-5.45-9.36-6.73-23.41-7.39-32.14.75,1.69,3.92-.11,7.76-1.62,11.37,1.24,2.59,4.06,4.25,4.96,7.12,2.91,6.71-.08,14.12-3.8,19.85-3.43-3.5-5.11-10.08-9.38-13.97-2,.99-3.67,2.47-4.96,4.28-2.84-3.92-5.24-9.32-10.4-10.46-7.18-.08-16.49,3.97-17.1,12.07,3.32,3.15,2.49,7.6,3.09,11.67,5.66,4.89,13.41,1.96,19.63-.33,1.31-.05,1.09,1.55.14,1.85-2.44.95-5.03,1.57-7.31,2.86-1.83,2.36-3.18,5.05-4.94,7.47,12.22,8.84,27.13,14.45,42.34,14.18,18.69.89,37.71-11.21,43.78-29.1,3.32-11.71-1.9-23.5-7.99-33.3-7.32-11.46-13.14-23.82-17.32-36.76-4.43-14.15-6.87-30.9-19.85-40.05Zm-231.41-26.78h0c9.5,13.01,25.55,19.34,40.8,22.68-1.56-5.43-3.75-10.67-4.91-16.22-12.27,0-24.47-1.94-35.9-6.46Zm285.97-57.91h0c-2.12,4.42-8.51,7.19-7.08,12.72.41,3.45.47,6.94,1.13,10.37,13.47-6.9,26.24-15.8,36.01-27.49,3.58-5.18,8.08-10.07,9.55-16.36-11.31,9.94-24.43,18.46-39.61,20.76Zm-265.65-15.13h0c-.83,18.77,1.33,38.03,9.17,55.26.78,1.67,1.82,3.2,2.92,4.67-1.24-20.65-.89-42.11,6.65-61.67.59-3.8-.16-7.78-2.02-11.14-4.5-9.55-8.62-19.31-13.82-28.5-1.73,13.71-1.99,27.6-2.89,41.38Zm105.95-91.47c1.36,3.96,5.4,5.95,9.34,7.35.61.22.69,2.21-.35,1.71-6.08-2.93-12.77-5.27-19.61-4.22-3.99.72-8.48,4.45-1.9,4.24,5.15-.16,11.12-.4,14.47,3.37.99,1.02-.44,1.81-.88,1.23-2.8-2.42-7.1-3.81-12.86-2.81-4.23.73-8.22,2.82-11.67,5.35,3.13,1.52,6.68.44,9.96,1.27,4.18,1.41,8.13-.98,12.18-1.82,1.17-.24,1.94,1.41.72,1.72-28.64,7.23-53.14,26.1-71.68,48.62,2.42.35,5.47-.47,7.2,1.73-4.47.78-9.34-.34-13.49,1.88-5.63,2.58-7.4,9.39-6.91,15.09,4.02-4.99,8.46-10.84,15.53-11.03,3.88.3,8.68,2.42,10.79,5.87,1.21,1.99.29,2.23-.74,1.22-2.68-2.62-6.86-5.54-10.79-5.04-6.45.48-10.55,6.16-13.08,11.54-7.07,14.68-8.85,31.29-8.66,47.41.03,15.28,1.24,31.16,7.04,45.36,3.84,14.7,12.78,29.32,26.72,36.33,5.59,2.88,11.96,2.92,18.09,2.97,21.94.42,43.9-.02,65.84-.7,8.82-.45,17.74-.41,26.34-2.59,17.65-4.09,33.43-13.46,48.25-23.56,14.69-10.55,29.6-21.21,41.61-34.87,4.42-5.76,8.45-12.2,9.59-19.5,1.22-7.23,0-14.54-.46-21.78-2.09-14.03-4.83-28.24-10.96-41.13-7.67-20.67-22.44-39.37-42.57-49.05-7.86-3.46-17.04-6.38-25.49-3.4-5.5,1.77-8.51,7.2-9.83,12.51-.53,1.07-2.06.61-1.71-.86,1.44-6.06,5.46-11.72,11.62-13.6,8.68-3.11,17.56.63,25.85,3.14-4.54-7.52-13.64-12.66-22.47-11.81-6.1.55-10.69,4.68-15.81,7.48-1.11.95-2.15-.25-1.22-1.16,1.58-1.47,3.5-2.61,5.16-3.98-17.24-4.22-35.4-3.13-52.68.31-.71-.6-.72-1.16-.04-1.69,2.75-.84,5.65-1.12,8.41-1.94-5.15-4.22-10.35-8.65-16.16-11.96-2.23-1.27-3.93-2.82-2.68.81Zm138.88,28.5h0c-.64,10.24-.27,20.5-.39,30.75.05,3.55-.48,7.32,1.17,10.62,4.8,10.4,8.16,21.43,10.5,32.63.74,3.39.59,7,2.14,10.19,7.56-7.58,11.9-18.12,12.7-28.73,2.07-19.7-.51-39.7-7.11-58.35-4.47-12.16-8.52-24.49-13.46-36.46-5.32,12.29-5.32,26.15-5.54,39.35ZM50.43,63.87h0c-6.55,4.69-11.07,11.58-15.51,18.18-13.57,21.59-22.25,45.9-28.2,70.6-4.12,16.97-6.05,34.63-3.99,52.04,1.68,11.33,6.16,22.95,15.2,30.41,6.85,5.65,16.02,6.44,24.51,7.15,3.21.28,7.79,1.49,7.68,5.54-.61,7.59-7.85,13.6-6.44,21.56,1.41,4.39,5.91,6.76,9.9,8.43,9.83,3.75,20.45,5.21,30.94,5.03-1.38-4.84-.51-10.42-3.81-14.58-12.94-21.25-14.06-47.13-12.57-71.31,1.35-17.44,1.85-34.94,3.15-52.38.78-19.81,2.28-40.06-2.92-59.44-2.34-7.41-5-15.25-10.81-20.71-1.87-1.99-4.99-2.26-7.12-.53ZM301.65,12.03h0c-.87,8.31.23,16.67,1.32,24.91,5.29,30.55,16.88,59.47,27.33,88.51,9.56,24.45,15.96,51.13,11.35,77.4-1.03,5.29-2.8,10.4-4.98,15.32,15.43-2.8,29.34-11.93,39.5-23.69-2.25-7.45-8.73-12.38-12.02-19.26-1.08-2.12-1.13-5.26,1.28-6.46,5.29-2.93,11.71-2.28,17.18-4.7,4.47-2.29,6.69-7.27,7.36-12.03,1.57-8.02-.1-16.14-.03-24.2-1.05-20.42-4.2-41.02-12.2-59.96-5.74-13.23-13.33-25.7-22.72-36.65-8.05-10.05-17.94-18.8-29.36-24.81-5.47-2.29-11.28-5.04-17.36-4.11-4.38.99-6.24,5.7-6.66,9.73Zm-1.78-.72c.25-6.19,5.45-12.33,12.09-11.16,15.88,2.26,28.9,13.02,39.64,24.26,9.75,10.64,18.11,22.55,24.53,35.48,13.11,26.11,15.98,55.86,16.18,84.67.2,6.52-.75,13.68-5.31,18.68-4.41,4.14-10.78,4.33-16.36,5.6-2.09.53-4.86,1.08-5.51,3.49,2.27,7.57,9.53,12.31,12.12,19.73,1.19,4.13-.02,8.49-2.06,12.14-9.75,18.76-27.4,32.08-45.97,41.32-.5,13.06-7.48,24.69-16.85,33.4-9.21,9.13-19.65,16.89-30,24.67,6.85,6.63,12.68,14.53,14.87,23.98,3.6,13.48,7.75,26.92,14.2,39.35,5.29,11.42,14.31,21.25,16.39,34.02,3.63,15.12-6.16,29.95-18.63,37.7,1.82,7.21,3.51,14.53,3.4,22.02,10.92-.85,21.95,4.18,27.97,13.41,1.99-.72,3.81-1.71,5.46-2.94,4.86-3.59,7.92-4.15,12.36-4,7.02.23,13.8,4.66,15.05,11.84,5.09.22,9.36,3.23,11.35,7.89,6.43,5.7,1.94,17.51-6.63,17.7.01.37.03,1.11.04,1.49,4.07,5.04,4.75,12.31,2.25,18.19-3.02,5.4-9.34,7.86-15.29,6.63-8.97,7.36-16.99,16.09-27.38,21.55-6.73,4.09-15.39,6.56-22.81,2.76-4.25-2.66-9.31-3.24-13.87-5.13-9.53-3.58-17.72-10.4-27.78-12.59-19.39-2.92-39.3-4.25-58.69-.72-9.25,1.14-18.43,4.6-27.86,2.97-12.81-2.22-25.36-5.72-37.74-9.66-1.9-.58-3.9-1.43-5.9-.78-10.39,2.83-20.72,5.93-30.96,9.24-15.95,6.74-34.98,5.05-49.8-3.75-3.7-2.06-6.32-5.43-9.14-8.49-8.56-1.58-17.45-9.35-16.09-18.78,1.22-7.81,8.62-12.42,11.03-19.62-2.16-2.78-2.82-6.11-2.49-9.46.83-8.53,6.51-15.03,15.03-16.5,2.3-.39,4.65-.24,6.93.75,1.98-2.01,4.41-3.54,7.28-3.82,1.17-2.58,3.28-3.77,5.66-4.2,1.87-.34,3.91-.21,5.81.09,1.34-.44,2.76-.4,4.17-.29,2.61.2,5.21.65,7.28-1.19,3.89-2.75,8.39-4.5,12.97-5.73,1.76-19.15,9.26-37.23,18.1-54.11,10.09-18.93,24.87-36.29,27.9-58.18-11.07.05-22.18.2-33.21-.82-13.79-2.75-23.99-14.15-30.06-26.23-1.23-1.87-1.49-5.09-4.22-5.3-15.29-3.43-30.73-9.73-41.08-21.96-3.72-4.66-7.76-10.46-6.14-16.73.89-5.87,5.45-10.5,6.05-16.41-.09-3.54-4.52-3.31-7.04-3.78-8.29-.4-16.99-1.74-23.77-6.88-8.76-7.1-14.03-17.86-15.71-28.89-3.21-15.98-1.09-32.36,1.52-48.26,5.63-26.78,14.67-53.05,28.69-76.64,5.09-7.8,10.21-16.13,18.1-21.39,3.51-2.66,8-.46,10.46,2.52,6.98,8.21,9.68,19,11.72,29.34,3.73,21.58.8,43.64.51,65.31,5.22,11.06,10.49,22.12,15.66,33.2,1.13-4.26,3.4-8.54,7.61-10.42,2.13-1,4.63-1.53,6.03-3.61,16.14-19.44,36.49-35.63,59.99-45.23-3.25-.53-6.67.08-9.87-.67-6.29-1.49,4.27-7.17,6.02-7.88-.21-1.85-.67-4.09,1.08-5.38,4.44-3.61,10.54-2.55,15.79-1.9-.56-1.65-1.56-3.43-1.82-5.21-.83-5.57,4.24-1.67,6.41-.46,6.1,4.04,11.89,8.54,17.59,13.13,14.09-1.02,28.47-1.67,42.28,1.87,2.2.75,4.23-.7,6.27-1.3,7.88-2.55,16.79-.53,23.04,4.83,5.02,3.53,7.12,10,12.69,12.85,13.38,8.15,23.03,20.85,30.85,34.16,1-25.84-2.58-52.54,6.03-77.47-.42-5.21-3.36-9.99-4.69-15.07-7.28-23.73-15.73-48.05-13.69-73.25Z"/>
      </g>
      <g>
        <path class="cls-7" d="m143.72,31.25c.4-.54.75-1.11,1.07-1.7.32-.59.62-1.2.91-1.84.19-.37.36-.72.5-1.04.14-.32.3-.66.47-1.04.21.54.45,1.12.73,1.74.28.62.6,1.24.94,1.87.35.62.72,1.24,1.13,1.84.4.6.85,1.15,1.35,1.63.82.83,1.64,1.39,2.47,1.7.83.3,1.62.37,2.38.21s1.47-.54,2.11-1.12c.64-.58,1.2-1.35,1.68-2.32.41-.99.67-1.99.78-3.01.11-1.02.16-2.01.14-2.97.03-2.49,0-4.83-.11-7.03-.1-2.2-.16-4.36-.16-6.5-.02-.18-.02-.36-.02-.55,0-.19,0-.38-.01-.58-.05-.67-.3-1.17-.75-1.49-.45-.33-.95-.5-1.47-.51-.53-.02-1.02.14-1.47.45-.45.32-.7.79-.74,1.41.05,2.52.11,4.99.17,7.42.06,2.43.08,4.85.07,7.28,0,1.45-.12,2.57-.36,3.36-.24.79-.56,1.22-.97,1.29-.41.07-.89-.23-1.44-.88-.55-.65-1.12-1.7-1.72-3.14-.6-1.44-1.04-2.79-1.32-4.05-.28-1.25-.54-2.5-.77-3.73-.07-.62-.33-1.08-.77-1.38-.45-.29-.94-.43-1.47-.41-.53.02-1.03.17-1.48.45-.45.29-.73.68-.84,1.19-.4,1.32-.83,2.63-1.31,3.93-.47,1.3-1.01,2.57-1.61,3.82-.67,1.51-1.24,2.56-1.72,3.13-.47.57-.86.82-1.16.75-.3-.08-.53-.41-.69-.99-.16-.58-.27-1.29-.33-2.13-.06-.84-.08-1.72-.07-2.66.02-.93.05-1.78.1-2.53.14-1.93.27-3.75.37-5.45.11-1.7.25-3.38.42-5.04.06-.6-.13-1.07-.57-1.42-.44-.35-.94-.54-1.51-.58-.56-.04-1.1.09-1.6.38-.51.3-.78.79-.83,1.48-.13,1.42-.25,2.84-.35,4.24-.1,1.41-.2,2.85-.29,4.31-.17,1.86-.28,3.67-.32,5.43-.04,1.76.14,3.47.56,5.12.33,1.39.89,2.47,1.65,3.22.77.76,1.63,1.2,2.58,1.33.95.13,1.93-.04,2.92-.52,1-.48,1.9-1.27,2.72-2.38Z"/>
        <path class="cls-7" d="m164.16,31.24c.87,1.04,1.93,1.8,3.18,2.29.79.31,1.64.5,2.55.56.91.06,1.81,0,2.71-.16.9-.17,1.75-.45,2.56-.84.81-.39,1.51-.88,2.08-1.49.34-.32.55-.71.62-1.17.07-.45.03-.88-.11-1.29-.14-.41-.38-.75-.72-1.02-.34-.28-.75-.41-1.24-.41-.31.01-.6.08-.86.19-.26.11-.5.25-.73.39-.23.15-.45.31-.68.48-.23.17-.47.31-.71.41-.72.24-1.43.37-2.11.38-.69.01-1.31-.11-1.87-.36-.56-.25-1.04-.63-1.43-1.15-.4-.51-.66-1.17-.79-1.98.92.34,1.94.49,3.04.45,1.1-.04,2.13-.27,3.08-.67.95-.4,1.73-1,2.34-1.78.61-.78.89-1.75.84-2.91-.06-.8-.25-1.55-.56-2.25-.31-.7-.72-1.31-1.23-1.82-.51-.52-1.09-.92-1.76-1.22-.67-.3-1.39-.46-2.17-.49-1.33-.04-2.54.24-3.63.85-1.09.61-1.99,1.41-2.71,2.38-.91,1.44-1.47,2.94-1.68,4.5-.21,1.56-.14,3.06.19,4.5.33,1.37.94,2.57,1.8,3.61Zm4.28-10.85c.42-.33.87-.51,1.34-.54.4,0,.74.1,1.02.32.28.22.45.47.51.75.06.28-.01.54-.21.78-.2.24-.56.37-1.1.4-.47.05-.93.02-1.38-.09-.45-.11-.91-.26-1.37-.43.37-.46.77-.85,1.19-1.18Z"/>
        <path class="cls-7" d="m189.79,32.77c.01.29.05.58.11.87.1.49.27.91.53,1.25.26.34.55.62.89.83.34.21.71.37,1.12.47.41.1.81.15,1.21.14.93-.02,1.84-.05,2.71-.1.87-.05,1.73-.08,2.57-.1.76-.02,1.32-.27,1.69-.75.37-.48.55-1,.55-1.55,0-.56-.18-1.06-.54-1.52-.35-.46-.88-.67-1.57-.65-.8.02-1.58.05-2.34.09-.76.04-1.52.07-2.27.1h-.27c.05-2.86.07-5.64.06-8.35,0-2.71.13-5.44.39-8.16.07-.84.14-1.68.21-2.5.07-.82.16-1.65.28-2.49.07-.69-.12-1.22-.57-1.6-.44-.38-.94-.59-1.5-.61-.56-.03-1.08.12-1.58.45-.5.33-.77.87-.82,1.63-.41,3.84-.7,7.53-.87,11.07-.17,3.54-.19,7.08-.05,10.6.01.31.03.61.04.9Z"/>
        <path class="cls-7" d="m216.11,29.67c.63-1.18,1.06-2.43,1.29-3.75.23-1.32.24-2.61.04-3.89-.21-1.28-.66-2.38-1.36-3.31-.68-.91-1.45-1.6-2.29-2.06s-1.71-.71-2.6-.75c-.89-.04-1.77.13-2.65.5-.88.37-1.7.95-2.46,1.72-.87.82-1.59,1.79-2.15,2.92-.56,1.13-.94,2.3-1.13,3.5-.19,1.21-.18,2.4.04,3.57.22,1.18.68,2.23,1.39,3.16.57.82,1.25,1.45,2.03,1.9.78.45,1.6.72,2.46.83.87.11,1.73.03,2.61-.22.88-.25,1.69-.66,2.44-1.24.94-.75,1.72-1.71,2.34-2.9Zm-3.13-4.36c-.12.56-.29,1.11-.52,1.64-.23.53-.49,1-.8,1.41-.19.26-.42.49-.69.7-.27.2-.56.35-.86.44-.3.09-.61.12-.92.09-.31-.03-.6-.15-.86-.36-.33-.26-.57-.56-.74-.91-.17-.35-.28-.72-.33-1.1-.09-.54-.11-1.11-.05-1.72.06-.61.19-1.2.39-1.76.2-.56.46-1.08.78-1.56.33-.48.71-.88,1.14-1.2.57-.4,1.17-.56,1.82-.46.64.1,1.14.59,1.49,1.47.18.52.28,1.06.3,1.63.02.57-.04,1.13-.15,1.7Z"/>
        <path class="cls-7" d="m221.22,30.96c.28.99.61,1.9,1,2.73.39.84.86,1.47,1.43,1.91.48.35.98.53,1.52.55.51.04,1-.05,1.48-.27.47-.22.88-.52,1.23-.91.83-.95,1.61-2.11,2.35-3.48.73-1.37,1.41-2.8,2.02-4.29.62-1.49,1.15-2.98,1.61-4.46.46-1.48.84-2.8,1.14-3.97.15-.44.17-.85.07-1.22s-.28-.68-.55-.94c-.27-.25-.59-.44-.97-.55-.37-.11-.75-.15-1.11-.1-.37.04-.71.19-1.03.43-.32.25-.55.6-.7,1.06-.65,2.21-1.37,4.4-2.16,6.59-.79,2.19-1.72,4.25-2.78,6.17-.6-2.04-1.07-4.1-1.41-6.17-.34-2.07-.51-4.16-.54-6.28.02-.73-.22-1.26-.72-1.59-.5-.33-1.05-.47-1.66-.44-.6.04-1.14.25-1.62.65-.48.4-.7.94-.65,1.63.12,2.43.36,4.7.7,6.8.35,2.1.8,4.14,1.36,6.12Z"/>
        <path class="cls-7" d="m246.92,36.28c.9-.17,1.75-.45,2.56-.84.81-.39,1.51-.88,2.08-1.49.34-.32.55-.71.62-1.17.07-.45.03-.88-.11-1.29-.14-.41-.38-.75-.72-1.02-.34-.28-.75-.41-1.24-.41-.31.01-.6.08-.86.19-.26.11-.5.25-.73.39-.23.15-.46.31-.68.48-.23.17-.47.31-.71.41-.72.24-1.42.37-2.12.38-.69.01-1.31-.11-1.87-.36-.56-.25-1.04-.63-1.43-1.15-.4-.51-.66-1.17-.79-1.98.92.34,1.94.49,3.04.45,1.1-.04,2.13-.27,3.08-.67.95-.4,1.73-1,2.34-1.78.61-.78.9-1.75.84-2.91-.06-.8-.25-1.55-.56-2.25-.31-.7-.72-1.31-1.23-1.82-.51-.52-1.09-.92-1.76-1.22-.67-.3-1.39-.46-2.17-.49-1.33-.04-2.54.24-3.63.85-1.09.61-1.99,1.41-2.71,2.38-.91,1.44-1.47,2.94-1.68,4.5-.21,1.56-.14,3.06.19,4.5.34,1.37.94,2.57,1.81,3.61.87,1.04,1.93,1.8,3.18,2.29.79.31,1.64.5,2.55.56.91.06,1.81,0,2.71-.16Zm-4.16-13.53c.42-.33.87-.51,1.33-.54.4,0,.74.1,1.03.32.28.22.45.47.51.75.06.28-.01.54-.21.78-.2.24-.56.37-1.1.4-.47.05-.93.02-1.38-.09-.45-.11-.91-.26-1.37-.43.37-.46.77-.85,1.19-1.18Z"/>
        <path class="cls-7" d="m134.08,48.74c-1.71-1.31-3.58-2.26-5.61-2.84-2.03-.58-4.1-.77-6.21-.57-2.11.2-4.08.86-5.91,1.97-1.69,1.02-3.08,2.29-4.17,3.81-1.09,1.51-1.87,3.14-2.34,4.87-.47,1.74-.61,3.52-.43,5.34.18,1.83.67,3.54,1.47,5.14.67,1.29,1.47,2.4,2.4,3.34.93.93,1.94,1.79,3,2.57,1.07.78,2.18,1.49,3.34,2.14,1.16.65,2.29,1.32,3.4,2.04.71.49,1.45,1.01,2.2,1.57.76.56,1.45,1.18,2.07,1.87.62.69,1.15,1.44,1.57,2.24.42.8.68,1.65.77,2.54.13,1.16-.03,2.11-.5,2.87-.47.76-1.1,1.36-1.9,1.8-.8.45-1.69.73-2.67.87-.98.13-1.94.11-2.87-.07-2.98-.58-5.12-2.14-6.41-4.67-.36-.89-.66-1.66-.9-2.3-.24-.64-.77-1.19-1.57-1.64-.89-.49-1.77-.67-2.64-.53-.87.13-1.63.47-2.27,1-.65.53-1.14,1.21-1.47,2.04-.33.82-.39,1.7-.17,2.64.4,1.74,1.07,3.33,2,4.77.93,1.45,2.05,2.72,3.34,3.81,1.29,1.09,2.7,1.98,4.24,2.67,1.54.69,3.1,1.15,4.71,1.37,2.27.31,4.47.21,6.61-.3,2.14-.51,4.05-1.35,5.74-2.5,1.87-1.29,3.25-2.83,4.14-4.61.89-1.78,1.39-3.65,1.5-5.61.11-1.96-.16-3.91-.8-5.84-.65-1.94-1.59-3.68-2.84-5.24-1.25-1.56-2.66-2.97-4.24-4.24-1.58-1.27-3.17-2.41-4.77-3.44-.89-.49-1.79-.99-2.7-1.5-.91-.51-1.77-1.08-2.57-1.7-1.29-.93-2.04-2.02-2.24-3.27-.2-1.25-.03-2.39.5-3.44.53-1.05,1.34-1.9,2.4-2.57,1.07-.67,2.27-.91,3.61-.73,1.56.18,2.79.77,3.71,1.77.91,1,1.68,2.06,2.3,3.17.36.62.79,1.11,1.3,1.47.51.36,1.08.6,1.7.73.8.13,1.52.09,2.17-.13.64-.22,1.19-.58,1.64-1.07.44-.49.79-1.06,1.03-1.7.24-.64.34-1.3.3-1.97-.04-.93-.33-1.91-.87-2.94-1.02-2-2.39-3.66-4.11-4.97Z"/>
        <path class="cls-7" d="m162.88,70.07c-.49,0-1,.01-1.52.03-.52.02-1.05.03-1.57.03.35-3.56.66-6.99.95-10.28.28-3.29.64-6.57,1.07-9.81.09-1.47-.32-2.56-1.24-3.27-.91-.71-1.94-1.07-3.07-1.07s-2.19.37-3.17,1.1c-.98.73-1.49,1.81-1.54,3.24-.31,3.34-.67,6.69-1.07,10.05-.4,3.36-.69,6.67-.87,9.91-.76-.04-1.49-.09-2.2-.13-.71-.04-1.45-.09-2.2-.13-1.42.18-2.49.75-3.2,1.7-.71.96-1.06,1.97-1.03,3.04.02,1.07.39,2.04,1.1,2.9.71.87,1.76,1.3,3.14,1.3.62.09,1.24.15,1.84.17.6.02,1.21.06,1.84.1-.22,3.56-.37,6.69-.43,9.38-.07,2.69.3,5.22,1.11,7.58.45,1.38,1.22,2.28,2.32,2.7,1.1.42,2.19.48,3.26.17,1.08-.31,1.96-.93,2.65-1.87.69-.93.84-2.07.44-3.41-.13-.44-.23-.88-.3-1.3-.07-.42-.14-.83-.23-1.24-.27-2.05-.32-4.05-.17-6.01.16-1.96.28-3.92.37-5.88.61,0,1.23-.01,1.86-.03.63-.02,1.26-.03,1.88-.03,1.51-.18,2.63-.76,3.34-1.74.71-.98,1.05-2.01,1-3.1-.04-1.09-.43-2.07-1.17-2.94-.73-.87-1.79-1.26-3.17-1.17Z"/>
        <path class="cls-7" d="m177.47,65.33c-1.14-.13-2.24.08-3.31.63-1.07.56-1.69,1.48-1.87,2.77-.76,4.36-1.22,8.42-1.4,12.18-.18,3.76-.11,7.51.2,11.25.13,1.07.46,1.93.97,2.57.51.65,1.11,1.11,1.8,1.4.69.29,1.42.41,2.2.37.78-.04,1.48-.25,2.1-.6.62-.36,1.11-.86,1.47-1.5.36-.64.49-1.39.4-2.24-.36-3.65-.43-7.35-.23-11.12.2-3.76.61-7.35,1.24-10.78.31-1.51.08-2.68-.7-3.5-.78-.82-1.74-1.3-2.87-1.44Z"/>
        <path class="cls-7" d="m205.48,70.07c-.49,0-1,.01-1.52.03-.52.02-1.05.03-1.57.03.35-3.56.66-6.99.95-10.28.28-3.29.64-6.57,1.07-9.81.09-1.47-.32-2.56-1.23-3.27-.91-.71-1.94-1.07-3.07-1.07s-2.19.37-3.17,1.1c-.98.73-1.49,1.81-1.54,3.24-.31,3.34-.67,6.69-1.07,10.05-.4,3.36-.69,6.67-.87,9.91-.76-.04-1.49-.09-2.2-.13-.71-.04-1.45-.09-2.2-.13-1.42.18-2.49.75-3.2,1.7-.71.96-1.06,1.97-1.03,3.04.02,1.07.39,2.04,1.1,2.9.71.87,1.76,1.3,3.14,1.3.62.09,1.24.15,1.84.17.6.02,1.21.06,1.84.1-.22,3.56-.37,6.69-.43,9.38-.07,2.69.3,5.22,1.11,7.58.45,1.38,1.22,2.28,2.32,2.7,1.1.42,2.19.48,3.26.17,1.08-.31,1.96-.93,2.65-1.87.69-.93.84-2.07.44-3.41-.13-.44-.23-.88-.3-1.3-.07-.42-.14-.83-.23-1.24-.27-2.05-.32-4.05-.17-6.01.16-1.96.28-3.92.37-5.88.61,0,1.23-.01,1.86-.03.63-.02,1.26-.03,1.88-.03,1.51-.18,2.63-.76,3.34-1.74.71-.98,1.05-2.01,1-3.1-.04-1.09-.43-2.07-1.17-2.94-.74-.87-1.79-1.26-3.17-1.17Z"/>
        <path class="cls-7" d="m241.87,63.86c-.05-.13-.11-.29-.2-.47-.76-1.29-2.05-2.49-3.87-3.61-1.83-1.11-3.76-1.91-5.81-2.4-2.09-.53-4.07-.59-5.94-.17-1.87.42-3.55,1.17-5.04,2.24-1.49,1.07-2.78,2.38-3.87,3.94-1.09,1.56-1.93,3.23-2.5,5.01-.58,1.65-.96,3.46-1.13,5.44-.18,1.98-.15,4,.1,6.04.24,2.05.7,4.03,1.37,5.94.67,1.91,1.56,3.64,2.67,5.17,1.11,1.54,2.46,2.78,4.04,3.74,1.58.96,3.37,1.48,5.37,1.57,2.54.18,4.98-.36,7.34-1.6,2.36-1.25,4.38-2.89,6.08-4.94.84-.93,1.27-1.98,1.27-3.14,0-.98-.28-1.84-.83-2.57-.56-.73-1.24-1.27-2.04-1.6-.8-.33-1.65-.43-2.54-.3-.89.13-1.65.58-2.27,1.34-1.02,1.11-2.01,2.01-2.97,2.7-.96.69-1.88,1.08-2.77,1.17-1.02.09-1.94-.27-2.74-1.07-.8-.8-1.45-1.71-1.94-2.74-.98-2-1.48-4.15-1.5-6.44-.02-2.29.37-4.44,1.17-6.44.62-1.78,1.4-2.99,2.34-3.64.93-.64,1.96-.91,3.07-.8,1.11.11,2.25.49,3.4,1.13,1.16.65,2.27,1.37,3.34,2.17.8.53,1.66.76,2.57.67.91-.09,1.71-.4,2.4-.93.69-.53,1.21-1.24,1.57-2.1.36-.87.38-1.81.07-2.84-.09-.18-.16-.33-.2-.47Z"/>
        <path class="cls-7" d="m279.25,79.48c-.09-1.78-.26-3.52-.5-5.21-.25-1.69-.63-3.27-1.17-4.74-.71-1.87-1.66-3.38-2.84-4.54-1.18-1.16-2.48-1.99-3.91-2.5-1.42-.51-2.94-.71-4.54-.6-1.6.11-3.14.48-4.61,1.1-1.47.62-2.85,1.5-4.14,2.64-1.29,1.14-2.34,2.46-3.14,3.97-.09-4.14-.02-8.15.2-12.02.13-3.43.4-6.81.8-10.15,0-1.42-.46-2.5-1.37-3.24-.91-.73-1.91-1.11-3-1.13-1.09-.02-2.11.33-3.07,1.07-.96.73-1.48,1.84-1.57,3.3-.8,7.83-1.09,15.56-.87,23.17.22,7.61.78,15.2,1.67,22.77,0,.62.12,1.21.37,1.77.24.56.57,1.04.97,1.47.4.42.87.75,1.4.97.53.22,1.11.31,1.74.27,1.29-.09,2.36-.56,3.21-1.4.84-.85,1.27-1.87,1.27-3.07-.18-2.58.06-5.32.7-8.21.64-2.89,1.68-5.54,3.1-7.95.76-1.29,1.59-2.41,2.5-3.37.91-.96,1.81-1.64,2.7-2.04.89-.4,1.71-.46,2.47-.17.76.29,1.36,1.03,1.8,2.24.44,1.2.76,2.6.93,4.21.18,1.6.26,3.25.23,4.94-.02,1.69-.11,3.34-.27,4.94-.16,1.6-.37,3-.63,4.21-.31,1.6-.06,2.87.77,3.81.82.93,1.81,1.46,2.97,1.57,1.16.11,2.28-.22,3.37-1,1.09-.78,1.72-2.08,1.9-3.91.31-2.14.52-4.29.63-6.48.11-2.18.08-4.41-.1-6.68Z"/>
        <path class="cls-7" d="m187.68,44.36c-2.16-3.9-7.2-2.68-10.18-.54-2.84-2.44-8.03-3.58-10.22.26-2.25,5.36,1.52,10.89,5.19,14.58,1.89,1.67,4.36,4.47,7.1,2.98,6.1-3,10.75-10.52,8.11-17.28Z"/>
      </g>
    </g>
  </g>
</svg>