<?xml version="1.0" encoding="UTF-8"?>
<svg id="Layer_2" data-name="Layer 2" xmlns="http://www.w3.org/2000/svg" viewBox="0 0 616.289 575.8886">
  <defs>
    <style>
      .cls-1 {
        fill: #0c0e1c;
      }

      .cls-2 {
        fill: #ee96c5;
        stroke: #ee96c5;
      }

      .cls-2, .cls-3, .cls-4, .cls-5, .cls-6, .cls-7 {
        stroke-width: .0938px;
      }

      .cls-3 {
        fill: #fff;
        stroke: #fff;
      }

      .cls-4 {
        fill: #2f74ae;
        stroke: #2f74ae;
      }

      .cls-5 {
        fill: #e32a25;
        stroke: #e32a25;
      }

      .cls-6 {
        fill: #2f305e;
        stroke: #2f305e;
      }

      .cls-7 {
        fill: #27a3da;
        stroke: #27a3da;
      }
    </style>
  </defs>
  <g id="katman_1" data-name="katman 1">
    <g>
      <path class="cls-1" d="m614.796,281.5337c-1.3-5.2-3.5-10.2-6.5-14.7-15.1-22-46.4-26.3-72.4-20.8s-49.9,18.9-75.7,25.1c-5.1-6.4,4.2-14.2,11.6-17.7,17.4-8.4,32.7-21.1,44-36.8,1.3-1.7,2.6-3.9,2-6.1s-2.8-3.5-4.7-4.8c-9.9-7.4-9.4-23.4-2.3-33.6,7.1-10.2,18.9-16,30.1-21.2,4.5-43.2-9.9-87.9-38.5-120.5-12.4-14-27.9-26.2-46.2-29.8-5.5-1.2-12.1-1-15.4,3.3-2,2.6-2.3,6.1-2.6,9.3-3.6,57.3,15,119.1-11.9,169.6-6.3-4.1-11.5-9.4-15.6-15.7,13.2-4.7,19.2-20.9,16.4-34.7-2.8-13.8-11.9-25.1-21.2-35.5-11.8-13.1-25-26-41.9-30.5-7.3-1.9-15-2.3-21.9-5.2-7.7-3.2-13.8-9.3-20.4-14.4-40.3-30.8-100.5-22.8-142.1,6.1s-68.3,74.8-90.8,120.1c-11-16-22.1-32-33.3-48.1-4.5-6.5-9.2-13.2-15.8-17.4-6.7-4.2-16-5.2-22.2-.4-4.1,3.2-6.3,8.3-8,13.2-5.2,15.3-7.8,31.3-7.8,47.2,11.3.1,22.4,7.6,26.6,18.2,4.2,10.6,1.3,23.5-6.8,31.4-3.2,3.1-7.4,5.7-9,9.9s-.1,8.9,1.5,13.1c11,28.9,31.8,54.1,58.4,70.2,5.4,3.2,11,6.3,15.1,11,3.5,4.1,5.5,9.3,7.3,14.5,4.5,14.1,6.5,29.1,5.8,43.9-24.9,6.5-49.7,13.1-74.6,19.6-7,1.9-14.4,3.9-19.8,8.7s-8.3,13.5-4.4,19.6c5.4,8.4,17.9,6.5,27.5,3.8,21.9-6.4,43.9-12.8,66-19.2-.7,8.3-3.5,16.3-7.7,23.4-14.4-9.9-35.9-9-47.8,3.8-9.9,10.5-10.6,28.5-1.9,39.8,2.3,3.1,5.2,4.8,8.4,7,3.6,2.5,7.6,4.1,11.8,5.1,8.4,1.9,17.6.6,25-3.8.1-.1.3-.1.4-.3,11.9-7.4,18.3-22.7,15.3-36.3,3.6.1,7.1.3,10.8.4-1.6,11.6,0,23.8,4.5,34.7-13.4-1-27,6.5-33.1,18.5,6,11.3,19,18.6,31.8,17.7-2.9,12.4-.9,25.7,5.4,36.8,8.1-14.7,29.9-9.3,46.7-8.9,12.2.3,24.4-3.3,34.5-10.2-1,4.8-2,9.4-3.1,14.2,11.6.4,22.2,10,23.8,21.7,13.8-13.5,38.2,6,56-1.9,4.8-2,8.4-6,12.8-8.9,8.1-5.2,18.8-6.5,28.1-3.5-.3-6-.7-11.9-1-17.7,12.2-3.6,24.6-7.1,36.8-10.8,4.5-1.3,9.2-2.6,14-2.2,4.7.4,8.9,2.6,13.2,4.4,26.6,10.6,61.9,2.3,74.6-23.4,19.9,15.8,44.9,32.6,68.6,23.5,19.8-7.4,29.2-29.4,36.5-49.3,5.2-14.1,10.3-28.1,15.6-42.2.6-1.7,1.3-3.5.7-5.2-1-3.1-4.8-3.6-7.8-4.7-9.3-2.8-15.7-12.9-14.2-22.5-7.7,3.1-15.7,6.1-24,6.1-8.3-.1-17-4.2-20.2-11.9-3.6,1-5.1,5.2-7.3,8.4-12.8,18.8-49-4.2-63.4,13.4-11.8-12.4-16.1-29.8-22.2-45.8-6.3-16-16.7-32.4-33.3-36.3,49.6-35.3,107.6-58.9,167.7-67.9,7.4-1.2,15.3-1.9,21.8,1.5,15,7.7,12.4,31.7-.1,43s-30.1,14.5-45.8,20.5c-6.7,2.5-13.7,6-17.3,12.2-3.6,6.3-2,15.8,4.7,18.5,3.2,1.3,6.8.6,10.3,0,26.5-5.1,53.6-13.7,72.5-32.9,14.4-14.9999,22.4-38.4999,17.4-58.7Zm-456.7,140.2c3.9-6.3,9.2-11.6,12.1-18.6,2.2-5.2,3.6-12.4,10-13.8,11.3-2.5,22.4-6.5,33.7-8.6,5.8-.7,10.9-4.2,16.6-5.2,3.3-1,6.3,1.7,5.7,5.1-2.9,3.9-6.5,7.4-8.7,11.9-2.9,4.8-4.1,10.2-6.5,15.1-4.9,2-10.3,2.9-15.6,4.7-10.3,3.9-19.9,10.2-26.3,19.2-1.9-.1-3.8-.4-5.7-.6-1,2.9-1.6,6-1.9,9-4.9,4.4-7.6,11.3-13.8,14.1-4.4,1.2-8.7.7-13.1.9-2.5-2.5-4.8-5.4-7.8-7.3-3.3-.7-7-.3-10.3-.6,2.5-6,10-6.3,14.7-10.2,5.6-5,13.1-8.1,16.9-15.1Zm314.9,2.5c6.7,2,13.8,4.4,18.5,9.9h-9.7c-1.7-1.6-4.8-6.3-7-2.9-3.8,4.8-4.7,11.2-6.7,16.9-2.2,7-3.9,15.3.7,21.7,1.3,2.5,4.4,4.7,3.8,7.7-6.5.7-12.9-1.2-19.5-.1-.9-8-1.3-16.3-4.1-24-2.8-7.1-5.4-14.2-8.9-20.9,3.6-2.8,7.6-5.5,11.8-7.3,6.8-.3,13.9-.6,21.1-1Z"/>
      <path id="_ffffffff" data-name="#ffffffff" class="cls-3" d="m285.1959,78.0337c23.7-7.4,48.7-11.2,73.6-9.9,16.9,3.8,29.9,16.4,40.8,29.1,6.8,8.3,13.2,16.9,18.8,26.2,5.5,8.9,5.7,20.9.1,29.8-2.6,5.1-6.5,9.3-10.5,13.5-10.3-7.8-21.8-14-33.6-19.5-6.3-3.1-13.4-4.5-19.5-7.8,14.7-2.8,29.7-1.9,44.5-2.3-6.3-3.6-13.8-3.5-20.8-4.7-8.7-.7-17.7-1.2-26.3.9-5.5,1.2-10.8,3.8-16.4,2.6,2.8-4.2,8-5.4,12.4-7.4-6.4-2.8-13.1-5.7-20.2-5.5-10.2-.3-19.8,4.7-27.2,11.3.1-10.3-.1-20.9,2.8-31-8.1,4.2-15.4,10-21.4,17-2.6,2.9-4.1,6.7-6.7,9.6-7.8-5.4-16.4-10.5-26.2-11-6.8-.7-13.5,2-18.6,6.5,11.5.1,22.8,5.8,29.2,15.3,2.8,3.6,2.6,8.6,1.6,12.8-4.1,3.1-9.3,4.2-13.7,6.5-29.8,14.8-57,35.8-77.3,62.2-8.3,10.5-15.4,21.8-19.9,34.5-1.9-1.9-3.6-3.8-5.5-5.5-14.2-12.5-26.7-27.3-36-43.9-.7-1.5-.6-2.8.3-4.1,28.2-41.9,68.3-74.4,112.5-98.1,20.1-10.9,41.4-19.7,63.2-27.1Zm93,120.5c7.3-2.5,16.4,8.3,9.3,13.8-7.7,5.8-18.3-9.5-9.3-13.8Zm164.1,52.3c12.5-3.1,26.5-3.3,38.4,2.2,4.2,1.7,8.3,3.9,12.4,6-9.7,2.6-19.6,6-27.9,11.9-3.3,2.9-8,1.6-11.9,1.9-10.8.6-21.7,2.3-32,5.8,3.4-11.4,11.6-21,21-27.8Zm-334.9,3.8c1-2.8,4.4-2.6,6.8-2.5,3.6.1,6.1,3.5,8.1,6.1.7,2.6.1,5.5-.1,8.1-4.1.4-9.3,2.2-12.5-1.5-2.6-2.4-4.8-6.9-2.3-10.2Zm242.5,25.8c10.6-4.4,21.5-7.8,32.4-11.5-4.8,8.9-10.3,17.3-14.4,26.6-11.3,3.8-22.5,8.1-34,11.2,5.8-8.4,10.7-17.5,16-26.3Zm138.8,15.7c8-.4,16-1,24-.7.7,12.8-3.8,25.6-12.1,35.3l-.9.3c-7.7-2.2-15.3-4.8-23.3-5.1,6.5-8.7,12.9-18.4,12.3-29.8Zm-213.3,20c2.6-.9,5.2-1.5,8-1.7-1.9,3.6-4.7,6.7-8.3,8.6.2-2.4.3-4.8.3-6.9Zm-19.4-.2c4.5-.3,9.2,0,13.7-.1-.6,4.2.4,8.4,3.2,11.6-11.3,2.5-22.1,7.3-33.4,9.7,3.2-4.5,7.7-8,10.6-12.8,1.9-2.6,3.2-6.1,5.9-8.4Zm-53.7,12.1c4.7-1.5,9.4-3.1,14.1-4.7-3.8,8.4-11.3,14.7-17.6,21.2-4.1,3.8-8.1,8.3-14,9.6-8.9,2.2-17.7,5.1-26.6,7.8,1.6-2.2,3.2-4.5,4.8-6.7,5.1-.3,10.3,1.6,15.1.1,4.1-4.1.4-9.6-1.5-13.8,8.7-4.7,16.4-10.6,25.7-13.5Zm-180.5,5.1c12.8,2.6,25.6,5.8,38.7,6.1,2.5,2.8,4.9,5.5,7,8.6-10.8,1.6-22.2,3.6-32.7-.7-6.2-2.7-9.5-8.7-13-14Zm142.9,15.7c2.3-2.5,5.2-3.9,8.7-4.1.3,2,.4,4.1.7,6-3.2-.5-6.4-1.1-9.4-1.9Zm253.3,2.9c6.3-2.8,13.2-6.7,20.4-4.1,9.2,2.6,19.2,4.1,27.2,9.6-8.3,3.2-16.4,6.8-24.9,9.4-4.4,1-9.3,2-13.2-.7-4.7-2.9-9.9-4.8-14.7-7.6-1.3-3,2.8-5.2,5.2-6.6Zm-322.1,6.5c7.7-1.7,15.4-5.5,23.5-3.9.6,1.3.4,2.5-.4,3.5-3.3,5.2-7.7,9.7-11.9,14.2-2.8,2.8-5.5,5.8-9.4,6.8-9,2.3-17.9,5.2-26.7,7.6,7.1-7.1,14-14.8,17.9-24.3.9-3,4.5-2.9,7-3.9Zm-82.7,22.1c11.2-2.6,22.2-6,33.4-8.9-5.8,9.3-14.2,16.6-22.2,23.8-4.1,3.2-8.1,7-13.4,8.4-9.2,2.6-18.3,5.4-27.6,7.3,11.6-8.2,22-18.5,29.8-30.6Zm-80.8,23c11.3-2.9,22.4-7,33.7-9.6-8.4,11.3-18.5,21.8-30.7,29.1-6.5,5.4-15.1,6.4-23,8.1-1.9-.6-3.6-1.7-5.4-2.6,0-1.5-.1-3.1-.3-4.5,8-2.6,14.2-8.3,20.8-13.4,2.4-1.8,3.7-4.4,4.9-7.1Zm25.7,30.9c14-3.5,28.5,5.4,33.6,18.5.9,7.3,1.5,15.4-2.9,21.8-4.9,7.6-13.1,13.8-22.4,13.4-9.9.9-19.8-3.8-25.6-11.6-4.2-6.1-5.4-14.2-3.5-21.4,2.5-10.1,10.9-18.1,20.8-20.7Z"/>
      <path id="_2f74aeff" data-name="#2f74aeff" class="cls-4" d="m440.596,6.9337c.3-1.5.9-2,1.6-3.3.3,13.2,7.1,23.1,14.2,33.9,8.6,14.7,14.2,30.8,20.1,46.8,3.8,13.4,7.6,26.9,7,40.8-.3,10.5.9,21.2-1.9,31.5-5.1,21.7-17,40.8-29.4,58.9-3.8-6.5-7.6-13.1-12.4-18.9-2.3-3.1-5.1-5.8-6.5-9.3-.1-4.5,2.6-8.3,4.1-12.5,7.6-20.5,12.5-42.2,11.6-64.1.1-8.9.1-17.9-.9-26.6-1.7-13.8-1.9-27.8-3.8-41.6-1.6001-12.5-1.3001-23.4-3.7001-35.6ZM34.096,109.1337c9.2,4.5,15.8,12.5,21.5,20.8,8.7,11.3,14,24.9,22.2,36.5,7.3,13.4,14.8,26.6,21.8,40.1,10.9,20.9,25.6,40.3,44.9,53.9,2.2,2,6,3.6,5.7,7.1-.1,4.1-1.3,8-2,12.1-1.5,7.8-.9,15.8-.4,23.7-11.2-6.7-24.4-9-35.3-16.6-16-8.6-29.5-21.9-36.8-38.8-8.1-18.6-10.8-39-12.1-59-1.5-8.9-4.2-17.6-5.2-26.6-3.9-18.3-9.4-37.5-23.4-50.7-.4-.7-.7-1.8-.9-2.5Zm255.7,10.1c2.5-1.2,4.9-2,7.3-3.2-.6,6.4,1.2,12.6,1.3,18.9-1.2,4.2-3.2,8.3-3.1,12.8,4.8-2.5,6.1-8.4,10.6-11.2,7.4-7,17.7-9.4,27.6-8.6-6.7,5.2-14,10.5-18.2,18.2-3.5,6.7-2.8,14.4-2.3,21.7,3.3-.4,3.1-3.9,3.6-6.4,1.3-7.7,6-14.1,10.2-20.4,9.4-.9,18.3,2.8,27.2,5.2,14.7,4.9,28.6,12.1,41.9,20.1-10,.3-20.5-1.9-29.9,2.6-5.4,2.6-10.3,6.1-14.4,10.5-14.1,17.4-19,41.1-14.4,62.9-4.1-1.9-8.1-3.8-12.6-4.4-17-1.6-34.6,1.9-49.6,10-6.3,3.3-11.6,8.4-15.3,14.5-5.2-7.8-9.7-16.3-16.6-22.8-8.9-8.9-20.1-15.4-31.8-19.2-10.3-3.1-20.8-1-31,1.3,14.1-17.6,31.5-32,50-44.5,7.3-4.5,14.8-8.3,21.9-12.9,4.4-2.9,10.3-4.2,13.2-8.9,2.5-6.1,2.3-13.8-2-19-4.9-6.1-11.9-11-19.8-12.5l-.1-1c11-.4,21.1,4.8,29.9,10.8-1,5.2-3.1,13.8,3.1,16.4-.3-11.4,6.8-21.7,13.3-30.9m3.9,92c-6.7,1.5-14.1,3.8-17.4,10.3,4.1-.9,8-2.3,11.9-3.8,5.2-2.2,11-2.6,16.1-5.2-3.4-1.1-7.1-2.1-10.6-1.3m-23.4,30.6c14.4-8.4,31.3-15.6,48.3-11.8-.3-.7-.7-2.2-1-2.9-4.9-3.3-11.5-2-17.3-2.3-11.9,0-25.2,5.3-30,17Zm147.6-57c17.4,14.4,30.5,34.6,34.3,57,1.5,9.9,3.8,19.6,3.2,29.7-2.8,1-5.4,2-8.1,2.9-3.6-6-6.3-13.4-13.4-16.1-.1,5.8,0,11.8-2.2,17.2-2,6-6.8,10.5-11.5,14.7-10.2,8.9-22.8,14.2-35.6,18-12.4,2.9-25.1,2.9-37.8,2.6-7.4-.3-14.5,2-21.7,3.1-7.6,1.2-15.1,2.8-22.2,5.4-6,2.3-10.8,6.7-16.4,9.7-13.7,7.6-27.2,16.3-42.6,20.1-16.4,3.3-33.6,0-48.4-7.3-4.8-2.6-9.2-5.8-14-8.3.3,6.5,1.9,12.8,5.2,18.3-12.9-4.4-21.8-15.7-27.2-27.8-7.4-18.9-10.2-40.7-2.3-60,.6,17.7,7.7,36.2,21.9,47.5,13.7,11.3,32.6,14.4,49.9,12.4,16-2.3,28.8-14.2,36.2-27.9,12.1,11.3,28.8,18.2,45.5,16.9,6-.4,12.4-1,17-5.2,6.1-5.4,13.5-10.2,17.3-17.7,3.5-6.5,5.5-13.8,6.7-21.1,11,5.1,23.3,9.4,35.5,6.8,20.2-4.2,38.7-19.6,42.9-40.3,2.8-17.6-2.2-35.9-12.2-50.6Zm19.3,81c2.8,3.2,5.1,6.8,5.2,11.2-1.7.1-3.5.4-5.2.7-.1-4.1-.3-8,0-11.9Zm-66.4,85.3c7-3.2,15.1-.6,20.9,3.8,6.5,5.1,11.8,11.9,15.4,19.3,4.1,8.7,8.6,17.3,11.3,26.6.9,2.6,0,5.2-.7,7.8,4.7,9.9,12.6,18,17.4,27.9,3.5,9.7,8.4,19.2,9.2,29.7-5.5,0-11.5-.1-16.3,3.1-3.5,1.9-5.2,5.7-7.8,8.4-2.9,1.5-5.4-1.2-7.4-2.6-6.5-5.2-15.4-4.5-23.1-3.9-3.3,4.7-7.1,9.2-9.3,14.5-.7,2.2-2.8,4.7-5.4,3.8-5.5-1.9-11.5-4.2-17.4-2-3.8.7-4.8,4.8-7,7.4-3.8-13.8-1-28.8,4.5-41.9,4.4-10.8,13.1-19.6,15.4-31.4.9-3.9-.6-7.8-2.8-10.9-.6,4.9-1.2,10-4.1,14.2-4.4-12.2-8.6-25-7.6-38.1-.3-6.7,2.9-12.6,4.2-18.9.7-3.8-.9-7.4-1-11.2,3-3.4,7.7-3.9,11.6-5.6Zm-127.9,30.5c2.6-2.6,6.4-1.5,9.6-1.2,4.9.7,10,.9,15.1.9,5.4,6,12.2,10.9,15,18.6,4.8,12.8,5.4,27,3.2,40.4-3.6-3.3-7.3-7.1-12.5-7.8,1.6,6.4,7.8,9.6,11.6,14.5,15.8,20.4,23.8,46.5,22.1,72.2-5.8-1.7-10.6-6.4-17-6.5-5.5-.3-10.9.1-16.3.1v3.2c4.4.1,9-.3,13.2,1.6,9.2,4.2,19.6,8.1,24,18.2-6-3.3-15.1-5.1-18.8,2.3,6.8-2.8,16.4-.7,18.5,7.3-1.7.6-3.3,1.5-4.8,2.3-2,3.1-1.5,6.8-1.6,10.3-3.5-.7-7-1.6-10.6-2.5-1.6,2.6-4.1,4.1-7,4.1-1-4.2-1.3-9.9-6.4-11.3.6,3.3,1.6,6.5,1.6,10-.1,4.2-2.5,8-4.4,11.6-.3-1.2-.7-3.3-.9-4.4-2.6-1.7-5.4-3.3-8.1-4.9-4.8,2-10.6,4.1-11.9,9.7-3.6-5.2-6.4-13.7-1.6-18.9.1-1.2.3-3.3.4-4.4-8.1,3.6-6.3,13.7-6.4,20.9-1.7,0-3.5.1-5.2.1.4-3.1.9-6.1,1.6-9.2-2.5,2.6-5.2,5.1-7.6,7.8.1.7.6,2.2.7,2.8-2.6-.1-5.1-.3-7.7-.4,1.2-7.3-5.2-13.7-12.5-11.9,1.5-5.8,6-10.5,11.3-12.9,2.9-1,6.3.3,8.3,2.6,0-1.2,0-3.6-.1-4.9-4.1-1.3-8.6-2.9-12.6-.7-7,3.1-9.6,10.6-12.8,17-3.8-1.5-7.7-3.9-9-8-1-4.8-.1-9.9,2-14.1,2.5-1.3,5.5-.7,8.1-.7.1,4.2-.4,9,3.2,11.9,1-3.9,1.3-8.3,4.5-11.2,5.1-5.1,10.3-9.9,15.7-14.7-8.1-1.2-15.4,3.1-20.8,8.9-4.8-11-9.4-22.4-10.2-34.6-1-10.8,1.7-21.2,4.5-31.5,2-6.5,3.6-13.4,6.3-19.8.1,2.6.3,5.2.4,7.8.9,0,2.3,0,3.2.1,0-10.8-.7-21.7,3.2-32,4.0999-13.7997,7.4999-29.1997,19.4999-38.6997Zm-59.2,53.9c7.8-11.3,20.5-18.6,33.4-22.7-.1,7-.3,14.1-2.5,20.8-3.6,11.2-9.2,21.7-11.5,33.3-6-2.9-1.2-9.7-1.9-14.7-1.2-5.5-4.1-11.6-9.7-13.8-2.4-1.1-5-1.8-7.8-2.9Zm327.1-8.1c2.2-2.3,3.9-4.9,6.3-7.1,4.1,2.9,7.8,7.4,7,12.6.1,4.5-3.3,7.8-6.3,11,7.4,0,13.4-7.7,12.1-14.8,0-2.3-1.5-5.4.7-7,2-2,5.1-1.6,7.6-2,.3,3.5,0,8.4,3.9,10.2,3.2.7,6.5.4,9.9.6-.4,2.8-.4,5.7-1.7,8.1-2.3,2.9-5.5,4.9-8,7.8,7.4,1.6,12.6-4.9,13.8-11.3,3.1-.6,6.1.6,8.7,2.3-1.9,3.5-4.7,7.1-4.2,11.3,2,2.9,5.7,3.8,8.9,5.1-2.8,3.2-6.7,4.9-10,7.3-.6,10.3-1,20.9-5.5,30.5-6.3,14.4-14.4,28.8-27.6,37.8-7.6,4.4-16.7,3.9-25.1,3.9-10,.3-20.2-5.5-24.1-14.7-3.9-6.8-3.5-15.1-2.9-22.7.4-6.3,2.3-12.2,4.8-17.7,1.7-1,5.8-.7,4.8-3.6-3.8-1.9-8.6-3.2-10.3-7.6-1.6-5.1-.7-10.6-.9-15.8,4.2,1.2,9.2,2.6,13.1,0,4.1-1.9,2.8-7.1,3.2-10.8,3.6.7,7.6,1.2,10.5,3.6,3.3,2.8,4.7,7,6.4,10.6.6-2.2,2-4.4,1.6-6.7-1.3-4.7-5.7-7.3-8.1-11-1-4.1-.3-8.4-.3-12.5,3.0999,1.3,7.1999,3.9,11.6999,2.6m15.2,42.3c-6.3,5.8-11.3,13.4-13.8,21.5-1.9,6-1,12.9,3.5,17.6,7.1,2,13.2-3.8,16.6-9.4,4.4-7.3,8.7-16.1,6-24.9-1.7-4.8-7.8-6.5-12.3-4.8Zm-74.3-44.3c7.1-.4,14.1-.7,21.2-1,6.7,2,13.8,4.4,18.5,9.9h-9.7c-1.7-1.6-4.8-6.3-7-2.9-3.8,4.8-4.7,11.2-6.7,16.9-2.2,7-3.9,15.3.7,21.7,1.3,2.5,4.4,4.7,3.8,7.7-6.5.7-12.9-1.2-19.5-.1-.9-8-1.3-16.3-4.1-24-2.8-7.1-5.4-14.2-8.9-20.9,3.6-2.8,7.4-5.6,11.7-7.3Zm-262.8,17.8c2.9,1.5,6.7,3.1,7.4,6.5,1,5.5.7,11.2-.7,16.6,2.5,2.2,6.1,4.7,5.2,8.4-1.6,8.9-1.5,17.7-1.2,26.7.6,9.6,5.7,18,8.9,26.9-6.7,4.1-12.1,10.2-19.5,12.9-5.8,2.2-11.6,4.9-17.9,5.1-10,.1-20.6.9-30.1-3.2-.1-2.5-.3-4.9-.4-7.6-3.2,3.3-5.7,7.6-9.7,9.9-2.3,1.7-4.4-.7-6.3-1.9-2.6-2.2-6-3.1-9-4.2-1.7-2.6-.6-6.3-.9-9.3,1.5-.9,2.9-1.7,4.4-2.8.1-2.6-1.2-4.9-2.6-6.8.4-2,1-4.2,1.6-6.3-4.1,2.8-8.9,4.7-13.8,4.5-4.4,0-8-2.6-11.8-4.5,3.2-5.1,5.5-13.1-1-16.7,4.8-5.7,12.5-7.7,19.6-7.3,4.7,1,8.6,3.8,12.8,5.8-1.3-3.2-2.9-6.4-5.4-8.7,2.8,0,5.5-.1,8.3-.3-7-3.5-15.4-9-13.7-18,7.6-1.6,13.7-9.9,10.3-17.4,5.4-1,11.8-1.2,15.8,3.2,4.8,3.5,6.3,9,8.3,14.2.3-2.6.6-5.2.7-7.8,3.8-1.5,7.7-2.8,11.6-3.2,1.7,7.3,9.2,10.8,16.1,10.5-3.8-2.8-8.7-4.7-10.5-9.3,0-3.8,2.2-7,3.3-10.3,5.2,6.5,13.4,1.6,19.2-1.3.5-1.1002.9-3.2002,1-4.3001m-38.5,51.1c-5.2,7.3-5.5,18.6,1.3,25,6,6.3,16.4,5.8,23.3.9,4.8-2.8,7.3-7.7,10.3-12.1,1-6.3,1-13.7-4.2-18.3-8.4-8.9-23.9-4.7-30.7,4.5Zm275.6-13.8c.6-3.6,4.4-5.2,7.3-6.7.6,2.9-.7,7.1,2.5,9,4.5,1.5,7.8-2.6,11.3-4.7-.6,3.1-1,6.3-2.8,8.9-2.8,3.3-6.4,6-9.4,9.2,3.9-.4,8-.6,11.3-2.9,5.4-3.3,6-11.2,12.1-13.7.3.6,1,1.6,1.3,2.2-3.2,2.8-2.3,6.4-.9,9.9h6c-2.8,3.6-6.7,5.8-10.5,8-1,8.4-6.7,15.3-12.6,20.9-5.8,5.5-12.4,10.8-20.1,13.4-7.1,2.6-14.8,2.3-22.2,2-12.4-.4-24.4-4.7-34.7-11.3-3.5-2-5.1-5.8-6.3-9.4,4.4.6,10.8,1.9,12.8-3.3-2.9-.3-6-.3-8.9-1-2.5-1.3-3.8-3.8-5.4-6,3.1-.1,6.1-.3,9.3-.4,2.3-5.4-1.3-9.7-4.8-13.4,9.2-.1,17.7,9,15,18.3,2.2-.9,4.5-1.7,5.7-4.1.4-3.3-1-6.4-1.6-9.6,3.6,4.2,8.7,5.4,14,4.5-2.9-2.3-6.3-4.4-8.6-7.3-1.6-3.3,0-7,1.6-9.9,1.2,3.5,4.2,5.8,7.7,6.7,3.6-.1,7.4-2.3,9-5.7.7-2.5.3-5.2.1-7.8,3.9,1.3,7.6,4.1,8.7,8.1.7,3.5.6,7,.7,10.6,3.2-2.3,4.1-6.4,5.2-9.9,2.5,3.1,4.9,6.1,8.3,8.1-.4-4-1.4-8.4001-1.1-12.7m-13.4,24.4c-6.7,1.6-13.5,3.2-19.6,6.5-4.5,2.9-10.2,7.1-9,13.4-.3,4.2,4.4,6.1,7.7,7.6,16.1,5.2,35.5-1.3,44.9-15.3,1.5-4.1,1.6-10.3-3.1-12.6-6.8-.8-13.9-.8-20.9.4Zm44.7,3.2c.4-5.8,5.8-8.9,10-12.2-.6,6.8-.1,13.7,1.3,20.2-3.6-2.8-7.1-5.8-11.3-8Z"/>
      <path id="_ee96c5ff" data-name="#ee96c5ff" class="cls-2" d="m446.7959,10.4337c-2.2-3.6.9-9.7,5.4-8.1,15,4.7,28.8,13.1,40.1,23.8,14.2,14.7,25,32.4,33.3,51,9,21.8,12.8,45.6,10.8,69-1,2.2-3.3,3.3-5.2,4.8-11,7-21.9,15-29.2,26-3.5,4.9-3.9,11.6-1.9,17.3,1.9,6.5,6.8,11.5,11,16.6-3.1,6.7-8.7,11.6-13.8,16.9-11.2,10.6-24,19.9-38.2,25.7-.9-6-1-11.9-2.3-17.7-.7-3.9-2.2-7.8-2.2-11.8.9-3.3,3.8-5.8,5.7-8.7,15.7-21.8,28.2-47,30.1-74.1,1.9-18.3-2.2-36.5-6.7-54.2-3.8-12.2-8.6-24.1-13.4-35.9-6.2-14.5-16.8-26.5-23.5-40.6ZM4.796,165.5337c1-20.1,1.5-43.2,16.1-58.7,12.5,5.7,19.5,18.3,24.1,30.7,6.5,18.5,8.7,38.1,12.1,57.4,2.6,21.5,4.5,44,15.6,63.2,6,11,14.8,20.2,24.7,27.6,13.8,10.2,30.2,15.8,46.1,22.1,2.3,1,5.2,1.9,5.8,4.7,2.3,6.7,4.4,13.7,7.1,20.2-25.7-3.3-51.2-9.9-74.6-21.2-14.8-7-27.8-17.4-38.5-29.8-11.4-12.5-18.8-27.7-25.5-43-1-3.2-3.6-7.1-.4-9.9,8-9.9,16-20.5,19.2-33.1,1.5-5.7-.7-11.8-4.8-15.7-5.4-5.2-12.4-8.3-19-11.5-2.7-1.2-5.4-2.2-8-3Z"/>
      <path id="_e32a25ff" data-name="#e32a25ff" class="cls-5" d="m243.196,29.8337c11.2-2.9,22.7-.1,33.7,2.2,16,3.3,29.7,12.5,43.5,20.6,4.9,2.6,9.2,6.3,13.1,10-13.7,3.6-28.2,3.2-41.9,7-39.8,12.1-77.8,30.1-112.1,53.5-8.3,6.3-16,13.2-24.6,19.2-10.2,9-19.5,19.2-29.2,28.9-8.3,8.1-13.7,18.6-21.5,27.2-3.2-5.5-7.1-10.8-9.3-16.9-.6-3.8,1.3-7.4,2.5-11,16-46.2,48.3-85.9,88.2-113.8,18.2-10.9,36.5-22.5,57.6-26.9Zm257.2,232.8c9.7-2.9,19-7.8,29.5-8.3-2.2,4.1-4.9,7.6-7.4,11.3-2.8,4.1-3.5,9-5.8,13.2-4.9,3.1-10.6,4.1-15.8,6.1-7.6,3.1-16.1,3.3-23.3,7.6-.4-.4-1.3-1.3-1.6-1.7,3.3-7.6,7.6-14.7,12.1-21.7,2.5-4.2,8-4.9,12.3-6.5Zm84.6,3.2c4.2-1.5,8.4-3.6,13.1-3.1,9.7,6,13.1,17.7,14,28.5-7.8-.1-15.8.7-23.7,0-2.6-3.1-4.1-6.8-6.5-9.9-2.8-3.1-6.5-4.8-10-6.7,2.5001-4.9,8.2001-6.7,13.1-8.8Zm-160.4,28.6c3.6-3.3,6-8.6,11-9.9,2.5-.9,4.8.3,7.1,1.3-6.8,9.2-10.9,22.2-22.7,26.2-8.9,3.5-18.3,5.8-27.2,9.2-2.2,1.2-4.5,0-6.7-.7,2.5-3.3,4.7-7.6,9-9,10.7-4,21-9.3,29.5-17.1Zm-100,26.3c8.1-2.3,16.1-6,24.9-4.5-.7,6-6,9.6-9.9,13.8-4.7,4.2-8.6,9.6-14.7,11.8-7.1,2.6-14.4,4.9-21.8,6.3,3.8-7.7,11-12.9,15.1-20.2,1.7-2.8,2.9-6.5,6.4-7.2Zm-230.6,4.8c.4-.3,1.2-.7,1.6-.9,7,1.3,14,3.8,20.5,6.7,4.4,4.2,4.8,11.2,9.2,15.6,5.5,5.4,13.1,7.7,20.5,8.6,9,.7,17.9-1.6,26.7-2.5,2.3-.3,4.5,1,6.5,1.9-2,1.7-4.4,3.2-7.1,3.6-7,1.6-13.7,4.2-20.6,5.7-14.1,3.1-27.3,9.3-41.7,11.5-3.6.7-3.2-3.9-3.5-6.3-1-15.3-4.5-30.5001-12.1-43.9001Zm466.3,10c4.1-2.5,8.3-5.1,13.2-4.9,7.8.1,15.7,2.2,23,4.9-5.8,8.1-15,12.8-23.3,17.9-3.2,2-6.5-.6-9.3-1.9-6.3-3.5-13.5-4.7-19.8-8.1,5.2999-2.6,10.9999-4.7,16.2-7.9Zm-316.7,18.9c5.2-1.5,10.8-2.5,16.1-1.6-2.9,7-9.4,11.6-16.6,13.2-9.2,2.2-17.9,6.4-27.3,6.8-.6-.6-1.6-1.6-2.2-2,3.9-4.9,6.8-10.5,11-15.1,6.3-.4,12.7.5,19-1.3Zm-72.7,10.2c4.1-1.2,9-3.2,12.8-.1-4.8,7.1-11,13.2-17.3,19-3.5,3.1-7.1,6.4-11.8,7.4-4.2.9-8.7,1.3-12.8,3.1-4.5,1.7-8.9,5.1-13.8,3.3,6.1-4.4,10.8-10.3,16.1-15.6,3.5-3.5,5.2-8.3,8.6-11.8,6-2.4,12.3-3.3,18.2-5.3Zm339.1,0c5.2-3.6,10,1.7,13.7,5.1-5.2,2.2-10.5-1.2-13.7-5.1Zm-421.9,21.8c5.5-1.7,11.5-4.9,17.2-1.6-9.6,10.9-20.2,21.1-32.6,28.9-8,5.4-17.9,6.3-27.2,8.4,7-7.8,15.8-13.8,21.7-22.7,2-2.9,3.6-6,6.5-8.1,4.5-2.4,9.7-3.2,14.4-4.9Zm76.1,8.1c3.9-1,3.1,3.6,1.3,5.5-5.4,7.3-8.1,16.7-15.8,22.2-10.8,10.3-24.1,18.8-39.1,20.6-5.7.6-12.6,4.9-17.4-.1-4.5-4.2.3-9.6,2.6-13.5,3.8-5.5,4.2-12.6,8.1-18,6.1-2.9,12.8-3.8,19.2-5.7,13.7-3.4,27.2-7.8,41.1-11Zm-157.5,15.3c6.4-3.3,13.8-3.6,20.6-4.8-5.8,6.7-12.9,12.5-20.9,16.4-2.5-3.3-2.8-8.5.3-11.6Z"/>
      <path id="_2f305eff" data-name="#2f305eff" class="cls-6" d="m355.1959,238.3337c-.6-5.2-.6-10.6,1.3-15.6,6.7,7.8,16.6,12.4,26.7,13.8,8.7,1,16.4-4.1,24.7-6-2.2,8.9-8.6,16.9-17.3,19.9-8.1,3.3-17.6,2.2-25.4-1.2-4.2-2.5-9.7-5.4-10-10.9Zm-39.8,4.6c8.3-1,17.3.9,24.1,5.7,6,4.2,6.5,12.1,5.8,18.8-.1,3.3-3.2,5.4-5.2,7.7-5.5,5.1-9.4,11.9-11.2,19.2-1.2,3.5-1.3,7.7-4.5,10-4.8,4.1-12.2,7.3-18.2,3.8-5.5-4.1-9.9-10.2-16.9-12.2-5.4-2.8-11.5-2.2-17.3-2-5.5-2.8-9.9-8.7-10.8-14.8.9-8,4.5-16.1,11-21.1,12.2-9.4,27.6-14.2,43.2-15.1Zm-124.3,48c-5.8-9.3-9.4-23-1.2-32,2.6,12.6,11.8,23.8,24.4,27.3,8.6,3.6,17.7,1.3,26.6.1-4.4,9.6-14.2,16.9-25,16.6-9.5.2-18.2-5.3-24.8-12Z"/>
      <path id="_27a3daff" data-name="#27a3daff" class="cls-7" d="m374.896,173.6337c11.8-.6,25.6-2.5,35,6.1,10.2,11.9,16.1,27.3,17.3,42.7-.9,12.1-4.9,24.6-13.8,33.1-6,5.4-12.1,11.2-20.1,13.4-13.5,5.4-28.6,2.2-41.4-3.5-2.2-4.5-2.3-9.7-5.2-13.8-2.5-3.8-5.2-7.6-5.1-12.2-.1-6.5-1.3-13.1-.4-19.6,2.5-12.4,7-24.7,15-34.6,4.8-5.5,11.2-10.3,18.7-11.6m-1.2,16.1c-7.6,2.8-14.2,8.3-18.2,15.4-5.5,9.6-6,21.2-5.8,32,.1,6.8,1.6,16.1,9.4,18.2,9.3,2.8,19.5,2.3,29.1,1.2,14.1-4.2,24.3-19.5,22.8-34,.4-12.5-8.6-23-17.9-30.2-5.3-4.7-13-4.2-19.4-2.6Zm-201.5,45.8c16.1-12.6,40.1-10.9,56.4.4,10.3,7.8,20.5,17,26.2,28.9,2.9,5.2.7,11.3,2.2,16.9,1.3,4.2,3.8,8,6.1,11.8-5.2,6.5-10.2,13.7-17.3,18.3-10.8,7.8-24.9,10.3-37.6,7.3-11.9-2.8-24.3-7.4-32.4-17-7-8-11.9-17.7-14.2-28.1-.9-7.8-.3-15.8-.9-23.8.9-6.4999,6.7-10.8999,11.5-14.6999m26.9,6.6c-6.7,1.7-14.5,4.5-17.2,11.8-3.3,8.7-5.4,18.8-1.7,27.6,4.5,12.2,15.8,20.5,27.8,24.7,7.3,2.3,15.4,1,21.9-2.8,8.9-3.8,18.9-9,22.5-18.5-3.6-19.9-19-37.4-38.4-43.2-4.9-1.2-9.9-.4-14.9.4Zm194.1,84.9c5.4-1.9,10.8-4.8,16.6-4.7-2.8,3.8-7.3,5.1-11,7.3-12.2,6.8-24,14.2-36.6,20.1-4.5,2-8.6,4.8-12.5,7.8,2,2.5,4.9,5.1,4.4,8.7-1,5.5-4.5,10.3-4.2,16.1.6,9.3-.9,19,2.2,28.1,1.7,6.3,4.9,11.9,7.1,17.9,1.6,3.3-1,6.3-2.6,9-7.7,11.2-14.8,24.1-14,38.1.6,11.2-1.7,22.8,2.5,33.7,1.6,6.4,6.8,10.8,10,16.1,1,3.5-3.2,5.2-5.7,6.5-10.9,4.5-22.5,7.6-34.3,7.6-1-3.9-2.3-7.7-2.8-11.8-.3-4.8,1.6-9.6,1-14.4-.6-5.7.1-11.5-.3-17.2-1.3-10.9-5.8-20.9-9.7-31,3.8-3.2,10.5-.3,14.8-3.6,5.1-3.3,12.5-5.1,14.8-11.3-9.6,4.7-19.5,11.3-30.7,8.9-4.5-3.9-8.7-8.3-12.4-13.1-.4-6.4,2-12.9,1.3-19.5.9,0,2.5.1,3.3.3-1-9.6-1.7-19.5-6.3-28.1-3.2-7-7.7-13.2-12.8-18.9,5.1.4,10-1.5,13.8-4.9-13.2.3-26.3-.3-39.5-1.6-.9-.3-2.5-.9-3.3-1.2,41.1-12.8,82.7-24,123.6-37.8,8.0001-1.8,15.7001-4.0999,23.3-7.0999m-67,50.5c4.7,4.8,10.5,8.6,14.2,14.2-4.2.3-7.8-2.6-12.2-2.8-.7,1.6-1.5,3.2-2.2,4.8,5.5,3.9,10.6,8.4,14.1,14.4-2.9,0-6.3-1.6-9-.1,1.3,2.9,2.9,5.8,2.5,9.2.4,7.7-4.8,13.8-7.6,20.6,9.2-5.7,14.1-17.6,10.9-28.1,2.2,2.2,4.2,4.4,6.3,6.7.6-3.3,2-6.8.1-10-2.5-6.3-8.9-9.2-12.8-14.4,4.9,1.3,8.6,5.1,12.2,8.3.9-2.6,2.5-5.4,1.5-8.1-2.6-7.7-9.8-13.9-18-14.7Zm-131.9-25.3c-4.2-1.7-7.3-6.5-6.8-11,4.8,2.8,9.4,5.7,14.4,8.1-2.5,1.2-4.8,2.8-7.6,2.9Z"/>
    </g>
  </g>
</svg>