<?xml version="1.0" encoding="UTF-8"?>
<svg id="Layer_2" data-name="Layer 2" xmlns="http://www.w3.org/2000/svg" viewBox="0 0 304.76 501.27">
  <defs>
    <style>
      .cls-1 {
        fill: #1c2b58;
      }

      .cls-2 {
        fill: #fff;
      }

      .cls-3 {
        fill: #ffbfd3;
      }

      .cls-4 {
        fill: #77b9d7;
      }

      .cls-5 {
        fill: #5f7aa5;
      }

      .cls-6 {
        fill: #773950;
      }
    </style>
  </defs>
  <g id="Layer_1-2" data-name="Layer 1">
    <g id="Layer_1-2" data-name="Layer 1-2">
      <g>
        <path d="M303.68,330.55c-2.13-3.39-5.49-4.94-9.25-5.56-3.14-.49-5.76-1.74-7.92-4-.34-.36-.7-.73-.53-1.26.19-.55.7-.63,1.19-.65.82-.03,1.64-.07,2.47-.05,2.33.09,4.67.24,7.02.24,2.4.02,3.2-1.06,2.73-3.43-.36-1.86-1.45-3.25-2.91-4.36-3.1-2.32-6.6-3.31-10.48-2.93-.87.09-1.87.44-2.61-.19-1.6-1.43-3.46-1.84-5.54-1.76-1.21.03-1.57-.6-1.12-1.74.6-1.55,1.24-3.07,1.67-4.67,1.06-3.89,0-7.94-2.62-9.53-3.24-1.94-6.34-1.21-9.17,1.06-1.33,1.06-2.23.77-2.85-.75-.19-.44-.39-.89-.6-1.31-1.52-3.14-4.12-5.06-7.48-5.01-3.1.07-5.88,1.47-6.95,4.87-.43,1.33-1.3,1.31-2.45.85-2.98-1.18-6.08-1.64-9.3-1.36-5.35.48-7.36,2.35-7.96,7.62-.09.87-.48,1.3-1.3,1.23-4.09-.39-8.28-.55-12.18-1.86-4.18-1.41-8.35-2.83-12.68-3.66-9-1.76-16.5-5.9-22.03-13.36-3.02-4.09-5.47-8.61-9.2-12.17-.84-.82-.39-1.52.27-2.11,1.7-1.6,3.46-3.15,5.18-4.74.63-.58,1.26-.65,2.08-.32,2.28.92,4.65,1.7,6.94,2.62,6.61,2.66,13.45,4.43,20.48,5.44,7.31,1.04,14.55.48,21.76-.9,2.98-.56,5.81-1.55,7.45-4.33,2.1-3.58,3.56-7.45,4.38-11.52.48-2.39.66-2.61,3.12-1.98,3.39.89,6.78,1.81,10.16,2.74,2.2.63,4.14.37,6.03-1.04,3.82-2.85,7.53-5.76,10.94-9.08,19.89-19.38,29.4-43.35,30.96-70.67.82-14.31-.32-28.58-3.22-42.67-1.81-8.81-4.72-17.23-8.88-25.22-1.36-2.64-3.07-5.06-5.15-7.19-3.49-3.56-7.89-4.14-12.22-1.64-2.37,1.35-4.41,3.07-6.05,5.23-4.99,6.63-8.78,13.97-12.29,21.46-7.38,15.68-12.42,32.19-16.7,48.93-1.36,5.32-3.32,9.76-8.5,12.41-2.3,1.18-4.26,3.02-6.34,4.6-8.08,6.07-15.22,13.11-21.88,20.67-.43.49-.8,1.35-1.6,1.01-.75-.31-.6-1.18-.56-1.84.15-2.13.43-4.26.49-6.39.46-13.39-1.02-26.52-5.93-39.08-2.2-5.62-4.12-11.47-7.48-16.5-3.82-5.73-8.06-11.16-13.43-15.61-3.75-3.12-7.24-6.56-11.38-9.22-1.26-.8-1.62-1.62-1.11-3.24,1.76-5.69,3.99-11.23,5.18-17.14,2.16-10.69,4.02-21.35,3.68-32.43,0-3.39.03-6.9,0-10.41-.1-9.07-8.11-17.43-17.42-19.12-7.31-1.31-14.66-1.21-21.88.85-1.12.32-2.39.53-3.46.05-3.87-1.76-8.08-2.06-12.13-1.94-4.14.12-5.86-2.13-7.81-5.08-5.83-8.86-13.33-16-22.73-21.08-8.95-4.84-18.34-7.75-28.63-7.21-2.08.12-4.06-.61-6.05-1.14C37-.83,26.26-.95,15.73,3.57c-3.41,1.45-6.49,3.25-8.64,6.42-3.7,5.45,0,12.22,5.13,13.17,4.74.87,9.53,1.28,14.26,1.99,1.81.26,3.1.87,4.07,2.37,1.98,3.07,4.11,6.03,6.56,8.74,1.81,1.98,3.72,3.89,5.39,5.98,2.66,3.31,2.57,3.32-.63,6.03-13.8,11.59-24.2,25.7-31.14,42.33-4.52,10.84-6.92,22.19-7.26,33.9-.34,11.32.9,22.41,5.74,32.84.55,1.18.46,2.23-.12,3.32-3.29,6.1-5.61,12.54-7.17,19.27-1.91,8.2-2.88,16.41-.61,24.68,1.55,5.67,3.75,11.11,8.67,14.64,2.61,1.84,3.19,3.97,3.15,6.8-.19,13.5,4.84,25.14,13.26,35.36,8.55,10.4,19.22,18.05,31.71,23.09.92.37,1.76.68,1.87,1.89.15,1.5.49,2.98.66,4.48,1.01,8.83,3.2,17.3,7.46,25.15.61,1.14.48,1.86-.58,2.61-2.08,1.47-4.14,2.97-6.1,4.58-9.29,7.72-16.19,17.04-19.24,28.89-1.18,4.55-1.82,9.17-1.65,13.89.03.78.37,1.79-.53,2.27-.78.39-1.4-.36-2.03-.73-.95-.56-1.89-1.26-3-1.31-3.24-.19-6.27-1.06-9.36-2.08-5.06-1.69-9.63.41-13.87,2.95-3.54,2.1-3.25,4.89.39,6.78,2.18,1.14,4.57.87,6.85,1.24,1.98.34,2.76,1.21,2.59,3.17-.14,1.52-.17,3.03-.14,4.55.07,4.33,2.2,7.24,6.34,8.62,1.23.43,2.51.7,3.78,1.02,1.12.29,1.53,1.06,1.48,2.15-.05,1.26-.95,1.33-1.91,1.33-.68,0-1.38.02-2.06,0-7.77-.15-12.27,3.44-10.5,12.12.29,1.43-.26,2.08-1.74,1.98-1.93-.14-3.85-.32-5.78-.32-2.66-.02-3.87,1.53-3.39,4.18.17.94.43,1.86.89,2.73,2.61,4.87,8.9,7.48,14.78,5.95,1.94-.51,3.7-.65,5.61.12,1.38.56,2.88.77,4.45.41,3.78-.82,6.27-3.07,7.45-6.68.63-1.89,1.4-2.04,3.14-1.19,6.61,3.19,13.5,5.47,20.86,6.1,4.69.41,9.42.6,13.97-.56,6.71-1.74,12.51-5.27,17.43-10.19,2.9-2.88,5.42-6.07,7.74-9.39,1.02-1.45,1.84-1.47,2.79-.03.22.34.46.68.72,1.02,5.45,7.5,11.54,14.38,19.53,19.33,1.02.65,1.5,1.53,1.48,2.76-.05,1.79,0,3.58-.03,5.37-.29,11.28.58,22.41,4.7,33.08.56,1.47-.03,2.11-1.43,2.18-2.64.14-5.13.99-7.63,1.7-2.76.77-4.35,2.68-4.55,5.5-.1,1.52-.65,2.66-1.5,3.9-2.9,4.26-3.53,8.98-.9,13.45,2.32,3.97,5.98,6.41,10.99,5.88.82-.09,1.65-.09,2.44.22,6.66,2.62,13.65,3.77,20.71,4.55,11.84,1.3,23.72,1.86,35.57-.2,5.59-.97,10.89-2.54,14.78-7.06.78-.9,1.81-.92,2.85-.8,5.71.61,11.42.12,17.13-.07,4.52-.14,8.79-1.38,12.88-3.32,9.58-4.53,11.4-14.62,7.65-22.97-1.53-3.43-2.11-6.37-.15-9.61.14-.24.2-.51.31-.77,8.16-20.57,18.87-39.93,28.61-59.73,7.72-15.7,12.75-31.9,11.16-49.64-.27-3.02-.14-3.08,2.97-3.27,2.95-.19,5.37-1.06,6.49-4.14.43-1.21,1.47-1.76,2.76-1.82,2.13-.12,4.24-.31,6.37-.44,4.07-.26,5.16-2.28,3.02-5.71h0ZM81.32,88.93c.6-.1.84.37,1.09.78,2.62,3.94,3.9,8.47,5.49,12.87.05.12.05.27.07.41,0,.84-.58,1.19-1.24,1.45-3.12,1.26-6.24,2.56-9.39,3.77-1.18.44-2.11.39-1.6-1.38,1.58-5.56,3.12-11.11,4.69-16.67.14-.51.22-1.12.9-1.23ZM120.64,86.67c4.38,4.91,7.72,10.38,9.02,16.92.6,3.03.32,3.22-2.68,2.51-4.14-.99-8.28-1.98-12.61-1.87-2.88.07-3.53-.66-3.68-3.49-.09-1.52-.02-3.03-.02-5.16-1.43-4.26,1.06-7.07,4.98-9.41,2.91-1.72,2.81-1.94,4.99.51Z"/>
        <g>
          <path class="cls-2" d="M30.49,244.9c.48,1.02,1.16,1.12,2.18.63,3.34-1.58,5.1-4.06,5.01-7.86-.03-1.47-.56-2.01-1.94-1.96-2.64.12-4.81,1.45-6.94,2.83-.7.46-.63,1.18-.34,1.84.66,1.5,1.35,3,2.03,4.5v.02Z"/>
          <path class="cls-2" d="M49.54,249.96c-1.19-.66-2.32.12-3.19.82-2.08,1.67-4.02,3.51-6.03,5.27-.9.8-.72,1.48.1,2.22,2.74,2.39,5.45,4.81,8.2,7.19.34.31.7.77,1.24.51.51-.24.48-.8.48-1.28.02-2.13,0-4.26,0-6.37h.02c0-1.86.03-3.7,0-5.56-.02-1.01.24-2.23-.8-2.81l-.02.02Z"/>
          <path class="cls-2" d="M39.67,243.94c-2.13.95-4.21,2.01-6.29,3.07-.73.37-1.21.97-.55,1.82,1.58,2.08,3.14,4.18,4.75,6.2.72.9,1.4.8,1.7-.41.77-3.14,1.53-6.25,2.32-9.49.12-1.5-.78-1.7-1.94-1.19Z"/>
          <path class="cls-2" d="M41.07,145.78c-2.91,1.24-4.7,3.53-5.35,6.6-.56,2.66,1.6,5.04,4.33,4.98,3.39-.09,6.29-3.44,6.31-7.34.03-3.99-1.99-5.66-5.3-4.24l.02.02Z"/>
          <path class="cls-6" d="M81.48,225.71c-.14-1.16-.1-2.33-.19-3.49-.03-.46,0-1.06-.61-1.14-.49-.07-.68.39-.89.75-1.43,2.51-2.85,5.03-4.28,7.53-.63,1.11-.49,1.93.75,2.49,5.15,2.33,9.2,5.93,12.18,10.75.53.85,1.21,1.52,2.71,1.4,4.23-1.23,8.96-1.55,13.67-2.16.89-.12.85-.73.63-1.4-1.45-4.29-2.86-8.61-4.38-12.88-.7-1.96-1.69-2.25-3.49-1.24-1.02.56-2.01,1.21-3,1.81-2.39,1.43-4.87,2.59-7.74,2.49-3.2-.1-4.94-1.69-5.33-4.87l-.03-.02Z"/>
          <path class="cls-2" d="M88.06,228.71c2.62-.97,5.2-2.11,7.79-3.19.48-.2,1.16-.31,1.21-.97.05-.8-.68-.92-1.23-1.16-3.32-1.45-6.65-2.91-9.99-4.35-2.51-1.07-2.81-.85-2.71,2.64.12.95.26,2.73.58,4.48.46,2.45,2.04,3.39,4.36,2.54h-.02Z"/>
          <path class="cls-2" d="M119.58,236.51c-4.65-2.68-9.3-5.33-13.97-7.96-.44-.24-.94-.77-1.48-.24-.41.37-.26.94-.1,1.36,1.23,3.56,2.06,7.28,3.75,10.67.78,1.58,2.06,2.54,3.95,2.45,2.49-.02,7.02-2.32,8.5-4.19.87-1.11.15-1.64-.65-2.1Z"/>
          <path class="cls-6" d="M117.44,242.43c-1.24.99-.92,1.57.41,2.13,2.49,1.06,4.74,2.47,6.75,4.29.78.7,1.38,2.2,2.52,1.76,1.26-.49,1.36-2.1,1.62-3.37.09-.41.09-.82.12-1.23.32-3.41-1.82-4.96-4.46-6.44-2.3-1.28-3.6.07-5.08,1.26-.65.51-1.23,1.09-1.87,1.6h0Z"/>
          <path class="cls-6" d="M129.26,253.4c.03,1.3.46,2.16.9,3.02,1.09,2.18,1.79,4.46,2.01,6.88.05.53-.07,1.21.6,1.41.63.2.95-.41,1.35-.75,2.06-1.77,3.15-1.7,5.08.31.24.26.44.53.7.77,1.26,1.19,1.81,1.09,2.2-.6.37-1.62.8-3.2,1.55-4.69,1.01-1.96,2.83-2.4,4.62-1.07.94.7,1.81,1.48,2.68,2.27,1.01.92,1.87.84,2.86-.1,2.57-2.49,5.23-4.89,7.81-7.36.61-.58,1.6-1.16,1.06-2.22-.51-.99-1.53-.66-2.42-.53-4.64.7-9.17.36-13.65-1.01-4.7-1.43-9.03-3.68-13.51-5.61-1.89-.82-2.22-.66-2.15,1.35.09,2.32-.29,4.52-1.28,6.61-.22.49-.32,1.04-.39,1.3v.02Z"/>
          <path class="cls-2" d="M145.16,262.16c-.41,1.38-.82,2.78-1.16,4.18-.27,1.14.34,1.48,1.24.95,1.36-.8,2.62-1.76,3.92-2.66.34-.24.61-.56.56-1.11-.37-.99-1.41-1.36-2.18-2.03-1.14-.99-1.96-.82-2.4.68l.02-.02Z"/>
          <path class="cls-2" d="M135.93,266.42c-1.07,1.6-2.15,3.2-2.42,5.18-.17,1.23.2,1.65,1.31,1.23,1.6-.61,3.14-1.38,4.69-2.1.77-.36,1.07-.95.53-1.64-.82-1.01-1.72-1.94-2.66-2.85-.46-.44-1.06-.37-1.43.17h-.02Z"/>
          <path class="cls-2" d="M84.15,275.23c-.24-1.55-.72-3.9-1.91-6.03-1.35-2.39-2.83-2.68-5.04-1.12-2.64,1.86-4.4,4.52-6.42,6.94-.92,1.12-.1,1.58.89,1.82,3.34.8,6.71,1.45,10.14,1.76,1.77.15,2.52-.78,2.35-3.36h0Z"/>
          <path class="cls-2" d="M59.6,272.44c1.28.8,2.01.43,2.61-.82.78-1.64,1.31-3.32,1.33-5.16-.15-.89-.2-1.79-.46-2.62-.89-2.95-2.18-3.36-4.64-1.52-1.7,1.28-3.37,2.61-5.1,3.85-1.52,1.09-1.23,1.93.2,2.74,2.03,1.16,4.07,2.3,6.05,3.54v-.02Z"/>
          <path class="cls-2" d="M33.35,212.89c-3.43.17-6.82.92-10.28.82-1.36-.03-1.72.73-1.06,1.87,1.69,2.9,3.89,5.33,6.8,7.04,1.74,1.02,3.31.6,4.58-.92,1.26-1.48,2.16-3.17,2.73-5.04,1.11-3.72.99-3.89-2.78-3.77Z"/>
          <path class="cls-2" d="M33.35,231.49c.03-2.47-.41-3.12-1.93-2.56-1.53.56-3.03,1.31-4.45,2.15-1.45.84-.75,2.22-.49,3.36.19.82.27,1.89,1.4,2.06,2.1.32,5.44-2.78,5.47-4.99v-.02Z"/>
          <path class="cls-1" d="M145.69,300.49c-2.45,3.9-5.04,7.7-7.52,11.59-1.94,3.05-3.19,6.39-3.72,9.73.03,2.4,1.6,3.41,4.14,2.76,3.32-.84,6.63-1.81,9.95-2.66,4.81-1.24,8.79-.85,10.7,4.6.48,1.36,1.28,1.21,2.11.22.61-.73,1.18-1.55,1.91-2.16,3.49-3,6.97-6.02,10.55-8.88,4.46-3.56,9.12-6.88,14.21-9.48,2.18-1.11,2.25-1.47.39-3.07-5.3-4.64-10.26-9.61-13.92-15.66-2.61-4.29-5.44-8.44-8.15-12.64-2.27-3.53-3.02-3.65-6.56-1.36-.17.12-.34.22-.51.34-6.12,4.23-13.26,6.29-19.94,9.32-1.07.49-2.88.19-2.93,1.69-.05,1.6,1.77,1.87,3,2.37.7.27,1.47.34,2.2.51,1.41.32,2.85.56,4.21,1.01,2.08.66,3.02,2.06,2.64,4.06-.49,2.71-1.35,5.37-2.81,7.7l.03.02Z"/>
          <path class="cls-5" d="M185.57,247.22c15.97-7.34,28.2-18.8,36.95-33.95,4.96-8.62,7.89-18.15,11.06-27.54.14-.43.46-.95-.09-1.3-.48-.32-.94.03-1.31.31-2.57,1.84-5.21,3.6-7.7,5.56-16.79,13.11-30.18,29.06-40.08,47.94-.49.95-.84,3.02-2.15,2.39-1.01-.49.09-2.25.65-3.31,2.76-5.23,5.61-10.41,8.37-15.64,1.06-1.99,2.61-3.83,2.88-6.13.65-5.25,1.09-10.53,1.58-15.81.05-.51.26-1.28-.44-1.41-.85-.15-.87.75-1.04,1.28-.72,2.15-1.19,4.4-2.06,6.48-5.61,13.67-15.42,23.06-29.19,28.27-6.2,2.35-12.54,3.65-19.21,2.16-12.03-2.66-21.51-9.2-29-18.8-4.31-5.52-6.61-11.71-5.83-18.83.46-4.11,1.35-8.13,2.51-12.12,3.49-11.9,8.21-23.21,15.81-33.15,6.42-8.42,14.13-15.01,24.74-17.5,1.6-.39,3.24-.6,4.86-.9.53-.1,1.19-.07,1.28-.8.09-.7-.56-.87-1.02-1.12-.49-.27-.99-.49-1.48-.75-8.44-4.23-17.06-8.03-26.07-10.86-6.36-1.99-12.64-4.28-19.34-5.01-7.74-.84-15.51-1.06-23.28-1.23-5.08-.12-10.17.07-15.2,1.06-2.69.53-2.69.49-1.87,3.22.14.46.39,1.01-.09,1.33-.66.48-.95-.2-1.24-.63-1.35-1.87-3.08-3.15-5.35-3.6-.73-.15-1.62-.26-2.03.56-.37.72.37,1.09.77,1.53,2.23,2.57,3.03,5.56,2.15,8.83-.55,2.06-1.14,4.12-1.48,6.22-.85,5.35-2.66,10.4-4.7,15.35-.24.6-.7,1.33-.05,1.93.37.34.9.03,1.35-.17,10.12-4.62,20.42-4.72,30.71-.8,12.47,4.74,19.29,12.08,19.65,26.65.41,15.92-14.16,29.19-27.15,31.56-3.41.63-6.83.73-10.28.68-.77-.02-1.86-.31-2.04.84-.2,1.26.95,1.3,1.77,1.6.31.12.65.17.99.26,4.91,1.12,9.68,2.66,14.37,4.52,10.51,4.21,20.21,10,30.11,15.42,8.27,4.53,16.26,9.58,24.95,13.29,5.03,2.15,10.22,3.66,15.8,3.48.51-.02,1.19.15,1.4-.55.15-.55-.32-.87-.65-1.21-.75-.77-1.77-1.28-2.33-2.56.49-.07.72-.17.89-.12,5.47,1.79,8.76,5.95,11.49,10.69.17.32.22.68-.12.94-.32.24-.68.15-.95-.09-.55-.53-1.07-1.06-1.58-1.62-.7-.8-1.36-.78-2.1-.05-2.85,2.79-5.71,5.57-8.55,8.38-.65.63-1.01,1.36-.2,2.15,1.48,1.43,2.28,3.24,2.83,5.18.36,1.3,1.12,1.64,2.3.9,5.39-3.36,10.67-6.82,15.2-11.32.78-.78,1.35-1.6.53-2.71-.26-.34-.44-.75-.07-1.12.37-.32.8-.14,1.16.03,1.38.63,2.74,1.28,4.11,1.94,13.26,6.39,27.22,9.08,41.89,7.89,1.86-.15,3.66-.6,5.49-.94.44-.09,1.06-.14,1.09-.77,0-.48-.48-.65-.84-.84-1.28-.66-2.56-1.35-3.85-1.98-8.01-3.85-16.17-7.29-24.98-8.98-4.57-.89-9.15-.95-13.75-1.09-1.33-.03-3.22.17-3.53-1.41-.27-1.45,1.6-1.64,2.66-2.11h0ZM92.47,137.4c1.93.73,3.68,1.86,5.08,3.43.32.36.65.8.31,1.31-.37.6-.97.48-1.45.17-4.11-2.62-8.54-4.36-13.48-4.96,3.22-1.24,6.41-1.16,9.54.05ZM76.72,142.92c4.16-3.7,22.07,1.91,24.76,7.98-7.91-3.75-15.51-8.35-24.76-7.98ZM110.64,219.71c-.66.37-1.09-.36-1.48-.8-1.76-1.89-3.58-6.17-3.53-8.21.05-.46-.1-1.07.44-1.26.61-.2.82.41,1.01.82,1.24,2.54,2.49,5.06,3.66,7.62.27.58.68,1.4-.1,1.84Z"/>
          <path class="cls-1" d="M292.64,328.67c-.66,3.97.49,5.35,4.46,5.32,1.02-.05,2.06-.02,3.08-.15,1.36-.17,1.98-1.02.95-2.1-1.91-1.99-4.11-3.65-6.92-4.23-.87-.19-1.43.2-1.6,1.16h.02Z"/>
          <path class="cls-3" d="M192.32,246.38c-.56.29-1.57.36-1.41,1.23.17.99,1.21.66,1.91.8.27.05.55.03.82.05,6.34.19,12.42,1.6,18.2,4.16,6.48,2.86,12.85,5.96,19.24,9.03,1.58.77,2.42.51,3.24-1.09,1.77-3.43,2.68-7.06,3.15-10.82.48-3.87,1.48-4.46,5.18-3.29,3.6,1.14,7.24,2.18,10.86,3.31,1.57.48,2.86.27,4.19-.84,4.81-4.02,9.63-8.01,13.96-12.56,9.61-10.14,16.91-21.66,21.15-35.02,4.16-13.09,6.22-26.5,5.88-40.76.2-6.37-.36-13.21-1.23-20.06-1.45-11.26-4.19-22.15-8.95-32.5-1.69-3.65-3.78-7.02-6.9-9.66-2.11-1.79-4.28-2.2-6.83-.84-3.07,1.64-5.44,3.97-7.28,6.85-5.83,9.05-10.72,18.59-14.71,28.6-5.08,12.73-8.54,25.99-12.17,39.18-3.41,12.36-7.09,24.57-12.51,36.23-7.74,16.65-19.27,29.67-35.79,38.02v-.02Z"/>
          <path class="cls-1" d="M286.79,316.51c1.23-.02,2.47-.12,3.7-.17v.2h4.74c.41,0,.87-.02,1.07-.46.2-.46-.1-.8-.41-1.07-2.64-2.42-5.78-3.78-9.36-3.58-1.96.1-2.15,1.93-2.22,3.43-.07,1.7,1.28,1.69,2.47,1.67v-.02Z"/>
          <path class="cls-2" d="M271.83,323.75c.9-.73,1.89-1.38,2.79-2.11,2.68-2.2,5.15-4.6,6.48-7.89,1.06-2.57-.61-4.6-3.37-4.11-1.28.24-2.51.73-3.78.99-.72.15-1.58.41-2.15-.26-.63-.75.1-1.41.43-2.04,1.6-3.12,3.63-6.02,4.58-9.44.53-1.86.36-3.61-1.19-4.89-1.53-1.28-3.29-1.18-5.06-.48-1.99.78-3.34,2.35-4.79,3.82-1.35,1.35-1.94,1.19-2.61-.61-.77-2.06-1.5-4.14-2.25-6.2-.77-2.06-2.1-3.36-4.46-3.25-2.04.09-3.68,1.52-4.6,3.6-.61,1.4.2,3.65-1.52,4.14-1.41.41-2.88-1.06-4.35-1.6-2.78-1.02-5.57-2.03-8.62-1.57-4.93.75-5.96,3.03-3.24,7.11.12.17.22.34.34.51,1.79,2.85,1.28,3.78-2.08,4.26-4.18.6-8.27,1.62-11.81,3.99-3.03,2.03-2.95,5.16.05,7.24,1.38.95,3.03,1.3,4.57,1.87,2.27.87,2.47,1.79.61,3.46-1.58,1.41-3.31,2.69-4.89,4.11-1.38,1.23-2.28,2.74-2.56,4.6-.27,1.96.58,3.48,2.01,4.72,1.36,1.18,2.86,1.12,4.43.34,1.72-.85,3.48-1.67,5.2-2.51.78-.37,1.55-1.19,2.44-.43.89.78.39,1.76.12,2.68-.53,1.77-1.31,3.49-1.36,5.39-.03,1.57.65,2.88,1.98,3.61,1.4.78,2.49-.24,3.49-1.07,1.35-1.11,2.23-2.61,3.14-4.07.48-.78,1.07-1.41,1.82-1.93.89-.61,1.3-.29,1.33.63.05,1.23,0,2.47,0,3.7-.15,1.93-.37,3.87.61,5.66.72,1.3,1.52,2.51,3.22,2.56,1.74.05,2.83-1.02,3.54-2.4.63-1.21,1.02-2.54,1.5-3.83,1.14-3.08,1.93-3.25,4.18-.87,2.04,2.16,4.16,4.23,6.9,5.47,1.79.82,3.37.39,4.69-1.01,1.35-1.43.66-2.81-.27-4.09-1.09-1.5-2.3-2.91-3.41-4.4-.95-1.26-.56-2.08.97-2.25,1.36-.14,2.74-.14,4.12-.12,3.46.02,6.44-1.3,9.15-3.27,1.12-.82,1.89-1.89,1.4-3.36-.46-1.36-1.62-1.76-2.97-1.77-1.31,0-2.61,0-3.92-.03-.72,0-1.47-.14-1.7-.89-.26-.77.34-1.3.89-1.72l-.02.03Z"/>
          <path class="cls-5" d="M280.86,321.5c.78-.43,2.27-.05,2.3-1.64,0-.63-.17-1.41-1.06-1.53-.55-.09-2.49,1.96-2.44,2.54.07.7.61.6,1.19.63h0Z"/>
          <path class="cls-6" d="M38.65,217.43c-.63.03-.77.89-1.01,1.45-.14.31-.17.68-.34.97-2.1,3.82-4.19,7.07-9.95,4.52-.56-.26-1.3-.61-1.57.22-.34,1.07-.26,2.28.36,3.19s1.52.15,2.22-.14c5.03-2.06,5.76-1.64,6.36,3.87.12,1.07.27,2.13,1.57,2.37,2.22.41,2.64,1.93,2.52,3.82-.05.89-.17,1.77-.26,2.68-.17,1.36.37,1.93,1.77,1.69,1.11-.19,2.13-.46,3.05-1.16,2.08-1.58,4.18-3.15,6.31-4.67,6.36-4.55,13.07-7.92,21.27-6.29,1.01.2,1.77-.09,2.2-1.07,1.48-3.51,3.48-6.71,5.76-9.75.94-1.24.53-1.98-.89-2.39-7.23-2.1-14.6-3.29-22.12-3.8-1.47-.1-2.51.48-3.17,1.81-.87,1.72-1.79,3.41-2.71,5.1-1.23,2.23-2.69,4.5-5.54,4.26-2.88-.24-3.9-2.71-4.7-5.15-.2-.61-.22-1.57-1.09-1.52h-.03Z"/>
          <path class="cls-1" d="M30.49,370.68c-1.62-2.15-3.36-4.45-6.46-3.99-3.41.49-6.6,1.79-9.75,3.2-.48.22-1.02.53-.99,1.19s.61.9,1.12,1.06c1.72.48,3.44,1.26,5.18,1.26,2.76,0,4.48,1.28,5.86,3.43.78,1.23,1.89,1.96,3.63,1.98,2.66-.07,4.18-2.39,3-4.99-.48-1.06-.9-2.18-1.6-3.1v-.03Z"/>
          <path class="cls-1" d="M46.63,173.83c1.33.51,2.23,1.77,3.17,2.9,1.84,2.22,2.81,4.86,3.85,7.48,1.55,3.9,2.1,8.15,4.02,11.91,3.41,6.68,10.12,8.35,16.27,4.09,4.24-2.95,7.07-7.28,10.74-10.8,2.73-2.62,5.04-5.64,8.23-7.77,3.92-2.62,7.74-2.3,11.2.97.53.49.95,1.41,1.81,1.14.9-.31.84-1.35.97-2.13,1.87-10.17-2.13-18.06-9.76-24.35-6.22-5.13-13.67-6.85-21.59-6.71-1.24,0-2.49-.09-3.72,0-12.34.9-21.54,6.53-26.77,17.96-1.5,3.25-1.62,4.09,1.57,5.32h.02Z"/>
          <path class="cls-2" d="M45.66,221.72c1.67-.63,5.56-6.44,5.54-8.21.02-.85-.58-1.04-1.23-1.04-2.81-.03-5.62-.05-8.45-.03-1.02,0-1.62.56-1.26,1.6.77,2.2,1.57,4.4,2.49,6.54.53,1.24,1.64,1.64,2.91,1.14Z"/>
          <path class="cls-4" d="M64.23,286.38c-1.64-.14-1.48,1.19-1.28,2.35.8,4.74,1.86,9.44,3.22,14.06.94,3.15,2.1,6.25,3.53,9.24.22.44.32,1.23,1.04,1.09.61-.1.72-.8.82-1.33.22-1.14.34-2.32.56-3.46,1.12-5.91,3.03-11.55,5.67-16.96.61-1.26.61-2.06-.95-2.39-4.11-.84-8.21-1.7-12.58-2.62l-.03.02Z"/>
          <path class="cls-3" d="M114.18,271.38c.92-.7,1.74-1.57,2.56-2.39,3.56-3.51,5.69-3.7,9.82-.99.94.61,1.86,2.04,2.95,1.5,1.26-.63.15-2.11.29-3.22.03-.27,0-.55-.03-.82-.72-7.99-4.45-14.01-11.61-17.84-6.34-3.39-13.11-3.44-19.9-2.3-5.95,1.01-11.84,2.47-17.76,3.72-1.58.34-3.19.7-4.91.37.37-.95,1.21-1.02,1.84-1.33,2.56-1.23,5.35-1.76,8.03-2.64,1.24-.41,1.99-1.06.95-2.4-7.65-9.97-17.76-14.95-30.39-7.91-3.25,1.81-6.12,4.28-9.41,5.96-3.75,1.93-4.91,4.84-4.74,8.74.05,1.28.48,1.5,1.48.94,1.02-.56,1.98-1.24,3-1.81,3.29-1.86,5.3-.75,5.42,3.07.1,3.51.05,7.02.1,10.53,0,.53-.19,1.18.43,1.48.6.31,1.04-.19,1.47-.49,1.47-1.02,2.86-2.16,4.4-3.07,2.93-1.72,5.13-.84,5.85,2.49.61,2.78.66,5.59-.46,8.32-.46,1.11-1.23,2.23.56,3.07,3.41,1.55,3.85,1.58,5.04-.37,1.93-3.15,4.23-5.95,7.57-7.7,2.81-1.47,4.82-.87,6.46,1.82,1.58,2.61,2.13,5.49,2.16,8.49,0,.58-.34,1.33.41,1.65.58.26,1.02-.29,1.45-.6,2.74-1.96,5.56-3.82,8.66-5.2,1.24-.55,1.86-1.38,2.08-2.78.39-2.47,1.28-4.79,3.37-6.42,1.76-1.36,3.19-1.4,4.82.05,2.1,1.84,3.77,3.97,4.4,6.8.43,1.94,1.99,2.49,3.58,1.3l.07-.02Z"/>
          <path class="cls-2" d="M102.03,266.13c-.73,1.21-1.72,2.62-1.07,3.99.61,1.28,2.25.43,3.17.65,1.06,0,1.87.02,2.69,0,1.62-.05,1.96-.75,1.01-2.06-.73-.99-1.41-2.01-2.23-2.93-1.36-1.53-2.49-1.43-3.56.36Z"/>
          <path class="cls-4" d="M82.43,283.79c.92-1.4.66-2.1-.99-2.4-3.03-.56-6.07-1.18-9.1-1.82-16.97-3.66-29.58-13.75-39.88-27.16-3.77-4.91-6.25-10.51-7.65-16.56-.31-1.33-.9-2.33-2.54-2.08-1.02.14-2.04.31-3.07.43-1.79.2-2.35,1.19-1.86,2.86.44,1.52.8,3.07,1.35,4.55,4.99,13.48,13.72,23.98,25.48,32.14,9.7,6.71,20.48,10.55,31.94,12.78,4.04.78,4,.8,6.32-2.71v-.02Z"/>
          <path class="cls-3" d="M97.26,97.42c.89.07,1.01-.9,1.24-1.53.03-.8-.27-1.24-1.06-1.23-.73,0-1.21.36-1.12,1.11.09.66.2,1.58.94,1.65Z"/>
          <path class="cls-2" d="M12.14,21c2.88,1.91,6.19,2.37,9.48,2.42,8.11.1,16.24-.03,24.35,0,6.41.03,12.83.15,19.04,1.94,10.22,2.93,19.39,7.72,26.45,15.99.94,1.09,2.1,1.64,3.48,1.01,3.02-1.38,6.2-2.23,9.3-3.36,2.45-.89,2.62-1.53,1.26-3.8-3.41-5.69-7.92-10.4-13.02-14.54-14.95-12.15-31.65-17.01-50.66-11.98-2.32.61-4.69,1.06-7.06,1.48-.63.12-1.57.31-1.84-.46-.32-.87.68-1.06,1.21-1.38.82-.48,1.7-.85,2.64-1.12,2.18-.65,4.38-1.19,6.6-1.62.63-.12,1.58-.05,1.6-.95.03-.99-.94-.84-1.57-.92-2.79-.36-5.59-.85-8.47-.66-2.73-.19-5.47.19-8.18.66-5.91,1.04-11.43,3.17-15.78,7.5-3.48,3.46-2.95,7.09,1.16,9.82l.02-.02Z"/>
          <path class="cls-1" d="M70.45,411.36c2.88-1.41,3.46-4.04,3.85-6.83-.12-.6-.17-1.21-.36-1.81-.49-1.57-1.55-1.94-2.51-.68-2.54,3.32-4.91,6.77-7.31,10.19-.36.51-.55,1.18-.03,1.72.51.56,1.16.36,1.7.05,1.57-.85,3.05-1.86,4.65-2.64Z"/>
          <path class="cls-1" d="M27.44,412.06c-.48-.07-.95-.05-1.64-.09-3.72.24-7.46,1.6-11.43,1.38-2.11-.12-2.73,1.09-1.55,2.88,1.04,1.57,2.52,2.73,4.21,3.54,4.94,2.4,10.33.12,12.1-5.1.6-1.74.17-2.39-1.69-2.62Z"/>
          <path class="cls-1" d="M40.03,382.46c2.66.63,5.01,1.81,7.12,3.56,1.65,1.36,3.61.99,5.25.05,1.77-1.02,3.85-1.91,3.82-4.64-.05-4.16-3.34-7.02-9.19-7-3.24.17-6.19,2.18-8.01,5.91-.58,1.18-.19,1.84,1.02,2.11h-.02Z"/>
          <path class="cls-5" d="M65.94,208.58c-.49-.22-1.04-.37-1.55-.55-4.58-1.64-8.81-3.87-12.49-7.09-4.29-3.75-7.23-8.42-9.2-13.75-.24-.66-.34-1.64-1.3-1.64-.77,0-1.04.82-1.36,1.4-1.07,1.86-2.22,3.66-3.58,5.3-5.23,6.25-13.65,8.44-21.32,5.73-4.5-1.6-7.57-4.62-9.7-8.76-.29-.56-.37-1.57-1.28-1.36-.8.19-.61,1.14-.7,1.79-.17,1.57-.26,3.15-.36,4.72,0,4.67.73,9.2,2.62,13.5,1.65,3.77,3.77,7.46,7.24,9.58,2.33,1.41,2.54,3.02,2.76,5.15.27,2.73.22,5.49.73,8.21.24,1.21.63,1.77,1.93,1.16,1.18-.56,2.45-.89,3.78-.77.99.09,1.72-.36,1.69-1.36-.12-3.82.72-7.6-1.99-11.25-2.13-2.86-3.73-5.54-7.82-4.96-.6.1-1.53-.14-1.5-1.02.02-.8.85-.77,1.43-.87.41-.09.84-.09,1.24-.14,8.15-.9,16.34-.92,24.51-1.6,6.87-.58,13.72-.85,20.57.12,1.7.24,3.43.39,5.13.56.63.05,1.31.02,1.5-.77.2-.78-.39-1.09-.99-1.33h0ZM32.31,201.61c2.35-1.67,4.24-3.14,6.49-4.09-1.21,2.25-3.75,3.87-6.49,4.09Z"/>
          <path class="cls-5" d="M11.16,155.34c.43,1.26,1.14,1.53,1.99.29.36-.51.66-1.04.99-1.58,8.76-14.66,20.36-26.41,35.45-34.58,4.82-2.61,9.83-4.53,15.47-4.55,3.63,0,5.79-1.77,6.77-5.25,2.25-8.01,4.41-16.05,6.63-24.06.66-2.42.22-4.62-1.09-6.7-.9-1.41-2.11-2.54-3.29-3.68-8.33-8.18-17.48-15.56-24.45-25.07-1.16-1.58-2.4-1.11-3.7-.09-10.63,8.42-19.53,18.4-26.23,30.2-8.35,14.72-13.26,30.47-13.26,47.58.26,7.06.72,14.13,2.74,20.98.65,2.18,1.28,4.36,1.99,6.51h-.02Z"/>
          <path class="cls-4" d="M14.15,195.49c7.72,3.63,16.51,1.26,21.66-5.76.55-.75,1.93-1.65,1.02-2.56-.72-.72-1.64.61-2.4,1.07-3.29,2.01-6.75,3.56-10.72,2.93-8.28-1.3-11.76-5.64-11.74-16.34.36-11.47,5.56-22.29,16.87-29.87,4.24-2.85,8.9-3.95,13.94-3.36,4.11.48,6.99,2.56,8.42,6.6.61,1.74.68,3.49.78,5.27.03.55.09,1.14.78,1.3.55.12.94-.24,1.21-.63.39-.56.78-1.14,1.04-1.77,1.7-4.28,3.34-8.59,5.03-12.87,1.09-2.74,1.3-5.61,1.23-8.52-.17-8.52-5.4-11.76-13.14-8.11-.37.17-.75.34-1.11.56-8.93,5.85-17.06,12.63-23.64,21.05-6.68,8.54-12.29,17.79-15.93,28.05-1.43,4.04-3.56,8.06-1.7,12.7,1.74,4.38,4.04,8.16,8.42,10.22l-.02.05Z"/>
          <path class="cls-5" d="M60.93,412.23c2.08-4.86,4.91-9.24,8.88-12.76,1.26-1.12,2.86-1.45,4.45-.73,1.57.7,2.37,2.08,2.45,3.78.07,1.3-.05,2.61-.05,3.92,0,.53-.19,1.19.43,1.48.68.34,1.18-.17,1.62-.6,2.01-1.93,3.65-4.14,4.6-6.77,1.01-2.78-.07-6.25-2.37-8.25-2.28-1.98-4.58-1.53-7.11-.39-3.19,1.43-5.49,3.85-7.77,6.34-1.01,1.09-1.81,2.4-3.43,3.39-.22-1.93.7-3.1,1.55-4.19,1.4-1.79,2.91-3.49,4.46-5.15,1.21-1.3,1.24-2.35-.51-2.95-2.83-.95-3.85-3.02-4.06-5.79-.1-1.3-.39-2.59-.75-3.83-.53-1.79-1.6-3.19-3.43-3.89-1.04-.41-2.22-.95-3.14-.17-1.02.89.1,1.87.34,2.81.09.34.24.65.34.97,1.28,4.35-.29,7.5-4.52,9.05-1.16.43-2.37.75-3.54,1.12-1.72.56-1.94,1.18-.8,2.62,1.45,1.84,3.32,3.07,5.56,3.75,2.04.61,4.07,1.26,6.1,1.91.44.15.99.36.95.94-.03.65-.65.61-1.11.66-6.53.72-14.4-4.21-14.66-9.94-.1-2.04-1.47-3.37-3.44-3.94-1.38-.39-2.81-.66-4.21-.99-1.67-.37-2.27-1.48-1.94-3.07.48-2.44,1.65-4.5,3.41-6.24,2.95-2.95,2.83-3.63-.9-5.61-.55-.29-1.09-.63-1.69-.77-1.16-.29-2.52-1.14-3.49-.05-.87.99.29,2.03.66,3.02.24.65.51,1.28.66,1.94.73,2.88.09,4.29-2.51,5.81-1.65.95-3.37,1.12-5.18.72-1.53-.34-2.15.34-2.28,1.81-.29,3.07,1.21,5.62,4.11,6.95,2.91,1.35,6.02,1.28,9.12,1.24.63,0,1.58-.27,1.77.61.19.89-.75,1.12-1.36,1.24-1.94.39-2.06,1.62-1.79,3.25.43,2.45-.51,3.61-3.02,3.82-1.72.14-3.44.15-5.16.22-5.52.19-7.81,3.41-6.29,8.78.29,1.01.97,1.24,1.87,1.24,1.31,0,2.62-.09,3.92,0,3.17.2,4.99,3.02,3.9,6.02-.32.9-.84,1.74-1.23,2.61-.75,1.64-.44,2.2,1.38,2.44,3.34.46,5.81-1.09,7.79-4.57.87-1.53.58-4.09,2.79-4.46,1.82-.31,3.53.99,5.27,1.58,3.83,1.31,7.55,3,11.49,4.02,1.55.41,2.32.07,1.76-1.7-.34-1.07-.39-2.22.05-3.25l.03-.03Z"/>
          <path class="cls-5" d="M278.24,337.08c-.43-1.06-1.06-1.47-2.27-1.06-1.76.61-3.54,1.12-5.35,1.55-1.38.34-1.72.99-.99,2.2.31.53.61,1.07.85,1.65,1.55,3.65.02,6.63-3.85,7.46-2.11.46-4.11.1-5.96-.97-1.79-1.04-3.49-2.2-5.03-3.6-1.12-1.02-1.93-.78-2.52.56-.27.63-.56,1.26-.94,1.84-1.35,2.1-3.27,3.07-5.79,2.78s-4.07-1.82-5.04-4.06c-.48-1.09.07-2.88-1.33-3.2-1.23-.29-1.98,1.28-2.98,1.96-1.65,1.12-3.34,1.6-5.23.7-1.86-.89-2.73-2.47-2.91-4.43-.09-.89-.02-1.79.07-2.68.26-2.59-.09-2.86-2.45-1.99-.51.19-1.02.41-1.57.53-5.06,1.16-8.73-1.91-8.52-7.11.12-3.12,2.11-5.11,4.12-7.12,2.73-2.71,2.71-2.68-.55-4.57-2.54-1.47-4.28-3.6-4.14-6.65.14-3.12,1.89-5.21,4.79-6.37,1.79-.72,3.6-1.4,5.37-2.16.65-.27,1.79-.27,1.69-1.19-.1-1.01-1.21-.65-1.89-.73-5.74-.82-11.43-.27-17.01,1.06-14.71,3.49-26.99,11.45-38.31,21.11-7.69,6.56-13.97,14.42-20.65,21.92-.55.61-.95,1.47-2.11,1.67,1.24-3.85,3.58-6.78,6.07-9.49,2.47-2.66,2.9-5.3,1.65-8.62-.75-2.03-1.89-2.95-3.94-2.85-1.02.05-2.06.15-3.07.41-3.48.85-6.9,1.89-10.4,2.66-4.52.99-7.19-1.3-7.17-5.93,0-1.33.24-2.59.73-3.83,1.36-3.54,3.37-6.78,5.25-10.05,2.56-4.48,5.3-8.86,7.86-13.34,1.3-2.27.84-3.15-1.7-3.82-1.72-.46-3.49-.77-5.21-1.24-1.82-.49-3.46-1.26-4.23-3.25-.84-2.18-1.07-2.15-4.69-1.41-1.74.36-2.23,1.26-2.11,2.91.07.99.6,2.11-.36,3.08-.84-.72-.99-1.62-1.19-2.47-.73-2.85-2.04-5.4-3.92-7.65-8.09-9.71-22.17-10.33-31.82-1.57-3.46,3.14-5.42,7.23-7.84,11.04-2.25,3.53-3.72,7.34-4.87,11.33-1.57,5.37-2.45,10.87-3.2,16.39-.1.77,0,1.89-1.23,1.74-1.91-.26-3.12.92-4.38,1.94-4.82,3.9-9.41,8.04-13.19,13.02-7.74,10.19-11.01,21.71-10.53,34.41.07,1.69.77,2.54,2.57,2.37,2.4-.22,4.64.46,6.7,1.69.8.48,1.64.75,2.56.58,6.9-1.28,10.22,4.07,10.8,9.34.41,3.78,3.9,6.41,7.69,5.62,5.18-1.07,9.12.72,10.82,5.78,1.21,3.61,2.01,7.38,3.53,10.91.02.05-.15.19-.26.32-.92-.15-1.28-.95-1.7-1.62-1.57-2.39-1.91-2.42-3.39.07-2.52,4.23-5.91,7.29-10.62,9.03-2.49.92-4.75,2.49-7.28,3.85,1.26,1.06,2.4,1.01,3.48,1.11,3.19.26,6.34-.24,9.42-.92,8.88-1.98,15.51-7.41,20.67-14.52,13.82-19.07,21.47-40.18,20.3-64.04-.24-4.74-.43-9.49-.6-14.23-.1-3.12.36-6.17.9-9.24.1-.58.1-1.41.97-1.33.84.09.66.9.75,1.48.05.34.03.68.03,1.02.1,7.57-.09,15.17.39,22.7.68,10.57-.44,20.89-3.2,31.07-.66,2.47-.15,4.31,1.31,6.31,4.46,6.07,9.54,11.57,14.72,16.99,2.39,2.51,2.33,2.49,4.35-.19.6-.8,1.11-2.45,2.35-1.69,1.09.66-.05,1.87-.48,2.73-2.64,5.23-5.27,10.45-6.56,16.22-2.42,10.74-2.23,21.59-1.4,32.46.29,3.77,1.12,7.46,2.04,11.15,1.09,4.35,2.69,8.52,3.82,12.85.32,1.26.89,2.56.17,4.09-1.07-.89-1.48-1.99-2.15-2.91-.99-1.4-3.92-1.89-6.1-1.12-1.74.61-1.18,2.08-1.31,3.31-.2,1.82.53,3.19,2.32,4.48-1.48.2-2.33-.29-3.24-.55-.46-.12-.97-.32-1.31.19-.32.51.07.92.37,1.28,3.87,4.57,4.11,9.54,1.77,14.84-.22.49-.63,1.02-.09,1.5.49.46,1.04.1,1.55-.07.58-.2,1.14-.49,1.72-.68.65-.2,1.35-.24,1.36.68.03,1.45,1.14,1.55,2.11,1.82,4.72,1.3,9.49,2.27,14.33,3,13.89,2.1,27.71,1.87,41.45-1.02,7.7-1.62,11.21-5.74,12.29-13.58.58-4.19.34-8.38.44-12.58.17-7.58.7-15.13,3.24-22.38,2.81-8.06,6.27-15.87,9.46-23.77,1.76-4.33,3.7-8.59,6.1-12.63.95-1.6.68-2.04-1.14-2.16-.55-.03-1.11,0-1.65,0-6.22.37-12.24,1.87-18.2,3.56-2.83.8-5.67,1.57-8.5,2.35.36-.63.82-.94,1.31-1.12,3.51-1.41,6.58-3.39,8.57-6.77.31-.53.75-.99,1.16-1.45,8.38-9.48,18.83-13.31,31.31-11.11,7.52,1.33,12.13,6.65,12.41,13.6.07,1.91-.68,2.68-2.52,2.54-2.13-.15-4.26-.26-6.37-.46-3.7-.34-7.38-.75-11.08-1.12-1.65-.17-2.66.48-3.34,2.08-3.02,7.09-6.02,14.2-9.25,21.2-6.31,13.65-9.88,27.83-9.12,42.98.19,3.72-.34,7.41-1.4,11.01-.46,1.55-.07,2.35,1.74,2.28,4.82-.15,9.63-.19,14.45-.34,2.9-.1,5.81-.31,8.55-1.24,10.99-3.78,12.73-8.76,10.43-19.72-.17-.78-.37-1.82-1.26-1.99-1.04-.2-1.14.97-1.58,1.62-.51.73-.95,1.52-1.5,2.22-.27.36-.63.87-1.19.55-.44-.26-.22-.75-.12-1.12.27-1.14.46-2.32.9-3.39,3.14-7.7,6.22-15.44,9.53-23.09,7.19-16.62,15.29-32.82,23.62-48.88,8.52-16.43,12.54-33.54,10.11-51.99-.19-1.45-.43-2.85-.97-4.21l-.05-.07Z"/>
          <path class="cls-4" d="M242.35,408.34c.61.03,1.23.05,1.86.1,2.1.14,2.61-.46,2.03-2.49-.55-1.94-1.48-3.68-3.03-5.04-3.41-2.98-7.43-4.31-11.88-4.6-7.67-.49-14.3,2.15-20.26,6.73-1.91,1.47-3.66,3.1-5.47,4.7-.39.34-.95.78-.68,1.38.36.75,1.06.37,1.65.29.34-.05.66-.17,1.01-.26,5.28-1.31,10.67-1.86,16.09-2.04,6.27-.2,12.46.85,18.69,1.24v-.02Z"/>
          <path class="cls-5" d="M285.35,323.68c-1.41-.41-2.83-.51-4.28-.44-.66.03-1.48-.1-1.77.72-.27.77.53,1.02.94,1.45,1.98,2.03,2.35,3.27.89,5.67-1.99,3.25-.1,5.93.85,8.78.2.58.82.72,1.4.66,5.03-.41,6.65-1.16,6.75-5.74,0-.68.1-1.36.19-2.44-.03-.58-.14-1.55-.15-2.51-.1-3.22-1.69-5.23-4.79-6.13l-.02-.02Z"/>
          <path class="cls-1" d="M125.09,477.33c-1.06-.89-2.32-1.52-3.49-.32-2.23,2.25-2.98,5.04-2.47,8.15.48,2.93,2.06,5.06,4.84,6.2,1.36.56,2.45.1,3.08-1.21.73-1.57,1.19-3.22,1.07-4.99-.2-2.91-.56-5.78-3.02-7.82h-.02Z"/>
          <path class="cls-1" d="M124.61,472.68c1.12-.09,2.35.02,2.45-1.53.07-1.09-.56-1.69-1.65-1.57-1.3.14-2.51.73-2.64,2.11-.1,1.19,1.12.84,1.82.99h.02Z"/>
          <path class="cls-4" d="M130.49,417.05c.89-5.45,2.42-10.72,4.48-15.85.24-.58.43-1.16.53-1.4.34-1.52-.48-2.11-1.21-2.74-6.07-5.25-11.28-11.25-15.64-18-1.21-1.89-1.62-1.87-2.66.19-2.54,5.03-5.04,10.09-7.6,15.12-.73,1.45-.61,2.71.39,4,5.59,7.28,11.59,14.16,18.95,19.72,1.84,1.4,2.37,1.23,2.74-1.04h.02Z"/>
          <path class="cls-2" d="M156.12,122.69c-.68.1-1.04.41-1.35.78-.61.77-1.43,1.24-2.32,1.67-.51.24-1.38.27-1.38,1.02s.82.87,1.35,1.09c8.62,3.83,16.7,8.61,24.22,14.3.46.34.99,1.11,1.55.49.49-.56-.2-1.12-.6-1.55-5.78-6.19-11.76-12.13-19.07-16.55-.82-.49-1.69-.89-2.4-1.26Z"/>
          <path class="cls-3" d="M49.32,28.2c.51.65,1.14,1.19,1.69,1.81,9.37,10.26,18.9,20.38,27.35,31.44.39.53.72,1.31,1.53,1.21.72-.09.89-.8,1.06-1.4,1.77-6.22,4.82-11.66,9.75-15.97.7-.61.99-1.31.09-2.06-3.89-3.25-7.29-7.09-11.83-9.59-8.91-4.94-18.47-7.38-28.65-7.57-.65-.1-1.47-.41-1.87.29-.53.9.46,1.31.9,1.86l-.02-.02Z"/>
          <path class="cls-2" d="M93.73,95.03c-1.81-.39-3.61-.85-5.44-1.18-1.35-.26-2.03.17-1.41,1.69.56,1.4,1.02,2.85,1.57,4.26,2.11,5.44,5.13,7.43,11.03,7.31,1.23-.1,2.47-.17,3.7-.32,1.16-.14,2.1-.72,2.59-1.81,1.67-3.8,2.44-7.86,3.03-11.93.26-1.7-.43-2.06-2.08-1.43-1.09.41-2.16.9-3.27,1.26-1.52.48-2.4,1.43-2.86,2.95-.58,1.89-1.33,3.75-2.04,5.61-.2.53-.14,1.43-.97,1.36-.68-.07-.78-.87-.95-1.45-.46-1.52-.9-3.02-1.33-4.55-.24-.84-.56-1.53-1.53-1.74l-.02-.03Z"/>
          <path class="cls-5" d="M196.37,302.75c2.71-1.18,5.54-2.04,8.37-2.91,2.76-.84,5.71-.87,8.45-2.52-3.6-.8-7.17-1.72-10.79-2.37-10.38-1.86-18.4-7.26-24.51-15.8-2.56-3.58-5.42-6.94-8.15-10.41-.89-1.12-1.84-.97-2.85-.15-1.04.85-.41,1.5.17,2.25,3.36,4.38,6.29,9.03,9.19,13.72,4.07,6.6,8.66,12.75,14.93,17.48,1.65,1.26,3.24,1.55,5.16.72h.02Z"/>
          <path class="cls-3" d="M142.96,104.54c.17.56.2,1.33,1.02,1.36.8.03.9-.75,1.19-1.24.27-.48.46-1.01.66-1.52,2.91-7.38,3.07-15.17,3.6-22.36-.2-5.59-.48-10.58-1.79-15.47-.43-1.62-1.31-2.11-2.68-1.12-4.12,2.98-8.4,5.71-12.63,8.54-2.11,1.41-2.2,2.54-.97,4.75,1.36,2.47,2.88,4.82,4.06,7.41,2.88,6.41,5.4,12.93,7.53,19.63v.02Z"/>
          <path class="cls-2" d="M73.38,113.2c.2.63.9.55,1.43.51.89-.05,1.79-.14,2.66-.26,3.61-.53,7.23-.9,10.87-.95,13.41-.17,26.57,1.77,39.57,4.89,1.84.44,3.72.78,5.57,1.18.17-.17.34-.32.49-.49-1.87-1.74-2.03-4-2.42-6.24-.26-1.41-1.19-2.52-2.62-2.93-5.62-1.6-11.3-2.95-17.16-3.37-1.82-.14-3.56.32-5.08,1.38-3.8,2.66-7.89,2.37-12.05,1.18-2.44-.7-4.81-1.98-7.4-1.52-4.72.84-9.03,2.79-13.07,5.33-.44.29-1.02.68-.82,1.3h.02Z"/>
          <path class="cls-2" d="M36.98,25.25c-1.21.19-3.07-.53-3.78.97-.66,1.41,1.09,2.32,1.79,3.44.07.12.19.2.27.32,9.27,11.72,19.55,22.55,30.03,33.18,3.48,3.53,7.06,6.95,10.63,10.38.84.8,1.91,1.52,2.42-.34,1.19-4.38,1.77-8.66-2.4-12-.15-.12-.29-.29-.43-.46-7.28-8.61-15.1-16.77-22.24-25.49-1.87-2.28-3.97-4.4-6.31-6.22-2.88-2.23-6.02-3.87-9.99-3.77v-.02Z"/>
          <path class="cls-4" d="M129.4,283.38c.53-.14,1.07-.2,1.62-.32,7.98-1.72,15.58-4.41,22.73-8.35,1.07-.6,1.98-1.26,1.91-2.39-.31-2.32-.6-4.36-1.87-6.1-.89-1.21-1.72-1.6-3.05-.55-4.43,3.53-9.41,6.17-14.59,8.42-3.6,1.55-7.24,2.98-10.97,4.16-2.04.65-2.18,1.07-1.16,2.91,1.76,3.12,1.77,3.12,5.37,2.23l.02-.02Z"/>
          <path class="cls-2" d="M119.5,276.22c.37.39.87.66,1.33.95.6.37,1.24.58,1.96.32,2.13-.77,4.28-1.5,6.37-2.33,1.18-.46,1.24-1.23.2-1.94-1.86-1.3-3.75-2.54-5.62-3.8-.48-.32-1.01-.43-1.57-.39-1.12.03-5.86,2.95-5.88,3.83-.03,2.06,2.11,2.23,3.2,3.36h0Z"/>
          <path class="cls-2" d="M80.78,79.2c.95,10.12,9.08,14.79,18.87,11.81,7.58-2.3,14.16-6.29,20.31-11.15,6.92-5.45,13.48-11.35,20.86-16.19,4.46-2.95,8.78-6.2,14.03-7.75.94-.27,2.1-.65,2.56.44.41,1.01-.68,1.58-1.45,1.94-1.67.78-3.43,1.41-5.13,2.16-1.33.6-2.15,1.58-1.72,3.12,1.62,5.76,1.52,11.71,2.04,18.88.15,5.08-.55,11.33-1.91,17.55-.97,4.45-2.01,8.86-4.62,12.71-.51.75-.82,2.18-1.82,1.96-.95-.2-.8-1.64-.94-2.54-1.01-6.56-2.98-12.83-5.71-18.88-2.23-4.96-4.41-9.92-7.41-14.49-1.04-1.58-2.1-1.82-3.53-.56-.99.87-1.99,1.69-2.98,2.54-2.08,1.81-2.15,2.32-.26,4.31,3.6,3.78,6.51,7.99,8.42,12.87,1.7,4.33,2.47,8.86,2.88,13.46.27,3.19,1.41,5.78,4.04,7.77,2.54,1.93,5.37,3.12,8.42,3.68,5.79,1.07,7.62.05,9.88-5.44,1.45-3.49,2.68-7.07,3.6-10.75,1.94-7.87,3.58-15.81,4.64-23.88,1.12-8.45,2.3-16.85,1.16-25.44-1.04-7.86-5.74-13.74-13.29-15.93-7.19-2.1-14.3-1.4-21.39.49-5.91,1.57-11.16,4.62-16.53,7.43-1.77.92-3.61,1.7-5.62,1.91-.85.09-1.89.05-2.1-.87-.24-1.02.97-.94,1.57-1.19,4.46-1.81,8.88-3.73,12.93-6.37.44-.29,1.02-.58.92-1.24-.1-.72-.78-.68-1.28-.84-3.1-.92-6.31-.75-9.44-.51-7.33.55-14.26,2.74-19.36,8.15-8.08,8.57-11.72,19.12-10.62,30.83h-.02Z"/>
          <path class="cls-4" d="M191.69,172.33c-2.4-11.15-7.58-20.77-16.77-27.64-11.79-8.81-18.92-9.49-32.29-1.84-8.79,5.03-14.91,12.8-19.61,21.59-5.04,9.48-8.23,19.67-10.48,30.13-1.76,8.16-.32,15.68,5.25,22.24,5.96,7.06,13.46,11.9,21.86,15.49,3.6,1.53,7.4,1.98,11.32,1.57,8.95-.95,16.85-4.4,23.82-10,11.91-9.56,18.9-21.66,18.95-37.78.17-4.36-1.04-9.05-2.04-13.75ZM174.18,192.39c-2.2,12.12-8.28,21.64-19.27,27.52-11.28,6.05-24.18,4.46-32.06-4.65-4.06-4.69-6.53-12.49-6.2-19.61-.26-12.44,10.48-28.19,24.18-32.38,19.39-5.91,37.03,8.81,33.35,29.12h0Z"/>
          <path class="cls-2" d="M149.18,164.09c-3.53,0-7.26,2.62-8.47,5.93-1.62,4.38.58,8.15,5.04,8.66,4.58.53,9.56-3.95,9.51-8.59-.03-3.32-2.76-6-6.08-6Z"/>
        </g>
      </g>
    </g>
  </g>
</svg>