<?xml version="1.0" encoding="UTF-8"?>
<svg id="Layer_2" data-name="Layer 2" xmlns="http://www.w3.org/2000/svg" viewBox="0 0 535.685 473.2694">
  <defs>
    <style>
      .cls-1 {
        fill: #66bbe1;
      }

      .cls-2 {
        fill: #ebe4ca;
      }

      .cls-3 {
        fill: #eedc60;
      }

      .cls-4 {
        fill: #fff;
      }

      .cls-5 {
        fill: #ff669b;
      }

      .cls-6 {
        fill: #dca3c3;
      }

      .cls-7 {
        fill: #587cac;
      }

      .cls-8 {
        fill: #273f5f;
      }
    </style>
  </defs>
  <g id="katman_1" data-name="katman 1">
    <g>
      <path d="m534.0849,154.4119c1.2198-2.4125,2.4803-4.4725.759-7.4678-7.7931-13.5261-18.8254-22.539-34.5607-24.3958-4.8927-.5828-5.7872-2.3312-5.733-6.6953.2032-17.2261-1.9517-34.249-5.7059-51.0413-3.7136-16.5892-9.0671-32.609-17.714-47.3549-3.334-5.6653-6.8715-11.2085-12.5773-14.8543-6.1125-3.9033-11.9811-3.4019-17.3482,1.4095-3.4289,3.0766-5.733,6.9528-7.6575,11.073-5.5975,12.0081-8.6198,24.8159-9.5279,37.8811-1.2469,17.7818-5.2179,34.7233-12.3876,50.9736-.5422,1.2333-.8268,2.6022-1.5045,3.7542-.637,1.0978-.3253,2.9953-2.4802,3.1173-.0813-1.5858-.0271-3.1715-.2575-4.7166-1.0301-7.007-2.6293-13.5125-11.6015-14.1224-2.5887-.1762-3.3205-2.5751-4.3913-5.0824,7.0748-3.7,14.0412-7.3052,20.9668-10.9916,1.5044-.7997,3.9033-1.1249,3.6864-3.3747-.2032-2.1279-2.6158-2.2905-4.1608-2.9547-10.1785-4.3099-20.4247-8.4842-30.6438-12.7129-2.6971-1.1249-5.1095-2.1956-6.2886-5.5026-1.5994-4.5267-5.7195-6.0041-9.9888-4.6216-4.3099,1.3825-7.7931.2575-11.6286-1.3553-30.1288-12.7129-60.3524-25.236-90.4812-37.9897-4.066-1.7348-7.4407-1.8974-11.4253.3388-7.2781,4.0795-14.8543,7.6034-22.3222,11.3441-44.1834,22.1323-88.3668,44.2511-132.5231,66.4107-2.0465,1.03-4.8114,1.3418-5.5433,4.3505,1.9517,2.1143,4.5132,2.3176,6.8309,3.0089,20.777,6.1531,41.5405,12.2656,62.304,18.4187,1.8839.5693,4.9063.5286,5.0283,2.7106.3659,6.5191,3.3476,13.1873-1.5722,19.5166-5.9634,7.6575-10.5443,16.2096-15.1525,24.7888-4.7978,8.9452-8.2268,18.4324-12.4011,28.2855-3.7001-5.2586-4.7166-10.9239-7.1561-15.9521-9.7719-20.2079-21.8477-38.9654-35.4823-56.7337-6.221-8.1048-11.1272-16.684-14.5426-26.4558-6.343-18.0936-13.3228-36.0244-23.7046-52.3018-8.9179-13.9598-17.2668-14.2173-27.0251-.9487-7.3322,9.9616-11.5337,21.387-15.044,33.1105-.7318,2.4667-.1355,3.6865,2.0872,4.7843,3.8491,1.911,7.5085,4.2015,10.2869,7.5763,4.0524,4.9197,3.822,8.7282-.8132,12.9839-3.0089,2.7649-6.4243,5.1231-10.2598,6.4513-4.2286,1.4638-5.096,4.1337-4.7843,8.2674.8267,10.8019,1.1114,21.6581,2.5209,32.4193,3.0089,22.9727,8.0506,45.3219,20.3841,65.3942.4337.6912,1.0842,1.5044-.2033,2.7377-.7183,0-1.8296-.1084-2.9139.0136-2.6023.3118-5.0147,1.0978-5.4348,4.1202-.3524,2.5751,1.2876,4.1608,3.3612,5.3806,2.1414,1.2469,4.4048,2.3447,6.37,3.8491,3.5915,2.7242,6.9257,5.5026,6.9528,10.8696.0271,3.8084,2.6022,6.5598,6.248,8.1319,2.9004,1.2334,5.8143,2.5074,8.5114,4.1067,1.4773.8809,3.1172,2.5344,2.0194,4.4725-1.0572,1.8432-3.1851,1.4638-4.9063.7725-3.4019-1.3825-5.9499-4.0388-8.7554-6.3023-4.066-3.307-8.796-5.4755-13.7836-3.4289-4.2964,1.7619-7.6034.9487-11.3576-.9759-4.8249-2.4802-9.9616-3.0359-15.0034-.5828-2.0872,1.0165-3.7813,2.6971-3.6458,5.2722.1355,2.7648,2.3447,3.7813,4.5674,4.2828,3.0902.6642,6.2344,1.1114,9.3788,1.3689,3.5509.2982,5.9634,1.3418,6.2345,5.5026.3524,5.2586,3.9439,7.9557,8.6604,9.1214,2.8327.7047,5.8008.7996,8.7148,1.2062,2.4531.3524,4.9604.4744,7.2374,1.5994,1.4366.7183,2.941,1.545,2.5887,3.4967-.2982,1.5858-1.8297,1.9652-3.1037,2.1279-2.2362.2982-4.4997.2846-6.7495.4066-4.8114.2305-8.4436,2.1414-9.04,7.3188-.3253,2.7784-2.155,3.7136-4.1202,4.8385-3.456,1.9923-6.126,4.7165-6.8036,8.796-.4337,2.6835-.7455,5.6652,2.3311,7.1019,2.7106,1.274,4.7436-.4066,6.5598-2.2362,1.1249-1.1114,2.182-2.2905,3.2663-3.429,1.5587-1.6264,3.0902-2.2092,5.34-.908,5.2315,3.0495,10.3682,1.8432,15.4371-.7725,7.4543-3.8356,9.0671-3.3883,14.3935,2.9546,5.8414,6.9664,9.8396,15.1253,14.8543,22.6203,8.8096,13.1737,20.0723,23.0811,35.5771,27.6756,8.8909,2.6293,17.958,4.3642,27.0657,5.977,13.5396,2.3989,27.2013,4.2828,40.1174,9.3924,12.3876,4.8927,12.5503,4.9198,9.5008,17.8495-1.789,7.6033-2.6429,15.4642-5.4348,22.8236-27.1334-7.8744-41.8116-1.2605-56.2458,25.6562-2.4531-8.4843-9.433-12.347-15.1525-17.4023,12.74-.0136,18.2155-7.1832,14.136-18.8389-1.8025-5.1503-4.6894-9.7719-8.9315-13.3771-2.4803-2.1007-5.4755-3.9846-8.6334-2.8461-4.9198,1.789-9.2704.2304-13.8378-.9216-12.9569-3.2392-25.1953-1.2063-36.3226,6.0582-17.592,11.4796-19.598,32.7174-4.7301,47.4905,1.0978,1.0842,2.3041,2.06,3.7,3.2934-.908.0949-1.3959.2981-1.7213.1626-8.9044-3.9439-14.5426-.2846-14.285,9.4331.1491,5.6923,1.5721,11.1136,3.7678,16.3858,2.2362,5.3942,5.9905,8.8231,11.5067,10.6257,10.1919,3.3476,20.6279,5.2315,31.3079,4.459,17.4294-1.2604,32.0804-7.3865,39.6838-24.6533.0949-.2168.7454-.1898,1.1384-.2575,10.7341,24.2467,36.6749,32.4192,59.0377,18.5543,4.2557-2.6429,8.1726-5.7194,9.6906-10.8426,1.3146-4.4184-.1762-8.037-3.5239-10.8967-3.1172-2.6565-6.3429-1.7077-9.3517.3117-2.8868,1.9245-6.0718,3.0359-9.4331,3.5374-5.4755.7997-9.0941-1.1791-12.103-6.5733,8.5249,0,16.8466,0,25.1819.0136,7.4813,0,11.3033-3.1308,12.4147-10.5444.3388-2.3175.0543-4.7165.0543-7.2781,4.1337,1.0436,4.1337,3.9169,4.093,6.5868-.0949,5.6382-.4472,11.2763-.6099,16.9144-.0948,3.2527-.786,5.882-3.4018,8.3894-4.2693,4.1201-3.1986,9.9751,1.8974,13.0788,1.7077,1.0436,3.6458,1.9381,5.5975,2.2905,9.2162,1.6941,18.4188,1.3011,27.5672-.7047,3.2257-.7184,5.4755-3.8356,8.1048-4.3642,2.426-.5015,4.4725,3.9305,7.7118,4.581.4473.0813.8674.2846,1.3146.3524,9.677,1.3011,19.3404,1.4231,28.9903-.3388,2.9817-.5422,5.218-3.2934,7.7389-3.7271,2.6565-.4608,5.0283,2.9546,8.281,3.5102,8.7554,1.4773,17.5243,1.8569,26.3203.9217,7.8744-.8404,15.2609-2.6293,16.1555-12.9704,2.941,2.6158,5.1908,4.8114,7.6305,6.763,2.6564,2.1143,5.6381,3.7407,8.8502,4.9063,17.5378,6.3971,39.7109.7048,52.0985-13.3499,7.6305-8.6469,9.7855-18.6492,7.0205-29.6815-4.3777-17.4158-19.8554-28.5702-39.0874-27.8789-4.1744.1491-6.0041-1.0707-7.4001-4.8385-3.9982-10.8019-8.7824-21.292-14.3935-31.3486-1.6128-2.8868-1.4638-4.4454,1.8296-5.4619,2.5751-.7861,5.0689-1.8568,7.6305-2.7242,13.0789-4.4455,26.8353-6.0448,40.131-9.5957,1.64-.4337,3.3341-1.5315,5.2045-.366.4337,3.0224-.8403,5.7466-1.4231,8.5656-2.2092,10.8833-.2304,15.3694,9.5008,20.9397,15.0169,8.6198,37.6914,6.6004,51.0142-4.5267,3.7271-3.1173,6.37-6.736,7.4814-11.6964,2.9682-13.2551,4.8792-26.6049,5.0011-40.2124.0271-2.4124-1.2198-5.5703,2.7106-6.6953,8.7554-2.5073,10.8697-9.311,10.951-17.3616.0271-2.1685-.7861-4.3641,1.3146-6.2886,5.4484-4.9876,6.492-11.7371,6.4785-18.595,0-4.2286.9758-7.6169,3.6187-11.1136,7.6712-10.1378,7.7795-24.7752-.4608-33.1105-4.4048-4.4725-4.0253-7.8744-2.0195-12.9433,7.8609-19.747,17.0635-38.857,26.7134-57.7502ZM92.6437,403.8992c-2.182-.7319-5.2179-2.0601-4.0524-5.1367,1.0029-2.6564,3.8356-2.5209,6.4378-1.9923,3.1715.637,5.9634,2.0465,8.3894,4.066,3.8084,3.185,7.4814,6.5733,11.195,9.8667-7.3458-2.2362-14.7052-4.337-21.9698-6.8036Zm-29.9797,29.7628c7.3188,4.4048,15.3694,6.885,23.3115,9.677,1.8975.6641,4.4319,1.4638,4.1337,3.7543-.3388,2.6428-3.1444,2.8461-5.367,2.9546-7.644.4066-14.1631-1.8297-18.6086-8.4707-1.4908-2.2227-2.8597-4.5268-4.2828-6.7902.2711-.3795.5421-.7454.8132-1.1249Zm320.3434,1.518c.7183,3.0224.9758,6.1667,1.4231,9.162-.1356,1.2198-.1491,2.3582-.4066,3.429-.2575,1.0842-.7997,2.1278-2.0872,2.3175-1.2469.2033-2.2905-.4066-2.7648-1.4502-3.5509-7.7931-5.977-15.8572-5.3942-24.5584.0678-1.1791.7725-2.2092,1.911-2.4937,1.789-.4473,2.9546.6505,3.7813,2.1007,2.0059,3.5781,2.6158,7.5898,3.5374,11.4931Zm-214.0728-12.103c-1.3689-.1219-3.2392.7454-3.8627-1.3146-.3253-1.1114.366-2.0601,1.247-2.8191,1.5721-1.3689,3.1714-1.3553,4.7707-.1491,1.1249.8403,1.4638,2.0736,1.789,4.0795-1.789.1084-2.8733.2981-3.9439.2032ZM359.2622,106.5826c.2575-2.2769.8809-3.7136,2.9546-4.7436,5.6381-2.792,11.222-5.7058,16.7789-8.6604,1.8432-.9894,3.3612-1.0843,4.7572.6505,1.1114,1.4095,2.2905,2.548,1.2333,4.7301-4.0253,8.2946-2.0058,15.2473,5.1096,20.8855,1.0571.8403,2.2905,1.6806,1.5315,3.2799-4.2015,8.918-2.4261,18.6221-3.7001,27.9196-.4879,3.5103-.1761,7.1832-2.4531,11.4932-4.581-8.8503-10.3546-15.4507-15.3828-22.5797-6.8443-9.7041-12.2792-20.2891-10.829-32.975Zm129.3382,298.7125c-6.6546-7.3594-16.2097-7.007-27.4994,1.2333-.9759-3.0495-2.1821-6.1667-5.8686-6.3429-12.0352-.5692-23.3928,2.0465-33.4357,8.7283-4.8792,3.2664-5.1909,10.5173-.4744,13.2957,4.4861,2.6565,4.7301,6.0176,4.5674,10.1514-.1491,4.066-.3388,8.1184-.3524,12.1843-.0135,3.6051-1.3282,6.2073-4.1201,8.7283-6.6546,6.0176-5.1773,14.2579,3.4019,16.7923,12.9704,3.8084,26.2932,3.3341,39.4533.4608,4.5946-1.0165,7.4678-4.337,7.9422-9.0671.488-4.974-2.4396-7.9964-6.8308-9.7041-1.7213-.6642-3.4832-1.0978-3.822-3.2935-.8674-5.6788-1.274-11.3305.0136-17.2668,11.3305,7.4407,20.1265,6.9528,27.0386-1.0842,6.1531-7.156,6.1531-17.9986-.0136-24.8159Z"/>
      <g>
        <path class="cls-7" d="m193.3869,313.5158c1.2977.3144,2.4845,1.0653,3.7466,1.5517,20.7552,8,42.0652,13.6895,64.3982,14.5866,30.8985,1.241,59.0801-8.6532,86.3795-21.7793,4.2374-2.0374,9.0829-3.4044,12.2368-7.0646,7.2435-8.4062,11.9919-18.5159,18.2081-27.6361.713-1.0461.7182-2.1062-.2242-3.0448-1.0808-1.0766-2.1004-.412-2.9885.2576-2.8817,2.1729-5.769,4.3445-8.5568,6.6351-17.5752,14.441-37.0721,25.5673-58.0961,34.1758-27.3597,11.2026-54.7388,11.5076-82.5268,1.4345-18.3547-6.6535-35.4788-15.5393-51.9444-25.9107-5.8006-3.6537-11.2226-7.9005-17.4759-11.0466,8.4009,16.5997,16.8089,32.9871,36.8435,37.8408Z"/>
        <path class="cls-4" d="m184.0456,290.0836c3.0866,1.9407,5.4784,3.9025,9.2293,4.8395.2258-3.4344.3048-6.401-2.5125-7.6911-2.5209-1.1544-4.4107.8728-6.7168,2.8516Z"/>
        <path class="cls-4" d="m172.024,269.1644c-3.703,2.6696.4475,4.55,1.3166,6.6054.6615,1.5644,2.1763,2.8259,3.4766,4.046,1.3381,1.2556,2.9835,2.2732,4.8579,1.2443,1.7237-.9462,2.0968-2.7957,2.378-4.5583-.1266-2.1862-1.4867-3.7787-2.4873-5.5025-1.9645-3.3847-6.0391-4.3601-9.5418-1.8349Z"/>
        <path class="cls-4" d="m205.0701,264.2038c3.0259,5.423,6.7821,10.1294,12.4587,12.9925,6.0155,3.034,9.8302,1.9863,12.6456-4.213,2.9502-6.4962,5.2967-13.2666,8.2208-20.7164-11.4753,1.5909-21.8516,4.3935-32.1043,7.7502-2.4802.8121-2.2711,2.3042-1.2207,4.1867Z"/>
        <path class="cls-4" d="m197.7433,297.3718c3.7535,2.8734,7.5557,4.5308,11.9845,5.7932.7248-3.989,1.2185-7.8863-2.7694-9.659-3.7438-1.6642-6.6936.6261-9.2152,3.8658Z"/>
        <path class="cls-4" d="m196.4032,262.7253c-2.8345.7142-5.6565,1.4852-8.4605,2.311-6.3005,1.8557-6.6515,2.9351-2.6402,7.9263.5621.6994,1.1748,1.3718,1.8408,1.9715,2.79,2.5124,5.9251,4.322,9.7936,3.1284,3.775-1.1647,3.5232-4.8224,4.2295-7.8005.2579-1.0876.3037-2.2255.3756-2.7877.217-5.7302-.1091-6.0162-5.1387-4.749Z"/>
        <path class="cls-7" d="m406.2475,244.4905c9.2444-22.986,13.7656-47.0132,15.6773-71.6108.1353-1.7419-.1578-3.3152-1.9919-3.7797-2.0957-.5307-2.2895-3.1462-4.7026-4.1431-.1137,5.7827-3.7885,7.1321-8.1445,7.2861-5.0202.1774-10.0516.0413-15.7044.0413,4.4373,13.4691,7.8852,25.744,9.7988,38.5132,1.9499,13.0129.4079,25.8843-.414,39.5289,3.4732-1.3826,4.5844-3.6057,5.4813-5.8359Z"/>
        <path class="cls-4" d="m335.2492,188.8922c2.4035,4.5727,6.3546,6.717,11.0892,7.242,2.8571-.176,5.0542-1.1868,6.5482-3.3541,3.1514-4.5719,2.7193-9.3103.2667-13.9647-2.5258-4.7933-6.7471-7.1293-12.0497-7.1139-2.5358.0074-4.6945,1.5157-6.0324,3.7675-2.6632,4.4821-2.1582,8.9782.1781,13.4232Z"/>
        <path class="cls-1" d="m384.5389,171.8684c-4.608-16.5756-15.1525-29.0988-29.1394-38.5453-8.8909-6.0041-17.3751-3.9033-23.4876,4.974-4.3777,6.3429-7.522,13.3499-9.3246,20.899-1.7619,7.4543-3.7543,14.8543-5.2858,22.3492-2.9004,14.2174-4.6623,28.5295-2.2769,43.0314,1.396,8.525,5.7872,15.2473,13.2008,19.5573,10.8833,6.3293,22.7423,8.8773,35.1706,6.5461,9.9751-1.8703,17.2532-7.5356,20.6822-17.47,3.1985-9.2569,4.9876-18.7441,4.9334-26.8624.0677-12.8349-1.518-23.813-4.4726-34.4793Zm-15.2473,56.0153c-7.9286,15.2339-19.0828,15.3965-31.9584,10.9239-.4201-.1491-.7861-.4472-1.1791-.6641-15.6675-8.4707-18.8661-14.6239-16.5349-32.3379,1.2197-9.2433,4.0388-18.0664,8.2946-26.3474,6.0312-11.7642,17.3481-15.3964,28.9903-9.1348,13.2008,7.1019,17.3209,19.3539,18.0393,31.0775-.3931,10.7206-1.7213,18.9473-5.6517,26.4829Z"/>
        <path class="cls-2" d="m468.7934,219.7627c.5293-.8233.9097-1.1623.9763-1.5546,4.3295-25.5305,3.7513-51.2486,2.8951-76.9754-.0354-1.0648.2204-2.3063-.9977-2.986-3.3254-1.8557-9.9377,2.4558-9.942,6.4359-.0213,19.6316.269,39.2723-.2756,58.8898-.1917,6.9034,1.1396,12.218,7.344,16.1902Z"/>
        <path class="cls-3" d="m368.4576,54.8905c-.3502,1.7585-.3557,3.593-.434,5.3972-.5131,11.8245,2.3423,21.9459,13.8167,27.8899,2.4006,1.2436,4.318,3.2244,5.8736,5.5205,1.3441,1.9842,1.7782,3.5221.411,6.0469-3.7476,6.9201-2.2382,12.322,3.891,17.1785,1.5496,1.2278,3.7465,1.6271,4.842,3.8646-4.715,5.6898-5.0873,12.6991-5.2039,19.7189-.1314,7.9197-.1016,15.8604-3.6034,23.214-1.373,2.8833-.2784,4.0179,2.3772,4.8915,4.8649,1.6005,9.8141,1.3958,14.7654.9537,6.3308-.5652,6.9221-1.1276,6.9377-7.3624.01-4.0451-.4803-8.0914-.7941-12.8616,3.9875,2.8305,5.4445,6.1085,6.711,9.4663q3.0199,8.0063,10.3359,3.7801c1.1413-.6618,2.4812-1.1722,3.3192-3.4267-6.0606-5.2154-8.7685-12.4812-12.0372-19.4058-1.5405-3.2633-2.9007-6.6153-4.5293-9.8326-2.1572-4.2614-4.6001-8.4198-9.3224-10.2917-2.7015-1.0708-2.1429-3.0644-2.001-5.0408.2907-4.0497.8162-8.091-.2506-12.1222-1.148-4.3381-3.3485-7.5022-8.3501-7.2086-2.0829.1223-3.3338-.4124-4.2789-2.3517-1.74-3.5705-4.8675-5.9349-8.093-8.0023-7.6785-4.9216-10.563-12.0108-9.8507-20.818.2568-3.1752.152-6.2974-.3928-9.4404-.6334-3.6543-2.6179-5.3443-6.9904-5.3073,1.9738,1.8862,3.3114,3.2406,2.8513,5.55Z"/>
        <path class="cls-4" d="m233.6509,300.5562c-2.1757-5.5272-4.5946-6.4868-9.7807-3.4873-2.4948,1.4429-4.6962,3.4219-6.9309,5.2781-2.2727,1.8878-2.5334,3.6177.6964,4.8168,6.0323,2.2397,11.9899,4.72,19.4021,6.0404-.8064-3.4279-1.3202-5.8135-1.9393-8.1714-.3978-1.5151-.874-3.0195-1.4476-4.4766Z"/>
        <path class="cls-7" d="m421.8635,134.3126v-40.7795c-3.4288,6.5476-6.0845,13.2026-8.8246,19.8227-1.1173,2.6996-1.3097,5.0589.9083,7.4413,3.4071,3.6595,5.3615,8.2648,7.9163,13.5156Z"/>
        <path class="cls-4" d="m311.309,294.1649c-4.6038-1.9188-6.7312-1.2035-8.455,3.3924-1.5682,4.1812-2.4209,8.5664-2.6565,13.7298,4.8633-.6601,8.3405-2.351,11.788-3.9423,3.1508-1.4543,8.6406-1.8217,8.6185-5.2419-.0256-3.9762-5.3048-5.5157-8.6735-7.6731-.187-.1197-.4133-.1781-.6214-.2649Z"/>
        <path class="cls-4" d="m256.3582,263.0758c5.2142-1.2701,5.1742-6.7884,6.509-10.9853.068-.2138.1014-.4392.1442-.6605.4125-2.1359-.6287-2.9888-2.6099-2.7242-5.5111.736-11.0114,1.5534-16.4433,2.3284-.1025,2.845,1.5855,4.1944,2.8469,5.7031,2.5647,3.0673,4.9173,7.4678,9.5531,6.3385Z"/>
        <path class="cls-4" d="m256.8407,308.0219c-4.2027-.2835-6.5524,3.8691-8.6681,7.847,4.8565,1.3863,9.3327,2.2409,14.3919,1.3135-1.2881-3.8026-1.2272-8.8572-5.7238-9.1606Z"/>
        <path class="cls-4" d="m282.063,261.2571c3.6807-2.7547,5.9913-6.4784,8.4946-11.4384-4.3117-.494-7.4172-1.1393-10.5197-1.1254-3.2186.0145-7.8866-2.1854-9.3325.8494-1.546,3.245,1.4775,7.1776,3.4068,10.4409,2.0489,3.4657,4.8723,3.5775,7.9508,1.2735Z"/>
        <path class="cls-5" d="m231.6444,275.0977c-3.9527,6.3807-6.3688,7.0472-13.5338,4.8203-5.2614-1.6353-11.4209,2.6458-11.736,8.1199-.0561.9736.0288,1.8733.9559,2.3048,4.5902,2.1361,5.2149,6.6965,5.8625,11.4291,3.5292-2.6453,6.0887-4.876,8.9382-6.6372,6.7613-4.179,10.534-2.8628,13.8462,4.4614,1.412,3.1223,1.8488,6.5,2.768,9.7505.5946,2.1028.8296,4.5287,3.7175,5.0827,2.5133.482,3.6581-1.2765,5.0056-2.7631,1.3648-1.5056,2.5988-3.1481,4.0804-4.526,3.7578-3.4951,7.3664-3.1357,10.1462,1.1556,1.3345,2.0601,2.2304,4.425,3.1641,6.7174.7081,1.7386,1.9276,2.2741,3.6756,2.3204,1.8341.0486,3.0137-.6273,3.5603-2.4085.331-1.0784.7107-2.1455,1.1315-3.1923,3.5294-8.7843,8.4198-9.7434,15.1307-2.9598.6312.638,1.1648,1.3771,1.7094,2.0953,1.136,1.4983,2.3119,2.739,4.5081,2.0811,2.1482-.6436,2.4487-2.393,2.8753-4.1679.8962-3.7289,1.577-7.538,2.8283-11.147,2.6024-7.5063,6.3676-8.7344,13.575-5.1307,2.9276,1.4639,5.0872,4.2893,8.4628,5.1595q1.3868-6.2067,6.3884-10.6154c.4732-.4182,1.2527-1.069,1.1675-1.4502-.8535-3.8146-2.8028-7.1412-5.3491-10.0179-2.2345-2.5243-4.0702.1066-5.9194.9955-7.1305,3.4272-10.3766,3.0306-15.3356-2.893-1.8325-2.189-3.3712-2.3857-5.7906-1.5395-9.9686,3.487-19.2284,8.7107-29.6572,11.4222,2.1805,3.4064,6.512,1.581,8.8332,5.3552-6.602.3335-11.2363-2.2167-15.4806-5.7279-6.7401-5.5759-14.2852-9.3641-22.9351-11.0447-3.146-.6112-4.8734.1745-6.593,2.9503Z"/>
        <path class="cls-7" d="m464.6991,237.0206c-2.4516-1.3043-4.8014-.5178-6.9398-1.1354-2.6285-.7592-5.5449-1.3528-5.547-4.8892-.0018-3.2052,1.6673-5.5685,4.6466-6.8174,1.0205-.4278,2.2127-.426,3.2983-.7235,1.438-.3941,3.6773-.0531,3.8726-1.9369.2415-2.3306-1.8635-3.4249-3.7563-4.2444-6.0253-2.6085-14.9399.4243-18.2108,6.5062-3.1067,5.7765-5.5545,11.8412-5.6778,18.588-.0294,1.6061.3103,3.4046-1.0125,5.1385-2.9346-5.3789-2.9671-5.4787-6.2788-4.3997-19.8053,6.453-36.9962,16.6613-48.9828,34.2957-3.9274,5.7779-8.2414,11.3299-11.7298,17.3605-4.7702,8.2465-11.645,13.5756-20.3415,16.9618-6.3093,2.4567-12.5433,5.1063-18.8362,7.6061-2.3028.9148-4.3739,2.1643-3.2126,4.9254,2.1469,5.1048,1.7606,10.6269,3.063,15.8777,1.5801,6.3699,4.0215,12.4326,5.8399,18.695,4.3364,14.934,8.3079,29.9737,12.56,44.9328.5035,1.7712.4498,4.1321,2.8559,4.9801,4.9885-2.6445,9.4723-6.296,15.0266-7.6698,3.8768-.9588,4.4602-2.7783,2.9912-6.3413-3.6987-8.971-7.6765-17.8015-12.1214-26.4241q-2.9381-5.6998-10.1-5.6997c5.1098-6.7249,11.737-8.4065,18.1684-10.0463,13.5567-3.4563,27.153-6.8086,40.8482-9.6486,6.9318-1.4375,11.9347-3.8058,11.7123-11.8914-.0235-.8529.4492-1.734.7546-2.5794,6.5925-18.247,13.324-36.4453,19.7397-54.7543,3.2389-9.2431,7.887-18.0639,8.8276-28.0842,7.193-.5671,14.4487-.9769,18.5424-8.5822Z"/>
        <path class="cls-6" d="m433.4378,157.1645c2.1576,2.1097,1.5848,4.7318-.6867,5.6417-7.294,2.9221-6.7573,9.1997-7.3418,15.1732-1.9826,20.2653-5.3645,40.2271-12.7818,59.3365-1.1054,2.848-2.5818,5.6763-2.7982,9.4375,5.2812-1.0341,9.5484-3.723,14.2487-4.8272,6.7081-1.5759,9.816-5.2352,10.9782-12.2276,1.7498-10.5266,8.2777-16.146,18.9223-17.1999,3.7733-.3736,4.4248-1.7919,4.4653-4.9517.252-19.6212,1.4331-39.2423-.4268-58.8537-1.0576-11.1514-.9859-11.2423,9.978-13.8808,2.7639-.6651,4.7703-1.4576,4.132-4.7823-.7379-3.8434,1.297-5.2472,4.7291-5.7829,2.6658-.4161,5.2599-1.6677,7.9076-1.7388,4.4183-.1186,5.5413-2.0147,5.5672-6.2684.197-32.3882-6.8786-63.0983-20.8685-92.2348-1.9423-4.0452-4.3264-7.9614-7.0288-11.543-8.3836-11.1104-16.8207-10.401-23.3463,1.7926-2.4578,4.5926-4.1991,9.484-5.5525,14.5075-4.7237,17.533-7.1812,35.4111-7.0644,53.5396.1193,18.5016,1.1286,36.9974,1.246,55.499.0456,7.1919.1847,13.9494,5.7214,19.3634Z"/>
        <path class="cls-2" d="m456.2606,254.6042c.5123-2.032,1.7936-4.1419.7202-6.3264-5.0772-1.0612-7.8062.7777-8.9983,5.6913-.9522,3.9249-2.5722,7.6955-3.9963,11.4969-8.6278,23.0306-17.4569,45.9959-24.1206,69.6988-2.0413,7.2611-3.4947,14.6874-5.3496,22.6024q15.5311-6.2892,40.9131-1.1819c2.7202-7.3126,2.6012-7.5615-4.4043-8.753-4.7159-.8021-9.4206-.7551-14.1581-.0187-6.6293,1.0306-7.3564.1797-5.3305-5.974,9.4598-28.7334,17.3321-57.9175,24.7242-87.2354Z"/>
        <path class="cls-4" d="m316.5433,274.7802c6.1739-3.0656,9.8956-8.3654,12.7299-14.424.9492-2.0289.7531-3.4983-1.7376-3.9734-10.5799-2.0178-20.9965-5.0096-32.8171-5.915,3.7213,7.7582,6.6414,14.346,10.0031,20.7003,2.8175,5.3257,6.4283,6.2902,11.8217,3.6121Z"/>
        <path class="cls-4" d="m358.609,274.9588c2.9854-2.584,4.5526-5.978,5.464-10.1341-8.9011-3.2224-10.6805-2.4884-13.0838,4.785-.8941,2.706-.0327,4.9684,1.8326,6.6537,2.2478,2.0309,4.1079.149,5.7872-1.3045Z"/>
        <path class="cls-4" d="m328.4326,290.3529c-3.3585,2.1071-2.3542,5.7757-1.986,9.4302,4.7204-1.3405,8.6035-3.3059,12.0776-6.8623-3.416-2.4902-6.514-4.8124-10.0916-2.5679Z"/>
        <path class="cls-4" d="m279.9739,307.2197c-4.4138.6822-4.4702,5.5018-5.4324,10.1445,5.3696-.5591,9.8064-.5363,14.3222-3.2904-2.8786-2.9331-4.7148-7.4992-8.8898-6.854Z"/>
        <path class="cls-4" d="m189.7472,197.9059c4.997-3.4608,7.3451-8.4331,6.5093-14.5593-.6739-4.9391-4.6721-8.3497-9.1713-8.1779-6.7909.2594-13.2657,8.6426-12.321,15.9526,1.0153,7.8563,8.4345,11.32,14.983,6.7847Z"/>
        <path class="cls-4" d="m344.3357,283.0268c-2.5758,1.3174-2.0364,4.1269-1.7454,7.4541,3.6107-.7291,5.7709-2.8825,8.2147-5.0178-1.8831-2.1323-3.9944-3.7021-6.4694-2.4363Z"/>
        <path class="cls-4" d="m334.2704,269.5702c1.4369,4.7674,4.156,6.1074,8.6913,4.1058,4.8073-2.1217,7.7178-5.9205,9.0693-11.2387-6.0685-2.4851-12.3471-2.8775-18.8853-4.3275-.5667,4.4877.0862,8.0148,1.1247,11.4604Z"/>
        <path class="cls-1" d="m343.0688,418.6467c2.2389-3.4699,2.4587-6.2368,1.407-9.9846-7.6728-27.3448-16.2127-54.4717-21.4136-82.4537-.6485-3.4886-1.7411-4.4963-5.3594-3.2066-27.874,9.9356-56.29,12.1248-85.287,5.6377-5.042-1.1279-5.2412-.81-5.4472,4.462-.5816,14.8854-1.7377,29.705-4.6018,44.3573-1.6758,8.5735-3.1894,17.1787-4.8626,26.2381,4.292-1.1011,7.9309-2.0983,11.6009-2.9636,8.8107-2.0774,10.7612-1.2793,15.5354,6.2157.5284-.4228,1.0674-.8203,1.5691-1.2604,8.4717-7.4329,18.0478-7.677,27.8588-3.6472,9.4677,3.8887,13.0237,11.7731,13.2573,21.6354.1923,8.1193.8119,16.2275,1.0828,24.346.1228,3.6787,1.2817,7.7109,4.8122,7.7024,2.8595-.0067,5.8093-3.2097,6.2843-7.0643.1103-.8948.3387-1.7752.4456-2.6703.7288-6.1032-.1054-12.1645-.4642-18.2423-.1249-2.1148-1.4814-2.9837-2.9777-4.1073-7.3317-5.5051-6.5994-12.5813,1.7347-16.6382,2.8713-1.3977,5.9639-2.3407,9.6575-3.7615-3.218-.8269-5.7074-1.1795-7.9661-2.0988-8.0219-3.265-10.0501-13.4353-3.2109-18.6755,9.2497-7.0872,20.0883-9.4047,31.3215-5.7746,8.4752,2.7389,9.986,12.2239,3.6663,18.5597-1.5133,1.5172-3.9018,2.0666-4.9254,4.3038,7.7701.861,9.2502,2.2675,9.2581,9.6623.013,12.1835-.1611,24.3677-.3383,36.5505-.0509,3.4983.566,6.4124,4.6221,7.7459-.8272-3.8834-1.7801-7.3537-2.2768-10.8881-1.2033-8.5626.3787-16.7901,5.0174-23.9797Z"/>
        <path class="cls-3" d="m331.4557,385.3612c-.7956-3.3909-3.3584-5.0024-6.7633-5.7026-6.3976-1.3157-12.5518-.3454-18.5572,1.7341-6.8626,2.3763-10.2617,6.3859-9.4676,10.6421.8098,4.34,5.306,6.7177,12.5535,6.6509,6.6437-.0868,12.9751-1.4354,18.5225-5.2407,2.7233-1.868,4.5245-4.6222,3.7122-8.0839Z"/>
        <path class="cls-3" d="m198.1689,419.8106c-4.8792-9.6228-12.9027-14.8002-23.3928-16.3859-24.8566-3.7813-45.5794,17.7276-39.6431,41.1746,3.1578,12.4961,10.9916,20.6822,23.5148,23.6096,13.3092,3.1037,25.5478.4201,35.9024-8.9315,1.8839-1.6806,3.0495-3.8898,2.9546-6.5734-.1761-4.7978-3.4831-6.885-7.7118-4.608-2.6022,1.3959-5.1231,2.8461-8.0099,3.5509-7.9964,1.9381-16.2367-1.2063-19.3811-7.3729-1.9924-3.9305-.908-5.9634,3.5102-6.1261,4.5132-.1491,9.0265-.0271,13.5397-.0271v-.0136c4.2963,0,8.5791.0677,12.8755-.0271,5.2179-.0949,7.3458-2.0058,7.915-7.1154.4473-3.9033-.2981-7.6576-2.0736-11.1543Zm-29.8984,6.7902c-3.2122-.2982-7.3865,1.0842-7.3052-4.4184.0677-4.0795,3.822-7.7389,7.8337-7.7931,4.3235-.0678,7.6169,3.334,7.4272,7.7931-.2305,5.8414-4.703,4.0795-7.9557,4.4184Z"/>
        <path class="cls-1" d="m252.2644,430.0511c-.4259-2.2728-1.3432-4.3789-4.2815-4.3232-3.4416.0653-3.9253,2.6868-4.0446,5.1477-.261,5.3835-.1448,10.7842-.3144,16.1736-.1341,4.2589,1.0564,7.933,4.5777,11.3772,1.7514-1.529,3.3383-2.8655,3.7655-4.9688,1.5801-7.778,1.7603-15.5977.2973-23.4065Z"/>
        <path class="cls-3" d="m284.5957,445.6552c-.5318-8.9968.093-18.0498-1.5492-26.9989-1.0628-5.7923-4.2097-9.827-9.2976-12.5167-9.3196-4.9269-19.7234-3.1346-27.007,4.7267-1.3914,1.5017-2.5823,3.5038-4.9436,2.6872-2.0019-.6923-2.09-2.7117-2.0492-4.5842.0922-4.2346-2.3235-5.6709-6.0996-5.0624-9.1745,1.4786-18.0072,4.1843-26.2183,8.5457-3.8924,2.0675-4.5279,5.7909-1.1001,8.0518,5.0406,3.3247,5.4241,7.8125,5.1842,12.9384-.2426,5.1838-.2736,10.3772-.491,15.5625-.1451,3.46-1.1076,6.4308-3.8852,8.9905-3.5307,3.2535-2.8426,7.2702,1.743,8.8362,10.8006,3.6887,21.7774,3.246,32.4871-.5623,3.2357-1.1506,4.4956-4.1742,2.2907-7.1512-4.1258-5.5708-3.6178-11.8979-3.7242-18.184.0035-4.5099-.1957-9.0363,1.0204-13.4526.9478-3.4419,3.1983-5.4971,6.7698-5.5541,3.4316-.0548,5.9881,1.4916,7.349,4.8905.9474,2.366,1.3294,4.8358,1.3783,7.2764.1828,9.1302,1.6112,18.4038-4.6448,26.5875-2.4348,3.1851.381,5.8954,3.2963,6.6619,10.6871,2.8102,21.4981,2.6227,31.9803-.891,4.3682-1.4643,5.1567-5.2655,1.9479-8.478-3.5575-3.5619-4.165-7.7164-4.4371-12.3197Z"/>
        <path class="cls-7" d="m217.0485,325.2635c-10.829-3.1579-21.5767-6.5868-32.094-10.7341-9.2162-3.6323-16.1148-9.8668-21.1972-18.1478-4.0253-6.5462-8.1997-12.9569-12.9704-18.988-10.7884-13.6209-24.8566-22.4983-41.7438-25.5477-5.0689-.9217-6.6275-3.0766-8.5656-6.4243-2.182-3.7949-1.911-7.7524-.9759-11.8319.9352-4.0253,1.4366-8.1048-1.545-11.6015-1.7348-2.033-3.1986-4.3506-6.5734-1.6806-2.9004,2.3041-5.489.759-7.1696-2.3041-.7725-1.4095-.7048-4.0931-3.429-2.9682-2.6022,1.0842-4.8249,2.9004-4.4725,6.0854.2169,1.9788,1.2334,3.8491,1.7619,5.8008,1.0301,3.8491,3.4154,7.4271,2.5887,11.3982-7.1697.9216-11.2221-3.4832-15.0305-8.3352-1.1114-1.4232-2.3582-2.7513-3.6322-4.0253-1.9788-2.0058-4.459-3.0223-7.2509-3.2663-2.0737-.1898-3.6594.3524-3.5916,2.8055.122,4.6623-2.5886,6.763-6.9392,7.1289.8945,3.5781,3.3883,4.7166,5.8008,5.8957,1.8161.8945,3.7813,1.5451,5.489,2.6022,3.0223,1.8839,5.5162,4.2963,4.1608,8.281-1.003,2.9546-5.1503,3.7001-9.5415,2.0465-3.0495-1.1384-5.367-3.2934-7.7795-5.3264-2.1007-1.7483-4.2286-3.4289-7.0883-3.7-4.2422-.4066-5.5975,1.0707-4.0931,5.0282,1.274,3.3748.2846,5.1367-2.9817,6.0989-1.1656.3388-2.8326-.4608-3.5102,1.5722,1.3824,4.6487,5.5703,5.2993,9.5008,6.1261,3.7406.7725,7.6575.908,11.1678,2.6022,2.4937,1.2197,4.8791,2.7648,4.6487,6.0041-.2439,3.5102-3.0766,3.9711-5.8008,4.5539-3.063.6505-6.3835.4201-9.1484,2.182-2.8326,1.789-2.8055,3.7543.2711,5.1638,2.4938,1.1385,4.3099,2.277,3.9982,5.3942-.5692,5.8685.4879,6.6817,6.1803,4.7842,2.7784-.9352,5.4213-2.4396,8.2674-2.941,4.7166-.8267,10.1785-1.0029,12.8349,3.5238,5.6924,9.7313,12.3605,18.717,19.2049,27.5944,9.3246,12.0894,21.9968,19.2184,36.3633,23.3793,9.0807,2.6293,18.4053,4.4048,27.7299,6.1124,15.5319,2.8598,31.0096,6.0176,45.0508,13.7701,3.1172,1.7213,6.1803,3.5781,7.6305,7.2239-4.8115,1.3011-4.8385,1.2875-5.7737,5.733-1.2063,5.7465-1.6806,11.737-3.6865,17.1719-3.0223,8.2675-1.4637,14.3529,7.0748,18.9474,2.3311-2.4667,5.2451-4.6217,8.6469-5.8279,3.2527-1.1384,4.3641-3.3205,4.8791-6.5327.8946-5.5568,2.4396-11.0052,3.4019-16.562,2.8191-16.4129,6.3429-32.7445,6.5055-49.4963.0813-6.9392,0-6.8579-6.5733-8.7689Zm-122.5209-44.5901c-5.5975,5.2586-12.0488,7.0071-19.3133,4.5132-6.9392-2.3718-11.2356-7.2509-12.469-14.6374-1.7212-10.4088,7.6034-21.0075,18.7848-20.9939,4.2556-.3388,6.9934,1.6535,7.9422,6.1667.8403,4.093,3.1037,7.3458,5.9363,10.4088,4.8927,5.2858,4.4184,9.5821-.881,14.5426Z"/>
        <path class="cls-3" d="m416.8497,434.692c-.6505-13.5939-9.6634-25.8188-22.8371-29.7086-15.5997-4.581-30.0068-1.7484-42.286,9.189-12.6723,11.2763-14.258,30.8607-3.5645,44.0208,6.9528,8.5385,16.7382,10.8696,30.2236,11.1814,3.944.271,10.4631-1.4096,16.7382-4.1202,13.7837-5.9092,22.3222-17.9716,21.7258-30.5624Zm-29.1665,12.1979c-.1084,3.4425-1.2062,6.2887-5.0824,6.8308-3.6322.515-5.9227-1.4366-7.3322-4.6216-1.7213-3.9305-3.0359-7.9964-3.8627-12.1843-.7454-3.7271-1.3959-7.522-1.518-11.3034-.1219-3.5238,1.1521-6.8715,5.0554-7.8067,3.9846-.9487,6.1667,1.5587,7.7524,4.8928,3.2392,6.8036,4.7166,13.9868,4.9876,22.6067,0,0,.0271.7996,0,1.5857Z"/>
        <path class="cls-3" d="m488.5055,411.8684c-2.5344-6.1803-7.6576-8.8909-14.7459-7.9828-4.066.515-7.1154,2.5886-9.6227,5.6923-1.2334,1.5315-2.0601,4.0795-4.3912,3.6729-2.5887-.4473-2.0465-3.1444-2.277-5.0553-.393-3.2392-2.1007-4.9605-5.3534-4.7301-9.2976.637-18.3781,2.4396-26.5508,7.0612-5.3806,3.0495-5.3806,6.9392-.0542,10.1378,3.2527,1.9517,4.1337,4.4318,4.0253,7.8066-.0677,2.4803-.0136,4.9605-.0136,7.4408h-.1084c0,1.1249.0406,2.2634-.0136,3.3883-.2982,6.4513.4608,13.255-6.5055,17.2803-1.6671.9758-1.911,3.0495-1.6807,4.8927.5422,4.1608,3.8763,5.3535,7.2103,6.0176,10.951,2.1956,21.9562,1.9923,32.9478.1626,1.0843-.1898,2.1956-.5557,3.1715-1.0707,2.3311-1.1927,3.9846-2.9953,4.066-5.7601.0949-2.914-1.6535-4.9876-4.1473-5.5162-6.0989-1.2876-6.9392-5.5839-6.9528-10.6529,0-3.3747-.2575-6.7766-.0271-10.1378.1898-2.792-1.1114-6.4649,1.9517-8.0777,3.4154-1.7889,4.9605,2.1686,7.1832,3.7136,5.096,3.5509,11.9946,3.6729,16.9686-.0678,5.3941-4.0794,7.522-11.8997,4.9198-18.2155Z"/>
        <path class="cls-3" d="m336.5067,456.0199c-2.8514-2.5042-3.9923-5.411-4.0713-8.8416-.1552-6.7447-.0457-13.4955-.0457-20.2437l-.2916-.0005c0-6.0778.0074-12.1556-.0036-18.2335-.0044-2.3968-.3545-4.9031-3.4039-4.7925-10.911.3957-21.4329,2.7677-31.0432,7.999-3.4819,1.8952-3.3675,6.3431.282,8.2514,4.6631,2.4382,5.5033,6.0585,5.472,10.5819-.0311,4.5009.1674,9.0031.1681,13.5047.0007,5.1231-1.123,9.5876-5.5917,13.055-3.8275,2.9698-3.075,6.6714,1.1716,9.0729,2.4247,1.3712,5.169,1.5712,7.8065,2.0012,8.9877,1.4652,18.0075,1.41,26.7484-1.2498,6.9911-2.1273,8.0615-6.4857,2.8024-11.1045Z"/>
        <path class="cls-7" d="m504.2032,224.7477c-2.2518,2.4549-2.577,5.2459-3.7103,7.6468-.7808,1.6544-1.3997,3.7487-3.5962,3.4551-5.5318-.7393-9.0858,2.4933-13.0299,5.5124-4.1656,3.1886-4.7856,4.2183-2.9948,9.898,1.7454.2146,2.8866-1.0746,4.2544-1.7677,2.7131-1.3747,5.6281-2.6702,8.0891-.0763,2.735,2.8829.9198,5.848-.691,8.6573-.8409,1.4666-2.9203,2.3582-2.2272,4.5729,9.1263,1.437,15.3128-1.7675,19.2092-9.9344,4.9214-10.315,3.1784-20.061-5.3033-27.9641Z"/>
        <path class="cls-7" d="m499.0235,266.439c-4.2799,1.1292-8.4631.9286-12.6372-.5131-1.8786-.6489-3.5193-.1538-4.8553,1.3873-2.9775,3.435-4.2222,7.1621-2.4224,11.9922,3.4608-.8833,6.0809-4.3099,9.7022-1.9297,3.6868,2.4233,1.9273,6.4148,2.4718,9.6905,7.9146-1.5181,14.0705-12.7933,11.0919-19.4256-.7711-1.7168-2.0604-1.5421-3.3509-1.2016Z"/>
        <path class="cls-2" d="m531.364,146.914c-9.3956-13.286-21.3061-21.8758-40.1379-21.3812-1.9915.2729-5.8116.6418-9.5689,1.3466-6.019,1.1289-5.9767,1.2221-5.7249,7.5453.7893,19.823,1.1798,39.6496-.4881,59.446-.6805,8.0763-1.6654,16.1307-2.688,24.1727-.468,3.6796-.2929,6.4763,4.0644,7.8184,3.1952.9841,5.8177,3.2454,8.3048,5.6385,3.6493,3.5115,11.3989,1.7388,13.2887-2.8947,1.8701-4.5852,3.4946-9.27,5.318-13.8749,8.0487-20.3259,16.7646-40.3525,26.8553-59.7629,1.3155-2.5306,3.0336-4.8619.7764-8.0537Z"/>
        <path class="cls-7" d="m490.6116,291.2043c-6.5049.6946-10.6379,5.7451-16.5247,8.4077,4.9748.6499,9.7072.5276,9.2172,7.3289-.1701,2.3605,2.1264,1.6707,3.6156,1.2627,4.8558-1.3307,8.2332-6.7261,8.1787-12.7414-.0279-3.0872-1.2112-4.6079-4.4868-4.258Z"/>
        <path class="cls-2" d="m461.1451,351.3103c-.5482,2.2081-1.1585,3.9253-1.3764,5.691-.5341,4.3274-2.5879,5.3166-6.4075,3.3574-1.5946-.8179-3.3068-1.479-5.037-1.9479-10.0456-2.7232-19.9957-3.4718-29.5775,1.7688-5.0374,2.755-5.2096,3.6154-1.0088,7.7119,4.6723,4.5563,10.4129,7.1239,16.7985,8.0848,13.0857,1.9692,25.1496-.6016,35.7282-8.7943,4.4011-3.4085,4.3741-4.2353.6105-8.5144-2.5368-2.8843-5.4123-5.3747-9.73-7.3571Z"/>
        <path class="cls-2" d="m464.7951,316.7788c-2.7439-.6772-6.2683-1.1526-6.4795-4.8813-.2086-3.6828,2.8523-4.7019,5.8073-5.4567.8733-.2231,1.7653-.3976,2.6103-.7014,1.8215-.6552,4.1206-.7352,4.0473-3.6245-.0737-2.9045-1.5803-3.8619-4.3069-3.8458-1.905.0112-3.6446-.842-4.0773-2.8904-.4398-2.0823,1.0995-3.3949,2.6014-4.3595,2.8386-1.8231,5.8505-3.3742,8.7293-5.138,1.55-.9498,3.0714-2.0188,2.1993-4.3121-1.8268-4.8042-.9022-9.5858,1.0842-14.6152-3.9569-.1521-7.1502.0688-10.0738-1.3018-2.124-.9956-4.1515-2.3374-4.083-4.8699.0702-2.5956,2.1383-4.1792,4.4945-4.2862,7.5932-.3451,10.4205-4.2971,9.5619-11.5377-.0996-.8402.4512-1.7385.5706-2.6273.3892-2.8961-2.2549-2.9643-3.8445-3.9108-1.4925-.8887-3.5998-2.3784-4.821-.4422-2.9222,4.6334-7.5529,7.7141-8.9438,13.8904-6.2837,27.9031-13.7526,55.5187-22.6242,82.7341-1.0078,3.0917-2.1101,6.2126-2.1,9.8864,7.8575-.2573,15.2598-.8148,22.5563,1.2928,7.327,2.1164,12.5076,7.3834,18.3097,12.4346,4.4808-15.4351,5.0167-30.5689,6.0046-47.1042-6.3517,4.0071-11.191,7.1558-17.2226,5.6668Z"/>
        <path class="cls-3" d="m114.0209,415.3082c-3.8237-1.9779-7.8812-3.3161-11.9799-4.5912-4.0841-1.2706-8.175-2.5828-12.1181-4.2246-3.6357-1.5139-6.0794-4.2553-4.9319-8.5006,1.1558-4.2761,4.7482-4.9876,8.601-4.9258,4.5087.0723,8.284,2.0394,11.6954,4.7342,3.008,2.376,5.7714,5.0624,8.785,7.4307,3.9048,3.0684,8.3988,2.9859,10.8293-.3478,3.5612-4.8845,2.181-9.9594-.3877-14.6792-2.6666-4.9-5.3069-11.4221-11.846-10.4258-6.6502,1.0133-12.4106-.9433-18.5219-1.9873-12.7528-2.1788-24.2701.5919-34.1706,8.9661-11.5366,9.7582-12.6332,25.2169-2.956,36.7639,5.4144,6.4606,12.5189,10.2007,20.2435,13.0134,4.0213,1.4643,8.1289,2.719,12.0627,4.3866,2.8211,1.1957,5.0839,3.3768,4.6485,6.7385-.4299,3.3185-3.0785,4.7302-6.1157,5.5108-8.8024,2.2621-19.1036-1.6314-24.4285-9.2477-1.9368-2.7701-3.8673-5.5508-5.9438-8.2151-1.5797-2.0269-3.8291-2.2972-6.1346-1.5157-2.236.7577-2.931,2.7208-3.0595,4.832-.2915,4.7902.5959,9.4385,1.9638,14.0062,1.9503,6.5125,5.8239,10.9982,12.6929,12.7339,7.6793,1.9405,15.3531,3.7087,22.6501,3.4493,12.5443.3078,23.565-2.1363,32.9558-9.8597,12.9509-10.6514,15.3302-33.7704-4.5338-44.0449Z"/>
        <path class="cls-6" d="m52.6799,219.1625c4.5626-.6808,8.3721,1.2704,11.3712,4.7373,2.0671,2.3894,3.9444,4.9666,6.1899,7.1712,1.9531,1.9175,3.8752,4.4584,7.4294,3.3957-7.6755-18.976-7.496-19.7914,5.3927-25.2009.438-1.9319-.7311-3.4543-1.3784-5.0965-.6617-1.6784-1.5523-3.2705-2.1574-4.9665-1.1385-3.1911-2.7467-6.6006,1.2867-8.9767,2.8055-1.6527,6.2994-.1771,9.1502,3.6885,3.453,4.6821,5.5349,10.0025,5.2482,15.7737-.1656,3.3352.6341,5.531,3.1233,7.5946,4.202,3.4837,5.3778,8.1284,4.5826,13.4334-.5017,3.3474-.9901,6.74-.3085,10.1131.5386,2.6652,1.1886,5.4377,4.2833,6.346,4.6932,1.3777,9.4275,2.6152,14.4218,3.9885-.0034-3.4457-1.9436-5.1897-3.1836-7.2079-7.2633-11.8215-12.8028-24.3848-16.181-37.8402-3.0769-12.2551-5.6296-24.6311-7.5494-37.1248-4.221-27.4693-9.0603-54.7818-18.9498-80.9307-6.3953-16.9101-13.0512-33.7016-22.6833-49.0901-7.5425-12.0501-14.3463-12.1869-22.5206-.5103-5.4851,7.835-8.7229,16.7801-12.0424,25.6765-.8798,2.3577-.5191,3.7711,1.5165,5.0973,3.4281,2.2335,6.4579,4.9465,8.8947,8.2528,5.1781,7.0255,4.4736,12.7479-2.4549,18.1483-2.4736,1.9281-5.1695,3.8069-8.0689,4.8963-4.1538,1.5607-5.0326,4.167-4.8662,8.2988.912,22.6461,3.534,45.0404,10.2855,66.733,4.6574,14.9642,11.2648,29.012,22.2288,40.636,1.9962,2.1162,3.7641,3.4374,6.9396,2.9636Z"/>
        <path class="cls-7" d="m396.6961,209.7903c-.7725-8.3217-2.155-16.6433-5.9092-25.0463-.6506,2.6293.0949,4.3641.2439,6.1396,1.0571,13.7565,1.9923,27.4724-2.7513,40.8629-4.5945,12.9569-13.5396,20.3434-27.1877,22.2001-7.7795,1.0707-15.6404.6234-22.7965-1.8026-15.1389-5.1231-24.2466-13.0517-26.4694-29.302-.6641-4.8927-.7184-9.921-.5286-14.8679.6777-16.9685,3.5509-33.5848,8.3759-49.8893,3.0766-10.3817,5.8821-20.8313,13.0382-29.3833,1.3147-1.5721,1.0842-3.1172.1491-4.6623-1.3553-.5828-3.0495,1.396-4.4862-.8809,1.5315-3.1308,5.2452-4.3642,7.8609-7.5763-49.0355-19.8961-96.6614-16.9415-144.0434,4.1067,1.6941,3.3883,6.0176,4.1879,5.8686,8.3759-16.5485-3.9033-17.8089-3.8491-24.206,1.1249,10.5443-3.5239,16.1012-2.1279,22.9862,6.7495,6.4107,8.281,10.5986,17.714,13.4719,27.8247,3.4967,12.347,6.4649,24.843,9.7855,37.2984.0677-13.3634,5.7601-23.6232,16.4265-31.1859,16.8195-11.9268,42.042-10.5715,60.5015,2.1956,11.0729,7.6576,15.2473,24.9108,12.2385,34.9266-2.4667,8.2132-6.7088,15.288-12.496,21.4547-19.991,21.3463-46.6366,20.1672-65.2045-3.2392-4.093-5.1638-6.6681-11.1678-10.6799-17.7412,0,5.855.0407,10.3682,0,14.8815-.0948,9.5821-3.8762,17.4565-11.0052,23.8265-11.5744,10.3411-25.1412,13.7294-40.2529,11.4525-12.6859-1.8974-20.7365-9.9616-25.1277-21.2107-4.1879-10.7612-5.8279-22.2679-5.1909-33.9373.2575-4.9198.6912-9.8396,1.0572-14.8408-1.3146.3388-1.64,1.2063-1.8432,2.033-4.7166,19.0829-5.7872,38.4098-2.8868,57.8044.5963,4.0253.1626,8.8096,3.5102,12.0894,4.2693,4.188,8.769,8.1455,13.2686,12.2928,2.3041-2.2498,2.0736-5.7601,5.3806-6.6681,1.0572,4.8249,4.5268,3.0766,7.3594,2.548,18.446-3.456,36.2955-9.2297,54.3619-14.1767,11.0865-3.0359,22.2543-5.8279,33.7068-7.007,29.2477-3.0359,57.5062,3.5238,85.724,9.6634,10.3817,2.2498,20.7228,4.4725,31.2537,5.8279,4.974.6505,5.0011.515,5.7737-4.6216,3.7271,1.8296,3.334,6.6817,6.3699,9.1619,3.0089-2.8597,5.5569-5.7872,8.5792-8.0777,3.9575-2.9953,5.2722-6.8309,5.8414-11.5745,1.518-12.4147,1.0707-24.8023-.0677-37.1493Zm-111.7461-56.7744c-11.5202-2.819-23.0404-5.7194-34.791-.9487,6.3971-9.4058,24.9514-8.8366,34.791.9487Zm-43.7768,8.9452c9.9074-12.618,32.8665-13.6481,47.2193-1.2876-16.9008-5.8821-32.2159-6.492-47.2193,1.2876Z"/>
        <path class="cls-8" d="m298.834,211.0612c.9144.6322,1.7861,1.3313,3.3355,2.4931,2.7326-5.9577,4.5457-11.4763,4.8455-17.3965.0588-1.1596-.2683-2.383-.6489-3.4775-2.6151-7.5215-6.878-13.7469-13.3479-17.891-11.8556-7.5935-24.944-8.9495-38.7275-6.1587-8.1451,1.6492-15.7562,4.5079-22.0127,10.9538-9.0644,9.3387-8.8421,19.7099-5.1145,29.9901.6092,1.68,1.3905,2.2438,3.3017,1.2043,6.2884-3.4205,10.3908-1.7418,12.9892,4.9373,1.7148,4.4074,2.6921,9.0605,3.505,13.752.6418,3.7041,2.5485,5.863,5.8392,7.2645,6.2443,2.6595,12.3284,2.5753,18.9123.1888,5.1132-1.8533,8.6383-4.389,10.019-10.239,1.1936-5.0571,3.366-9.8107,6.7652-13.8428,3.1561-3.7438,6.6003-4.363,10.3391-1.7783h-.0003Z"/>
        <path class="cls-8" d="m68.5445,259.0882c-1.0127,1.32-3.0356,4.4254-3.1095,8.7907-.0816,4.8174,2.2618,8.1277,2.9764,9.1064,3.7711,5.1653,9.4214,6.1196,10.4206,6.271,1.0707.1622,7.1507.9705,12.062-3.1143,2.1482-1.7867,5.6297-5.8045,4.5697-9.0353-.6987-2.1295-2.6474-1.7132-5.6732-5.2819-.8848-1.0436-2.6882-3.2147-3.5213-6.3579-.9458-3.5687.3223-4.7568-.6847-5.9666-2.2724-2.7301-12.1486-.7878-17.04,5.5878Z"/>
        <path class="cls-7" d="m101.2348,186.0985c3.5105,20.4283,9.1574,39.9561,20.221,57.6403,2.4758,3.9574,5.1965,7.8134,9.5947,10.6961,1.0133-1.8479.5536-2.9536.423-4.0432-2.2158-18.4849-2.2647-36.8946,2.0003-55.1384.8229-3.5202.0375-6.759-1.5344-9.8063-9.7919-18.9832-19.3923-38.0814-31.6684-55.6489-3.1836-4.556-6.5169-9.0074-9.89-13.6567-1.6092,1.9262-.8166,3.4292-.4598,4.8457,5.3948,21.4199,7.5831,43.4027,11.3136,65.1114Z"/>
        <path class="cls-1" d="m217.184,209.8716c-1.1656-14.2444-4.3777-28.1093-8.9451-41.5812-3.1037-9.1484-6.5327-18.3104-12.0895-26.3746-5.9905-8.7011-13.8107-10.463-22.8507-4.9876-9.4737,5.7601-16.7111,13.9192-21.658,23.6775-6.8443,13.4854-9.8125,28.0416-9.5686,41.771-.1626,9.3788.6641,17.2261,2.7378,24.8837,2.9816,11.0458,8.1184,20.6551,19.1913,25.5749,23.691,10.5037,51.8681-6.4513,53.4538-32.1482.2168-3.578.0136-7.2238-.2711-10.8154Zm-6.1938,18.8525c-5.0689,6.5055-11.1271,11.7776-18.9473,14.8543-11.3983,4.4725-22.6339.881-28.4481-9.8667-6.0312-11.1543-9.0535-23.0811-6.7766-35.9025,2.1007-11.8048,8.7011-20.0723,19.6114-24.9378,2.4938-1.1249,5.1502-1.667,7.9015-1.6535,7.6305.3118,13.3634,4.0795,17.3209,10.314,7.6712,12.1166,10.3005,25.8866,12.2386,39.8057.4066,2.9139-1.2469,5.2586-2.9004,7.3865Z"/>
        <path class="cls-7" d="m332.9647,123.9767c-.093-.0761-.1885-.1427-.2789-.2277.0624.0948.113.1895.1702.2842.0061.0026.0126.0034.0187.0061.0301-.0229.0599-.04.09-.0626Z"/>
        <path class="cls-7" d="m337.6723,124.5729c5.6122-2.4975,11.0965-1.8751,16.594.3768-6.9623-4.084-13.9821-6.4807-21.3016-.973,1.4264,1.1668,3.1333,1.2969,4.7076.5962Z"/>
      </g>
    </g>
  </g>
</svg>