<svg xmlns="http://www.w3.org/2000/svg" width="376.8" height="274.8" viewBox="0 0 376.8 274.8">
  <g id="katman_2" data-name="katman 2">
    <g id="katman_1-2" data-name="katman 1">
      <g>
        <path d="M370.4,116.8c-7.3-5.7-30.5-11-50.8,2.8,6.9-31.8-5.5-68.8-39.6-92.9A136.9,136.9,0,0,0,237.2,7.1a42,42,0,0,0-15-6c-10.1-2.3-20.3-.6-23.3.8l.9.3c-16.2.3-30.3,7.9-33.7,11.4l5.4-1.8-1.1.8-1.1.6h.1a55,55,0,0,0-8,6.6c-3.1,1.7-5.4,3.3-6.3,4.7l2.9-1.2c-7,8.1-13.2,19.1-19.2,34.5-4.4-1.8-17.1-3.2-31.1-3.9C101,41.3,91.7,11,89.9,1.7c-1.5,9,7.2,40.9,14,52-11.2-.5-22.9-.6-31.8-.3C63.1,43.5,49.9,11.6,46.7.5c-.2,15,12.2,42.5,21.6,53l-3.9.3c-6.6-2.8-13.3-3.4-19.6-.5S32.4,62.4,29.5,69.7C19.1,60.9,3.6,37.9,0,22.3.3,41.2,18.4,66.6,28.3,72.9c-8.1,26.7,8.2,69,30.4,82.8a75.5,75.5,0,0,0,7.4,13c-31.5,15-15.6,65-5.9,80.3s42.7,35.5,75.3,20.2c10.5-4.9,22.8-15.9,35.7-28.5,5.5,5.4,12.3,11.4,19.5,15.4-3.9-4.1-11-11.3-17-17.8,8.1-8,16.5-16.6,24.9-24.6,10.3,7.3,33.9,19,41.5,21-5.1-3.6-28.4-16-38.7-23.7l4.5-4.1c16.6-15.1,35.6-25.1,39.3-27.4,14.3,3.7,28.7,7.1,28.7,7.1s-11.1-4.4-24-8.8c13.8-4.2,41.1-13.6,50.2-20.4-.2,8.5,2.1,19.8,14.9,23.3s41.3-6.9,53.5-23.6S377.8,122.5,370.4,116.8Z"/>
        <path d="M141.2,197.4a91.8,91.8,0,0,0,25.7-8.7A313.3,313.3,0,0,0,194,210.5c-8.1,8.1-15.9,16.5-23.6,24.4A289.5,289.5,0,0,1,141.2,197.4Z" style="fill: #fff49c"/>
        <path d="M170.4,186.9a111.6,111.6,0,0,0,27.3-21.7c12,4.2,25.7,8.5,39.6,12.4a106.5,106.5,0,0,0-12.3,6.7c-9.9,6.4-19.2,14.6-28.2,23.4C187.1,200.8,178.3,193.8,170.4,186.9Z" style="fill: #fff49c"/>
        <path d="M252,135.8c16.3,10,4,27.2-7.6,38.8l-1.9.7c-14.5-4-29.2-8.3-42.7-12.6a88.3,88.3,0,0,0,16.9-29.5C230.2,131.1,244,130.9,252,135.8Z" style="fill: #fff49c"/>
        <path d="M260.2,124.8a26.7,26.7,0,0,1-3.2,4.3,39.7,39.7,0,0,1-2.9,2.9l-.9-.4A56.9,56.9,0,0,0,260.2,124.8Z" style="fill: #ff8e42"/>
        <path d="M255.6,125.3a39,39,0,0,0,9.2-11.4c-.5,1.6-1.1,3.4-1.9,5.3A50.6,50.6,0,0,1,255.6,125.3Z" style="fill: #ff8e42"/>
        <path d="M249.1,129.8Z" style="fill: #fff"/>
        <path d="M263.9,146.9a5.9,5.9,0,0,1-.2-1.4l1.7-.5a23.6,23.6,0,0,0,11-6.1,18.7,18.7,0,0,1-5.8,4.9A36.7,36.7,0,0,1,263.9,146.9Z" style="fill: #ff8e42"/>
        <path d="M261.2,159.2l4.3.5a11.5,11.5,0,0,0,3.2.2,74,74,0,0,1-8.7,1.7Z" style="fill: #ff8e42"/>
        <path d="M315.7,175.2c-7.9-2.5-10.9-13.6-10.7-21.8a68.7,68.7,0,0,0,7.7-8.3c9.5.4,20.1,6.2,23.6,16.4,2.2-7.2-10.2-19.8-21.8-18.9v-.2c14.6-2.5,52.4-3.5,42,20.2C343.1,172.5,324.8,178.1,315.7,175.2Z" style="fill: #fff49c"/>
        <path d="M312.2,77.2l.2.5c-.2.8-.3,1.6-.5,2.5C312.1,79.2,312.1,78.2,312.2,77.2Z" style="fill: #ff8e42"/>
        <path d="M308.4,67.8c0,1.1-.1,2.2-.1,3.3-.1,3.5-.3,7.1-.7,10.6a62.5,62.5,0,0,0-.8-8.5,110.7,110.7,0,0,0-2.3-12.8C305.9,62.8,307.2,65.2,308.4,67.8Z" style="fill: #ff8e42"/>
        <path d="M216.5,19.6a54,54,0,0,1,19,15.2,135.3,135.3,0,0,1,4.7,26.6,102.6,102.6,0,0,1,.2,16.6c-5.4,12.8-13.3,26.8-20.6,32.8-9.8,2.8-29.8,5-37.2,4.5-2.1-9.6-19-36.3-35.4-51.1C151,53.1,158,35.9,172.5,23.3c7.8-1.7,18-3.5,26.6-4.9A116,116,0,0,1,216.5,19.6Z" style="fill: #fff49c"/>
        <path d="M161,26.7a30,30,0,0,1,5.1-1.7c-9.4,9.6-18.1,26-22,36.6l-2.7-2.1C146.3,49,151.7,37.3,161,26.7Z" style="fill: #ff8e42"/>
        <path d="M176.2,18.4h0Z" style="fill: #fff"/>
        <path d="M173.8,18.9a6,6,0,0,0-1.5.9,37.4,37.4,0,0,0-8.2,3.5l3-2.8Z" style="fill: #ff8e42"/>
        <path d="M135.5,59.4c7.4,4.1,37.3,40.4,43.9,59,16.5,3.8,39.4-1.9,45.2-6.2a92.4,92.4,0,0,0,13.9-19.1c-.7,4.2-1.4,7.4-1.8,9.3,1.4-1.7,3.2-5.6,4.7-10.7-.1,1.2-.3,2.3-.3,3.1a43.1,43.1,0,0,0,3.9-9.5,8.9,8.9,0,0,0-.2,1.5l.3-.5c-.5,1.7-.8,3.1-1,4.1a4.3,4.3,0,0,0,.7-1c-2,4.7-3.8,8.4-4.4,10.5,4.1-4.2,14.8-20.2,18.5-39s-3.6-38.4-9.4-40.4c1.2,1.4,2.6,4.3,3.9,8.1-2.1-5.1-4.9-8.8-7.2-9.2,2.3,1.7,3.8,7.2,4.9,14.1-2.8-6.3-6.8-10.8-8.9-11.6.5,1.4,1.8,3.8,3.1,6.8-3.8-6.1-8.1-10.2-10.7-10.8,3.3,3.7,12.9,17.7,14.2,34.4.2,1.1.3,2.2.4,3.3a51.7,51.7,0,0,0-1.1-5.4c-3.1-15.9-12.1-30-16.8-31.9a102.1,102.1,0,0,1,7.3,15.1q1.1,3.3,2.1,7.2c-2.9-9.5-6.8-16.7-10.1-18.3a31.1,31.1,0,0,1,3.1,6.9,39.6,39.6,0,0,0-10.3-8.5l5,.9c-1.3-1.6-5.1-3.4-10.1-4.9,5.2.5,9.3,1.1,11.5,1.2a24.6,24.6,0,0,0-5.7-2.5c3.4.6,6.1,1,7.5,1.1a11.6,11.6,0,0,0-2.7-1.7c2.5.6,4.5,1.3,5.7,1.7-2.6-4-17-9.6-31.9-9.6a80.2,80.2,0,0,0-17.3,1.2h.1q3.6-.7,7.5-1.2a93,93,0,0,1,15.8.1c14.2,1.5,26.3,7.9,30.1,9.9-.8-1.6-3.4-3.9-7.1-6.2,17.6,4.4,35.9,12.5,51,24.9a98.5,98.5,0,0,1,11.1,26c9.9,29,1.8,59.4-2.5,67.9,6.8-6.9,16.8-39,6.6-69.1a88.8,88.8,0,0,0-6.2-16.6,81.7,81.7,0,0,1,6,7,135.6,135.6,0,0,1,4.8,23c3.7,23.4-4.1,46.1-7.6,52.8,2.7-2.2,6.1-8.4,8.8-16.7.6-1.4,1.3-2.9,1.9-4.5-1.5,5.2-2.8,9.4-3.4,11.7,3.1-3.8,8.8-15.9,12.5-30.4.2,1.3.5,2.5.7,3.8-4,15.2-12.3,27.2-15,31.7,3.6-2.3,11.1-11,16.2-22.9a143.6,143.6,0,0,1-.7,27.6c9.5-9.2,37.5-16,52.5-6.9,7.2,4.3,7.4,24.2-5.3,37L361,159c5.2-14.4-10.2-27.3-47.9-18.8-18.1,20.8-39.2,24.2-61.3,31.7a48.5,48.5,0,0,0,6.1-7,55.7,55.7,0,0,0,14.4-2.1c11.9-2.9,18.4-14.6,18.4-18.1-1.5,1.6-4.3,5.5-8.5,8.9a5.9,5.9,0,0,0,.8-1.6c-2.7,1.2-9.1,5.3-17.3,4l-3.1-.3c.2-.5.3-1,.5-1.6a47.8,47.8,0,0,0,8.5.1c9.1-.3,17.3-5.9,18-8.8-2.6,1.1-9.8,4.7-18.4,5.1l-7.5.3v-.2a37,37,0,0,0,8.9-3.6c10.2-6,11.6-18.3,11.1-21.2-.7,1.1-1.6,3.4-3,6.1s-8.3,7.6-16.3,9.6l-1.6.4-.3-.8,3.3-1.2c10-3.4,17.8-12.3,17.6-16a48.6,48.6,0,0,1-19,12.6l-3.7,1.3a24.1,24.1,0,0,0-3.5-3.7,21.3,21.3,0,0,0,2.6-2.6c7.8-8.7,7.7-20.4,7.2-23.2a5,5,0,0,0-.8,1.5,2.5,2.5,0,0,0,.1-.8c-2.3,3.2-8.9,11.9-18.8,17.4l-3.4,2c-17.9-3.8-41.7,2.1-58.9,10.1-3.3-5.8-14.7-11.2-30.5-13.5-1-2.9-2.6-5.2-4.2-5.3a28.4,28.4,0,0,1,1.7,5,107.9,107.9,0,0,0-20.7-.5c-2.2-3.5-5.3-5.9-7.4-5.7a23.1,23.1,0,0,1,4.3,5.9,128.4,128.4,0,0,0-23.4,4.5c.1-.3.1-.6.2-.9,4.2-21.4-13.7-56.9-34.7-70.8C87.6,57.8,129,59.7,135.5,59.4Z" style="fill: #ff8e42"/>
        <path d="M68.2,159.7c13.7,3.1,30.4-11.8,35.8-27.2a122.2,122.2,0,0,1,26-4.1c1.4,4.4,1.9,9,.8,12.2,3.6-3.5,3.9-8.2,2.6-12.3a130.3,130.3,0,0,1,19.8.6c.7,3.5,1,6.9.3,9,2.3-1.4,2.8-5,2.3-8.6,12.6,1.7,23.4,5.6,27.9,12.7a157.2,157.2,0,0,1,29.7-8.3c-3.3,8.3-9.7,18.1-18.4,27.4-14.5-4.6-27.2-9.2-36.1-13.1-.9-.1-1.5,1.2-1.1,1.9,3.4,1.7,16.9,7.2,35,13.6a113.2,113.2,0,0,1-26.5,19.8c-7-6.2-13.2-12.4-18.6-18.2-1.7-1.8-2.9.4-2.6.7,3.4,4.8,9.6,11.6,17.7,19.2a88,88,0,0,1-24.7,7.8l-6.9-11.3c-.4-.4-1.5,0-1.4.4s2.9,5.7,6,11.2a90.8,90.8,0,0,1-9.1.5c-31,0-52.1-15.4-63.5-35.6A22.7,22.7,0,0,0,68.2,159.7Z" style="fill: #fff49c"/>
        <path d="M69,172.6c10.6,13.1,28.5,26.4,57,26.3a88,88,0,0,0,12.6-1.1,251,251,0,0,0,29.3,39.7c-17.2,17.1-34.2,30.8-53.4,30.8-60.1,0-67.8-62.1-56.1-86.4C61.1,176.5,65.9,174.1,69,172.6Z" style="fill: #fff49c"/>
        <path d="M217.7,55.2c4.1,5.5.8,19-3.4,23.1C222.8,74.9,224.5,55.7,217.7,55.2Z"/>
        <path d="M184.5,44.7c7.5-4.1,14.2-4.9,17.2-2.3C200.9,35.3,188.6,36.5,184.5,44.7Z"/>
        <path d="M185.6,77.7a8.1,8.1,0,0,1,2.3,8.5c-1-2.1-5-3.2-9.5-2.4s-8.6,3.7-8.2,6.4,4.9,4,9.9,3.1a11.7,11.7,0,0,0,7.1-3.6C191.3,87,190.7,80.3,185.6,77.7Z"/>
        <path d="M174.1,70.9c2.5-3.4,1.9-8.8-4-11.1,2.8,2,4.1,5,3.4,7.8-1.5-1.6-5-2.3-8.7-1.5s-8.1,3.9-7.6,6.6,4.9,3.9,9.6,2.9S173.2,72.9,174.1,70.9Z"/>
        <path d="M44.3,57.3C14.9,73.4,41.2,150.7,68,155.9c12.4,2.4,31.3-15.6,33.4-27.9C106.2,98.9,68.9,43.8,44.3,57.3Z" style="fill: #fbc6d8"/>
      </g>
    </g>
  </g>
</svg>
