<svg xmlns="http://www.w3.org/2000/svg" width="314.8" height="437.7" viewBox="0 0 314.8 437.7">
  <g id="katman_2" data-name="katman 2">
    <g id="katman_1-2" data-name="katman 1">
      <g>
        <path d="M313,346.5c-7.3-12.5-23.1-14.9-30.2-11.6a21.8,21.8,0,0,0-6.8,4.9c-2.1-20.5-14-37.9-25.7-46.3,5.4-22.9-8.2-44.7-10.7-56.9a23.1,23.1,0,0,0,10.1-6.9,44.3,44.3,0,0,1-3.9-7.1l15-9.3c9.3-5.8,19.9-15.4,19.7-30.5-.1-10.9-10.8-20.3-20-25.6,1.5-4.1,1.2-9.6-2.5-9.6s-11.5-.5-15.6-2.4c2.9-2.3,4.8-5.1,4.8-8.4,0-6.8-7.9-10.8-13.5-12a19.9,19.9,0,0,0,.4-4.2c0-8.7-5.9-17.1-6.7-21.7s2.9-13.1,3.1-26.6A41.4,41.4,0,0,0,226,52.5c8.5.6,18.3-4.2,19.9-14.9,1.8-12.2-9.2-17.6-14.7-18.1-9.8-.8-19.8,3.3-25.6,11.3-15.5-10.5-38-10.9-49.5-6.1-1.7-2.5-3.1-8.9-5.3-13.9S142.7-.4,134.9,0C121.6.8,117,10.7,118.1,19.8c.9,7,7.3,14.2,15.9,16.6-7.7,6.6-12,12.8-15,20.1-1.7,4-1.9,13.7-2,20.2-10.9,5.4-19,15.9-19,26a53.3,53.3,0,0,0,1.5,11.1c-3.5,1-9.5,4.4-10.8,9.4-3,0-6.7.7-7.9,1.8a16.8,16.8,0,0,0-2.6,3.5c-15.1,5.5-36,16.2-49.8,28.6S5.8,181.8,1.6,195s.6,26.5,9.6,30.9c4.1,2.1,12.9,3.2,18.9-1.7s12.3-13.9,16.4-17.8c10.6-10.3,21.2-18.3,41.1-26.4a22.1,22.1,0,0,0,3.6,2.3c4.6-1.9,8.3-4,11.5-4.7-3.2,11-10.9,19.6-17.1,26.3-4.4,4.6-8,8-8.7,10.8S79,226,86.6,230c-7.2,25.3-8.3,60.2,7,85.1-1.2,16.3,9.1,54.3,33.7,75.1-.9,4.1-.8,7.4.8,10.3-8.3.5-16.4,7.8-16.2,16.2.2,10.9,6.7,20.7,26.3,21s37.4-23,35.2-40.3c-1.7-12.9-10.8-26.1-14.7-39.5,20.8,3.4,46.3-2.6,58.8-13.1,5.1,5.5,12.2,10.4,19.4,12.4,10.3,16.9,34.6,40.2,47.7,37.8C301.6,391.8,320.8,360,313,346.5Z"/>
        <path d="M246.7,230.2c-5,4.6-14.6,6.3-20.4,6.9l3.4-3.3c3-2.8,8.4-6.4,14.2-10C244.6,226.2,245.7,229.1,246.7,230.2Z" style="fill: #e03a3e"/>
        <path d="M278.2,182.9c.1,14.6-10.4,22.5-19.7,28.3s-24.6,15.4-30.6,21-16.2,16.6-26.3,15.9c-13.8-.8-20.9-13-17.3-29.2,2.8-12.4,13.2-23.7,24.6-31s28.8-14.6,32.6-22.5a76.6,76.6,0,0,1-14,9.5c4.7-7.8,14.2-17,21.3-20.9C256.9,156.3,278,168.9,278.2,182.9Z" style="fill: #ffc758"/>
        <path d="M117,78.7c-.1,1.7-.1,3-.2,3.8,2-4.6,2.8-20.1,5.1-25.4,6.6-15,16.7-23.5,28.6-29.7a40.2,40.2,0,0,0-14.7,7.5c-8.5-2.4-14.2-10-15-16.2A14.7,14.7,0,0,1,134.9,1.9c7.6-.4,11.3,4.9,13.6,10.1s4.4,11.2,6.2,13.4a9.5,9.5,0,0,0-1.7,1c13.9-4.9,45.3-3.6,63.3,15.2a39.3,39.3,0,0,0-9-9.6,26.4,26.4,0,0,1,23.5-10.2c6.5.5,13.6,5.6,12.1,15.5s-11.4,14-18.2,13a13,13,0,0,0-4-4.1A47.6,47.6,0,0,1,227.6,72c-.2,13.4-3,22.6-2.2,27.2s5.6,12.4,5.6,21.1-4,16.9-7.3,22.1h-.1c-10.9,4.4-30.5,9.6-46.6,13.9-5.3,1.4-18.3,5.2-28.3,11.4a79.9,79.9,0,0,0-7.4-6.5,39.6,39.6,0,0,1-4.2-10.5c-.7,2.3-.2,5.6.9,8.1-8.7-6.2-18.1-11.5-23.3-16.4l-4.9-4.7c-3.8-7.9-8.7-24.9-8.7-35.3S110.7,82.8,117,78.7Z" style="fill: #ffc758"/>
        <path d="M44.4,204.7c-4.1,3.9-10.8,12.6-16.2,17s-12.5,2.8-15.9,1C4,218.7.2,207.2,3.9,195.9c4.2-13.3,12.7-24.4,26.6-36.8S63,136.9,77,131.3c-2.6,6.5-3.5,15.9-1.9,25.1s6,18.2,10.8,22.2C66.1,186.6,55,194.4,44.4,204.7Z" style="fill: #ffc758"/>
        <path d="M79.5,214.7c.8-2.3,5-5.2,9.2-10,8.2-9.5,14.7-17.2,16.9-30.9.8-5.6-3.2-15.9-3.3-19.7s1.3-6.7,3.3-10.3a12.5,12.5,0,0,0-5.8,10.7c.1,3.7,4.8,13.6,3.8,19.1l-.3,1.5A33.7,33.7,0,0,0,91,179.2c-6.4-3.2-11.2-12-13.2-23.3-2.3-12.9-.4-24.1,3.7-28.3,1.2-1.2,4.5-1.8,6.9-2,0,11.1,15.2,13,22.5,22.2-3.2-10.4-19.8-12.2-19.2-23,.2-3.4,4.4-7.1,8.3-8.9a161,161,0,0,0,5.8,17.4c-2.7-3.4-4.6-6.9-4.3-10.6-3.3,8,8.5,18.2,12.1,21.6,7.1,6.8,26.6,17.1,33.8,24.3a29.2,29.2,0,0,0-8.6,8.1c12.2-10.5,29.3-15.7,38.4-18.1,16-4.3,36-10,46.9-14.4,8.3-3.3,13.5-8.9,10.2-14.1,1.1,4-2.2,8-7.6,10.9a49.8,49.8,0,0,0,6.6-14.1c3.6,1,10.8,4.8,10.6,10.1s-8.1,10-14.4,11.9-21.7,6.5-27.4,12.4c9.6-5,21.2-8.1,28.4-10.3a43,43,0,0,0,10.1-4.4c4.3,2.3,14.1,3.9,16.9,3.9s1.7,3.7,1.2,5.7a44.5,44.5,0,0,0-7.8-3.3c2.6-1.1,4.8-1.3,6-.1-2.6-6.9-24.4,7.2-31.6,23.2-5.3,2.8-10.6,5.3-15.1,7.8-2.1-6.5-2.2-16.8-1.1-23.6-2.9,6.9-3.2,18.9-.6,24.6l-1.1.7c-2.8-2.1-7.5-8-7.6-14.5a14.6,14.6,0,0,0,6,15.5c-11,7.5-21,19.9-23.7,31.9a35.2,35.2,0,0,0-.3,15.1c-13.1-2.7-56.6-16.2-66.1-17.8s-29.3-4.6-31.9,1.2c-.8,1.8,1.7,3.7,3.2,3.7-.6-.4-2.1-1.5-1.5-3.2s3-1.8,6.3-2a122.8,122.8,0,0,0-4.6,12.3C82.7,224,78.5,217.3,79.5,214.7Z" style="fill: #e03a3e"/>
        <path d="M137.9,434.3c-19.4-.7-23.2-9.2-23.2-17.6s9.1-15.7,19.4-15.2a11.7,11.7,0,0,0-4.1-1,32.3,32.3,0,0,1-.7-8.7,55.9,55.9,0,0,0,8.2,5.5c-32.8-26.1-41.4-67.1-41.9-79.1,13.2,21.4,39.5,35.1,60.6,39.3,4.4,17.7,13.4,27.9,15,40.3S158.8,435.1,137.9,434.3Z" style="fill: #ffc758"/>
        <path d="M158.4,354.8c-21.9-3.8-46.7-16.6-62.2-40.2-18.5-28.4-12.7-76.6-2.4-99.3,6.8-.1,16.1,1.4,21.2,2.4,10.5,2,55.6,15.9,67.4,18.2,2.5,8.4,8.9,14.5,19.3,15.2,8.8.6,16.7-6,22.5-11.7a48.1,48.1,0,0,0,13.5-2.1c2.2,10.1,13.8,35.1,10.5,54.8a24.8,24.8,0,0,0-9.8-4c-13-1.8-28.6,26.8-28,42.8.1,3.7,2.3,8,5.7,12.2C202.1,352.6,178,358.2,158.4,354.8Z" style="fill: #ffc758"/>
        <path d="M232.2,346.2a27.6,27.6,0,0,0,3,8c-7.7-3.8-22.1-14.7-22.4-23.4-.4-14.5,14.1-42.3,25.3-40.8,14.2,2,33.2,27.3,36.3,51.5a32.2,32.2,0,0,0-8.1,20.2c3.7-12,11.3-21.9,17.7-24.4s17.8-1.8,24.8,7c-6.7-2.9-17.3,3.7-25.9,16.6-5.8,8.8-11.4,24.2-5.3,30.2C261.4,385.6,236.9,356.7,232.2,346.2Z" style="fill: #ffc758"/>
        <path d="M284.2,391.9h-1.5c-10.5-3.2-4.3-19.9,2.3-29.8,9.6-14.4,20.4-20.3,26.2-14.2C316.9,359.8,299,389,284.2,391.9Z" style="fill: #e8af10"/>
        <path d="M142.5,100.8c-4.6-8.9-17.3-11.2-19.6-7.7C128.6,91.3,139.2,96.9,142.5,100.8Z"/>
        <path d="M141.9,90c-4.4,0-4,7.5-.2,7.5S145.8,90,141.9,90Z"/>
        <path d="M194.5,108c3.8,0,4.1-7.3.2-7.3S190.7,108,194.5,108Z"/>
        <path d="M159.1,99.7a7.4,7.4,0,0,0-4.7,5.7c-.6,4.6,4,10.2,9.9,11.7,3.7.9,12.5-2.2,13.5-8.4a6.8,6.8,0,0,0-2.6-6.2,52.3,52.3,0,0,1,13.4,6.6c-1.6-2.9-6.8-6.2-13.3-8.4-1.8-8.9,4.5-19.4,13.8-24.8-11.4,3.1-17.5,15.3-15.4,24.3-8.9-2.7-19.9-3.3-27.9,1.3A37.9,37.9,0,0,1,159.1,99.7Z"/>
        <path d="M176,108.5c-.8,4.7-8.5,7.2-11.2,6.5s-9.2-4.4-8.5-9.8c.4-3.7,5.5-5.4,10.6-4.6S176.7,104.5,176,108.5Z"/>
        <path d="M212.4,109c-4.3-4.6-19.7-2.5-21.1,2.9C195.8,107.8,208.4,107.2,212.4,109Z"/>
        <path d="M217.1,89c4.7-8.1-10.5-18.9-12.3-10.9C210.4,77.4,217.8,83.3,217.1,89Z"/>
        <path d="M146.6,67.4c-3.6-6.5-16.2-2.1-16.4,8.4C131.7,70.5,140.1,65,146.6,67.4Z"/>
        <path d="M136.5,187.9c5.9.8,22.2,3.4,29.2,6.8-3.2-4.6-19.7-7.6-29.1-8.5-6-.7-15.8-1.6-19.4-4.1C120.4,186.8,131.9,187.2,136.5,187.9Z"/>
        <path d="M158.5,179c-16.6,4.9-28.4-1.2-32.2-8C127.3,182.3,148.9,185.7,158.5,179Z"/>
        <path d="M191,132.9c-1.5,2.2-7.3,10.3-12.2,13.3-15.3,9.2-39.2-2.5-45.2-20.3a31.1,31.1,0,0,1-1.2-7c2.8-.1,5.4-2,5.4-4a8.7,8.7,0,0,1-6.1,1.8c-2.6-.2-6.2,1.1-5.9,4.7,1.1-1.7,2.6-2.7,5.4-2.6-.2,14.8,13,43.6,27.8,42.2,12.4-1.3,26.9-17.4,33.2-27.5a21.3,21.3,0,0,1,5.5,3.3c-.1-2.4-2.1-3.9-4.9-5.4a8.4,8.4,0,0,1-3.9-4.4A5.8,5.8,0,0,0,191,132.9Z"/>
        <path d="M158.9,159c-5.2.6-10.3-3.3-14.6-9.1,5.1-.8,14.5,2.5,17.5,8.6Z" style="fill: #f287b7"/>
      </g>
    </g>
  </g>
</svg>
